<?xml version="1.0" encoding="UTF-8" standalone="no"?>
<!DOCTYPE svg PUBLIC "-//W3C//DTD SVG 1.1//EN"
 "http://www.w3.org/Graphics/SVG/1.1/DTD/svg11.dtd">
<!-- Generated by graphviz version 2.43.0 (0)
 -->
<!-- Title: hedag_v2 Pages: 1 -->
<svg width="2085pt" height="338pt"
 viewBox="0.00 0.00 2085.00 338.00" xmlns="http://www.w3.org/2000/svg" xmlns:xlink="http://www.w3.org/1999/xlink">
<g id="graph0" class="graph" transform="scale(1 1) rotate(0) translate(4 334)">
<title>hedag_v2</title>
<polygon fill="white" stroke="transparent" points="-4,4 -4,-334 2081,-334 2081,4 -4,4"/>
<g id="clust1" class="cluster">
<title>cluster_layer_0</title>
<polygon fill="none" stroke="#d1d5db" points="1084.5,-169 1084.5,-322 1266.5,-322 1266.5,-169 1084.5,-169"/>
<text text-anchor="middle" x="1175.5" y="-306.8" font-family="Times,serif" font-size="14.00">layer 0</text>
</g>
<g id="clust2" class="cluster">
<title>cluster_layer_1</title>
<polygon fill="none" stroke="#d1d5db" points="8,-8 8,-161 295,-161 295,-8 8,-8"/>
<text text-anchor="middle" x="151.5" y="-145.8" font-family="Times,serif" font-size="14.00">layer 1</text>
</g>
<g id="clust3" class="cluster">
<title>cluster_layer_2</title>
<polygon fill="none" stroke="#d1d5db" points="520,-8 520,-161 807,-161 807,-8 520,-8"/>
<text text-anchor="middle" x="663.5" y="-145.8" font-family="Times,serif" font-size="14.00">layer 2</text>
</g>
<g id="clust4" class="cluster">
<title>cluster_layer_3</title>
<polygon fill="none" stroke="#d1d5db" points="1032,-8 1032,-161 1319,-161 1319,-8 1032,-8"/>
<text text-anchor="middle" x="1175.5" y="-145.8" font-family="Times,serif" font-size="14.00">layer 3</text>
</g>
<g id="clust5" class="cluster">
<title>cluster_layer_4</title>
<polygon fill="none" stroke="#d1d5db" points="1544,-46 1544,-199 1821,-199 1821,-46 1544,-46"/>
<text text-anchor="middle" x="1682.5" y="-183.8" font-family="Times,serif" font-size="14.00">layer 4</text>
</g>
<g id="clust6" class="cluster">
<title>cluster_layer_5</title>
<polygon fill="none" stroke="#d1d5db" points="1917,-46 1917,-199 2069,-199 2069,-46 1917,-46"/>
<text text-anchor="middle" x="1993" y="-183.8" font-family="Times,serif" font-size="14.00">layer 5</text>
</g>
<!-- op0 -->
<g id="node1" class="node">
<title>op0</title>
<path fill="#e5e7eb" stroke="black" d="M1246.5,-290.5C1246.5,-290.5 1104.5,-290.5 1104.5,-290.5 1098.5,-290.5 1092.5,-284.5 1092.5,-278.5 1092.5,-278.5 1092.5,-189.5 1092.5,-189.5 1092.5,-183.5 1098.5,-177.5 1104.5,-177.5 1104.5,-177.5 1246.5,-177.5 1246.5,-177.5 1252.5,-177.5 1258.5,-183.5 1258.5,-189.5 1258.5,-189.5 1258.5,-278.5 1258.5,-278.5 1258.5,-284.5 1252.5,-290.5 1246.5,-290.5"/>
<text text-anchor="middle" x="1175.5" y="-275.3" font-family="Helvetica,sans-Serif" font-size="14.00">op0</text>
<text text-anchor="middle" x="1175.5" y="-260.3" font-family="Helvetica,sans-Serif" font-size="14.00">sub_dynamic</text>
<text text-anchor="middle" x="1175.5" y="-245.3" font-family="Helvetica,sans-Serif" font-size="14.00">line 241</text>
<text text-anchor="middle" x="1175.5" y="-230.3" font-family="Helvetica,sans-Serif" font-size="14.00">layer 0</text>
<text text-anchor="middle" x="1175.5" y="-215.3" font-family="Helvetica,sans-Serif" font-size="14.00">cost 1</text>
<text text-anchor="middle" x="1175.5" y="-200.3" font-family="Helvetica,sans-Serif" font-size="14.00">out ciph_result@1</text>
<text text-anchor="middle" x="1175.5" y="-185.3" font-family="Helvetica,sans-Serif" font-size="14.00">in ciph1@0, ciph2@0</text>
</g>
<!-- op4 -->
<g id="node5" class="node">
<title>op4</title>
<path fill="#17becf" stroke="black" d="M1801,-167.5C1801,-167.5 1564,-167.5 1564,-167.5 1558,-167.5 1552,-161.5 1552,-155.5 1552,-155.5 1552,-66.5 1552,-66.5 1552,-60.5 1558,-54.5 1564,-54.5 1564,-54.5 1801,-54.5 1801,-54.5 1807,-54.5 1813,-60.5 1813,-66.5 1813,-66.5 1813,-155.5 1813,-155.5 1813,-161.5 1807,-167.5 1801,-167.5"/>
<text text-anchor="middle" x="1682.5" y="-152.3" font-family="Helvetica,sans-Serif" font-size="14.00">op4</text>
<text text-anchor="middle" x="1682.5" y="-137.3" font-family="Helvetica,sans-Serif" font-size="14.00">assign</text>
<text text-anchor="middle" x="1682.5" y="-122.3" font-family="Helvetica,sans-Serif" font-size="14.00">line 242</text>
<text text-anchor="middle" x="1682.5" y="-107.3" font-family="Helvetica,sans-Serif" font-size="14.00">layer 4</text>
<text text-anchor="middle" x="1682.5" y="-92.3" font-family="Helvetica,sans-Serif" font-size="14.00">cost 1</text>
<text text-anchor="middle" x="1682.5" y="-77.3" font-family="Helvetica,sans-Serif" font-size="14.00">out ciph_result@2</text>
<text text-anchor="middle" x="1682.5" y="-62.3" font-family="Helvetica,sans-Serif" font-size="14.00">in sign__cmp_6420__ciph_result@3</text>
</g>
<!-- op0&#45;&gt;op4 -->
<g id="edge13" class="edge">
<title>op0&#45;&gt;op4</title>
<path fill="none" stroke="#f97316" d="M1258.76,-213.96C1335.34,-195.31 1451.04,-167.13 1542.04,-144.97"/>
<polygon fill="#f97316" stroke="#f97316" points="1543,-148.34 1551.89,-142.57 1541.35,-141.53 1543,-148.34"/>
<text text-anchor="middle" x="1431.5" y="-198.8" font-family="Helvetica,sans-Serif" font-size="14.00">ciph_result</text>
</g>
<!-- op1 -->
<g id="node2" class="node">
<title>op1</title>
<path fill="#e377c2" stroke="black" d="M275,-129.5C275,-129.5 28,-129.5 28,-129.5 22,-129.5 16,-123.5 16,-117.5 16,-117.5 16,-28.5 16,-28.5 16,-22.5 22,-16.5 28,-16.5 28,-16.5 275,-16.5 275,-16.5 281,-16.5 287,-22.5 287,-28.5 287,-28.5 287,-117.5 287,-117.5 287,-123.5 281,-129.5 275,-129.5"/>
<text text-anchor="middle" x="151.5" y="-114.3" font-family="Helvetica,sans-Serif" font-size="14.00">op1</text>
<text text-anchor="middle" x="151.5" y="-99.3" font-family="Helvetica,sans-Serif" font-size="14.00">evaluate_poly_vector</text>
<text text-anchor="middle" x="151.5" y="-84.3" font-family="Helvetica,sans-Serif" font-size="14.00">line 223</text>
<text text-anchor="middle" x="151.5" y="-69.3" font-family="Helvetica,sans-Serif" font-size="14.00">layer 1</text>
<text text-anchor="middle" x="151.5" y="-54.3" font-family="Helvetica,sans-Serif" font-size="14.00">cost 8</text>
<text text-anchor="middle" x="151.5" y="-39.3" font-family="Helvetica,sans-Serif" font-size="14.00">out sign__cmp_6420__ciph_result@1</text>
<text text-anchor="middle" x="151.5" y="-24.3" font-family="Helvetica,sans-Serif" font-size="14.00">in sign__cmp_6420__ciph_result@0</text>
</g>
<!-- op2 -->
<g id="node3" class="node">
<title>op2</title>
<path fill="#e377c2" stroke="black" d="M787,-129.5C787,-129.5 540,-129.5 540,-129.5 534,-129.5 528,-123.5 528,-117.5 528,-117.5 528,-28.5 528,-28.5 528,-22.5 534,-16.5 540,-16.5 540,-16.5 787,-16.5 787,-16.5 793,-16.5 799,-22.5 799,-28.5 799,-28.5 799,-117.5 799,-117.5 799,-123.5 793,-129.5 787,-129.5"/>
<text text-anchor="middle" x="663.5" y="-114.3" font-family="Helvetica,sans-Serif" font-size="14.00">op2</text>
<text text-anchor="middle" x="663.5" y="-99.3" font-family="Helvetica,sans-Serif" font-size="14.00">evaluate_poly_vector</text>
<text text-anchor="middle" x="663.5" y="-84.3" font-family="Helvetica,sans-Serif" font-size="14.00">line 224</text>
<text text-anchor="middle" x="663.5" y="-69.3" font-family="Helvetica,sans-Serif" font-size="14.00">layer 2</text>
<text text-anchor="middle" x="663.5" y="-54.3" font-family="Helvetica,sans-Serif" font-size="14.00">cost 8</text>
<text text-anchor="middle" x="663.5" y="-39.3" font-family="Helvetica,sans-Serif" font-size="14.00">out sign__cmp_6420__ciph_result@2</text>
<text text-anchor="middle" x="663.5" y="-24.3" font-family="Helvetica,sans-Serif" font-size="14.00">in sign__cmp_6420__ciph_result@1</text>
</g>
<!-- op1&#45;&gt;op2 -->
<g id="edge1" class="edge">
<title>op1&#45;&gt;op2</title>
<path fill="none" stroke="#1f2937" d="M287.39,-123.44C293.3,-124.8 299.19,-126 305,-127 394.8,-142.43 420.2,-142.43 510,-127 512.54,-126.56 515.1,-126.09 517.67,-125.58"/>
<polygon fill="#1f2937" stroke="#1f2937" points="518.56,-128.97 527.61,-123.44 517.09,-122.12 518.56,-128.97"/>
<text text-anchor="middle" x="407.5" y="-141.8" font-family="Helvetica,sans-Serif" font-size="14.00">sign__cmp_6420__ciph_result</text>
</g>
<!-- op1&#45;&gt;op2 -->
<g id="edge2" class="edge">
<title>op1&#45;&gt;op2</title>
<path fill="none" stroke="#2563eb" d="M287.16,-87.9C293.18,-88.32 299.15,-88.69 305,-89 395.99,-93.76 419.01,-93.76 510,-89 512.56,-88.87 515.14,-88.72 517.74,-88.56"/>
<polygon fill="#2563eb" stroke="#2563eb" points="518.1,-92.05 527.84,-87.9 517.64,-85.06 518.1,-92.05"/>
<text text-anchor="middle" x="407.5" y="-95.8" font-family="Helvetica,sans-Serif" font-size="14.00">sign__cmp_6420__ciph_result</text>
</g>
<!-- op1&#45;&gt;op2 -->
<g id="edge3" class="edge">
<title>op1&#45;&gt;op2</title>
<path fill="none" stroke="#f97316" d="M287.21,-70.21C293.22,-70.13 299.17,-70.06 305,-70 396.11,-69.1 418.89,-69.1 510,-70 512.55,-70.03 515.12,-70.05 517.71,-70.08"/>
<polygon fill="#f97316" stroke="#f97316" points="517.74,-73.58 527.79,-70.21 517.83,-66.58 517.74,-73.58"/>
<text text-anchor="middle" x="407.5" y="-73.8" font-family="Helvetica,sans-Serif" font-size="14.00">sign__cmp_6420__ciph_result</text>
</g>
<!-- op1&#45;&gt;op2 -->
<g id="edge4" class="edge">
<title>op1&#45;&gt;op2</title>
<path fill="none" stroke="#dc2626" d="M287.09,-51.58C293.14,-50.98 299.13,-50.44 305,-50 395.86,-43.19 419.14,-43.19 510,-50 512.57,-50.19 515.16,-50.4 517.77,-50.63"/>
<polygon fill="#dc2626" stroke="#dc2626" points="517.62,-54.13 527.91,-51.58 518.28,-47.16 517.62,-54.13"/>
<text text-anchor="middle" x="407.5" y="-53.8" font-family="Helvetica,sans-Serif" font-size="14.00">sign__cmp_6420__ciph_result</text>
</g>
<!-- op1&#45;&gt;op2 -->
<g id="edge5" class="edge">
<title>op1&#45;&gt;op2</title>
<path fill="none" stroke="#0f766e" d="M287.11,-28.24C293.12,-27 299.1,-25.91 305,-25 395.05,-11.16 419.95,-11.16 510,-25 512.67,-25.41 515.36,-25.86 518.07,-26.34"/>
<polygon fill="#0f766e" stroke="#0f766e" points="517.41,-29.78 527.89,-28.24 518.74,-22.91 517.41,-29.78"/>
<text text-anchor="middle" x="407.5" y="-28.8" font-family="Helvetica,sans-Serif" font-size="14.00">cmp@6420</text>
</g>
<!-- op3 -->
<g id="node4" class="node">
<title>op3</title>
<path fill="#e5e7eb" stroke="black" d="M1299,-129.5C1299,-129.5 1052,-129.5 1052,-129.5 1046,-129.5 1040,-123.5 1040,-117.5 1040,-117.5 1040,-28.5 1040,-28.5 1040,-22.5 1046,-16.5 1052,-16.5 1052,-16.5 1299,-16.5 1299,-16.5 1305,-16.5 1311,-22.5 1311,-28.5 1311,-28.5 1311,-117.5 1311,-117.5 1311,-123.5 1305,-129.5 1299,-129.5"/>
<text text-anchor="middle" x="1175.5" y="-114.3" font-family="Helvetica,sans-Serif" font-size="14.00">op3</text>
<text text-anchor="middle" x="1175.5" y="-99.3" font-family="Helvetica,sans-Serif" font-size="14.00">add_const</text>
<text text-anchor="middle" x="1175.5" y="-84.3" font-family="Helvetica,sans-Serif" font-size="14.00">line 227</text>
<text text-anchor="middle" x="1175.5" y="-69.3" font-family="Helvetica,sans-Serif" font-size="14.00">layer 3</text>
<text text-anchor="middle" x="1175.5" y="-54.3" font-family="Helvetica,sans-Serif" font-size="14.00">cost 1</text>
<text text-anchor="middle" x="1175.5" y="-39.3" font-family="Helvetica,sans-Serif" font-size="14.00">out sign__cmp_6420__ciph_result@3</text>
<text text-anchor="middle" x="1175.5" y="-24.3" font-family="Helvetica,sans-Serif" font-size="14.00">in sign__cmp_6420__ciph_result@2</text>
</g>
<!-- op2&#45;&gt;op3 -->
<g id="edge6" class="edge">
<title>op2&#45;&gt;op3</title>
<path fill="none" stroke="#1f2937" d="M799.39,-123.44C805.3,-124.8 811.19,-126 817,-127 906.8,-142.43 932.2,-142.43 1022,-127 1024.54,-126.56 1027.1,-126.09 1029.67,-125.58"/>
<polygon fill="#1f2937" stroke="#1f2937" points="1030.56,-128.97 1039.61,-123.44 1029.09,-122.12 1030.56,-128.97"/>
<text text-anchor="middle" x="919.5" y="-141.8" font-family="Helvetica,sans-Serif" font-size="14.00">sign__cmp_6420__ciph_result</text>
</g>
<!-- op2&#45;&gt;op3 -->
<g id="edge7" class="edge">
<title>op2&#45;&gt;op3</title>
<path fill="none" stroke="#2563eb" d="M799.16,-87.9C805.18,-88.32 811.15,-88.69 817,-89 907.99,-93.76 931.01,-93.76 1022,-89 1024.56,-88.87 1027.14,-88.72 1029.74,-88.56"/>
<polygon fill="#2563eb" stroke="#2563eb" points="1030.1,-92.05 1039.84,-87.9 1029.64,-85.06 1030.1,-92.05"/>
<text text-anchor="middle" x="919.5" y="-95.8" font-family="Helvetica,sans-Serif" font-size="14.00">sign__cmp_6420__ciph_result</text>
</g>
<!-- op2&#45;&gt;op3 -->
<g id="edge8" class="edge">
<title>op2&#45;&gt;op3</title>
<path fill="none" stroke="#f97316" d="M799.21,-70.21C805.22,-70.13 811.17,-70.06 817,-70 908.11,-69.1 930.89,-69.1 1022,-70 1024.55,-70.03 1027.12,-70.05 1029.71,-70.08"/>
<polygon fill="#f97316" stroke="#f97316" points="1029.74,-73.58 1039.79,-70.21 1029.83,-66.58 1029.74,-73.58"/>
<text text-anchor="middle" x="919.5" y="-73.8" font-family="Helvetica,sans-Serif" font-size="14.00">sign__cmp_6420__ciph_result</text>
</g>
<!-- op2&#45;&gt;op3 -->
<g id="edge9" class="edge">
<title>op2&#45;&gt;op3</title>
<path fill="none" stroke="#dc2626" d="M799.09,-51.58C805.14,-50.98 811.13,-50.44 817,-50 907.86,-43.19 931.14,-43.19 1022,-50 1024.57,-50.19 1027.16,-50.4 1029.77,-50.63"/>
<polygon fill="#dc2626" stroke="#dc2626" points="1029.62,-54.13 1039.91,-51.58 1030.28,-47.16 1029.62,-54.13"/>
<text text-anchor="middle" x="919.5" y="-53.8" font-family="Helvetica,sans-Serif" font-size="14.00">sign__cmp_6420__ciph_result</text>
</g>
<!-- op2&#45;&gt;op3 -->
<g id="edge10" class="edge">
<title>op2&#45;&gt;op3</title>
<path fill="none" stroke="#0f766e" d="M799.11,-28.24C805.12,-27 811.1,-25.91 817,-25 907.05,-11.16 931.95,-11.16 1022,-25 1024.67,-25.41 1027.36,-25.86 1030.07,-26.34"/>
<polygon fill="#0f766e" stroke="#0f766e" points="1029.41,-29.78 1039.89,-28.24 1030.74,-22.91 1029.41,-29.78"/>
<text text-anchor="middle" x="919.5" y="-28.8" font-family="Helvetica,sans-Serif" font-size="14.00">cmp@6420</text>
</g>
<!-- op3&#45;&gt;op4 -->
<g id="edge11" class="edge">
<title>op3&#45;&gt;op4</title>
<path fill="none" stroke="#1f2937" d="M1311.35,-105.58C1317.3,-106.5 1323.2,-107.32 1329,-108 1398.67,-116.19 1476.61,-117.65 1541.46,-116.76"/>
<polygon fill="#1f2937" stroke="#1f2937" points="1541.81,-120.26 1551.75,-116.6 1541.7,-113.26 1541.81,-120.26"/>
<text text-anchor="middle" x="1431.5" y="-119.8" font-family="Helvetica,sans-Serif" font-size="14.00">sign__cmp_6420__ciph_result</text>
</g>
<!-- op3&#45;&gt;op4 -->
<g id="edge12" class="edge">
<title>op3&#45;&gt;op4</title>
<path fill="none" stroke="#2563eb" d="M1311.27,-75.74C1378.33,-77.94 1460.57,-81.9 1534,-89 1536.54,-89.25 1539.1,-89.5 1541.67,-89.78"/>
<polygon fill="#2563eb" stroke="#2563eb" points="1541.37,-93.26 1551.69,-90.88 1542.13,-86.3 1541.37,-93.26"/>
<text text-anchor="middle" x="1431.5" y="-92.8" font-family="Helvetica,sans-Serif" font-size="14.00">sign__cmp_6420__ciph_result</text>
</g>
<!-- op3&#45;&gt;op4 -->
<g id="edge14" class="edge">
<title>op3&#45;&gt;op4</title>
<path fill="none" stroke="#0f766e" d="M1311.1,-53.11C1378.49,-46.65 1461.05,-44.07 1534,-57 1536.68,-57.47 1539.37,-57.99 1542.07,-58.55"/>
<polygon fill="#0f766e" stroke="#0f766e" points="1541.36,-61.98 1551.89,-60.75 1542.89,-55.15 1541.36,-61.98"/>
<text text-anchor="middle" x="1431.5" y="-60.8" font-family="Helvetica,sans-Serif" font-size="14.00">cmp@6420</text>
</g>
<!-- op5 -->
<g id="node6" class="node">
<title>op5</title>
<path fill="#64748b" stroke="black" d="M2049,-167.5C2049,-167.5 1937,-167.5 1937,-167.5 1931,-167.5 1925,-161.5 1925,-155.5 1925,-155.5 1925,-66.5 1925,-66.5 1925,-60.5 1931,-54.5 1937,-54.5 1937,-54.5 2049,-54.5 2049,-54.5 2055,-54.5 2061,-60.5 2061,-66.5 2061,-66.5 2061,-155.5 2061,-155.5 2061,-161.5 2055,-167.5 2049,-167.5"/>
<text text-anchor="middle" x="1993" y="-152.3" font-family="Helvetica,sans-Serif" font-size="14.00">op5</text>
<text text-anchor="middle" x="1993" y="-137.3" font-family="Helvetica,sans-Serif" font-size="14.00">return</text>
<text text-anchor="middle" x="1993" y="-122.3" font-family="Helvetica,sans-Serif" font-size="14.00">line 243</text>
<text text-anchor="middle" x="1993" y="-107.3" font-family="Helvetica,sans-Serif" font-size="14.00">layer 5</text>
<text text-anchor="middle" x="1993" y="-92.3" font-family="Helvetica,sans-Serif" font-size="14.00">cost 1</text>
<text text-anchor="middle" x="1993" y="-77.3" font-family="Helvetica,sans-Serif" font-size="14.00">out __return__@1</text>
<text text-anchor="middle" x="1993" y="-62.3" font-family="Helvetica,sans-Serif" font-size="14.00">in ciph_result@2</text>
</g>
<!-- op4&#45;&gt;op5 -->
<g id="edge15" class="edge">
<title>op4&#45;&gt;op5</title>
<path fill="none" stroke="#1f2937" d="M1813.44,-111C1847.91,-111 1884.04,-111 1914.72,-111"/>
<polygon fill="#1f2937" stroke="#1f2937" points="1914.9,-114.5 1924.9,-111 1914.9,-107.5 1914.9,-114.5"/>
<text text-anchor="middle" x="1869" y="-114.8" font-family="Helvetica,sans-Serif" font-size="14.00">ciph_result</text>
</g>
<!-- op4&#45;&gt;op5 -->
<g id="edge16" class="edge">
<title>op4&#45;&gt;op5</title>
<path fill="none" stroke="#2563eb" d="M1813.02,-91.43C1843.85,-89.13 1876.62,-88.65 1907,-92 1909.66,-92.29 1912.35,-92.64 1915.07,-93.02"/>
<polygon fill="#2563eb" stroke="#2563eb" points="1914.53,-96.48 1924.95,-94.58 1915.62,-89.57 1914.53,-96.48"/>
<text text-anchor="middle" x="1869" y="-95.8" font-family="Helvetica,sans-Serif" font-size="14.00">ciph_result</text>
</g>
</g>
</svg>
