<?xml version="1.0" encoding="UTF-8" standalone="no"?>
<!DOCTYPE svg PUBLIC "-//W3C//DTD SVG 1.1//EN"
 "http://www.w3.org/Graphics/SVG/1.1/DTD/svg11.dtd">
<!-- Generated by graphviz version 2.43.0 (0)
 -->
<!-- Title: hedag_v2 Pages: 1 -->
<svg width="400pt" height="177pt"
 viewBox="0.00 0.00 400.00 177.00" xmlns="http://www.w3.org/2000/svg" xmlns:xlink="http://www.w3.org/1999/xlink">
<g id="graph0" class="graph" transform="scale(1 1) rotate(0) translate(4 173)">
<title>hedag_v2</title>
<polygon fill="white" stroke="transparent" points="-4,4 -4,-173 396,-173 396,4 -4,4"/>
<g id="clust1" class="cluster">
<title>cluster_layer_0</title>
<polygon fill="none" stroke="#d1d5db" points="8,-14 8,-151 151,-151 151,-14 8,-14"/>
<text text-anchor="middle" x="79.5" y="-135.8" font-family="Times,serif" font-size="14.00">layer 0</text>
</g>
<g id="clust2" class="cluster">
<title>cluster_layer_1</title>
<polygon fill="none" stroke="#d1d5db" points="232,-8 232,-161 384,-161 384,-8 232,-8"/>
<text text-anchor="middle" x="308" y="-145.8" font-family="Times,serif" font-size="14.00">layer 1</text>
</g>
<!-- op0 -->
<g id="node1" class="node">
<title>op0</title>
<path fill="#e5e7eb" stroke="black" d="M131,-120C131,-120 28,-120 28,-120 22,-120 16,-114 16,-108 16,-108 16,-34 16,-34 16,-28 22,-22 28,-22 28,-22 131,-22 131,-22 137,-22 143,-28 143,-34 143,-34 143,-108 143,-108 143,-114 137,-120 131,-120"/>
<text text-anchor="middle" x="79.5" y="-104.8" font-family="Helvetica,sans-Serif" font-size="14.00">op0</text>
<text text-anchor="middle" x="79.5" y="-89.8" font-family="Helvetica,sans-Serif" font-size="14.00">add</text>
<text text-anchor="middle" x="79.5" y="-74.8" font-family="Helvetica,sans-Serif" font-size="14.00">line 1303</text>
<text text-anchor="middle" x="79.5" y="-59.8" font-family="Helvetica,sans-Serif" font-size="14.00">layer 0</text>
<text text-anchor="middle" x="79.5" y="-44.8" font-family="Helvetica,sans-Serif" font-size="14.00">cost 1</text>
<text text-anchor="middle" x="79.5" y="-29.8" font-family="Helvetica,sans-Serif" font-size="14.00">out felt_item@1</text>
</g>
<!-- op1 -->
<g id="node2" class="node">
<title>op1</title>
<path fill="#64748b" stroke="black" d="M364,-129.5C364,-129.5 252,-129.5 252,-129.5 246,-129.5 240,-123.5 240,-117.5 240,-117.5 240,-28.5 240,-28.5 240,-22.5 246,-16.5 252,-16.5 252,-16.5 364,-16.5 364,-16.5 370,-16.5 376,-22.5 376,-28.5 376,-28.5 376,-117.5 376,-117.5 376,-123.5 370,-129.5 364,-129.5"/>
<text text-anchor="middle" x="308" y="-114.3" font-family="Helvetica,sans-Serif" font-size="14.00">op1</text>
<text text-anchor="middle" x="308" y="-99.3" font-family="Helvetica,sans-Serif" font-size="14.00">return</text>
<text text-anchor="middle" x="308" y="-84.3" font-family="Helvetica,sans-Serif" font-size="14.00">line 1309</text>
<text text-anchor="middle" x="308" y="-69.3" font-family="Helvetica,sans-Serif" font-size="14.00">layer 1</text>
<text text-anchor="middle" x="308" y="-54.3" font-family="Helvetica,sans-Serif" font-size="14.00">cost 1</text>
<text text-anchor="middle" x="308" y="-39.3" font-family="Helvetica,sans-Serif" font-size="14.00">out __return__@1</text>
<text text-anchor="middle" x="308" y="-24.3" font-family="Helvetica,sans-Serif" font-size="14.00">in felt_item@1</text>
</g>
<!-- op0&#45;&gt;op1 -->
<g id="edge1" class="edge">
<title>op0&#45;&gt;op1</title>
<path fill="none" stroke="#1f2937" d="M143.29,-71.55C169.99,-71.79 201.4,-72.07 229.52,-72.32"/>
<polygon fill="#1f2937" stroke="#1f2937" points="229.69,-75.82 239.72,-72.41 229.75,-68.82 229.69,-75.82"/>
<text text-anchor="middle" x="191.5" y="-75.8" font-family="Helvetica,sans-Serif" font-size="14.00">felt_item</text>
</g>
<!-- op0&#45;&gt;op1 -->
<g id="edge2" class="edge">
<title>op0&#45;&gt;op1</title>
<path fill="none" stroke="#2563eb" d="M143.09,-54.75C149.11,-53.63 155.15,-52.68 161,-52 187.93,-48.87 195.09,-48.72 222,-52 224.51,-52.31 227.05,-52.66 229.61,-53.05"/>
<polygon fill="#2563eb" stroke="#2563eb" points="229.09,-56.52 239.54,-54.77 230.28,-49.62 229.09,-56.52"/>
<text text-anchor="middle" x="191.5" y="-55.8" font-family="Helvetica,sans-Serif" font-size="14.00">felt_item</text>
</g>
</g>
</svg>
