<?xml version="1.0" encoding="UTF-8" standalone="no"?>
<!DOCTYPE svg PUBLIC "-//W3C//DTD SVG 1.1//EN"
 "http://www.w3.org/Graphics/SVG/1.1/DTD/svg11.dtd">
<!-- Generated by graphviz version 2.43.0 (0)
 -->
<!-- Title: hedag_v2 Pages: 1 -->
<svg width="176pt" height="177pt"
 viewBox="0.00 0.00 176.00 177.00" xmlns="http://www.w3.org/2000/svg" xmlns:xlink="http://www.w3.org/1999/xlink">
<g id="graph0" class="graph" transform="scale(1 1) rotate(0) translate(4 173)">
<title>hedag_v2</title>
<polygon fill="white" stroke="transparent" points="-4,4 -4,-173 172,-173 172,4 -4,4"/>
<g id="clust1" class="cluster">
<title>cluster_layer_0</title>
<polygon fill="none" stroke="#d1d5db" points="8,-8 8,-161 160,-161 160,-8 8,-8"/>
<text text-anchor="middle" x="84" y="-145.8" font-family="Times,serif" font-size="14.00">layer 0</text>
</g>
<!-- op0 -->
<g id="node1" class="node">
<title>op0</title>
<path fill="#64748b" stroke="black" d="M140,-129.5C140,-129.5 28,-129.5 28,-129.5 22,-129.5 16,-123.5 16,-117.5 16,-117.5 16,-28.5 16,-28.5 16,-22.5 22,-16.5 28,-16.5 28,-16.5 140,-16.5 140,-16.5 146,-16.5 152,-22.5 152,-28.5 152,-28.5 152,-117.5 152,-117.5 152,-123.5 146,-129.5 140,-129.5"/>
<text text-anchor="middle" x="84" y="-114.3" font-family="Helvetica,sans-Serif" font-size="14.00">op0</text>
<text text-anchor="middle" x="84" y="-99.3" font-family="Helvetica,sans-Serif" font-size="14.00">return</text>
<text text-anchor="middle" x="84" y="-84.3" font-family="Helvetica,sans-Serif" font-size="14.00">line 58</text>
<text text-anchor="middle" x="84" y="-69.3" font-family="Helvetica,sans-Serif" font-size="14.00">layer 0</text>
<text text-anchor="middle" x="84" y="-54.3" font-family="Helvetica,sans-Serif" font-size="14.00">cost 1</text>
<text text-anchor="middle" x="84" y="-39.3" font-family="Helvetica,sans-Serif" font-size="14.00">out __return__@1</text>
<text text-anchor="middle" x="84" y="-24.3" font-family="Helvetica,sans-Serif" font-size="14.00">in context@0</text>
</g>
</g>
</svg>
