<?xml version="1.0" encoding="UTF-8" standalone="no"?>
<!DOCTYPE svg PUBLIC "-//W3C//DTD SVG 1.1//EN"
 "http://www.w3.org/Graphics/SVG/1.1/DTD/svg11.dtd">
<!-- Generated by graphviz version 2.43.0 (0)
 -->
<!-- Title: hedag_v2 Pages: 1 -->
<svg width="7356pt" height="672pt"
 viewBox="0.00 0.00 7356.00 672.00" xmlns="http://www.w3.org/2000/svg" xmlns:xlink="http://www.w3.org/1999/xlink">
<g id="graph0" class="graph" transform="scale(1 1) rotate(0) translate(4 668)">
<title>hedag_v2</title>
<polygon fill="white" stroke="transparent" points="-4,4 -4,-668 7352,-668 7352,4 -4,4"/>
<g id="clust1" class="cluster">
<title>cluster_layer_0</title>
<polygon fill="none" stroke="#d1d5db" points="8,-8 8,-656 482,-656 482,-8 8,-8"/>
<text text-anchor="middle" x="245" y="-640.8" font-family="Times,serif" font-size="14.00">layer 0</text>
</g>
<g id="clust2" class="cluster">
<title>cluster_layer_1</title>
<polygon fill="none" stroke="#d1d5db" points="893,-132 893,-416 1357,-416 1357,-132 893,-132"/>
<text text-anchor="middle" x="1125" y="-400.8" font-family="Times,serif" font-size="14.00">layer 1</text>
</g>
<g id="clust3" class="cluster">
<title>cluster_layer_2</title>
<polygon fill="none" stroke="#d1d5db" points="1531,-222 1531,-375 2463,-375 2463,-222 1531,-222"/>
<text text-anchor="middle" x="1997" y="-359.8" font-family="Times,serif" font-size="14.00">layer 2</text>
</g>
<g id="clust4" class="cluster">
<title>cluster_layer_3</title>
<polygon fill="none" stroke="#d1d5db" points="2874,-149 2874,-286 3312,-286 3312,-149 2874,-149"/>
<text text-anchor="middle" x="3093" y="-270.8" font-family="Times,serif" font-size="14.00">layer 3</text>
</g>
<g id="clust5" class="cluster">
<title>cluster_layer_4</title>
<polygon fill="none" stroke="#d1d5db" points="3486,-131 3486,-254 3575,-254 3575,-131 3486,-131"/>
<text text-anchor="middle" x="3530.5" y="-238.8" font-family="Times,serif" font-size="14.00">layer 4</text>
</g>
<g id="clust6" class="cluster">
<title>cluster_layer_5</title>
<polygon fill="none" stroke="#d1d5db" points="3951,-101 3951,-238 4425,-238 4425,-101 3951,-101"/>
<text text-anchor="middle" x="4188" y="-222.8" font-family="Times,serif" font-size="14.00">layer 5</text>
</g>
<g id="clust7" class="cluster">
<title>cluster_layer_6</title>
<polygon fill="none" stroke="#d1d5db" points="4836,-147 4836,-300 5300,-300 5300,-147 4836,-147"/>
<text text-anchor="middle" x="5068" y="-284.8" font-family="Times,serif" font-size="14.00">layer 6</text>
</g>
<g id="clust8" class="cluster">
<title>cluster_layer_7</title>
<polygon fill="none" stroke="#d1d5db" points="5474,-173 5474,-296 5563,-296 5563,-173 5474,-173"/>
<text text-anchor="middle" x="5518.5" y="-280.8" font-family="Times,serif" font-size="14.00">layer 7</text>
</g>
<g id="clust9" class="cluster">
<title>cluster_layer_8</title>
<polygon fill="none" stroke="#d1d5db" points="5737,-237 5737,-390 6669,-390 6669,-237 5737,-237"/>
<text text-anchor="middle" x="6203" y="-374.8" font-family="Times,serif" font-size="14.00">layer 8</text>
</g>
<g id="clust10" class="cluster">
<title>cluster_layer_9</title>
<polygon fill="none" stroke="#d1d5db" points="6843,-252 6843,-375 6932,-375 6932,-252 6843,-252"/>
<text text-anchor="middle" x="6887.5" y="-359.8" font-family="Times,serif" font-size="14.00">layer 9</text>
</g>
<g id="clust11" class="cluster">
<title>cluster_layer_10</title>
<polygon fill="none" stroke="#d1d5db" points="7106,-237 7106,-390 7340,-390 7340,-237 7106,-237"/>
<text text-anchor="middle" x="7223" y="-374.8" font-family="Times,serif" font-size="14.00">layer 10</text>
</g>
<!-- op11 -->
<g id="node1" class="node">
<title>op11</title>
<path fill="#e5e7eb" stroke="black" d="M337.5,-624.5C337.5,-624.5 152.5,-624.5 152.5,-624.5 146.5,-624.5 140.5,-618.5 140.5,-612.5 140.5,-612.5 140.5,-523.5 140.5,-523.5 140.5,-517.5 146.5,-511.5 152.5,-511.5 152.5,-511.5 337.5,-511.5 337.5,-511.5 343.5,-511.5 349.5,-517.5 349.5,-523.5 349.5,-523.5 349.5,-612.5 349.5,-612.5 349.5,-618.5 343.5,-624.5 337.5,-624.5"/>
<text text-anchor="middle" x="245" y="-609.3" font-family="Helvetica,sans-Serif" font-size="14.00">op11</text>
<text text-anchor="middle" x="245" y="-594.3" font-family="Helvetica,sans-Serif" font-size="14.00">multiply_plain</text>
<text text-anchor="middle" x="245" y="-579.3" font-family="Helvetica,sans-Serif" font-size="14.00">line 349</text>
<text text-anchor="middle" x="245" y="-564.3" font-family="Helvetica,sans-Serif" font-size="14.00">layer 0</text>
<text text-anchor="middle" x="245" y="-549.3" font-family="Helvetica,sans-Serif" font-size="14.00">cost 3</text>
<text text-anchor="middle" x="245" y="-534.3" font-family="Helvetica,sans-Serif" font-size="14.00">out intermediateCtxts[k]@1</text>
<text text-anchor="middle" x="245" y="-519.3" font-family="Helvetica,sans-Serif" font-size="14.00">in expanded_query[0]@0</text>
</g>
<!-- op13 -->
<g id="node6" class="node">
<title>op13</title>
<path fill="#e5e7eb" stroke="black" d="M1217.5,-384.5C1217.5,-384.5 1032.5,-384.5 1032.5,-384.5 1026.5,-384.5 1020.5,-378.5 1020.5,-372.5 1020.5,-372.5 1020.5,-283.5 1020.5,-283.5 1020.5,-277.5 1026.5,-271.5 1032.5,-271.5 1032.5,-271.5 1217.5,-271.5 1217.5,-271.5 1223.5,-271.5 1229.5,-277.5 1229.5,-283.5 1229.5,-283.5 1229.5,-372.5 1229.5,-372.5 1229.5,-378.5 1223.5,-384.5 1217.5,-384.5"/>
<text text-anchor="middle" x="1125" y="-369.3" font-family="Helvetica,sans-Serif" font-size="14.00">op13</text>
<text text-anchor="middle" x="1125" y="-354.3" font-family="Helvetica,sans-Serif" font-size="14.00">add</text>
<text text-anchor="middle" x="1125" y="-339.3" font-family="Helvetica,sans-Serif" font-size="14.00">line 355</text>
<text text-anchor="middle" x="1125" y="-324.3" font-family="Helvetica,sans-Serif" font-size="14.00">layer 1</text>
<text text-anchor="middle" x="1125" y="-309.3" font-family="Helvetica,sans-Serif" font-size="14.00">cost 1</text>
<text text-anchor="middle" x="1125" y="-294.3" font-family="Helvetica,sans-Serif" font-size="14.00">out intermediateCtxts[k]@2</text>
<text text-anchor="middle" x="1125" y="-279.3" font-family="Helvetica,sans-Serif" font-size="14.00">in temp@1</text>
</g>
<!-- op11&#45;&gt;op13 -->
<g id="edge22" class="edge">
<title>op11&#45;&gt;op13</title>
<path fill="none" stroke="#f97316" d="M349.72,-550.39C476.95,-527.53 698.47,-483.64 883,-426 925.6,-412.69 971.21,-395.06 1011.17,-378.42"/>
<polygon fill="#f97316" stroke="#f97316" points="1012.53,-381.65 1020.4,-374.56 1009.83,-375.19 1012.53,-381.65"/>
<text text-anchor="middle" x="687.5" y="-523.8" font-family="Helvetica,sans-Serif" font-size="14.00">intermediateCtxts[k]</text>
</g>
<!-- op12 -->
<g id="node2" class="node">
<title>op12</title>
<path fill="#e5e7eb" stroke="black" d="M327,-493.5C327,-493.5 163,-493.5 163,-493.5 157,-493.5 151,-487.5 151,-481.5 151,-481.5 151,-392.5 151,-392.5 151,-386.5 157,-380.5 163,-380.5 163,-380.5 327,-380.5 327,-380.5 333,-380.5 339,-386.5 339,-392.5 339,-392.5 339,-481.5 339,-481.5 339,-487.5 333,-493.5 327,-493.5"/>
<text text-anchor="middle" x="245" y="-478.3" font-family="Helvetica,sans-Serif" font-size="14.00">op12</text>
<text text-anchor="middle" x="245" y="-463.3" font-family="Helvetica,sans-Serif" font-size="14.00">multiply_plain</text>
<text text-anchor="middle" x="245" y="-448.3" font-family="Helvetica,sans-Serif" font-size="14.00">line 353</text>
<text text-anchor="middle" x="245" y="-433.3" font-family="Helvetica,sans-Serif" font-size="14.00">layer 0</text>
<text text-anchor="middle" x="245" y="-418.3" font-family="Helvetica,sans-Serif" font-size="14.00">cost 3</text>
<text text-anchor="middle" x="245" y="-403.3" font-family="Helvetica,sans-Serif" font-size="14.00">out temp@1</text>
<text text-anchor="middle" x="245" y="-388.3" font-family="Helvetica,sans-Serif" font-size="14.00">in expanded_query[j]@0</text>
</g>
<!-- op12&#45;&gt;op13 -->
<g id="edge20" class="edge">
<title>op12&#45;&gt;op13</title>
<path fill="none" stroke="#1f2937" d="M339.16,-426.4C463.31,-412.15 689.81,-385.75 883,-361 924.51,-355.68 970,-349.54 1010.16,-344"/>
<polygon fill="#1f2937" stroke="#1f2937" points="1010.83,-347.44 1020.26,-342.61 1009.87,-340.51 1010.83,-347.44"/>
<text text-anchor="middle" x="687.5" y="-410.8" font-family="Helvetica,sans-Serif" font-size="14.00">temp</text>
</g>
<!-- op12&#45;&gt;op13 -->
<g id="edge21" class="edge">
<title>op12&#45;&gt;op13</title>
<path fill="none" stroke="#2563eb" d="M339.2,-431.27C387.26,-423.73 443.68,-407.11 482,-371 491.92,-361.65 480.99,-350.04 492,-342 643.14,-231.7 873.26,-262.1 1010.14,-294.72"/>
<polygon fill="#2563eb" stroke="#2563eb" points="1009.7,-298.21 1020.24,-297.17 1011.35,-291.41 1009.7,-298.21"/>
<text text-anchor="middle" x="687.5" y="-345.8" font-family="Helvetica,sans-Serif" font-size="14.00">temp</text>
</g>
<!-- op14 -->
<g id="node3" class="node">
<title>op14</title>
<path fill="#e5e7eb" stroke="black" d="M280.5,-362C280.5,-362 209.5,-362 209.5,-362 203.5,-362 197.5,-356 197.5,-350 197.5,-350 197.5,-276 197.5,-276 197.5,-270 203.5,-264 209.5,-264 209.5,-264 280.5,-264 280.5,-264 286.5,-264 292.5,-270 292.5,-276 292.5,-276 292.5,-350 292.5,-350 292.5,-356 286.5,-362 280.5,-362"/>
<text text-anchor="middle" x="245" y="-346.8" font-family="Helvetica,sans-Serif" font-size="14.00">op14</text>
<text text-anchor="middle" x="245" y="-331.8" font-family="Helvetica,sans-Serif" font-size="14.00">ntt_inv</text>
<text text-anchor="middle" x="245" y="-316.8" font-family="Helvetica,sans-Serif" font-size="14.00">line 364</text>
<text text-anchor="middle" x="245" y="-301.8" font-family="Helvetica,sans-Serif" font-size="14.00">layer 0</text>
<text text-anchor="middle" x="245" y="-286.8" font-family="Helvetica,sans-Serif" font-size="14.00">cost 3</text>
<text text-anchor="middle" x="245" y="-271.8" font-family="Helvetica,sans-Serif" font-size="14.00">out tmp@1</text>
</g>
<!-- op15 -->
<g id="node4" class="node">
<title>op15</title>
<path fill="#64748b" stroke="black" d="M301,-245.5C301,-245.5 189,-245.5 189,-245.5 183,-245.5 177,-239.5 177,-233.5 177,-233.5 177,-144.5 177,-144.5 177,-138.5 183,-132.5 189,-132.5 189,-132.5 301,-132.5 301,-132.5 307,-132.5 313,-138.5 313,-144.5 313,-144.5 313,-233.5 313,-233.5 313,-239.5 307,-245.5 301,-245.5"/>
<text text-anchor="middle" x="245" y="-230.3" font-family="Helvetica,sans-Serif" font-size="14.00">op15</text>
<text text-anchor="middle" x="245" y="-215.3" font-family="Helvetica,sans-Serif" font-size="14.00">return</text>
<text text-anchor="middle" x="245" y="-200.3" font-family="Helvetica,sans-Serif" font-size="14.00">line 412</text>
<text text-anchor="middle" x="245" y="-185.3" font-family="Helvetica,sans-Serif" font-size="14.00">layer 0</text>
<text text-anchor="middle" x="245" y="-170.3" font-family="Helvetica,sans-Serif" font-size="14.00">cost 1</text>
<text text-anchor="middle" x="245" y="-155.3" font-family="Helvetica,sans-Serif" font-size="14.00">out __return__@1</text>
<text text-anchor="middle" x="245" y="-140.3" font-family="Helvetica,sans-Serif" font-size="14.00">in fail@0</text>
</g>
<!-- op0 -->
<g id="node5" class="node">
<title>op0</title>
<path fill="#e5e7eb" stroke="black" d="M462,-114C462,-114 28,-114 28,-114 22,-114 16,-108 16,-102 16,-102 16,-28 16,-28 16,-22 22,-16 28,-16 28,-16 462,-16 462,-16 468,-16 474,-22 474,-28 474,-28 474,-102 474,-102 474,-108 468,-114 462,-114"/>
<text text-anchor="middle" x="245" y="-98.8" font-family="Helvetica,sans-Serif" font-size="14.00">op0</text>
<text text-anchor="middle" x="245" y="-83.8" font-family="Helvetica,sans-Serif" font-size="14.00">apply_galois</text>
<text text-anchor="middle" x="245" y="-68.8" font-family="Helvetica,sans-Serif" font-size="14.00">line 461</text>
<text text-anchor="middle" x="245" y="-53.8" font-family="Helvetica,sans-Serif" font-size="14.00">layer 0</text>
<text text-anchor="middle" x="245" y="-38.8" font-family="Helvetica,sans-Serif" font-size="14.00">cost 4</text>
<text text-anchor="middle" x="245" y="-23.8" font-family="Helvetica,sans-Serif" font-size="14.00">out expand_query__generate_reply_6331__tempctxt_rotated@1</text>
</g>
<!-- op1 -->
<g id="node7" class="node">
<title>op1</title>
<path fill="#e5e7eb" stroke="black" d="M1337,-253.5C1337,-253.5 913,-253.5 913,-253.5 907,-253.5 901,-247.5 901,-241.5 901,-241.5 901,-152.5 901,-152.5 901,-146.5 907,-140.5 913,-140.5 913,-140.5 1337,-140.5 1337,-140.5 1343,-140.5 1349,-146.5 1349,-152.5 1349,-152.5 1349,-241.5 1349,-241.5 1349,-247.5 1343,-253.5 1337,-253.5"/>
<text text-anchor="middle" x="1125" y="-238.3" font-family="Helvetica,sans-Serif" font-size="14.00">op1</text>
<text text-anchor="middle" x="1125" y="-223.3" font-family="Helvetica,sans-Serif" font-size="14.00">add</text>
<text text-anchor="middle" x="1125" y="-208.3" font-family="Helvetica,sans-Serif" font-size="14.00">line 464</text>
<text text-anchor="middle" x="1125" y="-193.3" font-family="Helvetica,sans-Serif" font-size="14.00">layer 1</text>
<text text-anchor="middle" x="1125" y="-178.3" font-family="Helvetica,sans-Serif" font-size="14.00">cost 1</text>
<text text-anchor="middle" x="1125" y="-163.3" font-family="Helvetica,sans-Serif" font-size="14.00">out expand_query__generate_reply_6331__newtemp[a]@1</text>
<text text-anchor="middle" x="1125" y="-148.3" font-family="Helvetica,sans-Serif" font-size="14.00">in expand_query__generate_reply_6331__tempctxt_rotated@1</text>
</g>
<!-- op0&#45;&gt;op1 -->
<g id="edge1" class="edge">
<title>op0&#45;&gt;op1</title>
<path fill="none" stroke="#1f2937" d="M474.11,-78.87C640.38,-89.49 843.25,-103.68 883,-112 912.98,-118.28 944.31,-127.35 974.09,-137.25"/>
<polygon fill="#1f2937" stroke="#1f2937" points="973.1,-140.61 983.7,-140.49 975.34,-133.98 973.1,-140.61"/>
<text text-anchor="middle" x="687.5" y="-115.8" font-family="Helvetica,sans-Serif" font-size="14.00">expand_query__generate_reply_6331__tempctxt_rotated</text>
</g>
<!-- op0&#45;&gt;op1 -->
<g id="edge2" class="edge">
<title>op0&#45;&gt;op1</title>
<path fill="none" stroke="#2563eb" d="M471.29,-114.18C475.02,-117.27 478.59,-120.54 482,-124 495.76,-137.99 476.93,-154.44 492,-167 551.29,-216.42 735.96,-220.62 890.47,-214.36"/>
<polygon fill="#2563eb" stroke="#2563eb" points="890.76,-217.85 900.6,-213.93 890.46,-210.85 890.76,-217.85"/>
<text text-anchor="middle" x="687.5" y="-219.8" font-family="Helvetica,sans-Serif" font-size="14.00">expand_query__generate_reply_6331__tempctxt_rotated</text>
</g>
<!-- op0&#45;&gt;op1 -->
<g id="edge3" class="edge">
<title>op0&#45;&gt;op1</title>
<path fill="none" stroke="#0f766e" d="M445.11,-114.08C457.61,-117.37 469.99,-120.7 482,-124 486.47,-125.23 487.43,-126.2 492,-127 663.44,-156.88 710.38,-125.94 883,-148 885.59,-148.33 888.2,-148.68 890.82,-149.03"/>
<polygon fill="#0f766e" stroke="#0f766e" points="890.59,-152.53 900.98,-150.46 891.56,-145.6 890.59,-152.53"/>
<text text-anchor="middle" x="687.5" y="-151.8" font-family="Helvetica,sans-Serif" font-size="14.00">generate_reply@6331</text>
</g>
<!-- op5 -->
<g id="node11" class="node">
<title>op5</title>
<path fill="#e5e7eb" stroke="black" d="M4405,-207C4405,-207 3971,-207 3971,-207 3965,-207 3959,-201 3959,-195 3959,-195 3959,-121 3959,-121 3959,-115 3965,-109 3971,-109 3971,-109 4405,-109 4405,-109 4411,-109 4417,-115 4417,-121 4417,-121 4417,-195 4417,-195 4417,-201 4411,-207 4405,-207"/>
<text text-anchor="middle" x="4188" y="-191.8" font-family="Helvetica,sans-Serif" font-size="14.00">op5</text>
<text text-anchor="middle" x="4188" y="-176.8" font-family="Helvetica,sans-Serif" font-size="14.00">apply_galois</text>
<text text-anchor="middle" x="4188" y="-161.8" font-family="Helvetica,sans-Serif" font-size="14.00">line 503</text>
<text text-anchor="middle" x="4188" y="-146.8" font-family="Helvetica,sans-Serif" font-size="14.00">layer 5</text>
<text text-anchor="middle" x="4188" y="-131.8" font-family="Helvetica,sans-Serif" font-size="14.00">cost 4</text>
<text text-anchor="middle" x="4188" y="-116.8" font-family="Helvetica,sans-Serif" font-size="14.00">out expand_query__generate_reply_6331__tempctxt_rotated@2</text>
</g>
<!-- op0&#45;&gt;op5 -->
<g id="edge8" class="edge">
<title>op0&#45;&gt;op5</title>
<path fill="none" stroke="#f97316" d="M474.31,-65C651.52,-65 903.36,-65 1124,-65 1124,-65 1124,-65 3531.5,-65 3670.69,-65 3824.87,-85.81 3948.71,-107.74"/>
<polygon fill="#f97316" stroke="#f97316" points="3948.25,-111.21 3958.71,-109.53 3949.48,-104.32 3948.25,-111.21"/>
<text text-anchor="middle" x="2668.5" y="-68.8" font-family="Helvetica,sans-Serif" font-size="14.00">expand_query__generate_reply_6331__tempctxt_rotated</text>
</g>
<!-- op2 -->
<g id="node8" class="node">
<title>op2</title>
<path fill="#e5e7eb" stroke="black" d="M2443,-343.5C2443,-343.5 1551,-343.5 1551,-343.5 1545,-343.5 1539,-337.5 1539,-331.5 1539,-331.5 1539,-242.5 1539,-242.5 1539,-236.5 1545,-230.5 1551,-230.5 1551,-230.5 2443,-230.5 2443,-230.5 2449,-230.5 2455,-236.5 2455,-242.5 2455,-242.5 2455,-331.5 2455,-331.5 2455,-337.5 2449,-343.5 2443,-343.5"/>
<text text-anchor="middle" x="1997" y="-328.3" font-family="Helvetica,sans-Serif" font-size="14.00">op2</text>
<text text-anchor="middle" x="1997" y="-313.3" font-family="Helvetica,sans-Serif" font-size="14.00">add</text>
<text text-anchor="middle" x="1997" y="-298.3" font-family="Helvetica,sans-Serif" font-size="14.00">line 470</text>
<text text-anchor="middle" x="1997" y="-283.3" font-family="Helvetica,sans-Serif" font-size="14.00">layer 2</text>
<text text-anchor="middle" x="1997" y="-268.3" font-family="Helvetica,sans-Serif" font-size="14.00">cost 1</text>
<text text-anchor="middle" x="1997" y="-253.3" font-family="Helvetica,sans-Serif" font-size="14.00">out expand_query__generate_reply_6331__newtemp[a + temp.size()]@1</text>
<text text-anchor="middle" x="1997" y="-238.3" font-family="Helvetica,sans-Serif" font-size="14.00">in expand_query__generate_reply_6331__tempctxt_shifted@0, expand_query__generate_reply_6331__tempctxt_rotatedshifted@0</text>
</g>
<!-- op1&#45;&gt;op2 -->
<g id="edge4" class="edge">
<title>op1&#45;&gt;op2</title>
<path fill="none" stroke="#0f766e" d="M1349.2,-220.09C1404.75,-225.84 1466.41,-232.21 1528.95,-238.68"/>
<polygon fill="#0f766e" stroke="#0f766e" points="1528.68,-242.18 1538.99,-239.72 1529.4,-235.21 1528.68,-242.18"/>
<text text-anchor="middle" x="1444" y="-239.8" font-family="Helvetica,sans-Serif" font-size="14.00">generate_reply@6331</text>
</g>
<!-- op3 -->
<g id="node9" class="node">
<title>op3</title>
<path fill="#e5e7eb" stroke="black" d="M3292,-255C3292,-255 2894,-255 2894,-255 2888,-255 2882,-249 2882,-243 2882,-243 2882,-169 2882,-169 2882,-163 2888,-157 2894,-157 2894,-157 3292,-157 3292,-157 3298,-157 3304,-163 3304,-169 3304,-169 3304,-243 3304,-243 3304,-249 3298,-255 3292,-255"/>
<text text-anchor="middle" x="3093" y="-239.8" font-family="Helvetica,sans-Serif" font-size="14.00">op3</text>
<text text-anchor="middle" x="3093" y="-224.8" font-family="Helvetica,sans-Serif" font-size="14.00">multiply_plain</text>
<text text-anchor="middle" x="3093" y="-209.8" font-family="Helvetica,sans-Serif" font-size="14.00">line 494</text>
<text text-anchor="middle" x="3093" y="-194.8" font-family="Helvetica,sans-Serif" font-size="14.00">layer 3</text>
<text text-anchor="middle" x="3093" y="-179.8" font-family="Helvetica,sans-Serif" font-size="14.00">cost 3</text>
<text text-anchor="middle" x="3093" y="-164.8" font-family="Helvetica,sans-Serif" font-size="14.00">out expand_query__generate_reply_6331__newtemp[a]@2</text>
</g>
<!-- op1&#45;&gt;op3 -->
<g id="edge5" class="edge">
<title>op1&#45;&gt;op3</title>
<path fill="none" stroke="#f97316" d="M1349.26,-197.98C1614.71,-199.16 2071.16,-201.19 2463,-203 2598.82,-203.63 2751.14,-204.35 2871.87,-204.93"/>
<polygon fill="#f97316" stroke="#f97316" points="2871.96,-208.44 2881.97,-204.98 2871.99,-201.44 2871.96,-208.44"/>
<text text-anchor="middle" x="1997" y="-206.8" font-family="Helvetica,sans-Serif" font-size="14.00">expand_query__generate_reply_6331__newtemp[a]</text>
</g>
<!-- op1&#45;&gt;op5 -->
<g id="edge9" class="edge">
<title>op1&#45;&gt;op5</title>
<path fill="none" stroke="#dc2626" d="M1349.36,-162.7C1524.75,-138.73 1775.35,-111 1996,-111 1996,-111 1996,-111 3531.5,-111 3669.94,-111 3824.41,-121.56 3948.61,-132.67"/>
<polygon fill="#dc2626" stroke="#dc2626" points="3948.36,-136.16 3958.63,-133.57 3948.99,-129.19 3948.36,-136.16"/>
<text text-anchor="middle" x="3093" y="-114.8" font-family="Helvetica,sans-Serif" font-size="14.00">expand_query__generate_reply_6331__tempctxt_rotated</text>
</g>
<!-- op2&#45;&gt;op3 -->
<g id="edge6" class="edge">
<title>op2&#45;&gt;op3</title>
<path fill="none" stroke="#0f766e" d="M2455.22,-253.15C2599.35,-242.48 2752.04,-231.17 2871.75,-222.31"/>
<polygon fill="#0f766e" stroke="#0f766e" points="2872.06,-225.79 2881.77,-221.57 2871.54,-218.81 2872.06,-225.79"/>
<text text-anchor="middle" x="2668.5" y="-254.8" font-family="Helvetica,sans-Serif" font-size="14.00">generate_reply@6331</text>
</g>
<!-- op8 -->
<g id="node14" class="node">
<title>op8</title>
<path fill="#e5e7eb" stroke="black" d="M6649,-358.5C6649,-358.5 5757,-358.5 5757,-358.5 5751,-358.5 5745,-352.5 5745,-346.5 5745,-346.5 5745,-257.5 5745,-257.5 5745,-251.5 5751,-245.5 5757,-245.5 5757,-245.5 6649,-245.5 6649,-245.5 6655,-245.5 6661,-251.5 6661,-257.5 6661,-257.5 6661,-346.5 6661,-346.5 6661,-352.5 6655,-358.5 6649,-358.5"/>
<text text-anchor="middle" x="6203" y="-343.3" font-family="Helvetica,sans-Serif" font-size="14.00">op8</text>
<text text-anchor="middle" x="6203" y="-328.3" font-family="Helvetica,sans-Serif" font-size="14.00">add</text>
<text text-anchor="middle" x="6203" y="-313.3" font-family="Helvetica,sans-Serif" font-size="14.00">line 513</text>
<text text-anchor="middle" x="6203" y="-298.3" font-family="Helvetica,sans-Serif" font-size="14.00">layer 8</text>
<text text-anchor="middle" x="6203" y="-283.3" font-family="Helvetica,sans-Serif" font-size="14.00">cost 1</text>
<text text-anchor="middle" x="6203" y="-268.3" font-family="Helvetica,sans-Serif" font-size="14.00">out expand_query__generate_reply_6331__newtemp[a + temp.size()]@2</text>
<text text-anchor="middle" x="6203" y="-253.3" font-family="Helvetica,sans-Serif" font-size="14.00">in expand_query__generate_reply_6331__tempctxt_shifted@0, expand_query__generate_reply_6331__tempctxt_rotatedshifted@0</text>
</g>
<!-- op2&#45;&gt;op8 -->
<g id="edge16" class="edge">
<title>op2&#45;&gt;op8</title>
<path fill="none" stroke="#f97316" d="M2455.01,-305.73C2651.09,-312.26 2882.76,-318 3092,-318 3092,-318 3092,-318 5519.5,-318 5589.12,-318 5662.72,-317.16 5734.81,-315.86"/>
<polygon fill="#f97316" stroke="#f97316" points="5735.04,-319.36 5744.97,-315.67 5734.91,-312.36 5735.04,-319.36"/>
<text text-anchor="middle" x="4188" y="-321.8" font-family="Helvetica,sans-Serif" font-size="14.00">expand_query__generate_reply_6331__newtemp[a + temp.size()]</text>
</g>
<!-- op4 -->
<g id="node10" class="node">
<title>op4</title>
<path fill="#e5e7eb" stroke="black" d="M3555,-222.5C3555,-222.5 3506,-222.5 3506,-222.5 3500,-222.5 3494,-216.5 3494,-210.5 3494,-210.5 3494,-151.5 3494,-151.5 3494,-145.5 3500,-139.5 3506,-139.5 3506,-139.5 3555,-139.5 3555,-139.5 3561,-139.5 3567,-145.5 3567,-151.5 3567,-151.5 3567,-210.5 3567,-210.5 3567,-216.5 3561,-222.5 3555,-222.5"/>
<text text-anchor="middle" x="3530.5" y="-207.3" font-family="Helvetica,sans-Serif" font-size="14.00">op4</text>
<text text-anchor="middle" x="3530.5" y="-192.3" font-family="Helvetica,sans-Serif" font-size="14.00">read</text>
<text text-anchor="middle" x="3530.5" y="-177.3" font-family="Helvetica,sans-Serif" font-size="14.00">line 500</text>
<text text-anchor="middle" x="3530.5" y="-162.3" font-family="Helvetica,sans-Serif" font-size="14.00">layer 4</text>
<text text-anchor="middle" x="3530.5" y="-147.3" font-family="Helvetica,sans-Serif" font-size="14.00">cost 1</text>
</g>
<!-- op3&#45;&gt;op4 -->
<g id="edge7" class="edge">
<title>op3&#45;&gt;op4</title>
<path fill="none" stroke="#0f766e" d="M3304.1,-193.94C3371.61,-190.06 3440.11,-186.13 3483.59,-183.64"/>
<polygon fill="#0f766e" stroke="#0f766e" points="3484.03,-187.12 3493.81,-183.05 3483.63,-180.13 3484.03,-187.12"/>
<text text-anchor="middle" x="3399" y="-195.8" font-family="Helvetica,sans-Serif" font-size="14.00">generate_reply@6331</text>
</g>
<!-- op6 -->
<g id="node12" class="node">
<title>op6</title>
<path fill="#e5e7eb" stroke="black" d="M5280,-268.5C5280,-268.5 4856,-268.5 4856,-268.5 4850,-268.5 4844,-262.5 4844,-256.5 4844,-256.5 4844,-167.5 4844,-167.5 4844,-161.5 4850,-155.5 4856,-155.5 4856,-155.5 5280,-155.5 5280,-155.5 5286,-155.5 5292,-161.5 5292,-167.5 5292,-167.5 5292,-256.5 5292,-256.5 5292,-262.5 5286,-268.5 5280,-268.5"/>
<text text-anchor="middle" x="5068" y="-253.3" font-family="Helvetica,sans-Serif" font-size="14.00">op6</text>
<text text-anchor="middle" x="5068" y="-238.3" font-family="Helvetica,sans-Serif" font-size="14.00">add</text>
<text text-anchor="middle" x="5068" y="-223.3" font-family="Helvetica,sans-Serif" font-size="14.00">line 507</text>
<text text-anchor="middle" x="5068" y="-208.3" font-family="Helvetica,sans-Serif" font-size="14.00">layer 6</text>
<text text-anchor="middle" x="5068" y="-193.3" font-family="Helvetica,sans-Serif" font-size="14.00">cost 1</text>
<text text-anchor="middle" x="5068" y="-178.3" font-family="Helvetica,sans-Serif" font-size="14.00">out expand_query__generate_reply_6331__newtemp[a]@3</text>
<text text-anchor="middle" x="5068" y="-163.3" font-family="Helvetica,sans-Serif" font-size="14.00">in expand_query__generate_reply_6331__tempctxt_rotated@2</text>
</g>
<!-- op3&#45;&gt;op6 -->
<g id="edge13" class="edge">
<title>op3&#45;&gt;op6</title>
<path fill="none" stroke="#f97316" d="M3304.05,-239.06C3362.78,-246.88 3426.75,-254.09 3486,-258 4080.35,-297.25 4231.32,-268.79 4826,-235 4828.57,-234.85 4831.16,-234.7 4833.75,-234.54"/>
<polygon fill="#f97316" stroke="#f97316" points="4834.07,-238.03 4843.83,-233.91 4833.63,-231.04 4834.07,-238.03"/>
<text text-anchor="middle" x="3763" y="-279.8" font-family="Helvetica,sans-Serif" font-size="14.00">expand_query__generate_reply_6331__newtemp[a]</text>
</g>
<!-- op4&#45;&gt;op5 -->
<g id="edge10" class="edge">
<title>op4&#45;&gt;op5</title>
<path fill="none" stroke="#0f766e" d="M3567.21,-179.75C3638.96,-177.23 3805.96,-171.37 3948.55,-166.37"/>
<polygon fill="#0f766e" stroke="#0f766e" points="3948.9,-169.86 3958.77,-166.01 3948.65,-162.86 3948.9,-169.86"/>
<text text-anchor="middle" x="3763" y="-182.8" font-family="Helvetica,sans-Serif" font-size="14.00">generate_reply@6331</text>
</g>
<!-- op5&#45;&gt;op6 -->
<g id="edge11" class="edge">
<title>op5&#45;&gt;op6</title>
<path fill="none" stroke="#1f2937" d="M4417.33,-164.52C4538.81,-168.88 4690.65,-175.73 4826,-186 4828.57,-186.19 4831.16,-186.4 4833.75,-186.6"/>
<polygon fill="#1f2937" stroke="#1f2937" points="4833.58,-190.1 4843.83,-187.42 4834.15,-183.12 4833.58,-190.1"/>
<text text-anchor="middle" x="4630.5" y="-189.8" font-family="Helvetica,sans-Serif" font-size="14.00">expand_query__generate_reply_6331__tempctxt_rotated</text>
</g>
<!-- op5&#45;&gt;op6 -->
<g id="edge12" class="edge">
<title>op5&#45;&gt;op6</title>
<path fill="none" stroke="#2563eb" d="M4417.34,-136.95C4539.15,-129.93 4691.3,-127.89 4826,-146 4840.24,-147.91 4854.82,-150.44 4869.42,-153.38"/>
<polygon fill="#2563eb" stroke="#2563eb" points="4869.03,-156.87 4879.53,-155.48 4870.46,-150.02 4869.03,-156.87"/>
<text text-anchor="middle" x="4630.5" y="-149.8" font-family="Helvetica,sans-Serif" font-size="14.00">expand_query__generate_reply_6331__tempctxt_rotated</text>
</g>
<!-- op5&#45;&gt;op6 -->
<g id="edge14" class="edge">
<title>op5&#45;&gt;op6</title>
<path fill="none" stroke="#0f766e" d="M4417.01,-199.12C4423.06,-199.8 4429.07,-200.43 4435,-201 4566.62,-213.57 4714.35,-216.75 4833.86,-216.58"/>
<polygon fill="#0f766e" stroke="#0f766e" points="4833.88,-220.08 4843.87,-216.56 4833.86,-213.08 4833.88,-220.08"/>
<text text-anchor="middle" x="4630.5" y="-219.8" font-family="Helvetica,sans-Serif" font-size="14.00">generate_reply@6331</text>
</g>
<!-- op7 -->
<g id="node13" class="node">
<title>op7</title>
<path fill="#e5e7eb" stroke="black" d="M5543,-264.5C5543,-264.5 5494,-264.5 5494,-264.5 5488,-264.5 5482,-258.5 5482,-252.5 5482,-252.5 5482,-193.5 5482,-193.5 5482,-187.5 5488,-181.5 5494,-181.5 5494,-181.5 5543,-181.5 5543,-181.5 5549,-181.5 5555,-187.5 5555,-193.5 5555,-193.5 5555,-252.5 5555,-252.5 5555,-258.5 5549,-264.5 5543,-264.5"/>
<text text-anchor="middle" x="5518.5" y="-249.3" font-family="Helvetica,sans-Serif" font-size="14.00">op7</text>
<text text-anchor="middle" x="5518.5" y="-234.3" font-family="Helvetica,sans-Serif" font-size="14.00">read</text>
<text text-anchor="middle" x="5518.5" y="-219.3" font-family="Helvetica,sans-Serif" font-size="14.00">line 508</text>
<text text-anchor="middle" x="5518.5" y="-204.3" font-family="Helvetica,sans-Serif" font-size="14.00">layer 7</text>
<text text-anchor="middle" x="5518.5" y="-189.3" font-family="Helvetica,sans-Serif" font-size="14.00">cost 1</text>
</g>
<!-- op6&#45;&gt;op7 -->
<g id="edge15" class="edge">
<title>op6&#45;&gt;op7</title>
<path fill="none" stroke="#0f766e" d="M5292.26,-217.48C5360.24,-219.14 5428.33,-220.81 5471.56,-221.87"/>
<polygon fill="#0f766e" stroke="#0f766e" points="5471.65,-225.38 5481.74,-222.12 5471.83,-218.38 5471.65,-225.38"/>
<text text-anchor="middle" x="5387" y="-224.8" font-family="Helvetica,sans-Serif" font-size="14.00">generate_reply@6331</text>
</g>
<!-- op7&#45;&gt;op8 -->
<g id="edge17" class="edge">
<title>op7&#45;&gt;op8</title>
<path fill="none" stroke="#0f766e" d="M5555.23,-227.14C5593.62,-231.58 5659.36,-239.19 5734.62,-247.9"/>
<polygon fill="#0f766e" stroke="#0f766e" points="5734.47,-251.41 5744.81,-249.08 5735.28,-244.45 5734.47,-251.41"/>
<text text-anchor="middle" x="5650" y="-249.8" font-family="Helvetica,sans-Serif" font-size="14.00">generate_reply@6331</text>
</g>
<!-- op9 -->
<g id="node15" class="node">
<title>op9</title>
<path fill="#e5e7eb" stroke="black" d="M6912,-343.5C6912,-343.5 6863,-343.5 6863,-343.5 6857,-343.5 6851,-337.5 6851,-331.5 6851,-331.5 6851,-272.5 6851,-272.5 6851,-266.5 6857,-260.5 6863,-260.5 6863,-260.5 6912,-260.5 6912,-260.5 6918,-260.5 6924,-266.5 6924,-272.5 6924,-272.5 6924,-331.5 6924,-331.5 6924,-337.5 6918,-343.5 6912,-343.5"/>
<text text-anchor="middle" x="6887.5" y="-328.3" font-family="Helvetica,sans-Serif" font-size="14.00">op9</text>
<text text-anchor="middle" x="6887.5" y="-313.3" font-family="Helvetica,sans-Serif" font-size="14.00">read</text>
<text text-anchor="middle" x="6887.5" y="-298.3" font-family="Helvetica,sans-Serif" font-size="14.00">line 514</text>
<text text-anchor="middle" x="6887.5" y="-283.3" font-family="Helvetica,sans-Serif" font-size="14.00">layer 9</text>
<text text-anchor="middle" x="6887.5" y="-268.3" font-family="Helvetica,sans-Serif" font-size="14.00">cost 1</text>
</g>
<!-- op8&#45;&gt;op9 -->
<g id="edge18" class="edge">
<title>op8&#45;&gt;op9</title>
<path fill="none" stroke="#0f766e" d="M6661.13,-302C6734.4,-302 6799.58,-302 6840.76,-302"/>
<polygon fill="#0f766e" stroke="#0f766e" points="6840.96,-305.5 6850.96,-302 6840.96,-298.5 6840.96,-305.5"/>
<text text-anchor="middle" x="6756" y="-305.8" font-family="Helvetica,sans-Serif" font-size="14.00">generate_reply@6331</text>
</g>
<!-- op10 -->
<g id="node16" class="node">
<title>op10</title>
<path fill="#17becf" stroke="black" d="M7320,-358.5C7320,-358.5 7126,-358.5 7126,-358.5 7120,-358.5 7114,-352.5 7114,-346.5 7114,-346.5 7114,-257.5 7114,-257.5 7114,-251.5 7120,-245.5 7126,-245.5 7126,-245.5 7320,-245.5 7320,-245.5 7326,-245.5 7332,-251.5 7332,-257.5 7332,-257.5 7332,-346.5 7332,-346.5 7332,-352.5 7326,-358.5 7320,-358.5"/>
<text text-anchor="middle" x="7223" y="-343.3" font-family="Helvetica,sans-Serif" font-size="14.00">op10</text>
<text text-anchor="middle" x="7223" y="-328.3" font-family="Helvetica,sans-Serif" font-size="14.00">assign</text>
<text text-anchor="middle" x="7223" y="-313.3" font-family="Helvetica,sans-Serif" font-size="14.00">line 261</text>
<text text-anchor="middle" x="7223" y="-298.3" font-family="Helvetica,sans-Serif" font-size="14.00">layer 10</text>
<text text-anchor="middle" x="7223" y="-283.3" font-family="Helvetica,sans-Serif" font-size="14.00">cost 1</text>
<text text-anchor="middle" x="7223" y="-268.3" font-family="Helvetica,sans-Serif" font-size="14.00">out expanded_query_part@1</text>
<text text-anchor="middle" x="7223" y="-253.3" font-family="Helvetica,sans-Serif" font-size="14.00">in newVec@0</text>
</g>
<!-- op9&#45;&gt;op10 -->
<g id="edge19" class="edge">
<title>op9&#45;&gt;op10</title>
<path fill="none" stroke="#0f766e" d="M6924.19,-302C6966.86,-302 7040.45,-302 7103.8,-302"/>
<polygon fill="#0f766e" stroke="#0f766e" points="7103.87,-305.5 7113.87,-302 7103.87,-298.5 7103.87,-305.5"/>
<text text-anchor="middle" x="7019" y="-305.8" font-family="Helvetica,sans-Serif" font-size="14.00">generate_reply@6331</text>
</g>
</g>
</svg>
