<?xml version="1.0" encoding="UTF-8" standalone="no"?>
<!DOCTYPE svg PUBLIC "-//W3C//DTD SVG 1.1//EN"
 "http://www.w3.org/Graphics/SVG/1.1/DTD/svg11.dtd">
<!-- Generated by graphviz version 2.43.0 (0)
 -->
<!-- Title: hedag_v2 Pages: 1 -->
<svg width="1505pt" height="306pt"
 viewBox="0.00 0.00 1505.00 306.00" xmlns="http://www.w3.org/2000/svg" xmlns:xlink="http://www.w3.org/1999/xlink">
<g id="graph0" class="graph" transform="scale(1 1) rotate(0) translate(4 302)">
<title>hedag_v2</title>
<polygon fill="white" stroke="transparent" points="-4,4 -4,-302 1501,-302 1501,4 -4,4"/>
<g id="clust1" class="cluster">
<title>cluster_layer_0</title>
<polygon fill="none" stroke="#d1d5db" points="8,-26 8,-279 329,-279 329,-26 8,-26"/>
<text text-anchor="middle" x="168.5" y="-263.8" font-family="Times,serif" font-size="14.00">layer 0</text>
</g>
<g id="clust2" class="cluster">
<title>cluster_layer_1</title>
<polygon fill="none" stroke="#d1d5db" points="691.5,-153 691.5,-290 805.5,-290 805.5,-153 691.5,-153"/>
<text text-anchor="middle" x="748.5" y="-274.8" font-family="Times,serif" font-size="14.00">layer 1</text>
</g>
<g id="clust3" class="cluster">
<title>cluster_layer_2</title>
<polygon fill="none" stroke="#d1d5db" points="588,-8 588,-145 909,-145 909,-8 588,-8"/>
<text text-anchor="middle" x="748.5" y="-129.8" font-family="Times,serif" font-size="14.00">layer 2</text>
</g>
<g id="clust4" class="cluster">
<title>cluster_layer_3</title>
<polygon fill="none" stroke="#d1d5db" points="1168,-8 1168,-145 1489,-145 1489,-8 1168,-8"/>
<text text-anchor="middle" x="1328.5" y="-129.8" font-family="Times,serif" font-size="14.00">layer 3</text>
</g>
<!-- op0 -->
<g id="node1" class="node">
<title>op0</title>
<path fill="#e5e7eb" stroke="black" d="M205.5,-248C205.5,-248 131.5,-248 131.5,-248 125.5,-248 119.5,-242 119.5,-236 119.5,-236 119.5,-162 119.5,-162 119.5,-156 125.5,-150 131.5,-150 131.5,-150 205.5,-150 205.5,-150 211.5,-150 217.5,-156 217.5,-162 217.5,-162 217.5,-236 217.5,-236 217.5,-242 211.5,-248 205.5,-248"/>
<text text-anchor="middle" x="168.5" y="-232.8" font-family="Helvetica,sans-Serif" font-size="14.00">op0</text>
<text text-anchor="middle" x="168.5" y="-217.8" font-family="Helvetica,sans-Serif" font-size="14.00">multiply</text>
<text text-anchor="middle" x="168.5" y="-202.8" font-family="Helvetica,sans-Serif" font-size="14.00">line 262</text>
<text text-anchor="middle" x="168.5" y="-187.8" font-family="Helvetica,sans-Serif" font-size="14.00">layer 0</text>
<text text-anchor="middle" x="168.5" y="-172.8" font-family="Helvetica,sans-Serif" font-size="14.00">cost 5</text>
<text text-anchor="middle" x="168.5" y="-157.8" font-family="Helvetica,sans-Serif" font-size="14.00">out prod@1</text>
</g>
<!-- op1 -->
<g id="node3" class="node">
<title>op1</title>
<path fill="#dbeafe" stroke="black" d="M785.5,-259C785.5,-259 711.5,-259 711.5,-259 705.5,-259 699.5,-253 699.5,-247 699.5,-247 699.5,-173 699.5,-173 699.5,-167 705.5,-161 711.5,-161 711.5,-161 785.5,-161 785.5,-161 791.5,-161 797.5,-167 797.5,-173 797.5,-173 797.5,-247 797.5,-247 797.5,-253 791.5,-259 785.5,-259"/>
<text text-anchor="middle" x="748.5" y="-243.8" font-family="Helvetica,sans-Serif" font-size="14.00">op1</text>
<text text-anchor="middle" x="748.5" y="-228.8" font-family="Helvetica,sans-Serif" font-size="14.00">relinearize</text>
<text text-anchor="middle" x="748.5" y="-213.8" font-family="Helvetica,sans-Serif" font-size="14.00">line 266</text>
<text text-anchor="middle" x="748.5" y="-198.8" font-family="Helvetica,sans-Serif" font-size="14.00">layer 1</text>
<text text-anchor="middle" x="748.5" y="-183.8" font-family="Helvetica,sans-Serif" font-size="14.00">cost 4</text>
<text text-anchor="middle" x="748.5" y="-168.8" font-family="Helvetica,sans-Serif" font-size="14.00">out prod@2</text>
</g>
<!-- op0&#45;&gt;op1 -->
<g id="edge1" class="edge">
<title>op0&#45;&gt;op1</title>
<path fill="none" stroke="#f97316" d="M217.79,-199.92C323.42,-201.93 574.72,-206.71 689.05,-208.89"/>
<polygon fill="#f97316" stroke="#f97316" points="689.29,-212.39 699.35,-209.08 689.42,-205.39 689.29,-212.39"/>
<text text-anchor="middle" x="458.5" y="-209.8" font-family="Helvetica,sans-Serif" font-size="14.00">prod</text>
</g>
<!-- op2 -->
<g id="node2" class="node">
<title>op2</title>
<path fill="#e5e7eb" stroke="black" d="M309,-132C309,-132 28,-132 28,-132 22,-132 16,-126 16,-120 16,-120 16,-46 16,-46 16,-40 22,-34 28,-34 28,-34 309,-34 309,-34 315,-34 321,-40 321,-46 321,-46 321,-120 321,-120 321,-126 315,-132 309,-132"/>
<text text-anchor="middle" x="168.5" y="-116.8" font-family="Helvetica,sans-Serif" font-size="14.00">op2</text>
<text text-anchor="middle" x="168.5" y="-101.8" font-family="Helvetica,sans-Serif" font-size="14.00">ntt_fwd</text>
<text text-anchor="middle" x="168.5" y="-86.8" font-family="Helvetica,sans-Serif" font-size="14.00">line 305</text>
<text text-anchor="middle" x="168.5" y="-71.8" font-family="Helvetica,sans-Serif" font-size="14.00">layer 0</text>
<text text-anchor="middle" x="168.5" y="-56.8" font-family="Helvetica,sans-Serif" font-size="14.00">cost 3</text>
<text text-anchor="middle" x="168.5" y="-41.8" font-family="Helvetica,sans-Serif" font-size="14.00">out powers_at_this_bundle_idx[power]@1</text>
</g>
<!-- op3 -->
<g id="node4" class="node">
<title>op3</title>
<path fill="#dbeafe" stroke="black" d="M889,-114C889,-114 608,-114 608,-114 602,-114 596,-108 596,-102 596,-102 596,-28 596,-28 596,-22 602,-16 608,-16 608,-16 889,-16 889,-16 895,-16 901,-22 901,-28 901,-28 901,-102 901,-102 901,-108 895,-114 889,-114"/>
<text text-anchor="middle" x="748.5" y="-98.8" font-family="Helvetica,sans-Serif" font-size="14.00">op3</text>
<text text-anchor="middle" x="748.5" y="-83.8" font-family="Helvetica,sans-Serif" font-size="14.00">drop_modulus</text>
<text text-anchor="middle" x="748.5" y="-68.8" font-family="Helvetica,sans-Serif" font-size="14.00">line 307</text>
<text text-anchor="middle" x="748.5" y="-53.8" font-family="Helvetica,sans-Serif" font-size="14.00">layer 2</text>
<text text-anchor="middle" x="748.5" y="-38.8" font-family="Helvetica,sans-Serif" font-size="14.00">cost 4</text>
<text text-anchor="middle" x="748.5" y="-23.8" font-family="Helvetica,sans-Serif" font-size="14.00">out powers_at_this_bundle_idx[power]@2</text>
</g>
<!-- op2&#45;&gt;op3 -->
<g id="edge2" class="edge">
<title>op2&#45;&gt;op3</title>
<path fill="none" stroke="#f97316" d="M321.36,-78.27C402.76,-75.74 503.05,-72.61 585.89,-70.03"/>
<polygon fill="#f97316" stroke="#f97316" points="586.01,-73.53 595.9,-69.72 585.8,-66.53 586.01,-73.53"/>
<text text-anchor="middle" x="458.5" y="-80.8" font-family="Helvetica,sans-Serif" font-size="14.00">powers_at_this_bundle_idx[power]</text>
</g>
<!-- op4 -->
<g id="node5" class="node">
<title>op4</title>
<path fill="#dbeafe" stroke="black" d="M1469,-114C1469,-114 1188,-114 1188,-114 1182,-114 1176,-108 1176,-102 1176,-102 1176,-28 1176,-28 1176,-22 1182,-16 1188,-16 1188,-16 1469,-16 1469,-16 1475,-16 1481,-22 1481,-28 1481,-28 1481,-102 1481,-102 1481,-108 1475,-114 1469,-114"/>
<text text-anchor="middle" x="1328.5" y="-98.8" font-family="Helvetica,sans-Serif" font-size="14.00">op4</text>
<text text-anchor="middle" x="1328.5" y="-83.8" font-family="Helvetica,sans-Serif" font-size="14.00">drop_modulus</text>
<text text-anchor="middle" x="1328.5" y="-68.8" font-family="Helvetica,sans-Serif" font-size="14.00">line 320</text>
<text text-anchor="middle" x="1328.5" y="-53.8" font-family="Helvetica,sans-Serif" font-size="14.00">layer 3</text>
<text text-anchor="middle" x="1328.5" y="-38.8" font-family="Helvetica,sans-Serif" font-size="14.00">cost 4</text>
<text text-anchor="middle" x="1328.5" y="-23.8" font-family="Helvetica,sans-Serif" font-size="14.00">out powers_at_this_bundle_idx[power]@3</text>
</g>
<!-- op3&#45;&gt;op4 -->
<g id="edge3" class="edge">
<title>op3&#45;&gt;op4</title>
<path fill="none" stroke="#f97316" d="M901.36,-65C982.76,-65 1083.05,-65 1165.89,-65"/>
<polygon fill="#f97316" stroke="#f97316" points="1165.9,-68.5 1175.9,-65 1165.9,-61.5 1165.9,-68.5"/>
<text text-anchor="middle" x="1038.5" y="-68.8" font-family="Helvetica,sans-Serif" font-size="14.00">powers_at_this_bundle_idx[power]</text>
</g>
</g>
</svg>
