<?xml version="1.0" encoding="UTF-8" standalone="no"?>
<!DOCTYPE svg PUBLIC "-//W3C//DTD SVG 1.1//EN"
 "http://www.w3.org/Graphics/SVG/1.1/DTD/svg11.dtd">
<!-- Generated by graphviz version 2.43.0 (0)
 -->
<!-- Title: hedag_v2 Pages: 1 -->
<svg width="1509pt" height="318pt"
 viewBox="0.00 0.00 1509.00 317.60" xmlns="http://www.w3.org/2000/svg" xmlns:xlink="http://www.w3.org/1999/xlink">
<g id="graph0" class="graph" transform="scale(1 1) rotate(0) translate(4 313.6)">
<title>hedag_v2</title>
<polygon fill="white" stroke="transparent" points="-4,4 -4,-313.6 1505,-313.6 1505,4 -4,4"/>
<g id="clust1" class="cluster">
<title>cluster_layer_0</title>
<polygon fill="none" stroke="#d1d5db" points="8,-32.6 8,-301.6 169,-301.6 169,-32.6 8,-32.6"/>
<text text-anchor="middle" x="88.5" y="-286.4" font-family="Times,serif" font-size="14.00">layer 0</text>
</g>
<g id="clust2" class="cluster">
<title>cluster_layer_1</title>
<polygon fill="none" stroke="#d1d5db" points="268,-18.6 268,-171.6 526,-171.6 526,-18.6 268,-18.6"/>
<text text-anchor="middle" x="397" y="-156.4" font-family="Times,serif" font-size="14.00">layer 1</text>
</g>
<g id="clust3" class="cluster">
<title>cluster_layer_2</title>
<polygon fill="none" stroke="#d1d5db" points="622,-8.6 622,-161.6 780,-161.6 780,-8.6 622,-8.6"/>
<text text-anchor="middle" x="701" y="-146.4" font-family="Times,serif" font-size="14.00">layer 2</text>
</g>
<g id="clust4" class="cluster">
<title>cluster_layer_3</title>
<polygon fill="none" stroke="#d1d5db" points="876,-98.6 876,-251.6 1070,-251.6 1070,-98.6 876,-98.6"/>
<text text-anchor="middle" x="973" y="-236.4" font-family="Times,serif" font-size="14.00">layer 3</text>
</g>
<g id="clust5" class="cluster">
<title>cluster_layer_4</title>
<polygon fill="none" stroke="#d1d5db" points="1202,-8.6 1202,-161.6 1493,-161.6 1493,-8.6 1202,-8.6"/>
<text text-anchor="middle" x="1347.5" y="-146.4" font-family="Times,serif" font-size="14.00">layer 4</text>
</g>
<!-- op0 -->
<g id="node1" class="node">
<title>op0</title>
<path fill="#17becf" stroke="black" d="M142,-270.1C142,-270.1 35,-270.1 35,-270.1 29,-270.1 23,-264.1 23,-258.1 23,-258.1 23,-169.1 23,-169.1 23,-163.1 29,-157.1 35,-157.1 35,-157.1 142,-157.1 142,-157.1 148,-157.1 154,-163.1 154,-169.1 154,-169.1 154,-258.1 154,-258.1 154,-264.1 148,-270.1 142,-270.1"/>
<text text-anchor="middle" x="88.5" y="-254.9" font-family="Helvetica,sans-Serif" font-size="14.00">op0</text>
<text text-anchor="middle" x="88.5" y="-239.9" font-family="Helvetica,sans-Serif" font-size="14.00">assign</text>
<text text-anchor="middle" x="88.5" y="-224.9" font-family="Helvetica,sans-Serif" font-size="14.00">line 153</text>
<text text-anchor="middle" x="88.5" y="-209.9" font-family="Helvetica,sans-Serif" font-size="14.00">layer 0</text>
<text text-anchor="middle" x="88.5" y="-194.9" font-family="Helvetica,sans-Serif" font-size="14.00">cost 1</text>
<text text-anchor="middle" x="88.5" y="-179.9" font-family="Helvetica,sans-Serif" font-size="14.00">out ciph_tmp@1</text>
<text text-anchor="middle" x="88.5" y="-164.9" font-family="Helvetica,sans-Serif" font-size="14.00">in ct@0</text>
</g>
<!-- op1 -->
<g id="node2" class="node">
<title>op1</title>
<path fill="#e5e7eb" stroke="black" d="M149,-138.6C149,-138.6 28,-138.6 28,-138.6 22,-138.6 16,-132.6 16,-126.6 16,-126.6 16,-52.6 16,-52.6 16,-46.6 22,-40.6 28,-40.6 28,-40.6 149,-40.6 149,-40.6 155,-40.6 161,-46.6 161,-52.6 161,-52.6 161,-126.6 161,-126.6 161,-132.6 155,-138.6 149,-138.6"/>
<text text-anchor="middle" x="88.5" y="-123.4" font-family="Helvetica,sans-Serif" font-size="14.00">op1</text>
<text text-anchor="middle" x="88.5" y="-108.4" font-family="Helvetica,sans-Serif" font-size="14.00">encode</text>
<text text-anchor="middle" x="88.5" y="-93.4" font-family="Helvetica,sans-Serif" font-size="14.00">line 162</text>
<text text-anchor="middle" x="88.5" y="-78.4" font-family="Helvetica,sans-Serif" font-size="14.00">layer 0</text>
<text text-anchor="middle" x="88.5" y="-63.4" font-family="Helvetica,sans-Serif" font-size="14.00">cost 1</text>
<text text-anchor="middle" x="88.5" y="-48.4" font-family="Helvetica,sans-Serif" font-size="14.00">out mask_plain@1</text>
</g>
<!-- op2 -->
<g id="node3" class="node">
<title>op2</title>
<path fill="#e5e7eb" stroke="black" d="M506,-140.1C506,-140.1 288,-140.1 288,-140.1 282,-140.1 276,-134.1 276,-128.1 276,-128.1 276,-39.1 276,-39.1 276,-33.1 282,-27.1 288,-27.1 288,-27.1 506,-27.1 506,-27.1 512,-27.1 518,-33.1 518,-39.1 518,-39.1 518,-128.1 518,-128.1 518,-134.1 512,-140.1 506,-140.1"/>
<text text-anchor="middle" x="397" y="-124.9" font-family="Helvetica,sans-Serif" font-size="14.00">op2</text>
<text text-anchor="middle" x="397" y="-109.9" font-family="Helvetica,sans-Serif" font-size="14.00">multiply_plain</text>
<text text-anchor="middle" x="397" y="-94.9" font-family="Helvetica,sans-Serif" font-size="14.00">line 173</text>
<text text-anchor="middle" x="397" y="-79.9" font-family="Helvetica,sans-Serif" font-size="14.00">layer 1</text>
<text text-anchor="middle" x="397" y="-64.9" font-family="Helvetica,sans-Serif" font-size="14.00">cost 3</text>
<text text-anchor="middle" x="397" y="-49.9" font-family="Helvetica,sans-Serif" font-size="14.00">out ciph_result@1</text>
<text text-anchor="middle" x="397" y="-34.9" font-family="Helvetica,sans-Serif" font-size="14.00">in ciph_result@0, mask_plain@1</text>
</g>
<!-- op1&#45;&gt;op2 -->
<g id="edge1" class="edge">
<title>op1&#45;&gt;op2</title>
<path fill="none" stroke="#1f2937" d="M161.36,-88.19C192.49,-87.58 229.94,-86.85 265.68,-86.15"/>
<polygon fill="#1f2937" stroke="#1f2937" points="265.78,-89.65 275.71,-85.95 265.65,-82.65 265.78,-89.65"/>
<text text-anchor="middle" x="218.5" y="-91.4" font-family="Helvetica,sans-Serif" font-size="14.00">mask_plain</text>
</g>
<!-- op1&#45;&gt;op2 -->
<g id="edge2" class="edge">
<title>op1&#45;&gt;op2</title>
<path fill="none" stroke="#2563eb" d="M161,-69.53C167.05,-68.35 173.11,-67.34 179,-66.6 207,-63.06 237.14,-63.03 265.78,-64.77"/>
<polygon fill="#2563eb" stroke="#2563eb" points="265.62,-68.26 275.84,-65.45 266.1,-61.28 265.62,-68.26"/>
<text text-anchor="middle" x="218.5" y="-70.4" font-family="Helvetica,sans-Serif" font-size="14.00">mask_plain</text>
</g>
<!-- op3 -->
<g id="node4" class="node">
<title>op3</title>
<path fill="#8c564b" stroke="black" d="M760,-130.1C760,-130.1 642,-130.1 642,-130.1 636,-130.1 630,-124.1 630,-118.1 630,-118.1 630,-29.1 630,-29.1 630,-23.1 636,-17.1 642,-17.1 642,-17.1 760,-17.1 760,-17.1 766,-17.1 772,-23.1 772,-29.1 772,-29.1 772,-118.1 772,-118.1 772,-124.1 766,-130.1 760,-130.1"/>
<text text-anchor="middle" x="701" y="-114.9" font-family="Helvetica,sans-Serif" font-size="14.00">op3</text>
<text text-anchor="middle" x="701" y="-99.9" font-family="Helvetica,sans-Serif" font-size="14.00">rescale_dynamic</text>
<text text-anchor="middle" x="701" y="-84.9" font-family="Helvetica,sans-Serif" font-size="14.00">line 174</text>
<text text-anchor="middle" x="701" y="-69.9" font-family="Helvetica,sans-Serif" font-size="14.00">layer 2</text>
<text text-anchor="middle" x="701" y="-54.9" font-family="Helvetica,sans-Serif" font-size="14.00">cost 4</text>
<text text-anchor="middle" x="701" y="-39.9" font-family="Helvetica,sans-Serif" font-size="14.00">out ciph_result@2</text>
<text text-anchor="middle" x="701" y="-24.9" font-family="Helvetica,sans-Serif" font-size="14.00">in ciph_result@1</text>
</g>
<!-- op2&#45;&gt;op3 -->
<g id="edge3" class="edge">
<title>op2&#45;&gt;op3</title>
<path fill="none" stroke="#1f2937" d="M518.17,-110.51C548.89,-113.87 581.78,-114.39 612,-108.6 614.63,-108.09 617.29,-107.51 619.95,-106.86"/>
<polygon fill="#1f2937" stroke="#1f2937" points="620.87,-110.24 629.61,-104.25 619.04,-103.48 620.87,-110.24"/>
<text text-anchor="middle" x="574" y="-116.4" font-family="Helvetica,sans-Serif" font-size="14.00">ciph_result</text>
</g>
<!-- op2&#45;&gt;op3 -->
<g id="edge4" class="edge">
<title>op2&#45;&gt;op3</title>
<path fill="none" stroke="#2563eb" d="M518.23,-79.62C552.22,-78.49 588.38,-77.29 619.42,-76.27"/>
<polygon fill="#2563eb" stroke="#2563eb" points="619.87,-79.75 629.75,-75.92 619.63,-72.76 619.87,-79.75"/>
<text text-anchor="middle" x="574" y="-82.4" font-family="Helvetica,sans-Serif" font-size="14.00">ciph_result</text>
</g>
<!-- op2&#45;&gt;op3 -->
<g id="edge5" class="edge">
<title>op2&#45;&gt;op3</title>
<path fill="none" stroke="#f97316" d="M518.22,-58.66C524.22,-57.86 530.17,-57.16 536,-56.6 569.62,-53.34 578.38,-53.38 612,-56.6 614.51,-56.84 617.05,-57.11 619.61,-57.42"/>
<polygon fill="#f97316" stroke="#f97316" points="619.19,-60.9 629.57,-58.76 620.12,-53.96 619.19,-60.9"/>
<text text-anchor="middle" x="574" y="-60.4" font-family="Helvetica,sans-Serif" font-size="14.00">ciph_result</text>
</g>
<!-- op2&#45;&gt;op3 -->
<g id="edge6" class="edge">
<title>op2&#45;&gt;op3</title>
<path fill="none" stroke="#dc2626" d="M518.1,-37.43C548.68,-30.81 581.52,-28.15 612,-34.6 614.67,-35.16 617.35,-35.81 620.04,-36.54"/>
<polygon fill="#dc2626" stroke="#dc2626" points="619.19,-39.93 629.77,-39.45 621.2,-33.23 619.19,-39.93"/>
<text text-anchor="middle" x="574" y="-38.4" font-family="Helvetica,sans-Serif" font-size="14.00">ciph_result</text>
</g>
<!-- op4 -->
<g id="node5" class="node">
<title>op4</title>
<path fill="#9467bd" stroke="black" d="M1050,-220.1C1050,-220.1 896,-220.1 896,-220.1 890,-220.1 884,-214.1 884,-208.1 884,-208.1 884,-119.1 884,-119.1 884,-113.1 890,-107.1 896,-107.1 896,-107.1 1050,-107.1 1050,-107.1 1056,-107.1 1062,-113.1 1062,-119.1 1062,-119.1 1062,-208.1 1062,-208.1 1062,-214.1 1056,-220.1 1050,-220.1"/>
<text text-anchor="middle" x="973" y="-204.9" font-family="Helvetica,sans-Serif" font-size="14.00">op4</text>
<text text-anchor="middle" x="973" y="-189.9" font-family="Helvetica,sans-Serif" font-size="14.00">rotate</text>
<text text-anchor="middle" x="973" y="-174.9" font-family="Helvetica,sans-Serif" font-size="14.00">line 180</text>
<text text-anchor="middle" x="973" y="-159.9" font-family="Helvetica,sans-Serif" font-size="14.00">layer 3</text>
<text text-anchor="middle" x="973" y="-144.9" font-family="Helvetica,sans-Serif" font-size="14.00">cost 4</text>
<text text-anchor="middle" x="973" y="-129.9" font-family="Helvetica,sans-Serif" font-size="14.00">out ciph_tmp_rotate@1</text>
<text text-anchor="middle" x="973" y="-114.9" font-family="Helvetica,sans-Serif" font-size="14.00">in ciph_result@2</text>
</g>
<!-- op3&#45;&gt;op4 -->
<g id="edge7" class="edge">
<title>op3&#45;&gt;op4</title>
<path fill="none" stroke="#1f2937" d="M772.02,-126.06C777.93,-129.27 783.96,-132.17 790,-134.6 816.18,-145.12 845.91,-151.83 873.65,-156.11"/>
<polygon fill="#1f2937" stroke="#1f2937" points="873.37,-159.61 883.77,-157.58 874.37,-152.68 873.37,-159.61"/>
<text text-anchor="middle" x="828" y="-157.4" font-family="Helvetica,sans-Serif" font-size="14.00">ciph_result</text>
</g>
<!-- op3&#45;&gt;op4 -->
<g id="edge8" class="edge">
<title>op3&#45;&gt;op4</title>
<path fill="none" stroke="#2563eb" d="M772.23,-88.73C801.56,-95.78 835.78,-104.98 866,-115.6 868.77,-116.57 871.57,-117.59 874.38,-118.64"/>
<polygon fill="#2563eb" stroke="#2563eb" points="873.39,-122.01 883.98,-122.35 875.91,-115.48 873.39,-122.01"/>
<text text-anchor="middle" x="828" y="-119.4" font-family="Helvetica,sans-Serif" font-size="14.00">ciph_result</text>
</g>
<!-- op5 -->
<g id="node6" class="node">
<title>op5</title>
<path fill="#e5e7eb" stroke="black" d="M1473,-130.1C1473,-130.1 1222,-130.1 1222,-130.1 1216,-130.1 1210,-124.1 1210,-118.1 1210,-118.1 1210,-29.1 1210,-29.1 1210,-23.1 1216,-17.1 1222,-17.1 1222,-17.1 1473,-17.1 1473,-17.1 1479,-17.1 1485,-23.1 1485,-29.1 1485,-29.1 1485,-118.1 1485,-118.1 1485,-124.1 1479,-130.1 1473,-130.1"/>
<text text-anchor="middle" x="1347.5" y="-114.9" font-family="Helvetica,sans-Serif" font-size="14.00">op5</text>
<text text-anchor="middle" x="1347.5" y="-99.9" font-family="Helvetica,sans-Serif" font-size="14.00">add</text>
<text text-anchor="middle" x="1347.5" y="-84.9" font-family="Helvetica,sans-Serif" font-size="14.00">line 181</text>
<text text-anchor="middle" x="1347.5" y="-69.9" font-family="Helvetica,sans-Serif" font-size="14.00">layer 4</text>
<text text-anchor="middle" x="1347.5" y="-54.9" font-family="Helvetica,sans-Serif" font-size="14.00">cost 1</text>
<text text-anchor="middle" x="1347.5" y="-39.9" font-family="Helvetica,sans-Serif" font-size="14.00">out ciph_result@3</text>
<text text-anchor="middle" x="1347.5" y="-24.9" font-family="Helvetica,sans-Serif" font-size="14.00">in ciph_result@2, ciph_tmp_rotate@1</text>
</g>
<!-- op3&#45;&gt;op5 -->
<g id="edge9" class="edge">
<title>op3&#45;&gt;op5</title>
<path fill="none" stroke="#1f2937" d="M772.2,-73.6C874.19,-73.6 1065.72,-73.6 1199.44,-73.6"/>
<polygon fill="#1f2937" stroke="#1f2937" points="1199.77,-77.1 1209.77,-73.6 1199.77,-70.1 1199.77,-77.1"/>
<text text-anchor="middle" x="973" y="-77.4" font-family="Helvetica,sans-Serif" font-size="14.00">ciph_result</text>
</g>
<!-- op3&#45;&gt;op5 -->
<g id="edge10" class="edge">
<title>op3&#45;&gt;op5</title>
<path fill="none" stroke="#2563eb" d="M772.13,-64.18C803.79,-60.38 841.71,-56.46 876,-54.6 984.39,-48.7 1106.93,-54.03 1199.77,-60.53"/>
<polygon fill="#2563eb" stroke="#2563eb" points="1199.57,-64.02 1209.8,-61.24 1200.07,-57.04 1199.57,-64.02"/>
<text text-anchor="middle" x="973" y="-58.4" font-family="Helvetica,sans-Serif" font-size="14.00">ciph_result</text>
</g>
<!-- op3&#45;&gt;op5 -->
<g id="edge13" class="edge">
<title>op3&#45;&gt;op5</title>
<path fill="none" stroke="#f97316" d="M772.41,-52.67C803.8,-44.47 841.42,-36.18 876,-32.6 984.4,-21.38 1107.06,-32.86 1199.95,-46.49"/>
<polygon fill="#f97316" stroke="#f97316" points="1199.58,-49.98 1209.99,-47.99 1200.62,-43.05 1199.58,-49.98"/>
<text text-anchor="middle" x="973" y="-36.4" font-family="Helvetica,sans-Serif" font-size="14.00">ciph_result</text>
</g>
<!-- op3&#45;&gt;op5 -->
<g id="edge14" class="edge">
<title>op3&#45;&gt;op5</title>
<path fill="none" stroke="#dc2626" d="M772.03,-37.73C778.04,-35.16 784.08,-32.74 790,-30.6 827,-17.22 836.94,-14.3 876,-9.6 1015.72,7.21 1054.67,1.11 1192,-29.6 1194.65,-30.19 1197.33,-30.8 1200.02,-31.43"/>
<polygon fill="#dc2626" stroke="#dc2626" points="1199.28,-34.85 1209.82,-33.77 1200.9,-28.04 1199.28,-34.85"/>
<text text-anchor="middle" x="973" y="-13.4" font-family="Helvetica,sans-Serif" font-size="14.00">ciph_result</text>
</g>
<!-- op4&#45;&gt;op5 -->
<g id="edge11" class="edge">
<title>op4&#45;&gt;op5</title>
<path fill="none" stroke="#1f2937" d="M1062.09,-172.21C1102.34,-173.66 1150.25,-171.85 1192,-160.6 1213.26,-154.87 1234.71,-145.54 1254.57,-135.08"/>
<polygon fill="#1f2937" stroke="#1f2937" points="1256.46,-138.04 1263.58,-130.21 1253.12,-131.89 1256.46,-138.04"/>
<text text-anchor="middle" x="1136" y="-176.4" font-family="Helvetica,sans-Serif" font-size="14.00">ciph_tmp_rotate</text>
</g>
<!-- op4&#45;&gt;op5 -->
<g id="edge12" class="edge">
<title>op4&#45;&gt;op5</title>
<path fill="none" stroke="#2563eb" d="M1062.16,-145.05C1068.19,-143.85 1074.18,-142.69 1080,-141.6 1129.61,-132.24 1142.93,-134.48 1192,-122.6 1194.66,-121.95 1197.35,-121.29 1200.05,-120.6"/>
<polygon fill="#2563eb" stroke="#2563eb" points="1201.09,-123.94 1209.89,-118.03 1199.33,-117.17 1201.09,-123.94"/>
<text text-anchor="middle" x="1136" y="-145.4" font-family="Helvetica,sans-Serif" font-size="14.00">ciph_tmp_rotate</text>
</g>
<!-- op4&#45;&gt;op5 -->
<g id="edge15" class="edge">
<title>op4&#45;&gt;op5</title>
<path fill="none" stroke="#dc2626" d="M1062.17,-110.32C1068.09,-107.8 1074.07,-105.52 1080,-103.6 1102.89,-96.17 1150.75,-89.85 1199.69,-84.96"/>
<polygon fill="#dc2626" stroke="#dc2626" points="1200.2,-88.42 1209.81,-83.96 1199.51,-81.46 1200.2,-88.42"/>
<text text-anchor="middle" x="1136" y="-107.4" font-family="Helvetica,sans-Serif" font-size="14.00">ciph_result</text>
</g>
</g>
</svg>
