<?xml version="1.0" encoding="UTF-8" standalone="no"?>
<!DOCTYPE svg PUBLIC "-//W3C//DTD SVG 1.1//EN"
 "http://www.w3.org/Graphics/SVG/1.1/DTD/svg11.dtd">
<!-- Generated by graphviz version 2.43.0 (0)
 -->
<!-- Title: hedag_v2 Pages: 1 -->
<svg width="308pt" height="187pt"
 viewBox="0.00 0.00 308.00 187.00" xmlns="http://www.w3.org/2000/svg" xmlns:xlink="http://www.w3.org/1999/xlink">
<g id="graph0" class="graph" transform="scale(1 1) rotate(0) translate(4 183)">
<title>hedag_v2</title>
<polygon fill="white" stroke="transparent" points="-4,4 -4,-183 304,-183 304,4 -4,4"/>
<g id="clust1" class="cluster">
<title>cluster_layer_0</title>
<polygon fill="none" stroke="#d1d5db" points="8,-18 8,-171 105,-171 105,-18 8,-18"/>
<text text-anchor="middle" x="56.5" y="-155.8" font-family="Times,serif" font-size="14.00">layer 0</text>
</g>
<g id="clust2" class="cluster">
<title>cluster_layer_1</title>
<polygon fill="none" stroke="#d1d5db" points="140,-8 140,-161 292,-161 292,-8 140,-8"/>
<text text-anchor="middle" x="216" y="-145.8" font-family="Times,serif" font-size="14.00">layer 1</text>
</g>
<!-- op0 -->
<g id="node1" class="node">
<title>op0</title>
<path fill="#e5e7eb" stroke="black" d="M85,-139.5C85,-139.5 28,-139.5 28,-139.5 22,-139.5 16,-133.5 16,-127.5 16,-127.5 16,-38.5 16,-38.5 16,-32.5 22,-26.5 28,-26.5 28,-26.5 85,-26.5 85,-26.5 91,-26.5 97,-32.5 97,-38.5 97,-38.5 97,-127.5 97,-127.5 97,-133.5 91,-139.5 85,-139.5"/>
<text text-anchor="middle" x="56.5" y="-124.3" font-family="Helvetica,sans-Serif" font-size="14.00">op0</text>
<text text-anchor="middle" x="56.5" y="-109.3" font-family="Helvetica,sans-Serif" font-size="14.00">decrypt</text>
<text text-anchor="middle" x="56.5" y="-94.3" font-family="Helvetica,sans-Serif" font-size="14.00">line 165</text>
<text text-anchor="middle" x="56.5" y="-79.3" font-family="Helvetica,sans-Serif" font-size="14.00">layer 0</text>
<text text-anchor="middle" x="56.5" y="-64.3" font-family="Helvetica,sans-Serif" font-size="14.00">cost 4</text>
<text text-anchor="middle" x="56.5" y="-49.3" font-family="Helvetica,sans-Serif" font-size="14.00">out pt@1</text>
<text text-anchor="middle" x="56.5" y="-34.3" font-family="Helvetica,sans-Serif" font-size="14.00">in ct@0</text>
</g>
<!-- op1 -->
<g id="node2" class="node">
<title>op1</title>
<path fill="#64748b" stroke="black" d="M272,-129.5C272,-129.5 160,-129.5 160,-129.5 154,-129.5 148,-123.5 148,-117.5 148,-117.5 148,-28.5 148,-28.5 148,-22.5 154,-16.5 160,-16.5 160,-16.5 272,-16.5 272,-16.5 278,-16.5 284,-22.5 284,-28.5 284,-28.5 284,-117.5 284,-117.5 284,-123.5 278,-129.5 272,-129.5"/>
<text text-anchor="middle" x="216" y="-114.3" font-family="Helvetica,sans-Serif" font-size="14.00">op1</text>
<text text-anchor="middle" x="216" y="-99.3" font-family="Helvetica,sans-Serif" font-size="14.00">return</text>
<text text-anchor="middle" x="216" y="-84.3" font-family="Helvetica,sans-Serif" font-size="14.00">line 166</text>
<text text-anchor="middle" x="216" y="-69.3" font-family="Helvetica,sans-Serif" font-size="14.00">layer 1</text>
<text text-anchor="middle" x="216" y="-54.3" font-family="Helvetica,sans-Serif" font-size="14.00">cost 1</text>
<text text-anchor="middle" x="216" y="-39.3" font-family="Helvetica,sans-Serif" font-size="14.00">out __return__@1</text>
<text text-anchor="middle" x="216" y="-24.3" font-family="Helvetica,sans-Serif" font-size="14.00">in pt@1</text>
</g>
<!-- op0&#45;&gt;op1 -->
<g id="edge1" class="edge">
<title>op0&#45;&gt;op1</title>
<path fill="none" stroke="#1f2937" d="M97.24,-80.48C109.64,-79.69 123.75,-78.79 137.8,-77.9"/>
<polygon fill="#1f2937" stroke="#1f2937" points="138.24,-81.38 148,-77.25 137.8,-74.39 138.24,-81.38"/>
<text text-anchor="middle" x="122.5" y="-82.8" font-family="Helvetica,sans-Serif" font-size="14.00">pt</text>
</g>
<!-- op0&#45;&gt;op1 -->
<g id="edge2" class="edge">
<title>op0&#45;&gt;op1</title>
<path fill="none" stroke="#2563eb" d="M97.07,-64.12C102.97,-62.01 109.06,-60.19 115,-59 122.35,-57.53 130.04,-56.94 137.74,-56.98"/>
<polygon fill="#2563eb" stroke="#2563eb" points="137.72,-60.48 147.85,-57.37 137.99,-53.48 137.72,-60.48"/>
<text text-anchor="middle" x="122.5" y="-62.8" font-family="Helvetica,sans-Serif" font-size="14.00">pt</text>
</g>
</g>
</svg>
