<?xml version="1.0" encoding="UTF-8" standalone="no"?>
<!DOCTYPE svg PUBLIC "-//W3C//DTD SVG 1.1//EN"
 "http://www.w3.org/Graphics/SVG/1.1/DTD/svg11.dtd">
<!-- Generated by graphviz version 2.43.0 (0)
 -->
<!-- Title: hedag_v2 Pages: 1 -->
<svg width="222pt" height="293pt"
 viewBox="0.00 0.00 222.00 293.00" xmlns="http://www.w3.org/2000/svg" xmlns:xlink="http://www.w3.org/1999/xlink">
<g id="graph0" class="graph" transform="scale(1 1) rotate(0) translate(4 289)">
<title>hedag_v2</title>
<polygon fill="white" stroke="transparent" points="-4,4 -4,-289 218,-289 218,4 -4,4"/>
<g id="clust1" class="cluster">
<title>cluster_layer_0</title>
<polygon fill="none" stroke="#d1d5db" points="8,-8 8,-277 206,-277 206,-8 8,-8"/>
<text text-anchor="middle" x="107" y="-261.8" font-family="Times,serif" font-size="14.00">layer 0</text>
</g>
<!-- op0 -->
<g id="node1" class="node">
<title>op0</title>
<path fill="#e5e7eb" stroke="black" d="M186,-246C186,-246 28,-246 28,-246 22,-246 16,-240 16,-234 16,-234 16,-160 16,-160 16,-154 22,-148 28,-148 28,-148 186,-148 186,-148 192,-148 198,-154 198,-160 198,-160 198,-234 198,-234 198,-240 192,-246 186,-246"/>
<text text-anchor="middle" x="107" y="-230.8" font-family="Helvetica,sans-Serif" font-size="14.00">op0</text>
<text text-anchor="middle" x="107" y="-215.8" font-family="Helvetica,sans-Serif" font-size="14.00">encrypt</text>
<text text-anchor="middle" x="107" y="-200.8" font-family="Helvetica,sans-Serif" font-size="14.00">line 329</text>
<text text-anchor="middle" x="107" y="-185.8" font-family="Helvetica,sans-Serif" font-size="14.00">layer 0</text>
<text text-anchor="middle" x="107" y="-170.8" font-family="Helvetica,sans-Serif" font-size="14.00">cost 4</text>
<text text-anchor="middle" x="107" y="-155.8" font-family="Helvetica,sans-Serif" font-size="14.00">out crypto_context_)@1</text>
</g>
<!-- op1 -->
<g id="node2" class="node">
<title>op1</title>
<path fill="#64748b" stroke="black" d="M185.5,-129.5C185.5,-129.5 28.5,-129.5 28.5,-129.5 22.5,-129.5 16.5,-123.5 16.5,-117.5 16.5,-117.5 16.5,-28.5 16.5,-28.5 16.5,-22.5 22.5,-16.5 28.5,-16.5 28.5,-16.5 185.5,-16.5 185.5,-16.5 191.5,-16.5 197.5,-22.5 197.5,-28.5 197.5,-28.5 197.5,-117.5 197.5,-117.5 197.5,-123.5 191.5,-129.5 185.5,-129.5"/>
<text text-anchor="middle" x="107" y="-114.3" font-family="Helvetica,sans-Serif" font-size="14.00">op1</text>
<text text-anchor="middle" x="107" y="-99.3" font-family="Helvetica,sans-Serif" font-size="14.00">return</text>
<text text-anchor="middle" x="107" y="-84.3" font-family="Helvetica,sans-Serif" font-size="14.00">line 347</text>
<text text-anchor="middle" x="107" y="-69.3" font-family="Helvetica,sans-Serif" font-size="14.00">layer 0</text>
<text text-anchor="middle" x="107" y="-54.3" font-family="Helvetica,sans-Serif" font-size="14.00">cost 1</text>
<text text-anchor="middle" x="107" y="-39.3" font-family="Helvetica,sans-Serif" font-size="14.00">out __return__@1</text>
<text text-anchor="middle" x="107" y="-24.3" font-family="Helvetica,sans-Serif" font-size="14.00">in { move(sop), itt }@0</text>
</g>
</g>
</svg>
