<?xml version="1.0" encoding="UTF-8" standalone="no"?>
<!DOCTYPE svg PUBLIC "-//W3C//DTD SVG 1.1//EN"
 "http://www.w3.org/Graphics/SVG/1.1/DTD/svg11.dtd">
<!-- Generated by graphviz version 2.43.0 (0)
 -->
<!-- Title: hedag_v2 Pages: 1 -->
<svg width="861pt" height="267pt"
 viewBox="0.00 0.00 861.00 267.00" xmlns="http://www.w3.org/2000/svg" xmlns:xlink="http://www.w3.org/1999/xlink">
<g id="graph0" class="graph" transform="scale(1 1) rotate(0) translate(4 263)">
<title>hedag_v2</title>
<polygon fill="white" stroke="transparent" points="-4,4 -4,-263 857,-263 857,4 -4,4"/>
<g id="clust1" class="cluster">
<title>cluster_layer_0</title>
<polygon fill="none" stroke="#d1d5db" points="8,-8 8,-161 155,-161 155,-8 8,-8"/>
<text text-anchor="middle" x="81.5" y="-145.8" font-family="Times,serif" font-size="14.00">layer 0</text>
</g>
<g id="clust2" class="cluster">
<title>cluster_layer_1</title>
<polygon fill="none" stroke="#d1d5db" points="239,-98 239,-251 433,-251 433,-98 239,-98"/>
<text text-anchor="middle" x="336" y="-235.8" font-family="Times,serif" font-size="14.00">layer 1</text>
</g>
<g id="clust3" class="cluster">
<title>cluster_layer_2</title>
<polygon fill="none" stroke="#d1d5db" points="565,-25 565,-178 845,-178 845,-25 565,-25"/>
<text text-anchor="middle" x="705" y="-162.8" font-family="Times,serif" font-size="14.00">layer 2</text>
</g>
<!-- op0 -->
<g id="node1" class="node">
<title>op0</title>
<path fill="#17becf" stroke="black" d="M135,-129.5C135,-129.5 28,-129.5 28,-129.5 22,-129.5 16,-123.5 16,-117.5 16,-117.5 16,-28.5 16,-28.5 16,-22.5 22,-16.5 28,-16.5 28,-16.5 135,-16.5 135,-16.5 141,-16.5 147,-22.5 147,-28.5 147,-28.5 147,-117.5 147,-117.5 147,-123.5 141,-129.5 135,-129.5"/>
<text text-anchor="middle" x="81.5" y="-114.3" font-family="Helvetica,sans-Serif" font-size="14.00">op0</text>
<text text-anchor="middle" x="81.5" y="-99.3" font-family="Helvetica,sans-Serif" font-size="14.00">assign</text>
<text text-anchor="middle" x="81.5" y="-84.3" font-family="Helvetica,sans-Serif" font-size="14.00">line 99</text>
<text text-anchor="middle" x="81.5" y="-69.3" font-family="Helvetica,sans-Serif" font-size="14.00">layer 0</text>
<text text-anchor="middle" x="81.5" y="-54.3" font-family="Helvetica,sans-Serif" font-size="14.00">cost 1</text>
<text text-anchor="middle" x="81.5" y="-39.3" font-family="Helvetica,sans-Serif" font-size="14.00">out ciph_tmp@1</text>
<text text-anchor="middle" x="81.5" y="-24.3" font-family="Helvetica,sans-Serif" font-size="14.00">in ct@0</text>
</g>
<!-- op1 -->
<g id="node2" class="node">
<title>op1</title>
<path fill="#9467bd" stroke="black" d="M413,-219.5C413,-219.5 259,-219.5 259,-219.5 253,-219.5 247,-213.5 247,-207.5 247,-207.5 247,-118.5 247,-118.5 247,-112.5 253,-106.5 259,-106.5 259,-106.5 413,-106.5 413,-106.5 419,-106.5 425,-112.5 425,-118.5 425,-118.5 425,-207.5 425,-207.5 425,-213.5 419,-219.5 413,-219.5"/>
<text text-anchor="middle" x="336" y="-204.3" font-family="Helvetica,sans-Serif" font-size="14.00">op1</text>
<text text-anchor="middle" x="336" y="-189.3" font-family="Helvetica,sans-Serif" font-size="14.00">rotate</text>
<text text-anchor="middle" x="336" y="-174.3" font-family="Helvetica,sans-Serif" font-size="14.00">line 104</text>
<text text-anchor="middle" x="336" y="-159.3" font-family="Helvetica,sans-Serif" font-size="14.00">layer 1</text>
<text text-anchor="middle" x="336" y="-144.3" font-family="Helvetica,sans-Serif" font-size="14.00">cost 4</text>
<text text-anchor="middle" x="336" y="-129.3" font-family="Helvetica,sans-Serif" font-size="14.00">out ciph_tmp_rotate@1</text>
<text text-anchor="middle" x="336" y="-114.3" font-family="Helvetica,sans-Serif" font-size="14.00">in ciph_tmp@1</text>
</g>
<!-- op0&#45;&gt;op1 -->
<g id="edge1" class="edge">
<title>op0&#45;&gt;op1</title>
<path fill="none" stroke="#1f2937" d="M147.02,-124.87C152.9,-128.31 158.94,-131.42 165,-134 187.39,-143.54 212.71,-149.95 236.83,-154.25"/>
<polygon fill="#1f2937" stroke="#1f2937" points="236.28,-157.7 246.72,-155.91 237.44,-150.8 236.28,-157.7"/>
<text text-anchor="middle" x="197" y="-155.8" font-family="Helvetica,sans-Serif" font-size="14.00">ciph_tmp</text>
</g>
<!-- op0&#45;&gt;op1 -->
<g id="edge2" class="edge">
<title>op0&#45;&gt;op1</title>
<path fill="none" stroke="#2563eb" d="M147.34,-89.4C173.03,-96.46 202.68,-105.33 229,-115 231.76,-116.01 234.54,-117.07 237.34,-118.15"/>
<polygon fill="#2563eb" stroke="#2563eb" points="236.32,-121.51 246.91,-121.95 238.91,-115 236.32,-121.51"/>
<text text-anchor="middle" x="197" y="-118.8" font-family="Helvetica,sans-Serif" font-size="14.00">ciph_tmp</text>
</g>
<!-- op2 -->
<g id="node3" class="node">
<title>op2</title>
<path fill="#e5e7eb" stroke="black" d="M825,-146.5C825,-146.5 585,-146.5 585,-146.5 579,-146.5 573,-140.5 573,-134.5 573,-134.5 573,-45.5 573,-45.5 573,-39.5 579,-33.5 585,-33.5 585,-33.5 825,-33.5 825,-33.5 831,-33.5 837,-39.5 837,-45.5 837,-45.5 837,-134.5 837,-134.5 837,-140.5 831,-146.5 825,-146.5"/>
<text text-anchor="middle" x="705" y="-131.3" font-family="Helvetica,sans-Serif" font-size="14.00">op2</text>
<text text-anchor="middle" x="705" y="-116.3" font-family="Helvetica,sans-Serif" font-size="14.00">add</text>
<text text-anchor="middle" x="705" y="-101.3" font-family="Helvetica,sans-Serif" font-size="14.00">line 105</text>
<text text-anchor="middle" x="705" y="-86.3" font-family="Helvetica,sans-Serif" font-size="14.00">layer 2</text>
<text text-anchor="middle" x="705" y="-71.3" font-family="Helvetica,sans-Serif" font-size="14.00">cost 1</text>
<text text-anchor="middle" x="705" y="-56.3" font-family="Helvetica,sans-Serif" font-size="14.00">out ciph_tmp@2</text>
<text text-anchor="middle" x="705" y="-41.3" font-family="Helvetica,sans-Serif" font-size="14.00">in ciph_tmp@1, ciph_tmp_rotate@1</text>
</g>
<!-- op0&#45;&gt;op2 -->
<g id="edge3" class="edge">
<title>op0&#45;&gt;op2</title>
<path fill="none" stroke="#1f2937" d="M147.11,-73.65C217.45,-74.47 333.23,-76.12 433,-79 475.07,-80.21 520.8,-81.92 562.5,-83.63"/>
<polygon fill="#1f2937" stroke="#1f2937" points="562.59,-87.14 572.73,-84.05 562.88,-80.14 562.59,-87.14"/>
<text text-anchor="middle" x="336" y="-82.8" font-family="Helvetica,sans-Serif" font-size="14.00">ciph_tmp</text>
</g>
<!-- op0&#45;&gt;op2 -->
<g id="edge4" class="edge">
<title>op0&#45;&gt;op2</title>
<path fill="none" stroke="#2563eb" d="M147.08,-63.89C175.24,-60.35 208.69,-56.74 239,-55 325.08,-50.07 346.96,-49.47 433,-55 475.29,-57.72 521.07,-62.8 562.75,-68.27"/>
<polygon fill="#2563eb" stroke="#2563eb" points="562.32,-71.74 572.69,-69.59 563.24,-64.8 562.32,-71.74"/>
<text text-anchor="middle" x="336" y="-58.8" font-family="Helvetica,sans-Serif" font-size="14.00">ciph_tmp</text>
</g>
<!-- op0&#45;&gt;op2 -->
<g id="edge7" class="edge">
<title>op0&#45;&gt;op2</title>
<path fill="none" stroke="#f97316" d="M147.24,-51.98C175.14,-43.99 208.35,-35.87 239,-32 378.59,-14.37 417.26,-22.32 555,-51 557.67,-51.56 560.36,-52.13 563.07,-52.72"/>
<polygon fill="#f97316" stroke="#f97316" points="562.43,-56.16 572.95,-54.91 563.95,-49.33 562.43,-56.16"/>
<text text-anchor="middle" x="336" y="-35.8" font-family="Helvetica,sans-Serif" font-size="14.00">ciph_tmp</text>
</g>
<!-- op1&#45;&gt;op2 -->
<g id="edge5" class="edge">
<title>op1&#45;&gt;op2</title>
<path fill="none" stroke="#1f2937" d="M425.26,-170.21C465.33,-171.34 513.04,-169.67 555,-160 565.88,-157.49 576.91,-154.12 587.78,-150.21"/>
<polygon fill="#1f2937" stroke="#1f2937" points="589.16,-153.43 597.3,-146.64 586.7,-146.88 589.16,-153.43"/>
<text text-anchor="middle" x="499" y="-173.8" font-family="Helvetica,sans-Serif" font-size="14.00">ciph_tmp_rotate</text>
</g>
<!-- op1&#45;&gt;op2 -->
<g id="edge6" class="edge">
<title>op1&#45;&gt;op2</title>
<path fill="none" stroke="#2563eb" d="M425.16,-144.45C431.19,-143.26 437.18,-142.1 443,-141 492.61,-131.65 505.42,-131.53 555,-122 557.65,-121.49 560.32,-120.97 563.02,-120.44"/>
<polygon fill="#2563eb" stroke="#2563eb" points="563.71,-123.87 572.84,-118.5 562.35,-117.01 563.71,-123.87"/>
<text text-anchor="middle" x="499" y="-144.8" font-family="Helvetica,sans-Serif" font-size="14.00">ciph_tmp_rotate</text>
</g>
<!-- op1&#45;&gt;op2 -->
<g id="edge8" class="edge">
<title>op1&#45;&gt;op2</title>
<path fill="none" stroke="#dc2626" d="M425.03,-109.29C430.99,-106.87 437.01,-104.74 443,-103 480.98,-91.98 523.35,-86.96 562.72,-85.12"/>
<polygon fill="#dc2626" stroke="#dc2626" points="563.08,-88.61 572.93,-84.72 562.8,-81.62 563.08,-88.61"/>
<text text-anchor="middle" x="499" y="-106.8" font-family="Helvetica,sans-Serif" font-size="14.00">ciph_tmp</text>
</g>
</g>
</svg>
