<?xml version="1.0" encoding="UTF-8" standalone="no"?>
<!DOCTYPE svg PUBLIC "-//W3C//DTD SVG 1.1//EN"
 "http://www.w3.org/Graphics/SVG/1.1/DTD/svg11.dtd">
<!-- Generated by graphviz version 2.43.0 (0)
 -->
<!-- Title: hedag_v2 Pages: 1 -->
<svg width="528pt" height="187pt"
 viewBox="0.00 0.00 528.00 187.00" xmlns="http://www.w3.org/2000/svg" xmlns:xlink="http://www.w3.org/1999/xlink">
<g id="graph0" class="graph" transform="scale(1 1) rotate(0) translate(4 183)">
<title>hedag_v2</title>
<polygon fill="white" stroke="transparent" points="-4,4 -4,-183 524,-183 524,4 -4,4"/>
<g id="clust1" class="cluster">
<title>cluster_layer_0</title>
<polygon fill="none" stroke="#d1d5db" points="8,-18 8,-171 167,-171 167,-18 8,-18"/>
<text text-anchor="middle" x="87.5" y="-155.8" font-family="Times,serif" font-size="14.00">layer 0</text>
</g>
<g id="clust2" class="cluster">
<title>cluster_layer_1</title>
<polygon fill="none" stroke="#d1d5db" points="264,-8 264,-161 512,-161 512,-8 264,-8"/>
<text text-anchor="middle" x="388" y="-145.8" font-family="Times,serif" font-size="14.00">layer 1</text>
</g>
<!-- op0 -->
<g id="node1" class="node">
<title>op0</title>
<path fill="#9467bd" stroke="black" d="M147,-139.5C147,-139.5 28,-139.5 28,-139.5 22,-139.5 16,-133.5 16,-127.5 16,-127.5 16,-38.5 16,-38.5 16,-32.5 22,-26.5 28,-26.5 28,-26.5 147,-26.5 147,-26.5 153,-26.5 159,-32.5 159,-38.5 159,-38.5 159,-127.5 159,-127.5 159,-133.5 153,-139.5 147,-139.5"/>
<text text-anchor="middle" x="87.5" y="-124.3" font-family="Helvetica,sans-Serif" font-size="14.00">op0</text>
<text text-anchor="middle" x="87.5" y="-109.3" font-family="Helvetica,sans-Serif" font-size="14.00">rotate</text>
<text text-anchor="middle" x="87.5" y="-94.3" font-family="Helvetica,sans-Serif" font-size="14.00">line 735</text>
<text text-anchor="middle" x="87.5" y="-79.3" font-family="Helvetica,sans-Serif" font-size="14.00">layer 0</text>
<text text-anchor="middle" x="87.5" y="-64.3" font-family="Helvetica,sans-Serif" font-size="14.00">cost 4</text>
<text text-anchor="middle" x="87.5" y="-49.3" font-family="Helvetica,sans-Serif" font-size="14.00">out ciph_rotate@1</text>
<text text-anchor="middle" x="87.5" y="-34.3" font-family="Helvetica,sans-Serif" font-size="14.00">in ciph_rotate@0</text>
</g>
<!-- op1 -->
<g id="node2" class="node">
<title>op1</title>
<path fill="#e5e7eb" stroke="black" d="M492,-129.5C492,-129.5 284,-129.5 284,-129.5 278,-129.5 272,-123.5 272,-117.5 272,-117.5 272,-28.5 272,-28.5 272,-22.5 278,-16.5 284,-16.5 284,-16.5 492,-16.5 492,-16.5 498,-16.5 504,-22.5 504,-28.5 504,-28.5 504,-117.5 504,-117.5 504,-123.5 498,-129.5 492,-129.5"/>
<text text-anchor="middle" x="388" y="-114.3" font-family="Helvetica,sans-Serif" font-size="14.00">op1</text>
<text text-anchor="middle" x="388" y="-99.3" font-family="Helvetica,sans-Serif" font-size="14.00">add</text>
<text text-anchor="middle" x="388" y="-84.3" font-family="Helvetica,sans-Serif" font-size="14.00">line 736</text>
<text text-anchor="middle" x="388" y="-69.3" font-family="Helvetica,sans-Serif" font-size="14.00">layer 1</text>
<text text-anchor="middle" x="388" y="-54.3" font-family="Helvetica,sans-Serif" font-size="14.00">cost 1</text>
<text text-anchor="middle" x="388" y="-39.3" font-family="Helvetica,sans-Serif" font-size="14.00">out ciph_sum@1</text>
<text text-anchor="middle" x="388" y="-24.3" font-family="Helvetica,sans-Serif" font-size="14.00">in ciph_sum@0, ciph_rotate@1</text>
</g>
<!-- op0&#45;&gt;op1 -->
<g id="edge1" class="edge">
<title>op0&#45;&gt;op1</title>
<path fill="none" stroke="#1f2937" d="M159.24,-80.63C189.84,-79.61 226.59,-78.37 261.55,-77.2"/>
<polygon fill="#1f2937" stroke="#1f2937" points="261.97,-80.69 271.85,-76.86 261.74,-73.69 261.97,-80.69"/>
<text text-anchor="middle" x="215.5" y="-82.8" font-family="Helvetica,sans-Serif" font-size="14.00">ciph_rotate</text>
</g>
<!-- op0&#45;&gt;op1 -->
<g id="edge2" class="edge">
<title>op0&#45;&gt;op1</title>
<path fill="none" stroke="#2563eb" d="M159.14,-61.2C165.14,-59.91 171.15,-58.81 177,-58 204.33,-54.21 233.8,-53.96 261.77,-55.5"/>
<polygon fill="#2563eb" stroke="#2563eb" points="261.8,-59 272,-56.14 262.24,-52.02 261.8,-59"/>
<text text-anchor="middle" x="215.5" y="-61.8" font-family="Helvetica,sans-Serif" font-size="14.00">ciph_rotate</text>
</g>
</g>
</svg>
