<?xml version="1.0" encoding="UTF-8" standalone="no"?>
<!DOCTYPE svg PUBLIC "-//W3C//DTD SVG 1.1//EN"
 "http://www.w3.org/Graphics/SVG/1.1/DTD/svg11.dtd">
<!-- Generated by graphviz version 2.43.0 (0)
 -->
<!-- Title: hedag_v2 Pages: 1 -->
<svg width="6532pt" height="366pt"
 viewBox="0.00 0.00 6532.00 366.00" xmlns="http://www.w3.org/2000/svg" xmlns:xlink="http://www.w3.org/1999/xlink">
<g id="graph0" class="graph" transform="scale(1 1) rotate(0) translate(4 362)">
<title>hedag_v2</title>
<polygon fill="white" stroke="transparent" points="-4,4 -4,-362 6528,-362 6528,4 -4,4"/>
<g id="clust1" class="cluster">
<title>cluster_layer_0</title>
<polygon fill="none" stroke="#d1d5db" points="8,-167 8,-304 333,-304 333,-167 8,-167"/>
<text text-anchor="middle" x="170.5" y="-288.8" font-family="Times,serif" font-size="14.00">layer 0</text>
</g>
<g id="clust2" class="cluster">
<title>cluster_layer_1</title>
<polygon fill="none" stroke="#d1d5db" points="596,-121 596,-274 989,-274 989,-121 596,-121"/>
<text text-anchor="middle" x="792.5" y="-258.8" font-family="Times,serif" font-size="14.00">layer 1</text>
</g>
<g id="clust3" class="cluster">
<title>cluster_layer_2</title>
<polygon fill="none" stroke="#d1d5db" points="1320,-76 1320,-229 1713,-229 1713,-76 1320,-76"/>
<text text-anchor="middle" x="1516.5" y="-213.8" font-family="Times,serif" font-size="14.00">layer 2</text>
</g>
<g id="clust4" class="cluster">
<title>cluster_layer_3</title>
<polygon fill="none" stroke="#d1d5db" points="1976,-76 1976,-229 2369,-229 2369,-76 1976,-76"/>
<text text-anchor="middle" x="2172.5" y="-213.8" font-family="Times,serif" font-size="14.00">layer 3</text>
</g>
<g id="clust5" class="cluster">
<title>cluster_layer_4</title>
<polygon fill="none" stroke="#d1d5db" points="2511,-213 2511,-350 2836,-350 2836,-213 2511,-213"/>
<text text-anchor="middle" x="2673.5" y="-334.8" font-family="Times,serif" font-size="14.00">layer 4</text>
</g>
<g id="clust6" class="cluster">
<title>cluster_layer_5</title>
<polygon fill="none" stroke="#d1d5db" points="3168,-123 3168,-276 3826,-276 3826,-123 3168,-123"/>
<text text-anchor="middle" x="3497" y="-260.8" font-family="Times,serif" font-size="14.00">layer 5</text>
</g>
<g id="clust7" class="cluster">
<title>cluster_layer_6</title>
<polygon fill="none" stroke="#d1d5db" points="4157,-72 4157,-225 4550,-225 4550,-72 4157,-72"/>
<text text-anchor="middle" x="4353.5" y="-209.8" font-family="Times,serif" font-size="14.00">layer 6</text>
</g>
<g id="clust8" class="cluster">
<title>cluster_layer_7</title>
<polygon fill="none" stroke="#d1d5db" points="4881,-8 4881,-161 5607,-161 5607,-8 4881,-8"/>
<text text-anchor="middle" x="5244" y="-145.8" font-family="Times,serif" font-size="14.00">layer 7</text>
</g>
<g id="clust9" class="cluster">
<title>cluster_layer_8</title>
<polygon fill="none" stroke="#d1d5db" points="5911,-8 5911,-161 6268,-161 6268,-8 5911,-8"/>
<text text-anchor="middle" x="6089.5" y="-145.8" font-family="Times,serif" font-size="14.00">layer 8</text>
</g>
<g id="clust10" class="cluster">
<title>cluster_layer_9</title>
<polygon fill="none" stroke="#d1d5db" points="6364,-27 6364,-180 6516,-180 6516,-27 6364,-27"/>
<text text-anchor="middle" x="6440" y="-164.8" font-family="Times,serif" font-size="14.00">layer 9</text>
</g>
<!-- op0 -->
<g id="node1" class="node">
<title>op0</title>
<path fill="#e5e7eb" stroke="black" d="M313,-273C313,-273 28,-273 28,-273 22,-273 16,-267 16,-261 16,-261 16,-187 16,-187 16,-181 22,-175 28,-175 28,-175 313,-175 313,-175 319,-175 325,-181 325,-187 325,-187 325,-261 325,-261 325,-267 319,-273 313,-273"/>
<text text-anchor="middle" x="170.5" y="-257.8" font-family="Helvetica,sans-Serif" font-size="14.00">op0</text>
<text text-anchor="middle" x="170.5" y="-242.8" font-family="Helvetica,sans-Serif" font-size="14.00">encode</text>
<text text-anchor="middle" x="170.5" y="-227.8" font-family="Helvetica,sans-Serif" font-size="14.00">line 189</text>
<text text-anchor="middle" x="170.5" y="-212.8" font-family="Helvetica,sans-Serif" font-size="14.00">layer 0</text>
<text text-anchor="middle" x="170.5" y="-197.8" font-family="Helvetica,sans-Serif" font-size="14.00">cost 1</text>
<text text-anchor="middle" x="170.5" y="-182.8" font-family="Helvetica,sans-Serif" font-size="14.00">out copy_ciph__HomSort_14575__plain@1</text>
</g>
<!-- op1 -->
<g id="node2" class="node">
<title>op1</title>
<path fill="#e5e7eb" stroke="black" d="M969,-242.5C969,-242.5 616,-242.5 616,-242.5 610,-242.5 604,-236.5 604,-230.5 604,-230.5 604,-141.5 604,-141.5 604,-135.5 610,-129.5 616,-129.5 616,-129.5 969,-129.5 969,-129.5 975,-129.5 981,-135.5 981,-141.5 981,-141.5 981,-230.5 981,-230.5 981,-236.5 975,-242.5 969,-242.5"/>
<text text-anchor="middle" x="792.5" y="-227.3" font-family="Helvetica,sans-Serif" font-size="14.00">op1</text>
<text text-anchor="middle" x="792.5" y="-212.3" font-family="Helvetica,sans-Serif" font-size="14.00">multiply_plain</text>
<text text-anchor="middle" x="792.5" y="-197.3" font-family="Helvetica,sans-Serif" font-size="14.00">line 191</text>
<text text-anchor="middle" x="792.5" y="-182.3" font-family="Helvetica,sans-Serif" font-size="14.00">layer 1</text>
<text text-anchor="middle" x="792.5" y="-167.3" font-family="Helvetica,sans-Serif" font-size="14.00">cost 3</text>
<text text-anchor="middle" x="792.5" y="-152.3" font-family="Helvetica,sans-Serif" font-size="14.00">out copy_ciph__HomSort_14575__ciph_ct_mask1@1</text>
<text text-anchor="middle" x="792.5" y="-137.3" font-family="Helvetica,sans-Serif" font-size="14.00">in ciph@0, copy_ciph__HomSort_14575__plain@1</text>
</g>
<!-- op0&#45;&gt;op1 -->
<g id="edge1" class="edge">
<title>op0&#45;&gt;op1</title>
<path fill="none" stroke="#1f2937" d="M325.32,-228.78C403.52,-229.72 499.98,-228.59 586,-221 588.56,-220.77 591.14,-220.53 593.73,-220.28"/>
<polygon fill="#1f2937" stroke="#1f2937" points="594.21,-223.75 603.79,-219.24 593.49,-216.79 594.21,-223.75"/>
<text text-anchor="middle" x="464.5" y="-232.8" font-family="Helvetica,sans-Serif" font-size="14.00">copy_ciph__HomSort_14575__plain</text>
</g>
<!-- op0&#45;&gt;op1 -->
<g id="edge2" class="edge">
<title>op0&#45;&gt;op1</title>
<path fill="none" stroke="#2563eb" d="M325.23,-203.59C331.23,-203.01 337.17,-202.48 343,-202 424.84,-195.31 515.31,-191.41 593.44,-189.15"/>
<polygon fill="#2563eb" stroke="#2563eb" points="593.99,-192.63 603.88,-188.85 593.79,-185.63 593.99,-192.63"/>
<text text-anchor="middle" x="464.5" y="-205.8" font-family="Helvetica,sans-Serif" font-size="14.00">copy_ciph__HomSort_14575__plain</text>
</g>
<!-- op0&#45;&gt;op1 -->
<g id="edge3" class="edge">
<title>op0&#45;&gt;op1</title>
<path fill="none" stroke="#0f766e" d="M316.74,-174.96C325.56,-173.01 334.36,-171.33 343,-170 424.51,-157.47 515.29,-158.04 593.74,-163.01"/>
<polygon fill="#0f766e" stroke="#0f766e" points="593.53,-166.51 603.74,-163.67 593.99,-159.52 593.53,-166.51"/>
<text text-anchor="middle" x="464.5" y="-173.8" font-family="Helvetica,sans-Serif" font-size="14.00">HomSort@14575</text>
</g>
<!-- op4 -->
<g id="node5" class="node">
<title>op4</title>
<path fill="#e5e7eb" stroke="black" d="M2816,-319C2816,-319 2531,-319 2531,-319 2525,-319 2519,-313 2519,-307 2519,-307 2519,-233 2519,-233 2519,-227 2525,-221 2531,-221 2531,-221 2816,-221 2816,-221 2822,-221 2828,-227 2828,-233 2828,-233 2828,-307 2828,-307 2828,-313 2822,-319 2816,-319"/>
<text text-anchor="middle" x="2673.5" y="-303.8" font-family="Helvetica,sans-Serif" font-size="14.00">op4</text>
<text text-anchor="middle" x="2673.5" y="-288.8" font-family="Helvetica,sans-Serif" font-size="14.00">encode</text>
<text text-anchor="middle" x="2673.5" y="-273.8" font-family="Helvetica,sans-Serif" font-size="14.00">line 196</text>
<text text-anchor="middle" x="2673.5" y="-258.8" font-family="Helvetica,sans-Serif" font-size="14.00">layer 4</text>
<text text-anchor="middle" x="2673.5" y="-243.8" font-family="Helvetica,sans-Serif" font-size="14.00">cost 1</text>
<text text-anchor="middle" x="2673.5" y="-228.8" font-family="Helvetica,sans-Serif" font-size="14.00">out copy_ciph__HomSort_14575__plain@2</text>
</g>
<!-- op0&#45;&gt;op4 -->
<g id="edge9" class="edge">
<title>op0&#45;&gt;op4</title>
<path fill="none" stroke="#f97316" d="M325.06,-252.22C450.17,-272.77 631.64,-297 791.5,-297 791.5,-297 791.5,-297 2173.5,-297 2285.47,-297 2411.36,-290.14 2508.69,-283.33"/>
<polygon fill="#f97316" stroke="#f97316" points="2509.18,-286.81 2518.91,-282.61 2508.69,-279.82 2509.18,-286.81"/>
<text text-anchor="middle" x="1516.5" y="-300.8" font-family="Helvetica,sans-Serif" font-size="14.00">copy_ciph__HomSort_14575__plain</text>
</g>
<!-- op2 -->
<g id="node3" class="node">
<title>op2</title>
<path fill="#8c564b" stroke="black" d="M1693,-197.5C1693,-197.5 1340,-197.5 1340,-197.5 1334,-197.5 1328,-191.5 1328,-185.5 1328,-185.5 1328,-96.5 1328,-96.5 1328,-90.5 1334,-84.5 1340,-84.5 1340,-84.5 1693,-84.5 1693,-84.5 1699,-84.5 1705,-90.5 1705,-96.5 1705,-96.5 1705,-185.5 1705,-185.5 1705,-191.5 1699,-197.5 1693,-197.5"/>
<text text-anchor="middle" x="1516.5" y="-182.3" font-family="Helvetica,sans-Serif" font-size="14.00">op2</text>
<text text-anchor="middle" x="1516.5" y="-167.3" font-family="Helvetica,sans-Serif" font-size="14.00">rescale_dynamic</text>
<text text-anchor="middle" x="1516.5" y="-152.3" font-family="Helvetica,sans-Serif" font-size="14.00">line 192</text>
<text text-anchor="middle" x="1516.5" y="-137.3" font-family="Helvetica,sans-Serif" font-size="14.00">layer 2</text>
<text text-anchor="middle" x="1516.5" y="-122.3" font-family="Helvetica,sans-Serif" font-size="14.00">cost 4</text>
<text text-anchor="middle" x="1516.5" y="-107.3" font-family="Helvetica,sans-Serif" font-size="14.00">out copy_ciph__HomSort_14575__ciph_ct_mask1@2</text>
<text text-anchor="middle" x="1516.5" y="-92.3" font-family="Helvetica,sans-Serif" font-size="14.00">in copy_ciph__HomSort_14575__ciph_ct_mask1@1</text>
</g>
<!-- op1&#45;&gt;op2 -->
<g id="edge4" class="edge">
<title>op1&#45;&gt;op2</title>
<path fill="none" stroke="#1f2937" d="M981.28,-177.77C1079.3,-173.08 1201.17,-166.61 1310,-159 1312.58,-158.82 1315.18,-158.64 1317.79,-158.45"/>
<polygon fill="#1f2937" stroke="#1f2937" points="1318.21,-161.93 1327.93,-157.7 1317.7,-154.94 1318.21,-161.93"/>
<text text-anchor="middle" x="1154.5" y="-179.8" font-family="Helvetica,sans-Serif" font-size="14.00">copy_ciph__HomSort_14575__ciph_ct_mask1</text>
</g>
<!-- op1&#45;&gt;op2 -->
<g id="edge5" class="edge">
<title>op1&#45;&gt;op2</title>
<path fill="none" stroke="#2563eb" d="M981.08,-142.25C987.11,-141.41 993.09,-140.65 999,-140 1103.8,-128.41 1221.3,-127.68 1317.72,-130.28"/>
<polygon fill="#2563eb" stroke="#2563eb" points="1317.78,-133.78 1327.88,-130.57 1317.98,-126.78 1317.78,-133.78"/>
<text text-anchor="middle" x="1154.5" y="-143.8" font-family="Helvetica,sans-Serif" font-size="14.00">copy_ciph__HomSort_14575__ciph_ct_mask1</text>
</g>
<!-- op1&#45;&gt;op2 -->
<g id="edge6" class="edge">
<title>op1&#45;&gt;op2</title>
<path fill="none" stroke="#f97316" d="M925.34,-129.49C949.43,-121.4 974.66,-114.36 999,-110 1103.19,-91.35 1220.89,-96.44 1317.59,-107.36"/>
<polygon fill="#f97316" stroke="#f97316" points="1317.44,-110.86 1327.78,-108.54 1318.25,-103.91 1317.44,-110.86"/>
<text text-anchor="middle" x="1154.5" y="-113.8" font-family="Helvetica,sans-Serif" font-size="14.00">copy_ciph__HomSort_14575__ciph_ct_mask1</text>
</g>
<!-- op1&#45;&gt;op2 -->
<g id="edge7" class="edge">
<title>op1&#45;&gt;op2</title>
<path fill="none" stroke="#0f766e" d="M981,-202.36C1079.35,-207.64 1201.6,-209 1310,-195 1312.56,-194.67 1315.14,-194.32 1317.72,-193.94"/>
<polygon fill="#0f766e" stroke="#0f766e" points="1318.39,-197.38 1327.74,-192.4 1317.33,-190.46 1318.39,-197.38"/>
<text text-anchor="middle" x="1154.5" y="-209.8" font-family="Helvetica,sans-Serif" font-size="14.00">HomSort@14575</text>
</g>
<!-- op1&#45;&gt;op4 -->
<g id="edge10" class="edge">
<title>op1&#45;&gt;op4</title>
<path fill="none" stroke="#dc2626" d="M981.18,-222.89C987.18,-223.66 993.13,-224.37 999,-225 1287.98,-256.1 2146.87,-266.07 2508.79,-268.95"/>
<polygon fill="#dc2626" stroke="#dc2626" points="2508.8,-272.45 2518.83,-269.03 2508.85,-265.45 2508.8,-272.45"/>
<text text-anchor="middle" x="1844.5" y="-265.8" font-family="Helvetica,sans-Serif" font-size="14.00">copy_ciph__HomSort_14575__plain</text>
</g>
<!-- op3 -->
<g id="node4" class="node">
<title>op3</title>
<path fill="#9467bd" stroke="black" d="M2349,-197.5C2349,-197.5 1996,-197.5 1996,-197.5 1990,-197.5 1984,-191.5 1984,-185.5 1984,-185.5 1984,-96.5 1984,-96.5 1984,-90.5 1990,-84.5 1996,-84.5 1996,-84.5 2349,-84.5 2349,-84.5 2355,-84.5 2361,-90.5 2361,-96.5 2361,-96.5 2361,-185.5 2361,-185.5 2361,-191.5 2355,-197.5 2349,-197.5"/>
<text text-anchor="middle" x="2172.5" y="-182.3" font-family="Helvetica,sans-Serif" font-size="14.00">op3</text>
<text text-anchor="middle" x="2172.5" y="-167.3" font-family="Helvetica,sans-Serif" font-size="14.00">rotate</text>
<text text-anchor="middle" x="2172.5" y="-152.3" font-family="Helvetica,sans-Serif" font-size="14.00">line 195</text>
<text text-anchor="middle" x="2172.5" y="-137.3" font-family="Helvetica,sans-Serif" font-size="14.00">layer 3</text>
<text text-anchor="middle" x="2172.5" y="-122.3" font-family="Helvetica,sans-Serif" font-size="14.00">cost 4</text>
<text text-anchor="middle" x="2172.5" y="-107.3" font-family="Helvetica,sans-Serif" font-size="14.00">out copy_ciph__HomSort_14575__ciph_ct_mask2@1</text>
<text text-anchor="middle" x="2172.5" y="-92.3" font-family="Helvetica,sans-Serif" font-size="14.00">in ciph@0</text>
</g>
<!-- op2&#45;&gt;op3 -->
<g id="edge8" class="edge">
<title>op2&#45;&gt;op3</title>
<path fill="none" stroke="#0f766e" d="M1705.35,-141C1789.39,-141 1888.51,-141 1973.69,-141"/>
<polygon fill="#0f766e" stroke="#0f766e" points="1973.74,-144.5 1983.74,-141 1973.74,-137.5 1973.74,-144.5"/>
<text text-anchor="middle" x="1844.5" y="-144.8" font-family="Helvetica,sans-Serif" font-size="14.00">HomSort@14575</text>
</g>
<!-- op7 -->
<g id="node8" class="node">
<title>op7</title>
<path fill="#e5e7eb" stroke="black" d="M5587,-129.5C5587,-129.5 4901,-129.5 4901,-129.5 4895,-129.5 4889,-123.5 4889,-117.5 4889,-117.5 4889,-28.5 4889,-28.5 4889,-22.5 4895,-16.5 4901,-16.5 4901,-16.5 5587,-16.5 5587,-16.5 5593,-16.5 5599,-22.5 5599,-28.5 5599,-28.5 5599,-117.5 5599,-117.5 5599,-123.5 5593,-129.5 5587,-129.5"/>
<text text-anchor="middle" x="5244" y="-114.3" font-family="Helvetica,sans-Serif" font-size="14.00">op7</text>
<text text-anchor="middle" x="5244" y="-99.3" font-family="Helvetica,sans-Serif" font-size="14.00">add</text>
<text text-anchor="middle" x="5244" y="-84.3" font-family="Helvetica,sans-Serif" font-size="14.00">line 200</text>
<text text-anchor="middle" x="5244" y="-69.3" font-family="Helvetica,sans-Serif" font-size="14.00">layer 7</text>
<text text-anchor="middle" x="5244" y="-54.3" font-family="Helvetica,sans-Serif" font-size="14.00">cost 1</text>
<text text-anchor="middle" x="5244" y="-39.3" font-family="Helvetica,sans-Serif" font-size="14.00">out copy_ciph__HomSort_14575__ciph_result@1</text>
<text text-anchor="middle" x="5244" y="-24.3" font-family="Helvetica,sans-Serif" font-size="14.00">in copy_ciph__HomSort_14575__ciph_ct_mask1@2, copy_ciph__HomSort_14575__ciph_ct_mask2@3</text>
</g>
<!-- op2&#45;&gt;op7 -->
<g id="edge23" class="edge">
<title>op2&#45;&gt;op7</title>
<path fill="none" stroke="#1f2937" d="M1705.2,-96.41C1835.3,-69.35 2012.96,-40 2171.5,-40 2171.5,-40 2171.5,-40 4354.5,-40 4526.96,-40 4718.11,-46.29 4878.8,-53.37"/>
<polygon fill="#1f2937" stroke="#1f2937" points="4878.7,-56.87 4888.85,-53.82 4879.01,-49.88 4878.7,-56.87"/>
<text text-anchor="middle" x="3002.5" y="-43.8" font-family="Helvetica,sans-Serif" font-size="14.00">copy_ciph__HomSort_14575__ciph_ct_mask1</text>
</g>
<!-- op2&#45;&gt;op7 -->
<g id="edge24" class="edge">
<title>op2&#45;&gt;op7</title>
<path fill="none" stroke="#2563eb" d="M1628.27,-84.45C1658.33,-71.19 1691.34,-58.48 1723,-50 1916.64,1.88 1971.03,-2 2171.5,-2 2171.5,-2 2171.5,-2 4354.5,-2 4527.29,-2 4718.39,-15.51 4878.94,-30.74"/>
<polygon fill="#2563eb" stroke="#2563eb" points="4878.7,-34.23 4888.99,-31.7 4879.37,-27.26 4878.7,-34.23"/>
<text text-anchor="middle" x="3002.5" y="-5.8" font-family="Helvetica,sans-Serif" font-size="14.00">copy_ciph__HomSort_14575__ciph_ct_mask1</text>
</g>
<!-- op3&#45;&gt;op4 -->
<g id="edge11" class="edge">
<title>op3&#45;&gt;op4</title>
<path fill="none" stroke="#0f766e" d="M2361.19,-194.69C2367.19,-196.18 2373.14,-197.62 2379,-199 2432.28,-211.56 2446.7,-209.54 2500,-222 2503.01,-222.7 2506.04,-223.42 2509.09,-224.16"/>
<polygon fill="#0f766e" stroke="#0f766e" points="2508.35,-227.58 2518.9,-226.56 2510.01,-220.78 2508.35,-227.58"/>
<text text-anchor="middle" x="2439.5" y="-225.8" font-family="Helvetica,sans-Serif" font-size="14.00">HomSort@14575</text>
</g>
<!-- op5 -->
<g id="node6" class="node">
<title>op5</title>
<path fill="#e5e7eb" stroke="black" d="M3806,-244.5C3806,-244.5 3188,-244.5 3188,-244.5 3182,-244.5 3176,-238.5 3176,-232.5 3176,-232.5 3176,-143.5 3176,-143.5 3176,-137.5 3182,-131.5 3188,-131.5 3188,-131.5 3806,-131.5 3806,-131.5 3812,-131.5 3818,-137.5 3818,-143.5 3818,-143.5 3818,-232.5 3818,-232.5 3818,-238.5 3812,-244.5 3806,-244.5"/>
<text text-anchor="middle" x="3497" y="-229.3" font-family="Helvetica,sans-Serif" font-size="14.00">op5</text>
<text text-anchor="middle" x="3497" y="-214.3" font-family="Helvetica,sans-Serif" font-size="14.00">multiply_plain</text>
<text text-anchor="middle" x="3497" y="-199.3" font-family="Helvetica,sans-Serif" font-size="14.00">line 197</text>
<text text-anchor="middle" x="3497" y="-184.3" font-family="Helvetica,sans-Serif" font-size="14.00">layer 5</text>
<text text-anchor="middle" x="3497" y="-169.3" font-family="Helvetica,sans-Serif" font-size="14.00">cost 3</text>
<text text-anchor="middle" x="3497" y="-154.3" font-family="Helvetica,sans-Serif" font-size="14.00">out copy_ciph__HomSort_14575__ciph_ct_mask2@2</text>
<text text-anchor="middle" x="3497" y="-139.3" font-family="Helvetica,sans-Serif" font-size="14.00">in copy_ciph__HomSort_14575__ciph_ct_mask2@1, copy_ciph__HomSort_14575__plain@2</text>
</g>
<!-- op3&#45;&gt;op5 -->
<g id="edge12" class="edge">
<title>op3&#45;&gt;op5</title>
<path fill="none" stroke="#1f2937" d="M2361.09,-150.21C2367.13,-150.48 2373.11,-150.75 2379,-151 2437.65,-153.54 2452.33,-153.94 2511,-156 2729.07,-163.67 2974.31,-171.64 3165.54,-177.71"/>
<polygon fill="#1f2937" stroke="#1f2937" points="3165.65,-181.21 3175.75,-178.03 3165.87,-174.22 3165.65,-181.21"/>
<text text-anchor="middle" x="2673.5" y="-169.8" font-family="Helvetica,sans-Serif" font-size="14.00">copy_ciph__HomSort_14575__ciph_ct_mask2</text>
</g>
<!-- op3&#45;&gt;op5 -->
<g id="edge13" class="edge">
<title>op3&#45;&gt;op5</title>
<path fill="none" stroke="#2563eb" d="M2361.38,-138.38C2410.11,-137.81 2462.51,-137.29 2511,-137 2655.44,-136.14 2691.66,-131.43 2836,-137 2943.36,-141.14 3060.32,-149.06 3165.55,-157.44"/>
<polygon fill="#2563eb" stroke="#2563eb" points="3165.45,-160.95 3175.7,-158.26 3166.01,-153.97 3165.45,-160.95"/>
<text text-anchor="middle" x="2673.5" y="-140.8" font-family="Helvetica,sans-Serif" font-size="14.00">copy_ciph__HomSort_14575__ciph_ct_mask2</text>
</g>
<!-- op3&#45;&gt;op5 -->
<g id="edge16" class="edge">
<title>op3&#45;&gt;op5</title>
<path fill="none" stroke="#f97316" d="M2361.24,-123.96C2409.96,-120.25 2462.41,-116.87 2511,-115 2798.45,-103.94 2872.03,-101.83 3158,-133 3160.59,-133.28 3163.18,-133.57 3165.79,-133.86"/>
<polygon fill="#f97316" stroke="#f97316" points="3165.54,-137.36 3175.88,-135.03 3166.35,-130.41 3165.54,-137.36"/>
<text text-anchor="middle" x="2673.5" y="-118.8" font-family="Helvetica,sans-Serif" font-size="14.00">copy_ciph__HomSort_14575__ciph_ct_mask2</text>
</g>
<!-- op4&#45;&gt;op5 -->
<g id="edge14" class="edge">
<title>op4&#45;&gt;op5</title>
<path fill="none" stroke="#1f2937" d="M2828.27,-274.68C2834.59,-274.8 2840.86,-274.91 2847,-275 2985.21,-277 3020.87,-292.37 3158,-275 3204.86,-269.07 3254.52,-258.68 3300.94,-247.1"/>
<polygon fill="#1f2937" stroke="#1f2937" points="3301.95,-250.45 3310.79,-244.61 3300.24,-243.67 3301.95,-250.45"/>
<text text-anchor="middle" x="3002.5" y="-286.8" font-family="Helvetica,sans-Serif" font-size="14.00">copy_ciph__HomSort_14575__plain</text>
</g>
<!-- op4&#45;&gt;op5 -->
<g id="edge15" class="edge">
<title>op4&#45;&gt;op5</title>
<path fill="none" stroke="#2563eb" d="M2828.26,-257.36C2834.59,-256.89 2840.86,-256.44 2847,-256 2985.13,-246.18 3020.25,-251.17 3158,-237 3160.58,-236.73 3163.17,-236.46 3165.77,-236.19"/>
<polygon fill="#2563eb" stroke="#2563eb" points="3166.28,-239.65 3175.85,-235.1 3165.53,-232.69 3166.28,-239.65"/>
<text text-anchor="middle" x="3002.5" y="-259.8" font-family="Helvetica,sans-Serif" font-size="14.00">copy_ciph__HomSort_14575__plain</text>
</g>
<!-- op4&#45;&gt;op5 -->
<g id="edge17" class="edge">
<title>op4&#45;&gt;op5</title>
<path fill="none" stroke="#0f766e" d="M2828.28,-221.59C2834.58,-220.26 2840.83,-219.06 2847,-218 2880.05,-212.34 3022.39,-205.47 3165.38,-199.73"/>
<polygon fill="#0f766e" stroke="#0f766e" points="3165.82,-203.22 3175.67,-199.32 3165.54,-196.22 3165.82,-203.22"/>
<text text-anchor="middle" x="3002.5" y="-221.8" font-family="Helvetica,sans-Serif" font-size="14.00">HomSort@14575</text>
</g>
<!-- op6 -->
<g id="node7" class="node">
<title>op6</title>
<path fill="#8c564b" stroke="black" d="M4530,-193.5C4530,-193.5 4177,-193.5 4177,-193.5 4171,-193.5 4165,-187.5 4165,-181.5 4165,-181.5 4165,-92.5 4165,-92.5 4165,-86.5 4171,-80.5 4177,-80.5 4177,-80.5 4530,-80.5 4530,-80.5 4536,-80.5 4542,-86.5 4542,-92.5 4542,-92.5 4542,-181.5 4542,-181.5 4542,-187.5 4536,-193.5 4530,-193.5"/>
<text text-anchor="middle" x="4353.5" y="-178.3" font-family="Helvetica,sans-Serif" font-size="14.00">op6</text>
<text text-anchor="middle" x="4353.5" y="-163.3" font-family="Helvetica,sans-Serif" font-size="14.00">rescale_dynamic</text>
<text text-anchor="middle" x="4353.5" y="-148.3" font-family="Helvetica,sans-Serif" font-size="14.00">line 198</text>
<text text-anchor="middle" x="4353.5" y="-133.3" font-family="Helvetica,sans-Serif" font-size="14.00">layer 6</text>
<text text-anchor="middle" x="4353.5" y="-118.3" font-family="Helvetica,sans-Serif" font-size="14.00">cost 4</text>
<text text-anchor="middle" x="4353.5" y="-103.3" font-family="Helvetica,sans-Serif" font-size="14.00">out copy_ciph__HomSort_14575__ciph_ct_mask2@3</text>
<text text-anchor="middle" x="4353.5" y="-88.3" font-family="Helvetica,sans-Serif" font-size="14.00">in copy_ciph__HomSort_14575__ciph_ct_mask2@2</text>
</g>
<!-- op5&#45;&gt;op6 -->
<g id="edge18" class="edge">
<title>op5&#45;&gt;op6</title>
<path fill="none" stroke="#1f2937" d="M3652.79,-131.47C3709.6,-113.47 3774.95,-95.93 3836,-87 3972.77,-67 4009.76,-70.54 4147,-87 4149.59,-87.31 4152.2,-87.64 4154.82,-87.99"/>
<polygon fill="#1f2937" stroke="#1f2937" points="4154.57,-91.5 4164.97,-89.45 4155.56,-84.57 4154.57,-91.5"/>
<text text-anchor="middle" x="3991.5" y="-90.8" font-family="Helvetica,sans-Serif" font-size="14.00">copy_ciph__HomSort_14575__ciph_ct_mask2</text>
</g>
<!-- op5&#45;&gt;op6 -->
<g id="edge19" class="edge">
<title>op5&#45;&gt;op6</title>
<path fill="none" stroke="#2563eb" d="M3818.15,-230.37C3923.59,-236.75 4040.97,-235.68 4147,-216 4170.29,-211.68 4194.34,-204.82 4217.42,-196.91"/>
<polygon fill="#2563eb" stroke="#2563eb" points="4218.63,-200.19 4226.9,-193.58 4216.31,-193.59 4218.63,-200.19"/>
<text text-anchor="middle" x="3991.5" y="-236.8" font-family="Helvetica,sans-Serif" font-size="14.00">copy_ciph__HomSort_14575__ciph_ct_mask2</text>
</g>
<!-- op5&#45;&gt;op6 -->
<g id="edge20" class="edge">
<title>op5&#45;&gt;op6</title>
<path fill="none" stroke="#f97316" d="M3818.07,-194.58C3923.12,-193.67 4040.27,-189.37 4147,-178 4149.57,-177.73 4152.16,-177.44 4154.76,-177.13"/>
<polygon fill="#f97316" stroke="#f97316" points="4155.35,-180.58 4164.85,-175.88 4154.49,-173.64 4155.35,-180.58"/>
<text text-anchor="middle" x="3991.5" y="-197.8" font-family="Helvetica,sans-Serif" font-size="14.00">copy_ciph__HomSort_14575__ciph_ct_mask2</text>
</g>
<!-- op5&#45;&gt;op6 -->
<g id="edge21" class="edge">
<title>op5&#45;&gt;op6</title>
<path fill="none" stroke="#dc2626" d="M3818.21,-160.17C3824.19,-159.77 3830.12,-159.38 3836,-159 3941.1,-152.26 4058.38,-147.07 4154.58,-143.43"/>
<polygon fill="#dc2626" stroke="#dc2626" points="4154.85,-146.93 4164.71,-143.05 4154.59,-139.93 4154.85,-146.93"/>
<text text-anchor="middle" x="3991.5" y="-162.8" font-family="Helvetica,sans-Serif" font-size="14.00">copy_ciph__HomSort_14575__ciph_ct_mask2</text>
</g>
<!-- op5&#45;&gt;op6 -->
<g id="edge22" class="edge">
<title>op5&#45;&gt;op6</title>
<path fill="none" stroke="#0f766e" d="M3773.17,-131.5C3794.36,-128.49 3815.49,-125.93 3836,-124 3973.62,-111.09 4008.85,-119.63 4147,-124 4149.58,-124.08 4152.18,-124.17 4154.79,-124.26"/>
<polygon fill="#0f766e" stroke="#0f766e" points="4154.81,-127.76 4164.93,-124.64 4155.07,-120.77 4154.81,-127.76"/>
<text text-anchor="middle" x="3991.5" y="-127.8" font-family="Helvetica,sans-Serif" font-size="14.00">HomSort@14575</text>
</g>
<!-- op6&#45;&gt;op7 -->
<g id="edge25" class="edge">
<title>op6&#45;&gt;op7</title>
<path fill="none" stroke="#1f2937" d="M4525.46,-80.48C4537.07,-77.92 4548.65,-75.71 4560,-74 4662.7,-58.53 4775.07,-53.53 4878.47,-53.65"/>
<polygon fill="#1f2937" stroke="#1f2937" points="4878.76,-57.15 4888.77,-53.68 4878.78,-50.15 4878.76,-57.15"/>
<text text-anchor="middle" x="4715.5" y="-77.8" font-family="Helvetica,sans-Serif" font-size="14.00">copy_ciph__HomSort_14575__ciph_ct_mask2</text>
</g>
<!-- op6&#45;&gt;op7 -->
<g id="edge26" class="edge">
<title>op6&#45;&gt;op7</title>
<path fill="none" stroke="#2563eb" d="M4542.16,-138.99C4640.28,-138.61 4762.28,-135.91 4871,-127 4873.56,-126.79 4876.13,-126.57 4878.71,-126.35"/>
<polygon fill="#2563eb" stroke="#2563eb" points="4879.04,-129.84 4888.7,-125.46 4878.42,-122.86 4879.04,-129.84"/>
<text text-anchor="middle" x="4715.5" y="-141.8" font-family="Helvetica,sans-Serif" font-size="14.00">copy_ciph__HomSort_14575__ciph_ct_mask2</text>
</g>
<!-- op6&#45;&gt;op7 -->
<g id="edge27" class="edge">
<title>op6&#45;&gt;op7</title>
<path fill="none" stroke="#0f766e" d="M4542.01,-109.84C4548.07,-109.18 4554.08,-108.57 4560,-108 4622.63,-101.99 4750.48,-94.95 4878.8,-88.78"/>
<polygon fill="#0f766e" stroke="#0f766e" points="4879.01,-92.27 4888.83,-88.3 4878.67,-85.28 4879.01,-92.27"/>
<text text-anchor="middle" x="4715.5" y="-111.8" font-family="Helvetica,sans-Serif" font-size="14.00">HomSort@14575</text>
</g>
<!-- op8 -->
<g id="node9" class="node">
<title>op8</title>
<path fill="#17becf" stroke="black" d="M6248,-129.5C6248,-129.5 5931,-129.5 5931,-129.5 5925,-129.5 5919,-123.5 5919,-117.5 5919,-117.5 5919,-28.5 5919,-28.5 5919,-22.5 5925,-16.5 5931,-16.5 5931,-16.5 6248,-16.5 6248,-16.5 6254,-16.5 6260,-22.5 6260,-28.5 6260,-28.5 6260,-117.5 6260,-117.5 6260,-123.5 6254,-129.5 6248,-129.5"/>
<text text-anchor="middle" x="6089.5" y="-114.3" font-family="Helvetica,sans-Serif" font-size="14.00">op8</text>
<text text-anchor="middle" x="6089.5" y="-99.3" font-family="Helvetica,sans-Serif" font-size="14.00">assign</text>
<text text-anchor="middle" x="6089.5" y="-84.3" font-family="Helvetica,sans-Serif" font-size="14.00">line 412</text>
<text text-anchor="middle" x="6089.5" y="-69.3" font-family="Helvetica,sans-Serif" font-size="14.00">layer 8</text>
<text text-anchor="middle" x="6089.5" y="-54.3" font-family="Helvetica,sans-Serif" font-size="14.00">cost 1</text>
<text text-anchor="middle" x="6089.5" y="-39.3" font-family="Helvetica,sans-Serif" font-size="14.00">out ciph_result@1</text>
<text text-anchor="middle" x="6089.5" y="-24.3" font-family="Helvetica,sans-Serif" font-size="14.00">in copy_ciph__HomSort_14575__ciph_result@1</text>
</g>
<!-- op7&#45;&gt;op8 -->
<g id="edge28" class="edge">
<title>op7&#45;&gt;op8</title>
<path fill="none" stroke="#1f2937" d="M5599.15,-90.31C5696.96,-92.73 5803.12,-93.17 5901,-89 5903.57,-88.89 5906.16,-88.77 5908.77,-88.65"/>
<polygon fill="#1f2937" stroke="#1f2937" points="5909.08,-92.14 5918.89,-88.12 5908.72,-85.14 5909.08,-92.14"/>
<text text-anchor="middle" x="5759" y="-95.8" font-family="Helvetica,sans-Serif" font-size="14.00">copy_ciph__HomSort_14575__ciph_result</text>
</g>
<!-- op7&#45;&gt;op8 -->
<g id="edge29" class="edge">
<title>op7&#45;&gt;op8</title>
<path fill="none" stroke="#2563eb" d="M5599.07,-69.75C5696.89,-69.3 5803.06,-69.22 5901,-70 5903.56,-70.02 5906.15,-70.04 5908.75,-70.07"/>
<polygon fill="#2563eb" stroke="#2563eb" points="5908.81,-73.57 5918.85,-70.16 5908.88,-66.57 5908.81,-73.57"/>
<text text-anchor="middle" x="5759" y="-73.8" font-family="Helvetica,sans-Serif" font-size="14.00">copy_ciph__HomSort_14575__ciph_result</text>
</g>
<!-- op7&#45;&gt;op8 -->
<g id="edge30" class="edge">
<title>op7&#45;&gt;op8</title>
<path fill="none" stroke="#0f766e" d="M5599.23,-48.14C5697.05,-44.66 5803.18,-44.02 5901,-50 5903.58,-50.16 5906.17,-50.33 5908.79,-50.51"/>
<polygon fill="#0f766e" stroke="#0f766e" points="5908.7,-54.01 5918.93,-51.26 5909.21,-47.03 5908.7,-54.01"/>
<text text-anchor="middle" x="5759" y="-53.8" font-family="Helvetica,sans-Serif" font-size="14.00">HomSort@14575</text>
</g>
<!-- op9 -->
<g id="node10" class="node">
<title>op9</title>
<path fill="#64748b" stroke="black" d="M6496,-148.5C6496,-148.5 6384,-148.5 6384,-148.5 6378,-148.5 6372,-142.5 6372,-136.5 6372,-136.5 6372,-47.5 6372,-47.5 6372,-41.5 6378,-35.5 6384,-35.5 6384,-35.5 6496,-35.5 6496,-35.5 6502,-35.5 6508,-41.5 6508,-47.5 6508,-47.5 6508,-136.5 6508,-136.5 6508,-142.5 6502,-148.5 6496,-148.5"/>
<text text-anchor="middle" x="6440" y="-133.3" font-family="Helvetica,sans-Serif" font-size="14.00">op9</text>
<text text-anchor="middle" x="6440" y="-118.3" font-family="Helvetica,sans-Serif" font-size="14.00">return</text>
<text text-anchor="middle" x="6440" y="-103.3" font-family="Helvetica,sans-Serif" font-size="14.00">line 437</text>
<text text-anchor="middle" x="6440" y="-88.3" font-family="Helvetica,sans-Serif" font-size="14.00">layer 9</text>
<text text-anchor="middle" x="6440" y="-73.3" font-family="Helvetica,sans-Serif" font-size="14.00">cost 1</text>
<text text-anchor="middle" x="6440" y="-58.3" font-family="Helvetica,sans-Serif" font-size="14.00">out __return__@1</text>
<text text-anchor="middle" x="6440" y="-43.3" font-family="Helvetica,sans-Serif" font-size="14.00">in ciph_result@1</text>
</g>
<!-- op8&#45;&gt;op9 -->
<g id="edge31" class="edge">
<title>op8&#45;&gt;op9</title>
<path fill="none" stroke="#1f2937" d="M6260.16,-82.25C6295.77,-84.19 6331.64,-86.15 6361.81,-87.79"/>
<polygon fill="#1f2937" stroke="#1f2937" points="6361.64,-91.29 6371.82,-88.34 6362.02,-84.3 6361.64,-91.29"/>
<text text-anchor="middle" x="6316" y="-89.8" font-family="Helvetica,sans-Serif" font-size="14.00">ciph_result</text>
</g>
<!-- op8&#45;&gt;op9 -->
<g id="edge32" class="edge">
<title>op8&#45;&gt;op9</title>
<path fill="none" stroke="#2563eb" d="M6260.14,-57.58C6291.48,-57.45 6323.83,-59.16 6354,-64 6356.64,-64.42 6359.31,-64.92 6362,-65.47"/>
<polygon fill="#2563eb" stroke="#2563eb" points="6361.22,-68.88 6371.74,-67.7 6362.78,-62.06 6361.22,-68.88"/>
<text text-anchor="middle" x="6316" y="-67.8" font-family="Helvetica,sans-Serif" font-size="14.00">ciph_result</text>
</g>
</g>
</svg>
