<?xml version="1.0" encoding="UTF-8" standalone="no"?>
<!DOCTYPE svg PUBLIC "-//W3C//DTD SVG 1.1//EN"
 "http://www.w3.org/Graphics/SVG/1.1/DTD/svg11.dtd">
<!-- Generated by graphviz version 2.43.0 (0)
 -->
<!-- Title: hedag_v2 Pages: 1 -->
<svg width="1672pt" height="850pt"
 viewBox="0.00 0.00 1672.00 850.00" xmlns="http://www.w3.org/2000/svg" xmlns:xlink="http://www.w3.org/1999/xlink">
<g id="graph0" class="graph" transform="scale(1 1) rotate(0) translate(4 846)">
<title>hedag_v2</title>
<polygon fill="white" stroke="transparent" points="-4,4 -4,-846 1668,-846 1668,4 -4,4"/>
<g id="clust1" class="cluster">
<title>cluster_layer_0</title>
<polygon fill="none" stroke="#d1d5db" points="8,-8 8,-711 395,-711 395,-8 8,-8"/>
<text text-anchor="middle" x="201.5" y="-695.8" font-family="Times,serif" font-size="14.00">layer 0</text>
</g>
<g id="clust2" class="cluster">
<title>cluster_layer_1</title>
<polygon fill="none" stroke="#d1d5db" points="598,-550 598,-834 985,-834 985,-550 598,-550"/>
<text text-anchor="middle" x="791.5" y="-818.8" font-family="Times,serif" font-size="14.00">layer 1</text>
</g>
<g id="clust3" class="cluster">
<title>cluster_layer_2</title>
<polygon fill="none" stroke="#d1d5db" points="1124,-573 1124,-826 1325,-826 1325,-573 1124,-573"/>
<text text-anchor="middle" x="1224.5" y="-810.8" font-family="Times,serif" font-size="14.00">layer 2</text>
</g>
<g id="clust4" class="cluster">
<title>cluster_layer_3</title>
<polygon fill="none" stroke="#d1d5db" points="1464,-603 1464,-756 1656,-756 1656,-603 1464,-603"/>
<text text-anchor="middle" x="1560" y="-740.8" font-family="Times,serif" font-size="14.00">layer 3</text>
</g>
<!-- op0 -->
<g id="node1" class="node">
<title>op0</title>
<path fill="#e5e7eb" stroke="black" d="M282,-680C282,-680 121,-680 121,-680 115,-680 109,-674 109,-668 109,-668 109,-594 109,-594 109,-588 115,-582 121,-582 121,-582 282,-582 282,-582 288,-582 294,-588 294,-594 294,-594 294,-668 294,-668 294,-674 288,-680 282,-680"/>
<text text-anchor="middle" x="201.5" y="-664.8" font-family="Helvetica,sans-Serif" font-size="14.00">op0</text>
<text text-anchor="middle" x="201.5" y="-649.8" font-family="Helvetica,sans-Serif" font-size="14.00">apply_galois</text>
<text text-anchor="middle" x="201.5" y="-634.8" font-family="Helvetica,sans-Serif" font-size="14.00">line 461</text>
<text text-anchor="middle" x="201.5" y="-619.8" font-family="Helvetica,sans-Serif" font-size="14.00">layer 0</text>
<text text-anchor="middle" x="201.5" y="-604.8" font-family="Helvetica,sans-Serif" font-size="14.00">cost 4</text>
<text text-anchor="middle" x="201.5" y="-589.8" font-family="Helvetica,sans-Serif" font-size="14.00">out tempctxt_rotated@1</text>
</g>
<!-- op1 -->
<g id="node7" class="node">
<title>op1</title>
<path fill="#e5e7eb" stroke="black" d="M867.5,-802.5C867.5,-802.5 715.5,-802.5 715.5,-802.5 709.5,-802.5 703.5,-796.5 703.5,-790.5 703.5,-790.5 703.5,-701.5 703.5,-701.5 703.5,-695.5 709.5,-689.5 715.5,-689.5 715.5,-689.5 867.5,-689.5 867.5,-689.5 873.5,-689.5 879.5,-695.5 879.5,-701.5 879.5,-701.5 879.5,-790.5 879.5,-790.5 879.5,-796.5 873.5,-802.5 867.5,-802.5"/>
<text text-anchor="middle" x="791.5" y="-787.3" font-family="Helvetica,sans-Serif" font-size="14.00">op1</text>
<text text-anchor="middle" x="791.5" y="-772.3" font-family="Helvetica,sans-Serif" font-size="14.00">add</text>
<text text-anchor="middle" x="791.5" y="-757.3" font-family="Helvetica,sans-Serif" font-size="14.00">line 464</text>
<text text-anchor="middle" x="791.5" y="-742.3" font-family="Helvetica,sans-Serif" font-size="14.00">layer 1</text>
<text text-anchor="middle" x="791.5" y="-727.3" font-family="Helvetica,sans-Serif" font-size="14.00">cost 1</text>
<text text-anchor="middle" x="791.5" y="-712.3" font-family="Helvetica,sans-Serif" font-size="14.00">out newtemp[a]@1</text>
<text text-anchor="middle" x="791.5" y="-697.3" font-family="Helvetica,sans-Serif" font-size="14.00">in tempctxt_rotated@1</text>
</g>
<!-- op0&#45;&gt;op1 -->
<g id="edge1" class="edge">
<title>op0&#45;&gt;op1</title>
<path fill="none" stroke="#1f2937" d="M294.05,-648.91C402.62,-670.14 582.79,-705.38 693.64,-727.06"/>
<polygon fill="#1f2937" stroke="#1f2937" points="692.99,-730.5 703.48,-728.98 694.34,-723.63 692.99,-730.5"/>
<text text-anchor="middle" x="496.5" y="-708.8" font-family="Helvetica,sans-Serif" font-size="14.00">tempctxt_rotated</text>
</g>
<!-- op0&#45;&gt;op1 -->
<g id="edge2" class="edge">
<title>op0&#45;&gt;op1</title>
<path fill="none" stroke="#2563eb" d="M294.4,-609.34C379.25,-595.01 504.41,-588.91 588,-652 598.88,-660.21 588.33,-671.39 598,-681 623.62,-706.46 659.54,-721.95 693.43,-731.37"/>
<polygon fill="#2563eb" stroke="#2563eb" points="692.83,-734.84 703.39,-733.99 694.61,-728.06 692.83,-734.84"/>
<text text-anchor="middle" x="496.5" y="-655.8" font-family="Helvetica,sans-Serif" font-size="14.00">tempctxt_rotated</text>
</g>
<!-- op5 -->
<g id="node10" class="node">
<title>op5</title>
<path fill="#e5e7eb" stroke="black" d="M1305,-679C1305,-679 1144,-679 1144,-679 1138,-679 1132,-673 1132,-667 1132,-667 1132,-593 1132,-593 1132,-587 1138,-581 1144,-581 1144,-581 1305,-581 1305,-581 1311,-581 1317,-587 1317,-593 1317,-593 1317,-667 1317,-667 1317,-673 1311,-679 1305,-679"/>
<text text-anchor="middle" x="1224.5" y="-663.8" font-family="Helvetica,sans-Serif" font-size="14.00">op5</text>
<text text-anchor="middle" x="1224.5" y="-648.8" font-family="Helvetica,sans-Serif" font-size="14.00">apply_galois</text>
<text text-anchor="middle" x="1224.5" y="-633.8" font-family="Helvetica,sans-Serif" font-size="14.00">line 503</text>
<text text-anchor="middle" x="1224.5" y="-618.8" font-family="Helvetica,sans-Serif" font-size="14.00">layer 2</text>
<text text-anchor="middle" x="1224.5" y="-603.8" font-family="Helvetica,sans-Serif" font-size="14.00">cost 4</text>
<text text-anchor="middle" x="1224.5" y="-588.8" font-family="Helvetica,sans-Serif" font-size="14.00">out tempctxt_rotated@2</text>
</g>
<!-- op0&#45;&gt;op5 -->
<g id="edge4" class="edge">
<title>op0&#45;&gt;op5</title>
<path fill="none" stroke="#f97316" d="M294.03,-605.06C391.58,-577.91 539.84,-538.24 598,-531 768.68,-509.76 816.32,-497.38 985,-531 1031.9,-540.35 1081.13,-559.1 1122.61,-577.79"/>
<polygon fill="#f97316" stroke="#f97316" points="1121.33,-581.05 1131.88,-582.03 1124.24,-574.69 1121.33,-581.05"/>
<text text-anchor="middle" x="791.5" y="-534.8" font-family="Helvetica,sans-Serif" font-size="14.00">tempctxt_rotated</text>
</g>
<!-- op2 -->
<g id="node2" class="node">
<title>op2</title>
<path fill="#e5e7eb" stroke="black" d="M375,-563.5C375,-563.5 28,-563.5 28,-563.5 22,-563.5 16,-557.5 16,-551.5 16,-551.5 16,-462.5 16,-462.5 16,-456.5 22,-450.5 28,-450.5 28,-450.5 375,-450.5 375,-450.5 381,-450.5 387,-456.5 387,-462.5 387,-462.5 387,-551.5 387,-551.5 387,-557.5 381,-563.5 375,-563.5"/>
<text text-anchor="middle" x="201.5" y="-548.3" font-family="Helvetica,sans-Serif" font-size="14.00">op2</text>
<text text-anchor="middle" x="201.5" y="-533.3" font-family="Helvetica,sans-Serif" font-size="14.00">add</text>
<text text-anchor="middle" x="201.5" y="-518.3" font-family="Helvetica,sans-Serif" font-size="14.00">line 470</text>
<text text-anchor="middle" x="201.5" y="-503.3" font-family="Helvetica,sans-Serif" font-size="14.00">layer 0</text>
<text text-anchor="middle" x="201.5" y="-488.3" font-family="Helvetica,sans-Serif" font-size="14.00">cost 1</text>
<text text-anchor="middle" x="201.5" y="-473.3" font-family="Helvetica,sans-Serif" font-size="14.00">out newtemp[a + temp.size()]@1</text>
<text text-anchor="middle" x="201.5" y="-458.3" font-family="Helvetica,sans-Serif" font-size="14.00">in tempctxt_shifted@0, tempctxt_rotatedshifted@0</text>
</g>
<!-- op8 -->
<g id="node8" class="node">
<title>op8</title>
<path fill="#e5e7eb" stroke="black" d="M965,-671.5C965,-671.5 618,-671.5 618,-671.5 612,-671.5 606,-665.5 606,-659.5 606,-659.5 606,-570.5 606,-570.5 606,-564.5 612,-558.5 618,-558.5 618,-558.5 965,-558.5 965,-558.5 971,-558.5 977,-564.5 977,-570.5 977,-570.5 977,-659.5 977,-659.5 977,-665.5 971,-671.5 965,-671.5"/>
<text text-anchor="middle" x="791.5" y="-656.3" font-family="Helvetica,sans-Serif" font-size="14.00">op8</text>
<text text-anchor="middle" x="791.5" y="-641.3" font-family="Helvetica,sans-Serif" font-size="14.00">add</text>
<text text-anchor="middle" x="791.5" y="-626.3" font-family="Helvetica,sans-Serif" font-size="14.00">line 513</text>
<text text-anchor="middle" x="791.5" y="-611.3" font-family="Helvetica,sans-Serif" font-size="14.00">layer 1</text>
<text text-anchor="middle" x="791.5" y="-596.3" font-family="Helvetica,sans-Serif" font-size="14.00">cost 1</text>
<text text-anchor="middle" x="791.5" y="-581.3" font-family="Helvetica,sans-Serif" font-size="14.00">out newtemp[a + temp.size()]@2</text>
<text text-anchor="middle" x="791.5" y="-566.3" font-family="Helvetica,sans-Serif" font-size="14.00">in tempctxt_shifted@0, tempctxt_rotatedshifted@0</text>
</g>
<!-- op2&#45;&gt;op8 -->
<g id="edge9" class="edge">
<title>op2&#45;&gt;op8</title>
<path fill="none" stroke="#f97316" d="M387.34,-540.95C453.77,-553.15 528.87,-566.95 596.09,-579.29"/>
<polygon fill="#f97316" stroke="#f97316" points="595.48,-582.74 605.95,-581.1 596.75,-575.85 595.48,-582.74"/>
<text text-anchor="middle" x="496.5" y="-579.8" font-family="Helvetica,sans-Serif" font-size="14.00">newtemp[a + temp.size()]</text>
</g>
<!-- op4 -->
<g id="node3" class="node">
<title>op4</title>
<path fill="#e5e7eb" stroke="black" d="M226,-432.5C226,-432.5 177,-432.5 177,-432.5 171,-432.5 165,-426.5 165,-420.5 165,-420.5 165,-361.5 165,-361.5 165,-355.5 171,-349.5 177,-349.5 177,-349.5 226,-349.5 226,-349.5 232,-349.5 238,-355.5 238,-361.5 238,-361.5 238,-420.5 238,-420.5 238,-426.5 232,-432.5 226,-432.5"/>
<text text-anchor="middle" x="201.5" y="-417.3" font-family="Helvetica,sans-Serif" font-size="14.00">op4</text>
<text text-anchor="middle" x="201.5" y="-402.3" font-family="Helvetica,sans-Serif" font-size="14.00">read</text>
<text text-anchor="middle" x="201.5" y="-387.3" font-family="Helvetica,sans-Serif" font-size="14.00">line 500</text>
<text text-anchor="middle" x="201.5" y="-372.3" font-family="Helvetica,sans-Serif" font-size="14.00">layer 0</text>
<text text-anchor="middle" x="201.5" y="-357.3" font-family="Helvetica,sans-Serif" font-size="14.00">cost 1</text>
</g>
<!-- op7 -->
<g id="node4" class="node">
<title>op7</title>
<path fill="#e5e7eb" stroke="black" d="M226,-331.5C226,-331.5 177,-331.5 177,-331.5 171,-331.5 165,-325.5 165,-319.5 165,-319.5 165,-260.5 165,-260.5 165,-254.5 171,-248.5 177,-248.5 177,-248.5 226,-248.5 226,-248.5 232,-248.5 238,-254.5 238,-260.5 238,-260.5 238,-319.5 238,-319.5 238,-325.5 232,-331.5 226,-331.5"/>
<text text-anchor="middle" x="201.5" y="-316.3" font-family="Helvetica,sans-Serif" font-size="14.00">op7</text>
<text text-anchor="middle" x="201.5" y="-301.3" font-family="Helvetica,sans-Serif" font-size="14.00">read</text>
<text text-anchor="middle" x="201.5" y="-286.3" font-family="Helvetica,sans-Serif" font-size="14.00">line 508</text>
<text text-anchor="middle" x="201.5" y="-271.3" font-family="Helvetica,sans-Serif" font-size="14.00">layer 0</text>
<text text-anchor="middle" x="201.5" y="-256.3" font-family="Helvetica,sans-Serif" font-size="14.00">cost 1</text>
</g>
<!-- op9 -->
<g id="node5" class="node">
<title>op9</title>
<path fill="#e5e7eb" stroke="black" d="M226,-230.5C226,-230.5 177,-230.5 177,-230.5 171,-230.5 165,-224.5 165,-218.5 165,-218.5 165,-159.5 165,-159.5 165,-153.5 171,-147.5 177,-147.5 177,-147.5 226,-147.5 226,-147.5 232,-147.5 238,-153.5 238,-159.5 238,-159.5 238,-218.5 238,-218.5 238,-224.5 232,-230.5 226,-230.5"/>
<text text-anchor="middle" x="201.5" y="-215.3" font-family="Helvetica,sans-Serif" font-size="14.00">op9</text>
<text text-anchor="middle" x="201.5" y="-200.3" font-family="Helvetica,sans-Serif" font-size="14.00">read</text>
<text text-anchor="middle" x="201.5" y="-185.3" font-family="Helvetica,sans-Serif" font-size="14.00">line 514</text>
<text text-anchor="middle" x="201.5" y="-170.3" font-family="Helvetica,sans-Serif" font-size="14.00">layer 0</text>
<text text-anchor="middle" x="201.5" y="-155.3" font-family="Helvetica,sans-Serif" font-size="14.00">cost 1</text>
</g>
<!-- op10 -->
<g id="node6" class="node">
<title>op10</title>
<path fill="#64748b" stroke="black" d="M257.5,-129.5C257.5,-129.5 145.5,-129.5 145.5,-129.5 139.5,-129.5 133.5,-123.5 133.5,-117.5 133.5,-117.5 133.5,-28.5 133.5,-28.5 133.5,-22.5 139.5,-16.5 145.5,-16.5 145.5,-16.5 257.5,-16.5 257.5,-16.5 263.5,-16.5 269.5,-22.5 269.5,-28.5 269.5,-28.5 269.5,-117.5 269.5,-117.5 269.5,-123.5 263.5,-129.5 257.5,-129.5"/>
<text text-anchor="middle" x="201.5" y="-114.3" font-family="Helvetica,sans-Serif" font-size="14.00">op10</text>
<text text-anchor="middle" x="201.5" y="-99.3" font-family="Helvetica,sans-Serif" font-size="14.00">return</text>
<text text-anchor="middle" x="201.5" y="-84.3" font-family="Helvetica,sans-Serif" font-size="14.00">line 531</text>
<text text-anchor="middle" x="201.5" y="-69.3" font-family="Helvetica,sans-Serif" font-size="14.00">layer 0</text>
<text text-anchor="middle" x="201.5" y="-54.3" font-family="Helvetica,sans-Serif" font-size="14.00">cost 1</text>
<text text-anchor="middle" x="201.5" y="-39.3" font-family="Helvetica,sans-Serif" font-size="14.00">out __return__@1</text>
<text text-anchor="middle" x="201.5" y="-24.3" font-family="Helvetica,sans-Serif" font-size="14.00">in newVec@0</text>
</g>
<!-- op3 -->
<g id="node9" class="node">
<title>op3</title>
<path fill="#e5e7eb" stroke="black" d="M1287.5,-795C1287.5,-795 1161.5,-795 1161.5,-795 1155.5,-795 1149.5,-789 1149.5,-783 1149.5,-783 1149.5,-709 1149.5,-709 1149.5,-703 1155.5,-697 1161.5,-697 1161.5,-697 1287.5,-697 1287.5,-697 1293.5,-697 1299.5,-703 1299.5,-709 1299.5,-709 1299.5,-783 1299.5,-783 1299.5,-789 1293.5,-795 1287.5,-795"/>
<text text-anchor="middle" x="1224.5" y="-779.8" font-family="Helvetica,sans-Serif" font-size="14.00">op3</text>
<text text-anchor="middle" x="1224.5" y="-764.8" font-family="Helvetica,sans-Serif" font-size="14.00">multiply_plain</text>
<text text-anchor="middle" x="1224.5" y="-749.8" font-family="Helvetica,sans-Serif" font-size="14.00">line 494</text>
<text text-anchor="middle" x="1224.5" y="-734.8" font-family="Helvetica,sans-Serif" font-size="14.00">layer 2</text>
<text text-anchor="middle" x="1224.5" y="-719.8" font-family="Helvetica,sans-Serif" font-size="14.00">cost 3</text>
<text text-anchor="middle" x="1224.5" y="-704.8" font-family="Helvetica,sans-Serif" font-size="14.00">out newtemp[a]@2</text>
</g>
<!-- op1&#45;&gt;op3 -->
<g id="edge3" class="edge">
<title>op1&#45;&gt;op3</title>
<path fill="none" stroke="#f97316" d="M879.72,-746C955.37,-746 1064.17,-746 1139,-746"/>
<polygon fill="#f97316" stroke="#f97316" points="1139.33,-749.5 1149.33,-746 1139.33,-742.5 1139.33,-749.5"/>
<text text-anchor="middle" x="1054.5" y="-749.8" font-family="Helvetica,sans-Serif" font-size="14.00">newtemp[a]</text>
</g>
<!-- op1&#45;&gt;op5 -->
<g id="edge5" class="edge">
<title>op1&#45;&gt;op5</title>
<path fill="none" stroke="#dc2626" d="M879.72,-722.53C949.87,-703.65 1048.54,-677.09 1122.18,-657.27"/>
<polygon fill="#dc2626" stroke="#dc2626" points="1123.2,-660.62 1131.95,-654.64 1121.38,-653.86 1123.2,-660.62"/>
<text text-anchor="middle" x="1054.5" y="-694.8" font-family="Helvetica,sans-Serif" font-size="14.00">tempctxt_rotated</text>
</g>
<!-- op6 -->
<g id="node11" class="node">
<title>op6</title>
<path fill="#e5e7eb" stroke="black" d="M1636,-724.5C1636,-724.5 1484,-724.5 1484,-724.5 1478,-724.5 1472,-718.5 1472,-712.5 1472,-712.5 1472,-623.5 1472,-623.5 1472,-617.5 1478,-611.5 1484,-611.5 1484,-611.5 1636,-611.5 1636,-611.5 1642,-611.5 1648,-617.5 1648,-623.5 1648,-623.5 1648,-712.5 1648,-712.5 1648,-718.5 1642,-724.5 1636,-724.5"/>
<text text-anchor="middle" x="1560" y="-709.3" font-family="Helvetica,sans-Serif" font-size="14.00">op6</text>
<text text-anchor="middle" x="1560" y="-694.3" font-family="Helvetica,sans-Serif" font-size="14.00">add</text>
<text text-anchor="middle" x="1560" y="-679.3" font-family="Helvetica,sans-Serif" font-size="14.00">line 507</text>
<text text-anchor="middle" x="1560" y="-664.3" font-family="Helvetica,sans-Serif" font-size="14.00">layer 3</text>
<text text-anchor="middle" x="1560" y="-649.3" font-family="Helvetica,sans-Serif" font-size="14.00">cost 1</text>
<text text-anchor="middle" x="1560" y="-634.3" font-family="Helvetica,sans-Serif" font-size="14.00">out newtemp[a]@3</text>
<text text-anchor="middle" x="1560" y="-619.3" font-family="Helvetica,sans-Serif" font-size="14.00">in tempctxt_rotated@2</text>
</g>
<!-- op3&#45;&gt;op6 -->
<g id="edge8" class="edge">
<title>op3&#45;&gt;op6</title>
<path fill="none" stroke="#f97316" d="M1299.51,-728.69C1347.38,-717.49 1410.19,-702.8 1462.03,-690.68"/>
<polygon fill="#f97316" stroke="#f97316" points="1462.96,-694.06 1471.9,-688.37 1461.37,-687.24 1462.96,-694.06"/>
<text text-anchor="middle" x="1394.5" y="-721.8" font-family="Helvetica,sans-Serif" font-size="14.00">newtemp[a]</text>
</g>
<!-- op5&#45;&gt;op6 -->
<g id="edge6" class="edge">
<title>op5&#45;&gt;op6</title>
<path fill="none" stroke="#1f2937" d="M1317.17,-643.72C1323.2,-644.52 1329.18,-645.29 1335,-646 1376.48,-651.06 1422.39,-655.74 1461.8,-659.46"/>
<polygon fill="#1f2937" stroke="#1f2937" points="1461.65,-662.96 1471.93,-660.41 1462.3,-655.99 1461.65,-662.96"/>
<text text-anchor="middle" x="1394.5" y="-661.8" font-family="Helvetica,sans-Serif" font-size="14.00">tempctxt_rotated</text>
</g>
<!-- op5&#45;&gt;op6 -->
<g id="edge7" class="edge">
<title>op5&#45;&gt;op6</title>
<path fill="none" stroke="#2563eb" d="M1317.12,-620.54C1359.16,-618.31 1409.46,-618.61 1454,-627 1456.66,-627.5 1459.33,-628.07 1462.02,-628.69"/>
<polygon fill="#2563eb" stroke="#2563eb" points="1461.21,-632.1 1471.77,-631.18 1462.95,-625.31 1461.21,-632.1"/>
<text text-anchor="middle" x="1394.5" y="-630.8" font-family="Helvetica,sans-Serif" font-size="14.00">tempctxt_rotated</text>
</g>
</g>
</svg>
