<?xml version="1.0" encoding="UTF-8" standalone="no"?>
<!DOCTYPE svg PUBLIC "-//W3C//DTD SVG 1.1//EN"
 "http://www.w3.org/Graphics/SVG/1.1/DTD/svg11.dtd">
<!-- Generated by graphviz version 2.43.0 (0)
 -->
<!-- Title: hedag_v2 Pages: 1 -->
<svg width="631pt" height="215pt"
 viewBox="0.00 0.00 631.00 215.00" xmlns="http://www.w3.org/2000/svg" xmlns:xlink="http://www.w3.org/1999/xlink">
<g id="graph0" class="graph" transform="scale(1 1) rotate(0) translate(4 211)">
<title>hedag_v2</title>
<polygon fill="white" stroke="transparent" points="-4,4 -4,-211 627,-211 627,4 -4,4"/>
<g id="clust1" class="cluster">
<title>cluster_layer_0</title>
<polygon fill="none" stroke="#d1d5db" points="8,-8 8,-161 137,-161 137,-8 8,-8"/>
<text text-anchor="middle" x="72.5" y="-145.8" font-family="Times,serif" font-size="14.00">layer 0</text>
</g>
<g id="clust2" class="cluster">
<title>cluster_layer_1</title>
<polygon fill="none" stroke="#d1d5db" points="170,-46 170,-199 281,-199 281,-46 170,-46"/>
<text text-anchor="middle" x="225.5" y="-183.8" font-family="Times,serif" font-size="14.00">layer 1</text>
</g>
<g id="clust3" class="cluster">
<title>cluster_layer_2</title>
<polygon fill="none" stroke="#d1d5db" points="329,-28 329,-181 430,-181 430,-28 329,-28"/>
<text text-anchor="middle" x="379.5" y="-165.8" font-family="Times,serif" font-size="14.00">layer 2</text>
</g>
<g id="clust4" class="cluster">
<title>cluster_layer_3</title>
<polygon fill="none" stroke="#d1d5db" points="463,-17 463,-170 615,-170 615,-17 463,-17"/>
<text text-anchor="middle" x="539" y="-154.8" font-family="Times,serif" font-size="14.00">layer 3</text>
</g>
<!-- op0 -->
<g id="node1" class="node">
<title>op0</title>
<path fill="#e5e7eb" stroke="black" d="M117,-129.5C117,-129.5 28,-129.5 28,-129.5 22,-129.5 16,-123.5 16,-117.5 16,-117.5 16,-28.5 16,-28.5 16,-22.5 22,-16.5 28,-16.5 28,-16.5 117,-16.5 117,-16.5 123,-16.5 129,-22.5 129,-28.5 129,-28.5 129,-117.5 129,-117.5 129,-123.5 123,-129.5 117,-129.5"/>
<text text-anchor="middle" x="72.5" y="-114.3" font-family="Helvetica,sans-Serif" font-size="14.00">op0</text>
<text text-anchor="middle" x="72.5" y="-99.3" font-family="Helvetica,sans-Serif" font-size="14.00">multiply_plain</text>
<text text-anchor="middle" x="72.5" y="-84.3" font-family="Helvetica,sans-Serif" font-size="14.00">line 484</text>
<text text-anchor="middle" x="72.5" y="-69.3" font-family="Helvetica,sans-Serif" font-size="14.00">layer 0</text>
<text text-anchor="middle" x="72.5" y="-54.3" font-family="Helvetica,sans-Serif" font-size="14.00">cost 3</text>
<text text-anchor="middle" x="72.5" y="-39.3" font-family="Helvetica,sans-Serif" font-size="14.00">out ct@1</text>
<text text-anchor="middle" x="72.5" y="-24.3" font-family="Helvetica,sans-Serif" font-size="14.00">in pt@0</text>
</g>
<!-- op1 -->
<g id="node2" class="node">
<title>op1</title>
<path fill="#e5e7eb" stroke="black" d="M261,-167.5C261,-167.5 190,-167.5 190,-167.5 184,-167.5 178,-161.5 178,-155.5 178,-155.5 178,-66.5 178,-66.5 178,-60.5 184,-54.5 190,-54.5 190,-54.5 261,-54.5 261,-54.5 267,-54.5 273,-60.5 273,-66.5 273,-66.5 273,-155.5 273,-155.5 273,-161.5 267,-167.5 261,-167.5"/>
<text text-anchor="middle" x="225.5" y="-152.3" font-family="Helvetica,sans-Serif" font-size="14.00">op1</text>
<text text-anchor="middle" x="225.5" y="-137.3" font-family="Helvetica,sans-Serif" font-size="14.00">ntt_inv</text>
<text text-anchor="middle" x="225.5" y="-122.3" font-family="Helvetica,sans-Serif" font-size="14.00">line 486</text>
<text text-anchor="middle" x="225.5" y="-107.3" font-family="Helvetica,sans-Serif" font-size="14.00">layer 1</text>
<text text-anchor="middle" x="225.5" y="-92.3" font-family="Helvetica,sans-Serif" font-size="14.00">cost 3</text>
<text text-anchor="middle" x="225.5" y="-77.3" font-family="Helvetica,sans-Serif" font-size="14.00">out tmp@1</text>
<text text-anchor="middle" x="225.5" y="-62.3" font-family="Helvetica,sans-Serif" font-size="14.00">in ct@1</text>
</g>
<!-- op0&#45;&gt;op1 -->
<g id="edge1" class="edge">
<title>op0&#45;&gt;op1</title>
<path fill="none" stroke="#1f2937" d="M129.3,-87.04C141.89,-90.21 155.27,-93.58 167.9,-96.76"/>
<polygon fill="#1f2937" stroke="#1f2937" points="167.29,-100.21 177.84,-99.26 169,-93.42 167.29,-100.21"/>
<text text-anchor="middle" x="153.5" y="-97.8" font-family="Helvetica,sans-Serif" font-size="14.00">ct</text>
</g>
<!-- op0&#45;&gt;op1 -->
<g id="edge2" class="edge">
<title>op0&#45;&gt;op1</title>
<path fill="none" stroke="#2563eb" d="M129.45,-68.67C139.74,-69.09 150.29,-70.35 160,-73 162.82,-73.77 165.64,-74.7 168.45,-75.75"/>
<polygon fill="#2563eb" stroke="#2563eb" points="167.3,-79.06 177.87,-79.76 170.04,-72.62 167.3,-79.06"/>
<text text-anchor="middle" x="153.5" y="-76.8" font-family="Helvetica,sans-Serif" font-size="14.00">ct</text>
</g>
<!-- op2 -->
<g id="node3" class="node">
<title>op2</title>
<path fill="#17becf" stroke="black" d="M410,-149.5C410,-149.5 349,-149.5 349,-149.5 343,-149.5 337,-143.5 337,-137.5 337,-137.5 337,-48.5 337,-48.5 337,-42.5 343,-36.5 349,-36.5 349,-36.5 410,-36.5 410,-36.5 416,-36.5 422,-42.5 422,-48.5 422,-48.5 422,-137.5 422,-137.5 422,-143.5 416,-149.5 410,-149.5"/>
<text text-anchor="middle" x="379.5" y="-134.3" font-family="Helvetica,sans-Serif" font-size="14.00">op2</text>
<text text-anchor="middle" x="379.5" y="-119.3" font-family="Helvetica,sans-Serif" font-size="14.00">assign</text>
<text text-anchor="middle" x="379.5" y="-104.3" font-family="Helvetica,sans-Serif" font-size="14.00">line 487</text>
<text text-anchor="middle" x="379.5" y="-89.3" font-family="Helvetica,sans-Serif" font-size="14.00">layer 2</text>
<text text-anchor="middle" x="379.5" y="-74.3" font-family="Helvetica,sans-Serif" font-size="14.00">cost 1</text>
<text text-anchor="middle" x="379.5" y="-59.3" font-family="Helvetica,sans-Serif" font-size="14.00">out ct@2</text>
<text text-anchor="middle" x="379.5" y="-44.3" font-family="Helvetica,sans-Serif" font-size="14.00">in tmp@1</text>
</g>
<!-- op0&#45;&gt;op2 -->
<g id="edge5" class="edge">
<title>op0&#45;&gt;op2</title>
<path fill="none" stroke="#f97316" d="M129.13,-41.37C142.15,-35.43 156.24,-30.11 170,-27 218.12,-16.12 233.83,-12.54 281,-27 297.66,-32.11 314.04,-41.14 328.48,-50.91"/>
<polygon fill="#f97316" stroke="#f97316" points="326.55,-53.83 336.74,-56.72 330.58,-48.1 326.55,-53.83"/>
<text text-anchor="middle" x="225.5" y="-30.8" font-family="Helvetica,sans-Serif" font-size="14.00">ct</text>
</g>
<!-- op1&#45;&gt;op2 -->
<g id="edge3" class="edge">
<title>op1&#45;&gt;op2</title>
<path fill="none" stroke="#1f2937" d="M273.38,-118.67C288.08,-119.84 304.31,-119.85 319,-117 321.68,-116.48 324.38,-115.84 327.09,-115.11"/>
<polygon fill="#1f2937" stroke="#1f2937" points="328.33,-118.39 336.85,-112.11 326.27,-111.7 328.33,-118.39"/>
<text text-anchor="middle" x="305" y="-122.8" font-family="Helvetica,sans-Serif" font-size="14.00">tmp</text>
</g>
<!-- op1&#45;&gt;op2 -->
<g id="edge4" class="edge">
<title>op1&#45;&gt;op2</title>
<path fill="none" stroke="#2563eb" d="M273.22,-100.77C279.19,-99.71 285.22,-98.74 291,-98 302.56,-96.51 315.03,-95.47 326.83,-94.73"/>
<polygon fill="#2563eb" stroke="#2563eb" points="327.21,-98.22 336.99,-94.17 326.81,-91.23 327.21,-98.22"/>
<text text-anchor="middle" x="305" y="-101.8" font-family="Helvetica,sans-Serif" font-size="14.00">tmp</text>
</g>
<!-- op1&#45;&gt;op2 -->
<g id="edge6" class="edge">
<title>op1&#45;&gt;op2</title>
<path fill="none" stroke="#dc2626" d="M273.31,-82.21C279.1,-79.68 285.07,-77.5 291,-76 302.6,-73.06 315.18,-73.44 327.08,-75.42"/>
<polygon fill="#dc2626" stroke="#dc2626" points="326.39,-78.85 336.89,-77.41 327.79,-71.99 326.39,-78.85"/>
<text text-anchor="middle" x="305" y="-79.8" font-family="Helvetica,sans-Serif" font-size="14.00">ct</text>
</g>
<!-- op3 -->
<g id="node4" class="node">
<title>op3</title>
<path fill="#64748b" stroke="black" d="M595,-138.5C595,-138.5 483,-138.5 483,-138.5 477,-138.5 471,-132.5 471,-126.5 471,-126.5 471,-37.5 471,-37.5 471,-31.5 477,-25.5 483,-25.5 483,-25.5 595,-25.5 595,-25.5 601,-25.5 607,-31.5 607,-37.5 607,-37.5 607,-126.5 607,-126.5 607,-132.5 601,-138.5 595,-138.5"/>
<text text-anchor="middle" x="539" y="-123.3" font-family="Helvetica,sans-Serif" font-size="14.00">op3</text>
<text text-anchor="middle" x="539" y="-108.3" font-family="Helvetica,sans-Serif" font-size="14.00">return</text>
<text text-anchor="middle" x="539" y="-93.3" font-family="Helvetica,sans-Serif" font-size="14.00">line 488</text>
<text text-anchor="middle" x="539" y="-78.3" font-family="Helvetica,sans-Serif" font-size="14.00">layer 3</text>
<text text-anchor="middle" x="539" y="-63.3" font-family="Helvetica,sans-Serif" font-size="14.00">cost 1</text>
<text text-anchor="middle" x="539" y="-48.3" font-family="Helvetica,sans-Serif" font-size="14.00">out __return__@1</text>
<text text-anchor="middle" x="539" y="-33.3" font-family="Helvetica,sans-Serif" font-size="14.00">in ct@2</text>
</g>
<!-- op2&#45;&gt;op3 -->
<g id="edge7" class="edge">
<title>op2&#45;&gt;op3</title>
<path fill="none" stroke="#1f2937" d="M422.29,-90.08C434.13,-89.25 447.41,-88.33 460.64,-87.4"/>
<polygon fill="#1f2937" stroke="#1f2937" points="460.98,-90.89 470.71,-86.7 460.49,-83.9 460.98,-90.89"/>
<text text-anchor="middle" x="446.5" y="-91.8" font-family="Helvetica,sans-Serif" font-size="14.00">ct</text>
</g>
<!-- op2&#45;&gt;op3 -->
<g id="edge8" class="edge">
<title>op2&#45;&gt;op3</title>
<path fill="none" stroke="#2563eb" d="M422.15,-73.89C428.03,-71.88 434.1,-70.15 440,-69 446.68,-67.7 453.64,-67.12 460.63,-67.06"/>
<polygon fill="#2563eb" stroke="#2563eb" points="460.79,-70.57 470.88,-67.33 460.97,-63.57 460.79,-70.57"/>
<text text-anchor="middle" x="446.5" y="-72.8" font-family="Helvetica,sans-Serif" font-size="14.00">ct</text>
</g>
</g>
</svg>
