<?xml version="1.0" encoding="UTF-8" standalone="no"?>
<!DOCTYPE svg PUBLIC "-//W3C//DTD SVG 1.1//EN"
 "http://www.w3.org/Graphics/SVG/1.1/DTD/svg11.dtd">
<!-- Generated by graphviz version 2.43.0 (0)
 -->
<!-- Title: hedag_v2 Pages: 1 -->
<svg width="442pt" height="177pt"
 viewBox="0.00 0.00 442.00 177.00" xmlns="http://www.w3.org/2000/svg" xmlns:xlink="http://www.w3.org/1999/xlink">
<g id="graph0" class="graph" transform="scale(1 1) rotate(0) translate(4 173)">
<title>hedag_v2</title>
<polygon fill="white" stroke="transparent" points="-4,4 -4,-173 438,-173 438,4 -4,4"/>
<g id="clust1" class="cluster">
<title>cluster_layer_0</title>
<polygon fill="none" stroke="#d1d5db" points="8,-8 8,-161 168,-161 168,-8 8,-8"/>
<text text-anchor="middle" x="88" y="-145.8" font-family="Times,serif" font-size="14.00">layer 0</text>
</g>
<g id="clust2" class="cluster">
<title>cluster_layer_1</title>
<polygon fill="none" stroke="#d1d5db" points="266,-8 266,-161 426,-161 426,-8 266,-8"/>
<text text-anchor="middle" x="346" y="-145.8" font-family="Times,serif" font-size="14.00">layer 1</text>
</g>
<!-- op0 -->
<g id="node1" class="node">
<title>op0</title>
<path fill="#17becf" stroke="black" d="M148,-129.5C148,-129.5 28,-129.5 28,-129.5 22,-129.5 16,-123.5 16,-117.5 16,-117.5 16,-28.5 16,-28.5 16,-22.5 22,-16.5 28,-16.5 28,-16.5 148,-16.5 148,-16.5 154,-16.5 160,-22.5 160,-28.5 160,-28.5 160,-117.5 160,-117.5 160,-123.5 154,-129.5 148,-129.5"/>
<text text-anchor="middle" x="88" y="-114.3" font-family="Helvetica,sans-Serif" font-size="14.00">op0</text>
<text text-anchor="middle" x="88" y="-99.3" font-family="Helvetica,sans-Serif" font-size="14.00">assign</text>
<text text-anchor="middle" x="88" y="-84.3" font-family="Helvetica,sans-Serif" font-size="14.00">line 439</text>
<text text-anchor="middle" x="88" y="-69.3" font-family="Helvetica,sans-Serif" font-size="14.00">layer 0</text>
<text text-anchor="middle" x="88" y="-54.3" font-family="Helvetica,sans-Serif" font-size="14.00">cost 1</text>
<text text-anchor="middle" x="88" y="-39.3" font-family="Helvetica,sans-Serif" font-size="14.00">out destination@1</text>
<text text-anchor="middle" x="88" y="-24.3" font-family="Helvetica,sans-Serif" font-size="14.00">in encrypted@0</text>
</g>
<!-- op1 -->
<g id="node2" class="node">
<title>op1</title>
<path fill="#e5e7eb" stroke="black" d="M406,-129.5C406,-129.5 286,-129.5 286,-129.5 280,-129.5 274,-123.5 274,-117.5 274,-117.5 274,-28.5 274,-28.5 274,-22.5 280,-16.5 286,-16.5 286,-16.5 406,-16.5 406,-16.5 412,-16.5 418,-22.5 418,-28.5 418,-28.5 418,-117.5 418,-117.5 418,-123.5 412,-129.5 406,-129.5"/>
<text text-anchor="middle" x="346" y="-114.3" font-family="Helvetica,sans-Serif" font-size="14.00">op1</text>
<text text-anchor="middle" x="346" y="-99.3" font-family="Helvetica,sans-Serif" font-size="14.00">ntt_fwd</text>
<text text-anchor="middle" x="346" y="-84.3" font-family="Helvetica,sans-Serif" font-size="14.00">line 460</text>
<text text-anchor="middle" x="346" y="-69.3" font-family="Helvetica,sans-Serif" font-size="14.00">layer 1</text>
<text text-anchor="middle" x="346" y="-54.3" font-family="Helvetica,sans-Serif" font-size="14.00">cost 3</text>
<text text-anchor="middle" x="346" y="-39.3" font-family="Helvetica,sans-Serif" font-size="14.00">out destination@2</text>
<text text-anchor="middle" x="346" y="-24.3" font-family="Helvetica,sans-Serif" font-size="14.00">in destination@1</text>
</g>
<!-- op0&#45;&gt;op1 -->
<g id="edge1" class="edge">
<title>op0&#45;&gt;op1</title>
<path fill="none" stroke="#1f2937" d="M160.26,-86.96C166.24,-87.78 172.21,-88.48 178,-89 212.53,-92.08 221.47,-92.08 256,-89 258.53,-88.77 261.1,-88.51 263.69,-88.22"/>
<polygon fill="#1f2937" stroke="#1f2937" points="264.26,-91.68 273.74,-86.96 263.38,-84.73 264.26,-91.68"/>
<text text-anchor="middle" x="217" y="-94.8" font-family="Helvetica,sans-Serif" font-size="14.00">destination</text>
</g>
<!-- op0&#45;&gt;op1 -->
<g id="edge2" class="edge">
<title>op0&#45;&gt;op1</title>
<path fill="none" stroke="#2563eb" d="M160.4,-70.38C166.36,-70.23 172.28,-70.1 178,-70 212.66,-69.42 221.34,-69.42 256,-70 258.41,-70.04 260.86,-70.09 263.34,-70.14"/>
<polygon fill="#2563eb" stroke="#2563eb" points="263.52,-73.64 273.6,-70.38 263.68,-66.65 263.52,-73.64"/>
<text text-anchor="middle" x="217" y="-73.8" font-family="Helvetica,sans-Serif" font-size="14.00">destination</text>
</g>
<!-- op0&#45;&gt;op1 -->
<g id="edge3" class="edge">
<title>op0&#45;&gt;op1</title>
<path fill="none" stroke="#f97316" d="M160.1,-52.94C166.12,-51.75 172.14,-50.74 178,-50 212.39,-45.63 221.61,-45.63 256,-50 258.65,-50.34 261.34,-50.73 264.05,-51.17"/>
<polygon fill="#f97316" stroke="#f97316" points="263.44,-54.61 273.9,-52.94 264.68,-47.72 263.44,-54.61"/>
<text text-anchor="middle" x="217" y="-53.8" font-family="Helvetica,sans-Serif" font-size="14.00">destination</text>
</g>
</g>
</svg>
