<?xml version="1.0" encoding="UTF-8" standalone="no"?>
<!DOCTYPE svg PUBLIC "-//W3C//DTD SVG 1.1//EN"
 "http://www.w3.org/Graphics/SVG/1.1/DTD/svg11.dtd">
<!-- Generated by graphviz version 2.43.0 (0)
 -->
<!-- Title: hedag_v2 Pages: 1 -->
<svg width="251pt" height="278pt"
 viewBox="0.00 0.00 251.00 278.00" xmlns="http://www.w3.org/2000/svg" xmlns:xlink="http://www.w3.org/1999/xlink">
<g id="graph0" class="graph" transform="scale(1 1) rotate(0) translate(4 274)">
<title>hedag_v2</title>
<polygon fill="white" stroke="transparent" points="-4,4 -4,-274 247,-274 247,4 -4,4"/>
<g id="clust1" class="cluster">
<title>cluster_layer_0</title>
<polygon fill="none" stroke="#d1d5db" points="8,-8 8,-262 235,-262 235,-8 8,-8"/>
<text text-anchor="middle" x="121.5" y="-246.8" font-family="Times,serif" font-size="14.00">layer 0</text>
</g>
<!-- op0 -->
<g id="node1" class="node">
<title>op0</title>
<path fill="#e5e7eb" stroke="black" d="M146,-230.5C146,-230.5 97,-230.5 97,-230.5 91,-230.5 85,-224.5 85,-218.5 85,-218.5 85,-159.5 85,-159.5 85,-153.5 91,-147.5 97,-147.5 97,-147.5 146,-147.5 146,-147.5 152,-147.5 158,-153.5 158,-159.5 158,-159.5 158,-218.5 158,-218.5 158,-224.5 152,-230.5 146,-230.5"/>
<text text-anchor="middle" x="121.5" y="-215.3" font-family="Helvetica,sans-Serif" font-size="14.00">op0</text>
<text text-anchor="middle" x="121.5" y="-200.3" font-family="Helvetica,sans-Serif" font-size="14.00">read</text>
<text text-anchor="middle" x="121.5" y="-185.3" font-family="Helvetica,sans-Serif" font-size="14.00">line 151</text>
<text text-anchor="middle" x="121.5" y="-170.3" font-family="Helvetica,sans-Serif" font-size="14.00">layer 0</text>
<text text-anchor="middle" x="121.5" y="-155.3" font-family="Helvetica,sans-Serif" font-size="14.00">cost 1</text>
</g>
<!-- op1 -->
<g id="node2" class="node">
<title>op1</title>
<path fill="#64748b" stroke="black" d="M215,-129.5C215,-129.5 28,-129.5 28,-129.5 22,-129.5 16,-123.5 16,-117.5 16,-117.5 16,-28.5 16,-28.5 16,-22.5 22,-16.5 28,-16.5 28,-16.5 215,-16.5 215,-16.5 221,-16.5 227,-22.5 227,-28.5 227,-28.5 227,-117.5 227,-117.5 227,-123.5 221,-129.5 215,-129.5"/>
<text text-anchor="middle" x="121.5" y="-114.3" font-family="Helvetica,sans-Serif" font-size="14.00">op1</text>
<text text-anchor="middle" x="121.5" y="-99.3" font-family="Helvetica,sans-Serif" font-size="14.00">return</text>
<text text-anchor="middle" x="121.5" y="-84.3" font-family="Helvetica,sans-Serif" font-size="14.00">line 154</text>
<text text-anchor="middle" x="121.5" y="-69.3" font-family="Helvetica,sans-Serif" font-size="14.00">layer 0</text>
<text text-anchor="middle" x="121.5" y="-54.3" font-family="Helvetica,sans-Serif" font-size="14.00">cost 1</text>
<text text-anchor="middle" x="121.5" y="-39.3" font-family="Helvetica,sans-Serif" font-size="14.00">out __return__@1</text>
<text text-anchor="middle" x="121.5" y="-24.3" font-family="Helvetica,sans-Serif" font-size="14.00">in { nullptr, orig_items }@0</text>
</g>
</g>
</svg>
