<?xml version="1.0" encoding="UTF-8" standalone="no"?>
<!DOCTYPE svg PUBLIC "-//W3C//DTD SVG 1.1//EN"
 "http://www.w3.org/Graphics/SVG/1.1/DTD/svg11.dtd">
<!-- Generated by graphviz version 2.43.0 (0)
 -->
<!-- Title: hedag_v2 Pages: 1 -->
<svg width="867pt" height="301pt"
 viewBox="0.00 0.00 867.00 301.00" xmlns="http://www.w3.org/2000/svg" xmlns:xlink="http://www.w3.org/1999/xlink">
<g id="graph0" class="graph" transform="scale(1 1) rotate(0) translate(4 297)">
<title>hedag_v2</title>
<polygon fill="white" stroke="transparent" points="-4,4 -4,-297 863,-297 863,4 -4,4"/>
<g id="clust1" class="cluster">
<title>cluster_layer_0</title>
<polygon fill="none" stroke="#d1d5db" points="8,-8 8,-277 474,-277 474,-8 8,-8"/>
<text text-anchor="middle" x="241" y="-261.8" font-family="Times,serif" font-size="14.00">layer 0</text>
</g>
<g id="clust2" class="cluster">
<title>cluster_layer_1</title>
<polygon fill="none" stroke="#d1d5db" points="654,-132 654,-285 851,-285 851,-132 654,-132"/>
<text text-anchor="middle" x="752.5" y="-269.8" font-family="Times,serif" font-size="14.00">layer 1</text>
</g>
<!-- op0 -->
<g id="node1" class="node">
<title>op0</title>
<path fill="#e5e7eb" stroke="black" d="M454,-246C454,-246 28,-246 28,-246 22,-246 16,-240 16,-234 16,-234 16,-160 16,-160 16,-154 22,-148 28,-148 28,-148 454,-148 454,-148 460,-148 466,-154 466,-160 466,-160 466,-234 466,-234 466,-240 460,-246 454,-246"/>
<text text-anchor="middle" x="241" y="-230.8" font-family="Helvetica,sans-Serif" font-size="14.00">op0</text>
<text text-anchor="middle" x="241" y="-215.8" font-family="Helvetica,sans-Serif" font-size="14.00">encrypt</text>
<text text-anchor="middle" x="241" y="-200.8" font-family="Helvetica,sans-Serif" font-size="14.00">line 329</text>
<text text-anchor="middle" x="241" y="-185.8" font-family="Helvetica,sans-Serif" font-size="14.00">layer 0</text>
<text text-anchor="middle" x="241" y="-170.8" font-family="Helvetica,sans-Serif" font-size="14.00">cost 4</text>
<text text-anchor="middle" x="241" y="-155.8" font-family="Helvetica,sans-Serif" font-size="14.00">out create_query__request_query_12397__crypto_context_)@1</text>
</g>
<!-- op1 -->
<g id="node3" class="node">
<title>op1</title>
<path fill="#17becf" stroke="black" d="M831,-253.5C831,-253.5 674,-253.5 674,-253.5 668,-253.5 662,-247.5 662,-241.5 662,-241.5 662,-152.5 662,-152.5 662,-146.5 668,-140.5 674,-140.5 674,-140.5 831,-140.5 831,-140.5 837,-140.5 843,-146.5 843,-152.5 843,-152.5 843,-241.5 843,-241.5 843,-247.5 837,-253.5 831,-253.5"/>
<text text-anchor="middle" x="752.5" y="-238.3" font-family="Helvetica,sans-Serif" font-size="14.00">op1</text>
<text text-anchor="middle" x="752.5" y="-223.3" font-family="Helvetica,sans-Serif" font-size="14.00">assign</text>
<text text-anchor="middle" x="752.5" y="-208.3" font-family="Helvetica,sans-Serif" font-size="14.00">line 358</text>
<text text-anchor="middle" x="752.5" y="-193.3" font-family="Helvetica,sans-Serif" font-size="14.00">layer 1</text>
<text text-anchor="middle" x="752.5" y="-178.3" font-family="Helvetica,sans-Serif" font-size="14.00">cost 1</text>
<text text-anchor="middle" x="752.5" y="-163.3" font-family="Helvetica,sans-Serif" font-size="14.00">out query@1</text>
<text text-anchor="middle" x="752.5" y="-148.3" font-family="Helvetica,sans-Serif" font-size="14.00">in { move(sop), itt }@0</text>
</g>
<!-- op0&#45;&gt;op1 -->
<g id="edge1" class="edge">
<title>op0&#45;&gt;op1</title>
<path fill="none" stroke="#0f766e" d="M466.22,-197C531.05,-197 598.56,-197 651.63,-197"/>
<polygon fill="#0f766e" stroke="#0f766e" points="651.7,-200.5 661.7,-197 651.7,-193.5 651.7,-200.5"/>
<text text-anchor="middle" x="564" y="-200.8" font-family="Helvetica,sans-Serif" font-size="14.00">request_query@12397</text>
</g>
<!-- op2 -->
<g id="node2" class="node">
<title>op2</title>
<path fill="#64748b" stroke="black" d="M297,-129.5C297,-129.5 185,-129.5 185,-129.5 179,-129.5 173,-123.5 173,-117.5 173,-117.5 173,-28.5 173,-28.5 173,-22.5 179,-16.5 185,-16.5 185,-16.5 297,-16.5 297,-16.5 303,-16.5 309,-22.5 309,-28.5 309,-28.5 309,-117.5 309,-117.5 309,-123.5 303,-129.5 297,-129.5"/>
<text text-anchor="middle" x="241" y="-114.3" font-family="Helvetica,sans-Serif" font-size="14.00">op2</text>
<text text-anchor="middle" x="241" y="-99.3" font-family="Helvetica,sans-Serif" font-size="14.00">return</text>
<text text-anchor="middle" x="241" y="-84.3" font-family="Helvetica,sans-Serif" font-size="14.00">line 399</text>
<text text-anchor="middle" x="241" y="-69.3" font-family="Helvetica,sans-Serif" font-size="14.00">layer 0</text>
<text text-anchor="middle" x="241" y="-54.3" font-family="Helvetica,sans-Serif" font-size="14.00">cost 1</text>
<text text-anchor="middle" x="241" y="-39.3" font-family="Helvetica,sans-Serif" font-size="14.00">out __return__@1</text>
<text text-anchor="middle" x="241" y="-24.3" font-family="Helvetica,sans-Serif" font-size="14.00">in mrs@0</text>
</g>
</g>
</svg>
