<?xml version="1.0" encoding="UTF-8" standalone="no"?>
<!DOCTYPE svg PUBLIC "-//W3C//DTD SVG 1.1//EN"
 "http://www.w3.org/Graphics/SVG/1.1/DTD/svg11.dtd">
<!-- Generated by graphviz version 2.43.0 (0)
 -->
<!-- Title: hedag_v2 Pages: 1 -->
<svg width="7078pt" height="605pt"
 viewBox="0.00 0.00 7078.00 605.00" xmlns="http://www.w3.org/2000/svg" xmlns:xlink="http://www.w3.org/1999/xlink">
<g id="graph0" class="graph" transform="scale(1 1) rotate(0) translate(4 601)">
<title>hedag_v2</title>
<polygon fill="white" stroke="transparent" points="-4,4 -4,-601 7074,-601 7074,4 -4,4"/>
<g id="clust1" class="cluster">
<title>cluster_layer_0</title>
<polygon fill="none" stroke="#d1d5db" points="8,-64 8,-449 326,-449 326,-64 8,-64"/>
<text text-anchor="middle" x="167" y="-433.8" font-family="Times,serif" font-size="14.00">layer 0</text>
</g>
<g id="clust2" class="cluster">
<title>cluster_layer_1</title>
<polygon fill="none" stroke="#d1d5db" points="410,-109 410,-262 557,-262 557,-109 410,-109"/>
<text text-anchor="middle" x="483.5" y="-246.8" font-family="Times,serif" font-size="14.00">layer 1</text>
</g>
<g id="clust3" class="cluster">
<title>cluster_layer_2</title>
<polygon fill="none" stroke="#d1d5db" points="813,-160 813,-313 1038,-313 1038,-160 813,-160"/>
<text text-anchor="middle" x="925.5" y="-297.8" font-family="Times,serif" font-size="14.00">layer 2</text>
</g>
<g id="clust4" class="cluster">
<title>cluster_layer_3</title>
<polygon fill="none" stroke="#d1d5db" points="1164,-263 1164,-547 1611,-547 1611,-263 1164,-263"/>
<text text-anchor="middle" x="1387.5" y="-531.8" font-family="Times,serif" font-size="14.00">layer 3</text>
</g>
<g id="clust5" class="cluster">
<title>cluster_layer_4</title>
<polygon fill="none" stroke="#d1d5db" points="2029.5,-421 2029.5,-574 2227.5,-574 2227.5,-421 2029.5,-421"/>
<text text-anchor="middle" x="2128.5" y="-558.8" font-family="Times,serif" font-size="14.00">layer 4</text>
</g>
<g id="clust6" class="cluster">
<title>cluster_layer_5</title>
<polygon fill="none" stroke="#d1d5db" points="1935,-251 1935,-404 2322,-404 2322,-251 1935,-251"/>
<text text-anchor="middle" x="2128.5" y="-388.8" font-family="Times,serif" font-size="14.00">layer 5</text>
</g>
<g id="clust7" class="cluster">
<title>cluster_layer_6</title>
<polygon fill="none" stroke="#d1d5db" points="2578,-145 2578,-298 2965,-298 2965,-145 2578,-145"/>
<text text-anchor="middle" x="2771.5" y="-282.8" font-family="Times,serif" font-size="14.00">layer 6</text>
</g>
<g id="clust8" class="cluster">
<title>cluster_layer_7</title>
<polygon fill="none" stroke="#d1d5db" points="3100,-8 3100,-145 3418,-145 3418,-8 3100,-8"/>
<text text-anchor="middle" x="3259" y="-129.8" font-family="Times,serif" font-size="14.00">layer 7</text>
</g>
<g id="clust9" class="cluster">
<title>cluster_layer_8</title>
<polygon fill="none" stroke="#d1d5db" points="3743,-106 3743,-259 4388,-259 4388,-106 3743,-106"/>
<text text-anchor="middle" x="4065.5" y="-243.8" font-family="Times,serif" font-size="14.00">layer 8</text>
</g>
<g id="clust10" class="cluster">
<title>cluster_layer_9</title>
<polygon fill="none" stroke="#d1d5db" points="4712,-145 4712,-298 5099,-298 5099,-145 4712,-145"/>
<text text-anchor="middle" x="4905.5" y="-282.8" font-family="Times,serif" font-size="14.00">layer 9</text>
</g>
<g id="clust11" class="cluster">
<title>cluster_layer_10</title>
<polygon fill="none" stroke="#d1d5db" points="5423,-221 5423,-374 6136,-374 6136,-221 5423,-221"/>
<text text-anchor="middle" x="5779.5" y="-358.8" font-family="Times,serif" font-size="14.00">layer 10</text>
</g>
<g id="clust12" class="cluster">
<title>cluster_layer_11</title>
<polygon fill="none" stroke="#d1d5db" points="6433,-221 6433,-374 6783,-374 6783,-221 6433,-221"/>
<text text-anchor="middle" x="6608" y="-358.8" font-family="Times,serif" font-size="14.00">layer 11</text>
</g>
<g id="clust13" class="cluster">
<title>cluster_layer_12</title>
<polygon fill="none" stroke="#d1d5db" points="6873,-221 6873,-374 7062,-374 7062,-221 6873,-221"/>
<text text-anchor="middle" x="6967.5" y="-358.8" font-family="Times,serif" font-size="14.00">layer 12</text>
</g>
<!-- op4 -->
<g id="node1" class="node">
<title>op4</title>
<path fill="#e5e7eb" stroke="black" d="M306,-418C306,-418 28,-418 28,-418 22,-418 16,-412 16,-406 16,-406 16,-332 16,-332 16,-326 22,-320 28,-320 28,-320 306,-320 306,-320 312,-320 318,-326 318,-332 318,-332 318,-406 318,-406 318,-412 312,-418 306,-418"/>
<text text-anchor="middle" x="167" y="-402.8" font-family="Helvetica,sans-Serif" font-size="14.00">op4</text>
<text text-anchor="middle" x="167" y="-387.8" font-family="Helvetica,sans-Serif" font-size="14.00">encode</text>
<text text-anchor="middle" x="167" y="-372.8" font-family="Helvetica,sans-Serif" font-size="14.00">line 189</text>
<text text-anchor="middle" x="167" y="-357.8" font-family="Helvetica,sans-Serif" font-size="14.00">layer 0</text>
<text text-anchor="middle" x="167" y="-342.8" font-family="Helvetica,sans-Serif" font-size="14.00">cost 1</text>
<text text-anchor="middle" x="167" y="-327.8" font-family="Helvetica,sans-Serif" font-size="14.00">out copy_ciph__MEncode_7860__plain@1</text>
</g>
<!-- op5 -->
<g id="node6" class="node">
<title>op5</title>
<path fill="#e5e7eb" stroke="black" d="M1591,-384.5C1591,-384.5 1184,-384.5 1184,-384.5 1178,-384.5 1172,-378.5 1172,-372.5 1172,-372.5 1172,-283.5 1172,-283.5 1172,-277.5 1178,-271.5 1184,-271.5 1184,-271.5 1591,-271.5 1591,-271.5 1597,-271.5 1603,-277.5 1603,-283.5 1603,-283.5 1603,-372.5 1603,-372.5 1603,-378.5 1597,-384.5 1591,-384.5"/>
<text text-anchor="middle" x="1387.5" y="-369.3" font-family="Helvetica,sans-Serif" font-size="14.00">op5</text>
<text text-anchor="middle" x="1387.5" y="-354.3" font-family="Helvetica,sans-Serif" font-size="14.00">multiply_plain</text>
<text text-anchor="middle" x="1387.5" y="-339.3" font-family="Helvetica,sans-Serif" font-size="14.00">line 191</text>
<text text-anchor="middle" x="1387.5" y="-324.3" font-family="Helvetica,sans-Serif" font-size="14.00">layer 3</text>
<text text-anchor="middle" x="1387.5" y="-309.3" font-family="Helvetica,sans-Serif" font-size="14.00">cost 3</text>
<text text-anchor="middle" x="1387.5" y="-294.3" font-family="Helvetica,sans-Serif" font-size="14.00">out copy_ciph__MEncode_7860__ciph_ct_mask1@1</text>
<text text-anchor="middle" x="1387.5" y="-279.3" font-family="Helvetica,sans-Serif" font-size="14.00">in ciph_sub_mask@1, copy_ciph__MEncode_7860__plain@1</text>
</g>
<!-- op4&#45;&gt;op5 -->
<g id="edge10" class="edge">
<title>op4&#45;&gt;op5</title>
<path fill="none" stroke="#1f2937" d="M318.15,-383.18C512.01,-398.7 859.48,-417.04 1154,-382 1156.57,-381.69 1159.14,-381.37 1161.73,-381.03"/>
<polygon fill="#1f2937" stroke="#1f2937" points="1162.34,-384.48 1171.77,-379.65 1161.38,-377.55 1162.34,-384.48"/>
<text text-anchor="middle" x="685" y="-405.8" font-family="Helvetica,sans-Serif" font-size="14.00">copy_ciph__MEncode_7860__plain</text>
</g>
<!-- op4&#45;&gt;op5 -->
<g id="edge11" class="edge">
<title>op4&#45;&gt;op5</title>
<path fill="none" stroke="#2563eb" d="M318,-367.62C511.35,-365.31 857.91,-359.42 1154,-345 1156.56,-344.88 1159.14,-344.75 1161.74,-344.61"/>
<polygon fill="#2563eb" stroke="#2563eb" points="1162,-348.1 1171.8,-344.08 1161.63,-341.11 1162,-348.1"/>
<text text-anchor="middle" x="685" y="-366.8" font-family="Helvetica,sans-Serif" font-size="14.00">copy_ciph__MEncode_7860__plain</text>
</g>
<!-- op4&#45;&gt;op5 -->
<g id="edge12" class="edge">
<title>op4&#45;&gt;op5</title>
<path fill="none" stroke="#0f766e" d="M318.02,-355.52C392.78,-349.37 484.59,-342.65 567,-339 767.84,-330.11 996.62,-327.68 1161.32,-327.29"/>
<polygon fill="#0f766e" stroke="#0f766e" points="1161.58,-330.79 1171.58,-327.27 1161.57,-323.79 1161.58,-330.79"/>
<text text-anchor="middle" x="685" y="-342.8" font-family="Helvetica,sans-Serif" font-size="14.00">MEncode@7860</text>
</g>
<!-- op8 -->
<g id="node11" class="node">
<title>op8</title>
<path fill="#e5e7eb" stroke="black" d="M3398,-114C3398,-114 3120,-114 3120,-114 3114,-114 3108,-108 3108,-102 3108,-102 3108,-28 3108,-28 3108,-22 3114,-16 3120,-16 3120,-16 3398,-16 3398,-16 3404,-16 3410,-22 3410,-28 3410,-28 3410,-102 3410,-102 3410,-108 3404,-114 3398,-114"/>
<text text-anchor="middle" x="3259" y="-98.8" font-family="Helvetica,sans-Serif" font-size="14.00">op8</text>
<text text-anchor="middle" x="3259" y="-83.8" font-family="Helvetica,sans-Serif" font-size="14.00">encode</text>
<text text-anchor="middle" x="3259" y="-68.8" font-family="Helvetica,sans-Serif" font-size="14.00">line 196</text>
<text text-anchor="middle" x="3259" y="-53.8" font-family="Helvetica,sans-Serif" font-size="14.00">layer 7</text>
<text text-anchor="middle" x="3259" y="-38.8" font-family="Helvetica,sans-Serif" font-size="14.00">cost 1</text>
<text text-anchor="middle" x="3259" y="-23.8" font-family="Helvetica,sans-Serif" font-size="14.00">out copy_ciph__MEncode_7860__plain@2</text>
</g>
<!-- op4&#45;&gt;op8 -->
<g id="edge20" class="edge">
<title>op4&#45;&gt;op8</title>
<path fill="none" stroke="#f97316" d="M318.12,-320.33C320.94,-317.4 323.57,-314.29 326,-311 351.36,-276.62 313.35,-155.22 336,-119 375.45,-55.92 408.1,-38 482.5,-38 482.5,-38 482.5,-38 2772.5,-38 2881.03,-38 3003,-44.81 3097.54,-51.59"/>
<polygon fill="#f97316" stroke="#f97316" points="3097.54,-55.1 3107.76,-52.33 3098.04,-48.12 3097.54,-55.1"/>
<text text-anchor="middle" x="1387.5" y="-41.8" font-family="Helvetica,sans-Serif" font-size="14.00">copy_ciph__MEncode_7860__plain</text>
</g>
<!-- op0 -->
<g id="node2" class="node">
<title>op0</title>
<path fill="#e5e7eb" stroke="black" d="M220.5,-185.5C220.5,-185.5 113.5,-185.5 113.5,-185.5 107.5,-185.5 101.5,-179.5 101.5,-173.5 101.5,-173.5 101.5,-84.5 101.5,-84.5 101.5,-78.5 107.5,-72.5 113.5,-72.5 113.5,-72.5 220.5,-72.5 220.5,-72.5 226.5,-72.5 232.5,-78.5 232.5,-84.5 232.5,-84.5 232.5,-173.5 232.5,-173.5 232.5,-179.5 226.5,-185.5 220.5,-185.5"/>
<text text-anchor="middle" x="167" y="-170.3" font-family="Helvetica,sans-Serif" font-size="14.00">op0</text>
<text text-anchor="middle" x="167" y="-155.3" font-family="Helvetica,sans-Serif" font-size="14.00">multiply_const</text>
<text text-anchor="middle" x="167" y="-140.3" font-family="Helvetica,sans-Serif" font-size="14.00">line 235</text>
<text text-anchor="middle" x="167" y="-125.3" font-family="Helvetica,sans-Serif" font-size="14.00">layer 0</text>
<text text-anchor="middle" x="167" y="-110.3" font-family="Helvetica,sans-Serif" font-size="14.00">cost 3</text>
<text text-anchor="middle" x="167" y="-95.3" font-family="Helvetica,sans-Serif" font-size="14.00">out ciph_tmp@1</text>
<text text-anchor="middle" x="167" y="-80.3" font-family="Helvetica,sans-Serif" font-size="14.00">in ciph@0</text>
</g>
<!-- op1 -->
<g id="node4" class="node">
<title>op1</title>
<path fill="#8c564b" stroke="black" d="M537,-230.5C537,-230.5 430,-230.5 430,-230.5 424,-230.5 418,-224.5 418,-218.5 418,-218.5 418,-129.5 418,-129.5 418,-123.5 424,-117.5 430,-117.5 430,-117.5 537,-117.5 537,-117.5 543,-117.5 549,-123.5 549,-129.5 549,-129.5 549,-218.5 549,-218.5 549,-224.5 543,-230.5 537,-230.5"/>
<text text-anchor="middle" x="483.5" y="-215.3" font-family="Helvetica,sans-Serif" font-size="14.00">op1</text>
<text text-anchor="middle" x="483.5" y="-200.3" font-family="Helvetica,sans-Serif" font-size="14.00">rescale_dynamic</text>
<text text-anchor="middle" x="483.5" y="-185.3" font-family="Helvetica,sans-Serif" font-size="14.00">line 239</text>
<text text-anchor="middle" x="483.5" y="-170.3" font-family="Helvetica,sans-Serif" font-size="14.00">layer 1</text>
<text text-anchor="middle" x="483.5" y="-155.3" font-family="Helvetica,sans-Serif" font-size="14.00">cost 4</text>
<text text-anchor="middle" x="483.5" y="-140.3" font-family="Helvetica,sans-Serif" font-size="14.00">out ciph_tmp@2</text>
<text text-anchor="middle" x="483.5" y="-125.3" font-family="Helvetica,sans-Serif" font-size="14.00">in ciph_tmp@1</text>
</g>
<!-- op0&#45;&gt;op1 -->
<g id="edge1" class="edge">
<title>op0&#45;&gt;op1</title>
<path fill="none" stroke="#1f2937" d="M232.51,-138.12C279.07,-144.72 343.42,-153.86 400,-162 402.51,-162.36 405.06,-162.73 407.63,-163.1"/>
<polygon fill="#1f2937" stroke="#1f2937" points="407.25,-166.58 417.65,-164.55 408.26,-159.65 407.25,-166.58"/>
<text text-anchor="middle" x="368" y="-165.8" font-family="Helvetica,sans-Serif" font-size="14.00">ciph_tmp</text>
</g>
<!-- op0&#45;&gt;op1 -->
<g id="edge2" class="edge">
<title>op0&#45;&gt;op1</title>
<path fill="none" stroke="#2563eb" d="M232.98,-122.55C280.04,-119.69 344.82,-119.54 400,-133 402.68,-133.65 405.36,-134.4 408.05,-135.23"/>
<polygon fill="#2563eb" stroke="#2563eb" points="407.16,-138.63 417.76,-138.57 409.44,-132.01 407.16,-138.63"/>
<text text-anchor="middle" x="368" y="-136.8" font-family="Helvetica,sans-Serif" font-size="14.00">ciph_tmp</text>
</g>
<!-- op0&#45;&gt;op1 -->
<g id="edge3" class="edge">
<title>op0&#45;&gt;op1</title>
<path fill="none" stroke="#f97316" d="M232.51,-151.99C263.39,-161.81 301.15,-172.12 336,-177 364.17,-180.95 371.56,-177.52 400,-177 402.51,-176.95 405.06,-176.9 407.63,-176.84"/>
<polygon fill="#f97316" stroke="#f97316" points="407.75,-180.34 417.66,-176.58 407.57,-173.34 407.75,-180.34"/>
<text text-anchor="middle" x="368" y="-181.8" font-family="Helvetica,sans-Serif" font-size="14.00">ciph_tmp</text>
</g>
<!-- op2 -->
<g id="node3" class="node">
<title>op2</title>
<path fill="#e5e7eb" stroke="black" d="M216.5,-302C216.5,-302 117.5,-302 117.5,-302 111.5,-302 105.5,-296 105.5,-290 105.5,-290 105.5,-216 105.5,-216 105.5,-210 111.5,-204 117.5,-204 117.5,-204 216.5,-204 216.5,-204 222.5,-204 228.5,-210 228.5,-216 228.5,-216 228.5,-290 228.5,-290 228.5,-296 222.5,-302 216.5,-302"/>
<text text-anchor="middle" x="167" y="-286.8" font-family="Helvetica,sans-Serif" font-size="14.00">op2</text>
<text text-anchor="middle" x="167" y="-271.8" font-family="Helvetica,sans-Serif" font-size="14.00">encode</text>
<text text-anchor="middle" x="167" y="-256.8" font-family="Helvetica,sans-Serif" font-size="14.00">line 242</text>
<text text-anchor="middle" x="167" y="-241.8" font-family="Helvetica,sans-Serif" font-size="14.00">layer 0</text>
<text text-anchor="middle" x="167" y="-226.8" font-family="Helvetica,sans-Serif" font-size="14.00">cost 1</text>
<text text-anchor="middle" x="167" y="-211.8" font-family="Helvetica,sans-Serif" font-size="14.00">out eli_plain@1</text>
</g>
<!-- op3 -->
<g id="node5" class="node">
<title>op3</title>
<path fill="#e5e7eb" stroke="black" d="M1018,-281.5C1018,-281.5 833,-281.5 833,-281.5 827,-281.5 821,-275.5 821,-269.5 821,-269.5 821,-180.5 821,-180.5 821,-174.5 827,-168.5 833,-168.5 833,-168.5 1018,-168.5 1018,-168.5 1024,-168.5 1030,-174.5 1030,-180.5 1030,-180.5 1030,-269.5 1030,-269.5 1030,-275.5 1024,-281.5 1018,-281.5"/>
<text text-anchor="middle" x="925.5" y="-266.3" font-family="Helvetica,sans-Serif" font-size="14.00">op3</text>
<text text-anchor="middle" x="925.5" y="-251.3" font-family="Helvetica,sans-Serif" font-size="14.00">add_plain</text>
<text text-anchor="middle" x="925.5" y="-236.3" font-family="Helvetica,sans-Serif" font-size="14.00">line 243</text>
<text text-anchor="middle" x="925.5" y="-221.3" font-family="Helvetica,sans-Serif" font-size="14.00">layer 2</text>
<text text-anchor="middle" x="925.5" y="-206.3" font-family="Helvetica,sans-Serif" font-size="14.00">cost 1</text>
<text text-anchor="middle" x="925.5" y="-191.3" font-family="Helvetica,sans-Serif" font-size="14.00">out ciph_sub_mask@1</text>
<text text-anchor="middle" x="925.5" y="-176.3" font-family="Helvetica,sans-Serif" font-size="14.00">in ciph_tmp@2, eli_plain@1</text>
</g>
<!-- op2&#45;&gt;op3 -->
<g id="edge6" class="edge">
<title>op2&#45;&gt;op3</title>
<path fill="none" stroke="#1f2937" d="M228.63,-257.16C277.56,-260.3 348.17,-264.34 410,-266 584.93,-270.7 629.23,-262.62 803,-242 805.54,-241.7 808.12,-241.39 810.71,-241.07"/>
<polygon fill="#1f2937" stroke="#1f2937" points="811.32,-244.52 820.81,-239.8 810.45,-237.57 811.32,-244.52"/>
<text text-anchor="middle" x="483.5" y="-270.8" font-family="Helvetica,sans-Serif" font-size="14.00">eli_plain</text>
</g>
<!-- op2&#45;&gt;op3 -->
<g id="edge7" class="edge">
<title>op2&#45;&gt;op3</title>
<path fill="none" stroke="#2563eb" d="M228.69,-246.07C262.51,-238.93 302.45,-224.43 326,-195 347.29,-168.4 315,-145.83 336,-119 357.77,-91.18 375.29,-96.56 410,-90 549.83,-63.58 707.75,-117.88 811.31,-165.3"/>
<polygon fill="#2563eb" stroke="#2563eb" points="809.99,-168.55 820.53,-169.57 812.93,-162.19 809.99,-168.55"/>
<text text-anchor="middle" x="483.5" y="-93.8" font-family="Helvetica,sans-Serif" font-size="14.00">eli_plain</text>
</g>
<!-- op1&#45;&gt;op3 -->
<g id="edge4" class="edge">
<title>op1&#45;&gt;op3</title>
<path fill="none" stroke="#1f2937" d="M549.12,-170.91C613.86,-169.06 716.12,-169.52 803,-185 805.67,-185.48 808.37,-186 811.08,-186.56"/>
<polygon fill="#1f2937" stroke="#1f2937" points="810.42,-190 820.94,-188.77 811.94,-183.17 810.42,-190"/>
<text text-anchor="middle" x="685" y="-188.8" font-family="Helvetica,sans-Serif" font-size="14.00">ciph_tmp</text>
</g>
<!-- op1&#45;&gt;op3 -->
<g id="edge5" class="edge">
<title>op1&#45;&gt;op3</title>
<path fill="none" stroke="#2563eb" d="M549.44,-196.02C555.33,-197.55 561.25,-198.91 567,-200 647.55,-215.29 739.89,-221.46 810.55,-223.85"/>
<polygon fill="#2563eb" stroke="#2563eb" points="810.71,-227.36 820.81,-224.18 810.93,-220.36 810.71,-227.36"/>
<text text-anchor="middle" x="685" y="-226.8" font-family="Helvetica,sans-Serif" font-size="14.00">ciph_tmp</text>
</g>
<!-- op14 -->
<g id="node7" class="node">
<title>op14</title>
<path fill="#9467bd" stroke="black" d="M1441,-515.5C1441,-515.5 1334,-515.5 1334,-515.5 1328,-515.5 1322,-509.5 1322,-503.5 1322,-503.5 1322,-414.5 1322,-414.5 1322,-408.5 1328,-402.5 1334,-402.5 1334,-402.5 1441,-402.5 1441,-402.5 1447,-402.5 1453,-408.5 1453,-414.5 1453,-414.5 1453,-503.5 1453,-503.5 1453,-509.5 1447,-515.5 1441,-515.5"/>
<text text-anchor="middle" x="1387.5" y="-500.3" font-family="Helvetica,sans-Serif" font-size="14.00">op14</text>
<text text-anchor="middle" x="1387.5" y="-485.3" font-family="Helvetica,sans-Serif" font-size="14.00">rotate</text>
<text text-anchor="middle" x="1387.5" y="-470.3" font-family="Helvetica,sans-Serif" font-size="14.00">line 248</text>
<text text-anchor="middle" x="1387.5" y="-455.3" font-family="Helvetica,sans-Serif" font-size="14.00">layer 3</text>
<text text-anchor="middle" x="1387.5" y="-440.3" font-family="Helvetica,sans-Serif" font-size="14.00">cost 4</text>
<text text-anchor="middle" x="1387.5" y="-425.3" font-family="Helvetica,sans-Serif" font-size="14.00">out ciph_tmp@3</text>
<text text-anchor="middle" x="1387.5" y="-410.3" font-family="Helvetica,sans-Serif" font-size="14.00">in ciph@0</text>
</g>
<!-- op1&#45;&gt;op14 -->
<g id="edge44" class="edge">
<title>op1&#45;&gt;op14</title>
<path fill="none" stroke="#f97316" d="M539.75,-230.77C546.68,-240.56 552.8,-251.1 557,-262 565.45,-283.9 550.18,-456.63 567,-473 769.83,-670.42 1152.22,-552.6 1312.68,-490.23"/>
<polygon fill="#f97316" stroke="#f97316" points="1313.97,-493.48 1322,-486.57 1311.41,-486.97 1313.97,-493.48"/>
<text text-anchor="middle" x="925.5" y="-585.8" font-family="Helvetica,sans-Serif" font-size="14.00">ciph_tmp</text>
</g>
<!-- op1&#45;&gt;op14 -->
<g id="edge45" class="edge">
<title>op1&#45;&gt;op14</title>
<path fill="none" stroke="#dc2626" d="M539.62,-230.83C546.57,-240.6 552.72,-251.13 557,-262 563.69,-278.99 553.96,-413.23 567,-426 619.46,-477.39 1119.6,-467.38 1311.79,-461.56"/>
<polygon fill="#dc2626" stroke="#dc2626" points="1311.91,-465.06 1321.8,-461.25 1311.7,-458.06 1311.91,-465.06"/>
<text text-anchor="middle" x="925.5" y="-469.8" font-family="Helvetica,sans-Serif" font-size="14.00">ciph_tmp</text>
</g>
<!-- op3&#45;&gt;op5 -->
<g id="edge8" class="edge">
<title>op3&#45;&gt;op5</title>
<path fill="none" stroke="#1f2937" d="M1030.01,-239.89C1069.05,-246.14 1113.74,-254.04 1154,-263 1162.55,-264.9 1171.24,-266.93 1180.02,-269.04"/>
<polygon fill="#1f2937" stroke="#1f2937" points="1179.4,-272.49 1189.94,-271.47 1181.06,-265.69 1179.4,-272.49"/>
<text text-anchor="middle" x="1101" y="-266.8" font-family="Helvetica,sans-Serif" font-size="14.00">ciph_sub_mask</text>
</g>
<!-- op3&#45;&gt;op5 -->
<g id="edge9" class="edge">
<title>op3&#45;&gt;op5</title>
<path fill="none" stroke="#2563eb" d="M1030.23,-272.36C1036.19,-274.42 1042.14,-276.32 1048,-278 1084.17,-288.36 1123.17,-296.66 1161.37,-303.27"/>
<polygon fill="#2563eb" stroke="#2563eb" points="1161.15,-306.79 1171.59,-305.01 1162.32,-299.88 1161.15,-306.79"/>
<text text-anchor="middle" x="1101" y="-304.8" font-family="Helvetica,sans-Serif" font-size="14.00">ciph_sub_mask</text>
</g>
<!-- op3&#45;&gt;op14 -->
<g id="edge46" class="edge">
<title>op3&#45;&gt;op14</title>
<path fill="none" stroke="#dc2626" d="M996.63,-281.67C1013.24,-294.58 1031.06,-308.01 1048,-320 1097.92,-355.32 1108.31,-368.73 1164,-394 1211.53,-415.57 1268,-431.97 1312.16,-442.9"/>
<polygon fill="#dc2626" stroke="#dc2626" points="1311.42,-446.32 1321.96,-445.28 1313.08,-439.52 1311.42,-446.32"/>
<text text-anchor="middle" x="1101" y="-391.8" font-family="Helvetica,sans-Serif" font-size="14.00">ciph_tmp</text>
</g>
<!-- op7 -->
<g id="node10" class="node">
<title>op7</title>
<path fill="#9467bd" stroke="black" d="M2945,-266.5C2945,-266.5 2598,-266.5 2598,-266.5 2592,-266.5 2586,-260.5 2586,-254.5 2586,-254.5 2586,-165.5 2586,-165.5 2586,-159.5 2592,-153.5 2598,-153.5 2598,-153.5 2945,-153.5 2945,-153.5 2951,-153.5 2957,-159.5 2957,-165.5 2957,-165.5 2957,-254.5 2957,-254.5 2957,-260.5 2951,-266.5 2945,-266.5"/>
<text text-anchor="middle" x="2771.5" y="-251.3" font-family="Helvetica,sans-Serif" font-size="14.00">op7</text>
<text text-anchor="middle" x="2771.5" y="-236.3" font-family="Helvetica,sans-Serif" font-size="14.00">rotate</text>
<text text-anchor="middle" x="2771.5" y="-221.3" font-family="Helvetica,sans-Serif" font-size="14.00">line 195</text>
<text text-anchor="middle" x="2771.5" y="-206.3" font-family="Helvetica,sans-Serif" font-size="14.00">layer 6</text>
<text text-anchor="middle" x="2771.5" y="-191.3" font-family="Helvetica,sans-Serif" font-size="14.00">cost 4</text>
<text text-anchor="middle" x="2771.5" y="-176.3" font-family="Helvetica,sans-Serif" font-size="14.00">out copy_ciph__MEncode_7860__ciph_ct_mask2@1</text>
<text text-anchor="middle" x="2771.5" y="-161.3" font-family="Helvetica,sans-Serif" font-size="14.00">in ciph_sub_mask@1</text>
</g>
<!-- op3&#45;&gt;op7 -->
<g id="edge17" class="edge">
<title>op3&#45;&gt;op7</title>
<path fill="none" stroke="#1f2937" d="M1030.26,-224.16C1327.7,-221.74 2186.88,-214.75 2575.5,-211.59"/>
<polygon fill="#1f2937" stroke="#1f2937" points="2575.75,-215.08 2585.72,-211.5 2575.69,-208.08 2575.75,-215.08"/>
<text text-anchor="middle" x="1773" y="-222.8" font-family="Helvetica,sans-Serif" font-size="14.00">ciph_sub_mask</text>
</g>
<!-- op3&#45;&gt;op7 -->
<g id="edge18" class="edge">
<title>op3&#45;&gt;op7</title>
<path fill="none" stroke="#2563eb" d="M1030,-219.46C1165.67,-212.52 1411.07,-201.03 1621,-197 1956.48,-190.56 2347.1,-198.19 2575.74,-204.18"/>
<polygon fill="#2563eb" stroke="#2563eb" points="2575.74,-207.68 2585.83,-204.45 2575.93,-200.68 2575.74,-207.68"/>
<text text-anchor="middle" x="1773" y="-200.8" font-family="Helvetica,sans-Serif" font-size="14.00">ciph_sub_mask</text>
</g>
<!-- op6 -->
<g id="node9" class="node">
<title>op6</title>
<path fill="#8c564b" stroke="black" d="M2302,-372.5C2302,-372.5 1955,-372.5 1955,-372.5 1949,-372.5 1943,-366.5 1943,-360.5 1943,-360.5 1943,-271.5 1943,-271.5 1943,-265.5 1949,-259.5 1955,-259.5 1955,-259.5 2302,-259.5 2302,-259.5 2308,-259.5 2314,-265.5 2314,-271.5 2314,-271.5 2314,-360.5 2314,-360.5 2314,-366.5 2308,-372.5 2302,-372.5"/>
<text text-anchor="middle" x="2128.5" y="-357.3" font-family="Helvetica,sans-Serif" font-size="14.00">op6</text>
<text text-anchor="middle" x="2128.5" y="-342.3" font-family="Helvetica,sans-Serif" font-size="14.00">rescale_dynamic</text>
<text text-anchor="middle" x="2128.5" y="-327.3" font-family="Helvetica,sans-Serif" font-size="14.00">line 192</text>
<text text-anchor="middle" x="2128.5" y="-312.3" font-family="Helvetica,sans-Serif" font-size="14.00">layer 5</text>
<text text-anchor="middle" x="2128.5" y="-297.3" font-family="Helvetica,sans-Serif" font-size="14.00">cost 4</text>
<text text-anchor="middle" x="2128.5" y="-282.3" font-family="Helvetica,sans-Serif" font-size="14.00">out copy_ciph__MEncode_7860__ciph_ct_mask1@2</text>
<text text-anchor="middle" x="2128.5" y="-267.3" font-family="Helvetica,sans-Serif" font-size="14.00">in copy_ciph__MEncode_7860__ciph_ct_mask1@1</text>
</g>
<!-- op5&#45;&gt;op6 -->
<g id="edge13" class="edge">
<title>op5&#45;&gt;op6</title>
<path fill="none" stroke="#1f2937" d="M1603.25,-328.7C1701.37,-328.54 1819.08,-327.65 1925,-325 1927.58,-324.94 1930.17,-324.87 1932.79,-324.8"/>
<polygon fill="#1f2937" stroke="#1f2937" points="1933.03,-328.29 1942.93,-324.5 1932.83,-321.29 1933.03,-328.29"/>
<text text-anchor="middle" x="1773" y="-331.8" font-family="Helvetica,sans-Serif" font-size="14.00">copy_ciph__MEncode_7860__ciph_ct_mask1</text>
</g>
<!-- op5&#45;&gt;op6 -->
<g id="edge14" class="edge">
<title>op5&#45;&gt;op6</title>
<path fill="none" stroke="#2563eb" d="M1603.17,-306.94C1609.17,-306.59 1615.13,-306.28 1621,-306 1755.96,-299.63 1789.93,-302.67 1925,-306 1927.58,-306.06 1930.18,-306.13 1932.79,-306.2"/>
<polygon fill="#2563eb" stroke="#2563eb" points="1932.83,-309.71 1942.93,-306.5 1933.04,-302.71 1932.83,-309.71"/>
<text text-anchor="middle" x="1773" y="-309.8" font-family="Helvetica,sans-Serif" font-size="14.00">copy_ciph__MEncode_7860__ciph_ct_mask1</text>
</g>
<!-- op5&#45;&gt;op6 -->
<g id="edge15" class="edge">
<title>op5&#45;&gt;op6</title>
<path fill="none" stroke="#f97316" d="M1603,-284.94C1609.06,-284.22 1615.07,-283.57 1621,-283 1755.49,-270.1 1790.33,-272.1 1925,-283 1927.56,-283.21 1930.14,-283.43 1932.74,-283.67"/>
<polygon fill="#f97316" stroke="#f97316" points="1932.51,-287.16 1942.8,-284.64 1933.18,-280.19 1932.51,-287.16"/>
<text text-anchor="middle" x="1773" y="-286.8" font-family="Helvetica,sans-Serif" font-size="14.00">copy_ciph__MEncode_7860__ciph_ct_mask1</text>
</g>
<!-- op5&#45;&gt;op6 -->
<g id="edge16" class="edge">
<title>op5&#45;&gt;op6</title>
<path fill="none" stroke="#0f766e" d="M1603.12,-346.51C1701.34,-352.18 1819.17,-355.05 1925,-347 1927.56,-346.81 1930.14,-346.6 1932.73,-346.38"/>
<polygon fill="#0f766e" stroke="#0f766e" points="1933.14,-349.85 1942.78,-345.46 1932.5,-342.88 1933.14,-349.85"/>
<text text-anchor="middle" x="1773" y="-354.8" font-family="Helvetica,sans-Serif" font-size="14.00">MEncode@7860</text>
</g>
<!-- op5&#45;&gt;op8 -->
<g id="edge21" class="edge">
<title>op5&#45;&gt;op8</title>
<path fill="none" stroke="#dc2626" d="M1463.59,-271.34C1507.17,-241.66 1564.49,-207.85 1621,-190 1893.15,-104.04 2741.28,-76.07 3097.69,-67.97"/>
<polygon fill="#dc2626" stroke="#dc2626" points="3097.92,-71.47 3107.83,-67.74 3097.76,-64.47 3097.92,-71.47"/>
<text text-anchor="middle" x="2450" y="-103.8" font-family="Helvetica,sans-Serif" font-size="14.00">copy_ciph__MEncode_7860__plain</text>
</g>
<!-- op15 -->
<g id="node8" class="node">
<title>op15</title>
<path fill="#e5e7eb" stroke="black" d="M2207.5,-542.5C2207.5,-542.5 2049.5,-542.5 2049.5,-542.5 2043.5,-542.5 2037.5,-536.5 2037.5,-530.5 2037.5,-530.5 2037.5,-441.5 2037.5,-441.5 2037.5,-435.5 2043.5,-429.5 2049.5,-429.5 2049.5,-429.5 2207.5,-429.5 2207.5,-429.5 2213.5,-429.5 2219.5,-435.5 2219.5,-441.5 2219.5,-441.5 2219.5,-530.5 2219.5,-530.5 2219.5,-536.5 2213.5,-542.5 2207.5,-542.5"/>
<text text-anchor="middle" x="2128.5" y="-527.3" font-family="Helvetica,sans-Serif" font-size="14.00">op15</text>
<text text-anchor="middle" x="2128.5" y="-512.3" font-family="Helvetica,sans-Serif" font-size="14.00">add</text>
<text text-anchor="middle" x="2128.5" y="-497.3" font-family="Helvetica,sans-Serif" font-size="14.00">line 249</text>
<text text-anchor="middle" x="2128.5" y="-482.3" font-family="Helvetica,sans-Serif" font-size="14.00">layer 4</text>
<text text-anchor="middle" x="2128.5" y="-467.3" font-family="Helvetica,sans-Serif" font-size="14.00">cost 1</text>
<text text-anchor="middle" x="2128.5" y="-452.3" font-family="Helvetica,sans-Serif" font-size="14.00">out ciph_diag_mask@1</text>
<text text-anchor="middle" x="2128.5" y="-437.3" font-family="Helvetica,sans-Serif" font-size="14.00">in ciph@0, ciph_tmp@3</text>
</g>
<!-- op14&#45;&gt;op15 -->
<g id="edge47" class="edge">
<title>op14&#45;&gt;op15</title>
<path fill="none" stroke="#1f2937" d="M1453.14,-461.94C1499.78,-464.03 1564.28,-466.83 1621,-469 1762.03,-474.4 1925.19,-479.71 2027.37,-482.92"/>
<polygon fill="#1f2937" stroke="#1f2937" points="2027.26,-486.42 2037.37,-483.23 2027.48,-479.42 2027.26,-486.42"/>
<text text-anchor="middle" x="1773" y="-482.8" font-family="Helvetica,sans-Serif" font-size="14.00">ciph_tmp</text>
</g>
<!-- op14&#45;&gt;op15 -->
<g id="edge48" class="edge">
<title>op14&#45;&gt;op15</title>
<path fill="none" stroke="#2563eb" d="M1453.07,-453.57C1554,-446.06 1755.18,-435.02 1925,-450 1958.6,-452.96 1994.99,-458.64 2027.52,-464.63"/>
<polygon fill="#2563eb" stroke="#2563eb" points="2027.01,-468.1 2037.48,-466.5 2028.3,-461.22 2027.01,-468.1"/>
<text text-anchor="middle" x="1773" y="-453.8" font-family="Helvetica,sans-Serif" font-size="14.00">ciph_tmp</text>
</g>
<!-- op6&#45;&gt;op7 -->
<g id="edge19" class="edge">
<title>op6&#45;&gt;op7</title>
<path fill="none" stroke="#0f766e" d="M2314.04,-285.48C2396.05,-271.92 2492.64,-255.95 2575.8,-242.2"/>
<polygon fill="#0f766e" stroke="#0f766e" points="2576.58,-245.62 2585.87,-240.53 2575.43,-238.71 2576.58,-245.62"/>
<text text-anchor="middle" x="2450" y="-284.8" font-family="Helvetica,sans-Serif" font-size="14.00">MEncode@7860</text>
</g>
<!-- op11 -->
<g id="node14" class="node">
<title>op11</title>
<path fill="#e5e7eb" stroke="black" d="M6116,-342.5C6116,-342.5 5443,-342.5 5443,-342.5 5437,-342.5 5431,-336.5 5431,-330.5 5431,-330.5 5431,-241.5 5431,-241.5 5431,-235.5 5437,-229.5 5443,-229.5 5443,-229.5 6116,-229.5 6116,-229.5 6122,-229.5 6128,-235.5 6128,-241.5 6128,-241.5 6128,-330.5 6128,-330.5 6128,-336.5 6122,-342.5 6116,-342.5"/>
<text text-anchor="middle" x="5779.5" y="-327.3" font-family="Helvetica,sans-Serif" font-size="14.00">op11</text>
<text text-anchor="middle" x="5779.5" y="-312.3" font-family="Helvetica,sans-Serif" font-size="14.00">add</text>
<text text-anchor="middle" x="5779.5" y="-297.3" font-family="Helvetica,sans-Serif" font-size="14.00">line 200</text>
<text text-anchor="middle" x="5779.5" y="-282.3" font-family="Helvetica,sans-Serif" font-size="14.00">layer 10</text>
<text text-anchor="middle" x="5779.5" y="-267.3" font-family="Helvetica,sans-Serif" font-size="14.00">cost 1</text>
<text text-anchor="middle" x="5779.5" y="-252.3" font-family="Helvetica,sans-Serif" font-size="14.00">out copy_ciph__MEncode_7860__ciph_result@1</text>
<text text-anchor="middle" x="5779.5" y="-237.3" font-family="Helvetica,sans-Serif" font-size="14.00">in copy_ciph__MEncode_7860__ciph_ct_mask1@2, copy_ciph__MEncode_7860__ciph_ct_mask2@3</text>
</g>
<!-- op6&#45;&gt;op11 -->
<g id="edge34" class="edge">
<title>op6&#45;&gt;op11</title>
<path fill="none" stroke="#1f2937" d="M2314.11,-332.75C2442.09,-342.94 2616.52,-354 2770.5,-354 2770.5,-354 2770.5,-354 4906.5,-354 5131.86,-354 5188.42,-348.81 5413,-330 5415.58,-329.78 5418.16,-329.56 5420.76,-329.34"/>
<polygon fill="#1f2937" stroke="#1f2937" points="5421.16,-332.82 5430.82,-328.46 5420.55,-325.85 5421.16,-332.82"/>
<text text-anchor="middle" x="3581" y="-357.8" font-family="Helvetica,sans-Serif" font-size="14.00">copy_ciph__MEncode_7860__ciph_ct_mask1</text>
</g>
<!-- op6&#45;&gt;op11 -->
<g id="edge35" class="edge">
<title>op6&#45;&gt;op11</title>
<path fill="none" stroke="#2563eb" d="M2314.28,-316C2442.34,-316 2616.79,-316 2770.5,-316 2770.5,-316 2770.5,-316 4906.5,-316 5075.57,-316 5262.97,-310.3 5420.57,-303.86"/>
<polygon fill="#2563eb" stroke="#2563eb" points="5421.06,-307.35 5430.91,-303.44 5420.78,-300.35 5421.06,-307.35"/>
<text text-anchor="middle" x="3581" y="-319.8" font-family="Helvetica,sans-Serif" font-size="14.00">copy_ciph__MEncode_7860__ciph_ct_mask1</text>
</g>
<!-- op7&#45;&gt;op8 -->
<g id="edge22" class="edge">
<title>op7&#45;&gt;op8</title>
<path fill="none" stroke="#0f766e" d="M2938.29,-153.46C2950.69,-149.5 2963.02,-145.64 2975,-142 3014.61,-129.97 3057.6,-117.82 3097.83,-106.83"/>
<polygon fill="#0f766e" stroke="#0f766e" points="3099,-110.14 3107.72,-104.14 3097.16,-103.39 3099,-110.14"/>
<text text-anchor="middle" x="3032" y="-145.8" font-family="Helvetica,sans-Serif" font-size="14.00">MEncode@7860</text>
</g>
<!-- op9 -->
<g id="node12" class="node">
<title>op9</title>
<path fill="#e5e7eb" stroke="black" d="M4368,-227.5C4368,-227.5 3763,-227.5 3763,-227.5 3757,-227.5 3751,-221.5 3751,-215.5 3751,-215.5 3751,-126.5 3751,-126.5 3751,-120.5 3757,-114.5 3763,-114.5 3763,-114.5 4368,-114.5 4368,-114.5 4374,-114.5 4380,-120.5 4380,-126.5 4380,-126.5 4380,-215.5 4380,-215.5 4380,-221.5 4374,-227.5 4368,-227.5"/>
<text text-anchor="middle" x="4065.5" y="-212.3" font-family="Helvetica,sans-Serif" font-size="14.00">op9</text>
<text text-anchor="middle" x="4065.5" y="-197.3" font-family="Helvetica,sans-Serif" font-size="14.00">multiply_plain</text>
<text text-anchor="middle" x="4065.5" y="-182.3" font-family="Helvetica,sans-Serif" font-size="14.00">line 197</text>
<text text-anchor="middle" x="4065.5" y="-167.3" font-family="Helvetica,sans-Serif" font-size="14.00">layer 8</text>
<text text-anchor="middle" x="4065.5" y="-152.3" font-family="Helvetica,sans-Serif" font-size="14.00">cost 3</text>
<text text-anchor="middle" x="4065.5" y="-137.3" font-family="Helvetica,sans-Serif" font-size="14.00">out copy_ciph__MEncode_7860__ciph_ct_mask2@2</text>
<text text-anchor="middle" x="4065.5" y="-122.3" font-family="Helvetica,sans-Serif" font-size="14.00">in copy_ciph__MEncode_7860__ciph_ct_mask2@1, copy_ciph__MEncode_7860__plain@2</text>
</g>
<!-- op7&#45;&gt;op9 -->
<g id="edge23" class="edge">
<title>op7&#45;&gt;op9</title>
<path fill="none" stroke="#1f2937" d="M2957.01,-234.38C2963.07,-234.96 2969.08,-235.5 2975,-236 3310.71,-264.21 3397.96,-271.22 3733,-236 3750.92,-234.12 3769.32,-231.75 3787.82,-229.04"/>
<polygon fill="#1f2937" stroke="#1f2937" points="3788.42,-232.49 3797.8,-227.55 3787.39,-225.56 3788.42,-232.49"/>
<text text-anchor="middle" x="3259" y="-262.8" font-family="Helvetica,sans-Serif" font-size="14.00">copy_ciph__MEncode_7860__ciph_ct_mask2</text>
</g>
<!-- op7&#45;&gt;op9 -->
<g id="edge24" class="edge">
<title>op7&#45;&gt;op9</title>
<path fill="none" stroke="#2563eb" d="M2957.11,-206.08C3150.51,-201.77 3463.13,-194.21 3733,-185 3735.58,-184.91 3738.17,-184.82 3740.78,-184.73"/>
<polygon fill="#2563eb" stroke="#2563eb" points="3740.99,-188.23 3750.87,-184.38 3740.75,-181.23 3740.99,-188.23"/>
<text text-anchor="middle" x="3259" y="-205.8" font-family="Helvetica,sans-Serif" font-size="14.00">copy_ciph__MEncode_7860__ciph_ct_mask2</text>
</g>
<!-- op7&#45;&gt;op9 -->
<g id="edge27" class="edge">
<title>op7&#45;&gt;op9</title>
<path fill="none" stroke="#f97316" d="M2957.12,-186.93C3003.68,-182.03 3053.61,-177.57 3100,-175 3313.33,-163.19 3553.6,-162.16 3740.96,-164.1"/>
<polygon fill="#f97316" stroke="#f97316" points="3740.93,-167.6 3750.97,-164.2 3741,-160.6 3740.93,-167.6"/>
<text text-anchor="middle" x="3259" y="-178.8" font-family="Helvetica,sans-Serif" font-size="14.00">copy_ciph__MEncode_7860__ciph_ct_mask2</text>
</g>
<!-- op8&#45;&gt;op9 -->
<g id="edge25" class="edge">
<title>op8&#45;&gt;op9</title>
<path fill="none" stroke="#1f2937" d="M3406.48,-114.07C3414.06,-115.9 3421.59,-117.56 3429,-119 3562,-144.91 3597.95,-130.98 3733,-142 3735.58,-142.21 3738.18,-142.42 3740.78,-142.64"/>
<polygon fill="#1f2937" stroke="#1f2937" points="3740.61,-146.13 3750.87,-143.47 3741.19,-139.16 3740.61,-146.13"/>
<text text-anchor="middle" x="3581" y="-145.8" font-family="Helvetica,sans-Serif" font-size="14.00">copy_ciph__MEncode_7860__plain</text>
</g>
<!-- op8&#45;&gt;op9 -->
<g id="edge26" class="edge">
<title>op8&#45;&gt;op9</title>
<path fill="none" stroke="#2563eb" d="M3410.18,-79.47C3416.54,-80 3422.83,-80.52 3429,-81 3563.96,-91.6 3598.89,-81.55 3733,-100 3758.21,-103.47 3784.35,-107.79 3810.4,-112.58"/>
<polygon fill="#2563eb" stroke="#2563eb" points="3809.9,-116.04 3820.38,-114.43 3811.18,-109.16 3809.9,-116.04"/>
<text text-anchor="middle" x="3581" y="-103.8" font-family="Helvetica,sans-Serif" font-size="14.00">copy_ciph__MEncode_7860__plain</text>
</g>
<!-- op8&#45;&gt;op9 -->
<g id="edge28" class="edge">
<title>op8&#45;&gt;op9</title>
<path fill="none" stroke="#0f766e" d="M3410.2,-62.2C3416.55,-62.12 3422.84,-62.05 3429,-62 3564.11,-60.8 3599.59,-40.63 3733,-62 3794.36,-71.83 3859.76,-91.28 3916.12,-111.06"/>
<polygon fill="#0f766e" stroke="#0f766e" points="3915.21,-114.45 3925.81,-114.5 3917.55,-107.86 3915.21,-114.45"/>
<text text-anchor="middle" x="3581" y="-65.8" font-family="Helvetica,sans-Serif" font-size="14.00">MEncode@7860</text>
</g>
<!-- op10 -->
<g id="node13" class="node">
<title>op10</title>
<path fill="#8c564b" stroke="black" d="M5079,-266.5C5079,-266.5 4732,-266.5 4732,-266.5 4726,-266.5 4720,-260.5 4720,-254.5 4720,-254.5 4720,-165.5 4720,-165.5 4720,-159.5 4726,-153.5 4732,-153.5 4732,-153.5 5079,-153.5 5079,-153.5 5085,-153.5 5091,-159.5 5091,-165.5 5091,-165.5 5091,-254.5 5091,-254.5 5091,-260.5 5085,-266.5 5079,-266.5"/>
<text text-anchor="middle" x="4905.5" y="-251.3" font-family="Helvetica,sans-Serif" font-size="14.00">op10</text>
<text text-anchor="middle" x="4905.5" y="-236.3" font-family="Helvetica,sans-Serif" font-size="14.00">rescale_dynamic</text>
<text text-anchor="middle" x="4905.5" y="-221.3" font-family="Helvetica,sans-Serif" font-size="14.00">line 198</text>
<text text-anchor="middle" x="4905.5" y="-206.3" font-family="Helvetica,sans-Serif" font-size="14.00">layer 9</text>
<text text-anchor="middle" x="4905.5" y="-191.3" font-family="Helvetica,sans-Serif" font-size="14.00">cost 4</text>
<text text-anchor="middle" x="4905.5" y="-176.3" font-family="Helvetica,sans-Serif" font-size="14.00">out copy_ciph__MEncode_7860__ciph_ct_mask2@3</text>
<text text-anchor="middle" x="4905.5" y="-161.3" font-family="Helvetica,sans-Serif" font-size="14.00">in copy_ciph__MEncode_7860__ciph_ct_mask2@2</text>
</g>
<!-- op9&#45;&gt;op10 -->
<g id="edge29" class="edge">
<title>op9&#45;&gt;op10</title>
<path fill="none" stroke="#1f2937" d="M4313.24,-114.46C4431.91,-96.08 4575.52,-86.81 4702,-115 4734.2,-122.18 4767.33,-135.06 4797.23,-149.06"/>
<polygon fill="#1f2937" stroke="#1f2937" points="4795.87,-152.29 4806.4,-153.44 4798.88,-145.97 4795.87,-152.29"/>
<text text-anchor="middle" x="4550" y="-118.8" font-family="Helvetica,sans-Serif" font-size="14.00">copy_ciph__MEncode_7860__ciph_ct_mask2</text>
</g>
<!-- op9&#45;&gt;op10 -->
<g id="edge30" class="edge">
<title>op9&#45;&gt;op10</title>
<path fill="none" stroke="#2563eb" d="M4292.33,-227.56C4327.5,-234.38 4363.58,-240.26 4398,-244 4532.32,-258.61 4567.36,-255.22 4702,-244 4704.56,-243.79 4707.15,-243.56 4709.74,-243.31"/>
<polygon fill="#2563eb" stroke="#2563eb" points="4710.2,-246.79 4719.81,-242.31 4709.51,-239.82 4710.2,-246.79"/>
<text text-anchor="middle" x="4550" y="-256.8" font-family="Helvetica,sans-Serif" font-size="14.00">copy_ciph__MEncode_7860__ciph_ct_mask2</text>
</g>
<!-- op9&#45;&gt;op10 -->
<g id="edge31" class="edge">
<title>op9&#45;&gt;op10</title>
<path fill="none" stroke="#f97316" d="M4380.08,-204.91C4386.1,-205.3 4392.08,-205.66 4398,-206 4500.71,-211.81 4615.32,-213.15 4709.51,-212.89"/>
<polygon fill="#f97316" stroke="#f97316" points="4709.73,-216.38 4719.72,-212.85 4709.71,-209.38 4709.73,-216.38"/>
<text text-anchor="middle" x="4550" y="-215.8" font-family="Helvetica,sans-Serif" font-size="14.00">copy_ciph__MEncode_7860__ciph_ct_mask2</text>
</g>
<!-- op9&#45;&gt;op10 -->
<g id="edge32" class="edge">
<title>op9&#45;&gt;op10</title>
<path fill="none" stroke="#dc2626" d="M4380.3,-173.43C4482.92,-175.69 4597.4,-179.76 4702,-187 4704.59,-187.18 4707.19,-187.37 4709.81,-187.56"/>
<polygon fill="#dc2626" stroke="#dc2626" points="4709.74,-191.07 4719.98,-188.36 4710.28,-184.09 4709.74,-191.07"/>
<text text-anchor="middle" x="4550" y="-190.8" font-family="Helvetica,sans-Serif" font-size="14.00">copy_ciph__MEncode_7860__ciph_ct_mask2</text>
</g>
<!-- op9&#45;&gt;op10 -->
<g id="edge33" class="edge">
<title>op9&#45;&gt;op10</title>
<path fill="none" stroke="#0f766e" d="M4380.28,-143.56C4483.16,-139.76 4597.8,-141.1 4702,-155 4704.57,-155.34 4707.15,-155.71 4709.74,-156.1"/>
<polygon fill="#0f766e" stroke="#0f766e" points="4709.36,-159.58 4719.78,-157.7 4710.46,-152.67 4709.36,-159.58"/>
<text text-anchor="middle" x="4550" y="-158.8" font-family="Helvetica,sans-Serif" font-size="14.00">MEncode@7860</text>
</g>
<!-- op10&#45;&gt;op11 -->
<g id="edge36" class="edge">
<title>op10&#45;&gt;op11</title>
<path fill="none" stroke="#1f2937" d="M5091.27,-261.1C5097.23,-262.16 5103.15,-263.14 5109,-264 5169.91,-273 5294.96,-278.32 5420.68,-281.46"/>
<polygon fill="#1f2937" stroke="#1f2937" points="5420.81,-284.97 5430.89,-281.71 5420.98,-277.97 5420.81,-284.97"/>
<text text-anchor="middle" x="5261" y="-284.8" font-family="Helvetica,sans-Serif" font-size="14.00">copy_ciph__MEncode_7860__ciph_ct_mask2</text>
</g>
<!-- op10&#45;&gt;op11 -->
<g id="edge37" class="edge">
<title>op10&#45;&gt;op11</title>
<path fill="none" stroke="#2563eb" d="M5091.07,-224.71C5097.12,-225.15 5103.11,-225.58 5109,-226 5244.04,-235.55 5278.14,-233.23 5413,-245 5415.57,-245.22 5418.16,-245.45 5420.75,-245.68"/>
<polygon fill="#2563eb" stroke="#2563eb" points="5420.52,-249.18 5430.8,-246.59 5421.15,-242.21 5420.52,-249.18"/>
<text text-anchor="middle" x="5261" y="-248.8" font-family="Helvetica,sans-Serif" font-size="14.00">copy_ciph__MEncode_7860__ciph_ct_mask2</text>
</g>
<!-- op10&#45;&gt;op11 -->
<g id="edge38" class="edge">
<title>op10&#45;&gt;op11</title>
<path fill="none" stroke="#0f766e" d="M5091.08,-207.15C5097.13,-207.09 5103.11,-207.04 5109,-207 5244.11,-206 5278.65,-192.65 5413,-207 5455.37,-211.53 5500.04,-218.93 5543.05,-227.43"/>
<polygon fill="#0f766e" stroke="#0f766e" points="5542.57,-230.9 5553.07,-229.43 5543.95,-224.04 5542.57,-230.9"/>
<text text-anchor="middle" x="5261" y="-210.8" font-family="Helvetica,sans-Serif" font-size="14.00">MEncode@7860</text>
</g>
<!-- op12 -->
<g id="node15" class="node">
<title>op12</title>
<path fill="#17becf" stroke="black" d="M6763,-342.5C6763,-342.5 6453,-342.5 6453,-342.5 6447,-342.5 6441,-336.5 6441,-330.5 6441,-330.5 6441,-241.5 6441,-241.5 6441,-235.5 6447,-229.5 6453,-229.5 6453,-229.5 6763,-229.5 6763,-229.5 6769,-229.5 6775,-235.5 6775,-241.5 6775,-241.5 6775,-330.5 6775,-330.5 6775,-336.5 6769,-342.5 6763,-342.5"/>
<text text-anchor="middle" x="6608" y="-327.3" font-family="Helvetica,sans-Serif" font-size="14.00">op12</text>
<text text-anchor="middle" x="6608" y="-312.3" font-family="Helvetica,sans-Serif" font-size="14.00">assign</text>
<text text-anchor="middle" x="6608" y="-297.3" font-family="Helvetica,sans-Serif" font-size="14.00">line 246</text>
<text text-anchor="middle" x="6608" y="-282.3" font-family="Helvetica,sans-Serif" font-size="14.00">layer 11</text>
<text text-anchor="middle" x="6608" y="-267.3" font-family="Helvetica,sans-Serif" font-size="14.00">cost 1</text>
<text text-anchor="middle" x="6608" y="-252.3" font-family="Helvetica,sans-Serif" font-size="14.00">out ciph_copy@1</text>
<text text-anchor="middle" x="6608" y="-237.3" font-family="Helvetica,sans-Serif" font-size="14.00">in copy_ciph__MEncode_7860__ciph_result@1</text>
</g>
<!-- op11&#45;&gt;op12 -->
<g id="edge39" class="edge">
<title>op11&#45;&gt;op12</title>
<path fill="none" stroke="#1f2937" d="M6128.2,-303.32C6223.77,-305.72 6327.41,-306.15 6423,-302 6425.43,-301.89 6427.88,-301.78 6430.35,-301.66"/>
<polygon fill="#1f2937" stroke="#1f2937" points="6430.75,-305.14 6440.55,-301.12 6430.38,-298.15 6430.75,-305.14"/>
<text text-anchor="middle" x="6284.5" y="-308.8" font-family="Helvetica,sans-Serif" font-size="14.00">copy_ciph__MEncode_7860__ciph_result</text>
</g>
<!-- op11&#45;&gt;op12 -->
<g id="edge40" class="edge">
<title>op11&#45;&gt;op12</title>
<path fill="none" stroke="#2563eb" d="M6128.12,-282.75C6223.69,-282.3 6327.35,-282.22 6423,-283 6425.43,-283.02 6427.87,-283.04 6430.33,-283.06"/>
<polygon fill="#2563eb" stroke="#2563eb" points="6430.48,-286.57 6440.51,-283.16 6430.55,-279.57 6430.48,-286.57"/>
<text text-anchor="middle" x="6284.5" y="-286.8" font-family="Helvetica,sans-Serif" font-size="14.00">copy_ciph__MEncode_7860__ciph_result</text>
</g>
<!-- op11&#45;&gt;op12 -->
<g id="edge41" class="edge">
<title>op11&#45;&gt;op12</title>
<path fill="none" stroke="#0f766e" d="M6128.28,-261.12C6223.85,-257.67 6327.47,-257.05 6423,-263 6425.44,-263.15 6427.9,-263.32 6430.37,-263.49"/>
<polygon fill="#0f766e" stroke="#0f766e" points="6430.36,-267 6440.6,-264.26 6430.89,-260.02 6430.36,-267"/>
<text text-anchor="middle" x="6284.5" y="-266.8" font-family="Helvetica,sans-Serif" font-size="14.00">MEncode@7860</text>
</g>
<!-- op13 -->
<g id="node16" class="node">
<title>op13</title>
<path fill="#9467bd" stroke="black" d="M7042,-342.5C7042,-342.5 6893,-342.5 6893,-342.5 6887,-342.5 6881,-336.5 6881,-330.5 6881,-330.5 6881,-241.5 6881,-241.5 6881,-235.5 6887,-229.5 6893,-229.5 6893,-229.5 7042,-229.5 7042,-229.5 7048,-229.5 7054,-235.5 7054,-241.5 7054,-241.5 7054,-330.5 7054,-330.5 7054,-336.5 7048,-342.5 7042,-342.5"/>
<text text-anchor="middle" x="6967.5" y="-327.3" font-family="Helvetica,sans-Serif" font-size="14.00">op13</text>
<text text-anchor="middle" x="6967.5" y="-312.3" font-family="Helvetica,sans-Serif" font-size="14.00">rotate</text>
<text text-anchor="middle" x="6967.5" y="-297.3" font-family="Helvetica,sans-Serif" font-size="14.00">line 247</text>
<text text-anchor="middle" x="6967.5" y="-282.3" font-family="Helvetica,sans-Serif" font-size="14.00">layer 12</text>
<text text-anchor="middle" x="6967.5" y="-267.3" font-family="Helvetica,sans-Serif" font-size="14.00">cost 4</text>
<text text-anchor="middle" x="6967.5" y="-252.3" font-family="Helvetica,sans-Serif" font-size="14.00">out ciph_sup_mask@1</text>
<text text-anchor="middle" x="6967.5" y="-237.3" font-family="Helvetica,sans-Serif" font-size="14.00">in ciph_copy@1</text>
</g>
<!-- op12&#45;&gt;op13 -->
<g id="edge42" class="edge">
<title>op12&#45;&gt;op13</title>
<path fill="none" stroke="#1f2937" d="M6775.19,-286C6807.81,-286 6841,-286 6870.36,-286"/>
<polygon fill="#1f2937" stroke="#1f2937" points="6870.59,-289.5 6880.59,-286 6870.59,-282.5 6870.59,-289.5"/>
<text text-anchor="middle" x="6828" y="-289.8" font-family="Helvetica,sans-Serif" font-size="14.00">ciph_copy</text>
</g>
<!-- op12&#45;&gt;op13 -->
<g id="edge43" class="edge">
<title>op12&#45;&gt;op13</title>
<path fill="none" stroke="#2563eb" d="M6775.07,-265.67C6804.38,-264.34 6834.6,-264.41 6863,-267 6865.55,-267.23 6868.13,-267.5 6870.72,-267.79"/>
<polygon fill="#2563eb" stroke="#2563eb" points="6870.47,-271.28 6880.82,-269.03 6871.32,-264.33 6870.47,-271.28"/>
<text text-anchor="middle" x="6828" y="-270.8" font-family="Helvetica,sans-Serif" font-size="14.00">ciph_copy</text>
</g>
</g>
</svg>
