<?xml version="1.0" encoding="UTF-8" standalone="no"?>
<!DOCTYPE svg PUBLIC "-//W3C//DTD SVG 1.1//EN"
 "http://www.w3.org/Graphics/SVG/1.1/DTD/svg11.dtd">
<!-- Generated by graphviz version 2.43.0 (0)
 -->
<!-- Title: hedag_v2 Pages: 1 -->
<svg width="2039pt" height="432pt"
 viewBox="0.00 0.00 2039.00 432.00" xmlns="http://www.w3.org/2000/svg" xmlns:xlink="http://www.w3.org/1999/xlink">
<g id="graph0" class="graph" transform="scale(1 1) rotate(0) translate(4 428)">
<title>hedag_v2</title>
<polygon fill="white" stroke="transparent" points="-4,4 -4,-428 2035,-428 2035,4 -4,4"/>
<g id="clust1" class="cluster">
<title>cluster_layer_0</title>
<polygon fill="none" stroke="#d1d5db" points="8,-8 8,-277 193,-277 193,-8 8,-8"/>
<text text-anchor="middle" x="100.5" y="-261.8" font-family="Times,serif" font-size="14.00">layer 0</text>
</g>
<g id="clust2" class="cluster">
<title>cluster_layer_1</title>
<polygon fill="none" stroke="#d1d5db" points="247,-194 247,-347 432,-347 432,-194 247,-194"/>
<text text-anchor="middle" x="339.5" y="-331.8" font-family="Times,serif" font-size="14.00">layer 1</text>
</g>
<g id="clust3" class="cluster">
<title>cluster_layer_2</title>
<polygon fill="none" stroke="#d1d5db" points="589,-118 589,-255 706,-255 706,-118 589,-118"/>
<text text-anchor="middle" x="647.5" y="-239.8" font-family="Times,serif" font-size="14.00">layer 2</text>
</g>
<g id="clust4" class="cluster">
<title>cluster_layer_3</title>
<polygon fill="none" stroke="#d1d5db" points="555,-263 555,-416 740,-416 740,-263 555,-263"/>
<text text-anchor="middle" x="647.5" y="-400.8" font-family="Times,serif" font-size="14.00">layer 3</text>
</g>
<g id="clust5" class="cluster">
<title>cluster_layer_4</title>
<polygon fill="none" stroke="#d1d5db" points="794,-72 794,-225 1035,-225 1035,-72 794,-72"/>
<text text-anchor="middle" x="914.5" y="-209.8" font-family="Times,serif" font-size="14.00">layer 4</text>
</g>
<g id="clust6" class="cluster">
<title>cluster_layer_5</title>
<polygon fill="none" stroke="#d1d5db" points="1158,-112 1158,-265 1343,-265 1343,-112 1158,-112"/>
<text text-anchor="middle" x="1250.5" y="-249.8" font-family="Times,serif" font-size="14.00">layer 5</text>
</g>
<g id="clust7" class="cluster">
<title>cluster_layer_6</title>
<polygon fill="none" stroke="#d1d5db" points="1466,-202 1466,-355 1775,-355 1775,-202 1466,-202"/>
<text text-anchor="middle" x="1620.5" y="-339.8" font-family="Times,serif" font-size="14.00">layer 6</text>
</g>
<g id="clust8" class="cluster">
<title>cluster_layer_7</title>
<polygon fill="none" stroke="#d1d5db" points="1871,-202 1871,-355 2023,-355 2023,-202 1871,-202"/>
<text text-anchor="middle" x="1947" y="-339.8" font-family="Times,serif" font-size="14.00">layer 7</text>
</g>
<!-- op0 -->
<g id="node1" class="node">
<title>op0</title>
<path fill="#e5e7eb" stroke="black" d="M139,-246C139,-246 62,-246 62,-246 56,-246 50,-240 50,-234 50,-234 50,-160 50,-160 50,-154 56,-148 62,-148 62,-148 139,-148 139,-148 145,-148 151,-154 151,-160 151,-160 151,-234 151,-234 151,-240 145,-246 139,-246"/>
<text text-anchor="middle" x="100.5" y="-230.8" font-family="Helvetica,sans-Serif" font-size="14.00">op0</text>
<text text-anchor="middle" x="100.5" y="-215.8" font-family="Helvetica,sans-Serif" font-size="14.00">encode</text>
<text text-anchor="middle" x="100.5" y="-200.8" font-family="Helvetica,sans-Serif" font-size="14.00">line 189</text>
<text text-anchor="middle" x="100.5" y="-185.8" font-family="Helvetica,sans-Serif" font-size="14.00">layer 0</text>
<text text-anchor="middle" x="100.5" y="-170.8" font-family="Helvetica,sans-Serif" font-size="14.00">cost 1</text>
<text text-anchor="middle" x="100.5" y="-155.8" font-family="Helvetica,sans-Serif" font-size="14.00">out plain@1</text>
</g>
<!-- op1 -->
<g id="node3" class="node">
<title>op1</title>
<path fill="#e5e7eb" stroke="black" d="M412,-315.5C412,-315.5 267,-315.5 267,-315.5 261,-315.5 255,-309.5 255,-303.5 255,-303.5 255,-214.5 255,-214.5 255,-208.5 261,-202.5 267,-202.5 267,-202.5 412,-202.5 412,-202.5 418,-202.5 424,-208.5 424,-214.5 424,-214.5 424,-303.5 424,-303.5 424,-309.5 418,-315.5 412,-315.5"/>
<text text-anchor="middle" x="339.5" y="-300.3" font-family="Helvetica,sans-Serif" font-size="14.00">op1</text>
<text text-anchor="middle" x="339.5" y="-285.3" font-family="Helvetica,sans-Serif" font-size="14.00">multiply_plain</text>
<text text-anchor="middle" x="339.5" y="-270.3" font-family="Helvetica,sans-Serif" font-size="14.00">line 191</text>
<text text-anchor="middle" x="339.5" y="-255.3" font-family="Helvetica,sans-Serif" font-size="14.00">layer 1</text>
<text text-anchor="middle" x="339.5" y="-240.3" font-family="Helvetica,sans-Serif" font-size="14.00">cost 3</text>
<text text-anchor="middle" x="339.5" y="-225.3" font-family="Helvetica,sans-Serif" font-size="14.00">out ciph_ct_mask1@1</text>
<text text-anchor="middle" x="339.5" y="-210.3" font-family="Helvetica,sans-Serif" font-size="14.00">in ciph@0, plain@1</text>
</g>
<!-- op0&#45;&gt;op1 -->
<g id="edge1" class="edge">
<title>op0&#45;&gt;op1</title>
<path fill="none" stroke="#1f2937" d="M151.11,-212.93C167.56,-218 186,-223.47 203,-228 216.42,-231.58 230.64,-235.11 244.64,-238.45"/>
<polygon fill="#1f2937" stroke="#1f2937" points="244.25,-241.95 254.78,-240.83 245.85,-235.13 244.25,-241.95"/>
<text text-anchor="middle" x="220" y="-239.8" font-family="Helvetica,sans-Serif" font-size="14.00">plain</text>
</g>
<!-- op0&#45;&gt;op1 -->
<g id="edge2" class="edge">
<title>op0&#45;&gt;op1</title>
<path fill="none" stroke="#2563eb" d="M151.21,-197.04C177.18,-198.14 209.26,-201.23 237,-209 239.79,-209.78 242.6,-210.64 245.41,-211.56"/>
<polygon fill="#2563eb" stroke="#2563eb" points="244.38,-214.91 254.98,-214.93 246.71,-208.31 244.38,-214.91"/>
<text text-anchor="middle" x="220" y="-212.8" font-family="Helvetica,sans-Serif" font-size="14.00">plain</text>
</g>
<!-- op4 -->
<g id="node4" class="node">
<title>op4</title>
<path fill="#e5e7eb" stroke="black" d="M686,-224C686,-224 609,-224 609,-224 603,-224 597,-218 597,-212 597,-212 597,-138 597,-138 597,-132 603,-126 609,-126 609,-126 686,-126 686,-126 692,-126 698,-132 698,-138 698,-138 698,-212 698,-212 698,-218 692,-224 686,-224"/>
<text text-anchor="middle" x="647.5" y="-208.8" font-family="Helvetica,sans-Serif" font-size="14.00">op4</text>
<text text-anchor="middle" x="647.5" y="-193.8" font-family="Helvetica,sans-Serif" font-size="14.00">encode</text>
<text text-anchor="middle" x="647.5" y="-178.8" font-family="Helvetica,sans-Serif" font-size="14.00">line 196</text>
<text text-anchor="middle" x="647.5" y="-163.8" font-family="Helvetica,sans-Serif" font-size="14.00">layer 2</text>
<text text-anchor="middle" x="647.5" y="-148.8" font-family="Helvetica,sans-Serif" font-size="14.00">cost 1</text>
<text text-anchor="middle" x="647.5" y="-133.8" font-family="Helvetica,sans-Serif" font-size="14.00">out plain@2</text>
</g>
<!-- op0&#45;&gt;op4 -->
<g id="edge6" class="edge">
<title>op0&#45;&gt;op4</title>
<path fill="none" stroke="#f97316" d="M151.12,-187.61C179.15,-182.78 214.9,-177.41 247,-175 367.3,-165.96 508.56,-169.2 586.75,-172.21"/>
<polygon fill="#f97316" stroke="#f97316" points="586.77,-175.72 596.9,-172.62 587.04,-168.72 586.77,-175.72"/>
<text text-anchor="middle" x="339.5" y="-178.8" font-family="Helvetica,sans-Serif" font-size="14.00">plain</text>
</g>
<!-- op3 -->
<g id="node2" class="node">
<title>op3</title>
<path fill="#9467bd" stroke="black" d="M173,-129.5C173,-129.5 28,-129.5 28,-129.5 22,-129.5 16,-123.5 16,-117.5 16,-117.5 16,-28.5 16,-28.5 16,-22.5 22,-16.5 28,-16.5 28,-16.5 173,-16.5 173,-16.5 179,-16.5 185,-22.5 185,-28.5 185,-28.5 185,-117.5 185,-117.5 185,-123.5 179,-129.5 173,-129.5"/>
<text text-anchor="middle" x="100.5" y="-114.3" font-family="Helvetica,sans-Serif" font-size="14.00">op3</text>
<text text-anchor="middle" x="100.5" y="-99.3" font-family="Helvetica,sans-Serif" font-size="14.00">rotate</text>
<text text-anchor="middle" x="100.5" y="-84.3" font-family="Helvetica,sans-Serif" font-size="14.00">line 195</text>
<text text-anchor="middle" x="100.5" y="-69.3" font-family="Helvetica,sans-Serif" font-size="14.00">layer 0</text>
<text text-anchor="middle" x="100.5" y="-54.3" font-family="Helvetica,sans-Serif" font-size="14.00">cost 4</text>
<text text-anchor="middle" x="100.5" y="-39.3" font-family="Helvetica,sans-Serif" font-size="14.00">out ciph_ct_mask2@1</text>
<text text-anchor="middle" x="100.5" y="-24.3" font-family="Helvetica,sans-Serif" font-size="14.00">in ciph@0</text>
</g>
<!-- op5 -->
<g id="node6" class="node">
<title>op5</title>
<path fill="#e5e7eb" stroke="black" d="M1015,-193.5C1015,-193.5 814,-193.5 814,-193.5 808,-193.5 802,-187.5 802,-181.5 802,-181.5 802,-92.5 802,-92.5 802,-86.5 808,-80.5 814,-80.5 814,-80.5 1015,-80.5 1015,-80.5 1021,-80.5 1027,-86.5 1027,-92.5 1027,-92.5 1027,-181.5 1027,-181.5 1027,-187.5 1021,-193.5 1015,-193.5"/>
<text text-anchor="middle" x="914.5" y="-178.3" font-family="Helvetica,sans-Serif" font-size="14.00">op5</text>
<text text-anchor="middle" x="914.5" y="-163.3" font-family="Helvetica,sans-Serif" font-size="14.00">multiply_plain</text>
<text text-anchor="middle" x="914.5" y="-148.3" font-family="Helvetica,sans-Serif" font-size="14.00">line 197</text>
<text text-anchor="middle" x="914.5" y="-133.3" font-family="Helvetica,sans-Serif" font-size="14.00">layer 4</text>
<text text-anchor="middle" x="914.5" y="-118.3" font-family="Helvetica,sans-Serif" font-size="14.00">cost 3</text>
<text text-anchor="middle" x="914.5" y="-103.3" font-family="Helvetica,sans-Serif" font-size="14.00">out ciph_ct_mask2@2</text>
<text text-anchor="middle" x="914.5" y="-88.3" font-family="Helvetica,sans-Serif" font-size="14.00">in ciph_ct_mask2@1, plain@2</text>
</g>
<!-- op3&#45;&gt;op5 -->
<g id="edge8" class="edge">
<title>op3&#45;&gt;op5</title>
<path fill="none" stroke="#1f2937" d="M185.06,-76.56C307.17,-82.17 541.43,-94.49 740,-114 756.68,-115.64 774.23,-117.64 791.5,-119.77"/>
<polygon fill="#1f2937" stroke="#1f2937" points="791.27,-123.27 801.63,-121.04 792.14,-116.32 791.27,-123.27"/>
<text text-anchor="middle" x="493.5" y="-100.8" font-family="Helvetica,sans-Serif" font-size="14.00">ciph_ct_mask2</text>
</g>
<!-- op3&#45;&gt;op5 -->
<g id="edge9" class="edge">
<title>op3&#45;&gt;op5</title>
<path fill="none" stroke="#2563eb" d="M185.23,-67.98C308.05,-62.37 543.73,-58.25 740,-94 756.84,-97.07 774.49,-100.81 791.8,-104.8"/>
<polygon fill="#2563eb" stroke="#2563eb" points="791.41,-108.3 801.95,-107.17 793.01,-101.48 791.41,-108.3"/>
<text text-anchor="middle" x="493.5" y="-73.8" font-family="Helvetica,sans-Serif" font-size="14.00">ciph_ct_mask2</text>
</g>
<!-- op3&#45;&gt;op5 -->
<g id="edge12" class="edge">
<title>op3&#45;&gt;op5</title>
<path fill="none" stroke="#f97316" d="M185.22,-58.98C308.75,-41.25 546.17,-18.46 740,-67 757.15,-71.29 774.84,-76.93 792.08,-83.13"/>
<polygon fill="#f97316" stroke="#f97316" points="791.01,-86.47 801.61,-86.64 793.43,-79.9 791.01,-86.47"/>
<text text-anchor="middle" x="493.5" y="-42.8" font-family="Helvetica,sans-Serif" font-size="14.00">ciph_ct_mask2</text>
</g>
<!-- op1&#45;&gt;op4 -->
<g id="edge7" class="edge">
<title>op1&#45;&gt;op4</title>
<path fill="none" stroke="#dc2626" d="M424.14,-227.59C430.16,-225.62 436.15,-223.73 442,-222 490.24,-207.72 545.96,-195.17 587.03,-186.64"/>
<polygon fill="#dc2626" stroke="#dc2626" points="587.8,-190.05 596.88,-184.61 586.38,-183.2 587.8,-190.05"/>
<text text-anchor="middle" x="493.5" y="-225.8" font-family="Helvetica,sans-Serif" font-size="14.00">plain</text>
</g>
<!-- op2 -->
<g id="node5" class="node">
<title>op2</title>
<path fill="#8c564b" stroke="black" d="M720,-384.5C720,-384.5 575,-384.5 575,-384.5 569,-384.5 563,-378.5 563,-372.5 563,-372.5 563,-283.5 563,-283.5 563,-277.5 569,-271.5 575,-271.5 575,-271.5 720,-271.5 720,-271.5 726,-271.5 732,-277.5 732,-283.5 732,-283.5 732,-372.5 732,-372.5 732,-378.5 726,-384.5 720,-384.5"/>
<text text-anchor="middle" x="647.5" y="-369.3" font-family="Helvetica,sans-Serif" font-size="14.00">op2</text>
<text text-anchor="middle" x="647.5" y="-354.3" font-family="Helvetica,sans-Serif" font-size="14.00">rescale_dynamic</text>
<text text-anchor="middle" x="647.5" y="-339.3" font-family="Helvetica,sans-Serif" font-size="14.00">line 192</text>
<text text-anchor="middle" x="647.5" y="-324.3" font-family="Helvetica,sans-Serif" font-size="14.00">layer 3</text>
<text text-anchor="middle" x="647.5" y="-309.3" font-family="Helvetica,sans-Serif" font-size="14.00">cost 4</text>
<text text-anchor="middle" x="647.5" y="-294.3" font-family="Helvetica,sans-Serif" font-size="14.00">out ciph_ct_mask1@2</text>
<text text-anchor="middle" x="647.5" y="-279.3" font-family="Helvetica,sans-Serif" font-size="14.00">in ciph_ct_mask1@1</text>
</g>
<!-- op1&#45;&gt;op2 -->
<g id="edge3" class="edge">
<title>op1&#45;&gt;op2</title>
<path fill="none" stroke="#1f2937" d="M424.03,-303.04C430.02,-305.29 436.05,-307.32 442,-309 477.29,-318.96 517.23,-323.99 552.39,-326.43"/>
<polygon fill="#1f2937" stroke="#1f2937" points="552.45,-329.95 562.66,-327.09 552.9,-322.96 552.45,-329.95"/>
<text text-anchor="middle" x="493.5" y="-328.8" font-family="Helvetica,sans-Serif" font-size="14.00">ciph_ct_mask1</text>
</g>
<!-- op1&#45;&gt;op2 -->
<g id="edge4" class="edge">
<title>op1&#45;&gt;op2</title>
<path fill="none" stroke="#2563eb" d="M424.2,-269.91C470.23,-276.26 522.45,-284.14 545,-290 547.64,-290.69 550.31,-291.42 552.99,-292.18"/>
<polygon fill="#2563eb" stroke="#2563eb" points="552.16,-295.59 562.75,-295.11 554.17,-288.89 552.16,-295.59"/>
<text text-anchor="middle" x="493.5" y="-293.8" font-family="Helvetica,sans-Serif" font-size="14.00">ciph_ct_mask1</text>
</g>
<!-- op1&#45;&gt;op2 -->
<g id="edge5" class="edge">
<title>op1&#45;&gt;op2</title>
<path fill="none" stroke="#f97316" d="M424.46,-243.77C462.17,-240.14 506.71,-240.39 545,-253 546.64,-253.54 553.65,-258.38 563.27,-265.35"/>
<polygon fill="#f97316" stroke="#f97316" points="561.35,-268.29 571.49,-271.37 565.49,-262.64 561.35,-268.29"/>
<text text-anchor="middle" x="493.5" y="-256.8" font-family="Helvetica,sans-Serif" font-size="14.00">ciph_ct_mask1</text>
</g>
<!-- op4&#45;&gt;op5 -->
<g id="edge10" class="edge">
<title>op4&#45;&gt;op5</title>
<path fill="none" stroke="#1f2937" d="M698.15,-153.05C714.35,-146.94 732.65,-141.12 750,-138 763.38,-135.6 777.47,-134.06 791.54,-133.14"/>
<polygon fill="#1f2937" stroke="#1f2937" points="791.98,-136.62 801.77,-132.58 791.6,-129.63 791.98,-136.62"/>
<text text-anchor="middle" x="767" y="-141.8" font-family="Helvetica,sans-Serif" font-size="14.00">plain</text>
</g>
<!-- op4&#45;&gt;op5 -->
<g id="edge11" class="edge">
<title>op4&#45;&gt;op5</title>
<path fill="none" stroke="#2563eb" d="M698.03,-167.9C724.57,-164.09 758.55,-159.22 791.63,-154.48"/>
<polygon fill="#2563eb" stroke="#2563eb" points="792.46,-157.89 801.86,-153.01 791.47,-150.96 792.46,-157.89"/>
<text text-anchor="middle" x="767" y="-162.8" font-family="Helvetica,sans-Serif" font-size="14.00">plain</text>
</g>
<!-- op7 -->
<g id="node8" class="node">
<title>op7</title>
<path fill="#e5e7eb" stroke="black" d="M1755,-323.5C1755,-323.5 1486,-323.5 1486,-323.5 1480,-323.5 1474,-317.5 1474,-311.5 1474,-311.5 1474,-222.5 1474,-222.5 1474,-216.5 1480,-210.5 1486,-210.5 1486,-210.5 1755,-210.5 1755,-210.5 1761,-210.5 1767,-216.5 1767,-222.5 1767,-222.5 1767,-311.5 1767,-311.5 1767,-317.5 1761,-323.5 1755,-323.5"/>
<text text-anchor="middle" x="1620.5" y="-308.3" font-family="Helvetica,sans-Serif" font-size="14.00">op7</text>
<text text-anchor="middle" x="1620.5" y="-293.3" font-family="Helvetica,sans-Serif" font-size="14.00">add</text>
<text text-anchor="middle" x="1620.5" y="-278.3" font-family="Helvetica,sans-Serif" font-size="14.00">line 200</text>
<text text-anchor="middle" x="1620.5" y="-263.3" font-family="Helvetica,sans-Serif" font-size="14.00">layer 6</text>
<text text-anchor="middle" x="1620.5" y="-248.3" font-family="Helvetica,sans-Serif" font-size="14.00">cost 1</text>
<text text-anchor="middle" x="1620.5" y="-233.3" font-family="Helvetica,sans-Serif" font-size="14.00">out ciph_result@1</text>
<text text-anchor="middle" x="1620.5" y="-218.3" font-family="Helvetica,sans-Serif" font-size="14.00">in ciph_ct_mask1@2, ciph_ct_mask2@3</text>
</g>
<!-- op2&#45;&gt;op7 -->
<g id="edge17" class="edge">
<title>op2&#45;&gt;op7</title>
<path fill="none" stroke="#1f2937" d="M732.08,-315.18C738.14,-314.4 744.16,-313.66 750,-313 998.66,-284.97 1289.3,-273.95 1463.66,-269.67"/>
<polygon fill="#1f2937" stroke="#1f2937" points="1463.77,-273.17 1473.68,-269.43 1463.6,-266.17 1463.77,-273.17"/>
<text text-anchor="middle" x="1096.5" y="-290.8" font-family="Helvetica,sans-Serif" font-size="14.00">ciph_ct_mask1</text>
</g>
<!-- op2&#45;&gt;op7 -->
<g id="edge18" class="edge">
<title>op2&#45;&gt;op7</title>
<path fill="none" stroke="#2563eb" d="M732.04,-325.43C878.75,-320.49 1192.2,-308.07 1456,-285 1458.55,-284.78 1461.12,-284.55 1463.72,-284.31"/>
<polygon fill="#2563eb" stroke="#2563eb" points="1464.15,-287.79 1473.78,-283.38 1463.5,-280.82 1464.15,-287.79"/>
<text text-anchor="middle" x="1096.5" y="-315.8" font-family="Helvetica,sans-Serif" font-size="14.00">ciph_ct_mask1</text>
</g>
<!-- op6 -->
<g id="node7" class="node">
<title>op6</title>
<path fill="#8c564b" stroke="black" d="M1323,-233.5C1323,-233.5 1178,-233.5 1178,-233.5 1172,-233.5 1166,-227.5 1166,-221.5 1166,-221.5 1166,-132.5 1166,-132.5 1166,-126.5 1172,-120.5 1178,-120.5 1178,-120.5 1323,-120.5 1323,-120.5 1329,-120.5 1335,-126.5 1335,-132.5 1335,-132.5 1335,-221.5 1335,-221.5 1335,-227.5 1329,-233.5 1323,-233.5"/>
<text text-anchor="middle" x="1250.5" y="-218.3" font-family="Helvetica,sans-Serif" font-size="14.00">op6</text>
<text text-anchor="middle" x="1250.5" y="-203.3" font-family="Helvetica,sans-Serif" font-size="14.00">rescale_dynamic</text>
<text text-anchor="middle" x="1250.5" y="-188.3" font-family="Helvetica,sans-Serif" font-size="14.00">line 198</text>
<text text-anchor="middle" x="1250.5" y="-173.3" font-family="Helvetica,sans-Serif" font-size="14.00">layer 5</text>
<text text-anchor="middle" x="1250.5" y="-158.3" font-family="Helvetica,sans-Serif" font-size="14.00">cost 4</text>
<text text-anchor="middle" x="1250.5" y="-143.3" font-family="Helvetica,sans-Serif" font-size="14.00">out ciph_ct_mask2@3</text>
<text text-anchor="middle" x="1250.5" y="-128.3" font-family="Helvetica,sans-Serif" font-size="14.00">in ciph_ct_mask2@2</text>
</g>
<!-- op5&#45;&gt;op6 -->
<g id="edge13" class="edge">
<title>op5&#45;&gt;op6</title>
<path fill="none" stroke="#1f2937" d="M1027.28,-187.66C1033.21,-189.34 1039.14,-190.81 1045,-192 1080.72,-199.27 1120.58,-198.33 1155.55,-194.57"/>
<polygon fill="#1f2937" stroke="#1f2937" points="1156.23,-198.02 1165.76,-193.39 1155.42,-191.07 1156.23,-198.02"/>
<text text-anchor="middle" x="1096.5" y="-200.8" font-family="Helvetica,sans-Serif" font-size="14.00">ciph_ct_mask2</text>
</g>
<!-- op5&#45;&gt;op6 -->
<g id="edge14" class="edge">
<title>op5&#45;&gt;op6</title>
<path fill="none" stroke="#2563eb" d="M1027.09,-151.78C1033.15,-152.54 1039.15,-153.29 1045,-154 1081.15,-158.41 1120.94,-162.95 1155.73,-166.82"/>
<polygon fill="#2563eb" stroke="#2563eb" points="1155.56,-170.32 1165.88,-167.95 1156.33,-163.37 1155.56,-170.32"/>
<text text-anchor="middle" x="1096.5" y="-168.8" font-family="Helvetica,sans-Serif" font-size="14.00">ciph_ct_mask2</text>
</g>
<!-- op5&#45;&gt;op6 -->
<g id="edge15" class="edge">
<title>op5&#45;&gt;op6</title>
<path fill="none" stroke="#f97316" d="M1027.24,-126.85C1065.81,-125.77 1109.1,-127.27 1148,-135 1150.67,-135.53 1153.36,-136.13 1156.05,-136.8"/>
<polygon fill="#f97316" stroke="#f97316" points="1155.26,-140.21 1165.83,-139.45 1157.09,-133.45 1155.26,-140.21"/>
<text text-anchor="middle" x="1096.5" y="-138.8" font-family="Helvetica,sans-Serif" font-size="14.00">ciph_ct_mask2</text>
</g>
<!-- op5&#45;&gt;op6 -->
<g id="edge16" class="edge">
<title>op5&#45;&gt;op6</title>
<path fill="none" stroke="#dc2626" d="M1027.17,-103.47C1066.04,-96.79 1109.53,-95.02 1148,-107 1155.33,-109.28 1162.6,-112.3 1169.68,-115.8"/>
<polygon fill="#dc2626" stroke="#dc2626" points="1168.05,-118.9 1178.53,-120.47 1171.32,-112.71 1168.05,-118.9"/>
<text text-anchor="middle" x="1096.5" y="-110.8" font-family="Helvetica,sans-Serif" font-size="14.00">ciph_ct_mask2</text>
</g>
<!-- op6&#45;&gt;op7 -->
<g id="edge19" class="edge">
<title>op6&#45;&gt;op7</title>
<path fill="none" stroke="#1f2937" d="M1335.02,-202.16C1341.09,-203.84 1347.13,-205.47 1353,-207 1388.66,-216.27 1427.22,-225.45 1463.64,-233.72"/>
<polygon fill="#1f2937" stroke="#1f2937" points="1463.33,-237.24 1473.85,-236.03 1464.87,-230.41 1463.33,-237.24"/>
<text text-anchor="middle" x="1404.5" y="-234.8" font-family="Helvetica,sans-Serif" font-size="14.00">ciph_ct_mask2</text>
</g>
<!-- op6&#45;&gt;op7 -->
<g id="edge20" class="edge">
<title>op6&#45;&gt;op7</title>
<path fill="none" stroke="#2563eb" d="M1335.22,-174.09C1372.69,-174.67 1417.09,-177.99 1456,-188 1473.52,-192.51 1491.39,-198.96 1508.59,-206.27"/>
<polygon fill="#2563eb" stroke="#2563eb" points="1507.5,-209.61 1518.07,-210.41 1510.3,-203.2 1507.5,-209.61"/>
<text text-anchor="middle" x="1404.5" y="-191.8" font-family="Helvetica,sans-Serif" font-size="14.00">ciph_ct_mask2</text>
</g>
<!-- op8 -->
<g id="node9" class="node">
<title>op8</title>
<path fill="#64748b" stroke="black" d="M2003,-323.5C2003,-323.5 1891,-323.5 1891,-323.5 1885,-323.5 1879,-317.5 1879,-311.5 1879,-311.5 1879,-222.5 1879,-222.5 1879,-216.5 1885,-210.5 1891,-210.5 1891,-210.5 2003,-210.5 2003,-210.5 2009,-210.5 2015,-216.5 2015,-222.5 2015,-222.5 2015,-311.5 2015,-311.5 2015,-317.5 2009,-323.5 2003,-323.5"/>
<text text-anchor="middle" x="1947" y="-308.3" font-family="Helvetica,sans-Serif" font-size="14.00">op8</text>
<text text-anchor="middle" x="1947" y="-293.3" font-family="Helvetica,sans-Serif" font-size="14.00">return</text>
<text text-anchor="middle" x="1947" y="-278.3" font-family="Helvetica,sans-Serif" font-size="14.00">line 202</text>
<text text-anchor="middle" x="1947" y="-263.3" font-family="Helvetica,sans-Serif" font-size="14.00">layer 7</text>
<text text-anchor="middle" x="1947" y="-248.3" font-family="Helvetica,sans-Serif" font-size="14.00">cost 1</text>
<text text-anchor="middle" x="1947" y="-233.3" font-family="Helvetica,sans-Serif" font-size="14.00">out __return__@1</text>
<text text-anchor="middle" x="1947" y="-218.3" font-family="Helvetica,sans-Serif" font-size="14.00">in ciph_result@1</text>
</g>
<!-- op7&#45;&gt;op8 -->
<g id="edge21" class="edge">
<title>op7&#45;&gt;op8</title>
<path fill="none" stroke="#1f2937" d="M1767.14,-267C1802.11,-267 1838.11,-267 1868.57,-267"/>
<polygon fill="#1f2937" stroke="#1f2937" points="1868.68,-270.5 1878.68,-267 1868.68,-263.5 1868.68,-270.5"/>
<text text-anchor="middle" x="1823" y="-270.8" font-family="Helvetica,sans-Serif" font-size="14.00">ciph_result</text>
</g>
<!-- op7&#45;&gt;op8 -->
<g id="edge22" class="edge">
<title>op7&#45;&gt;op8</title>
<path fill="none" stroke="#2563eb" d="M1767.29,-246.63C1798.26,-244.77 1830.74,-244.66 1861,-248 1863.66,-248.29 1866.35,-248.64 1869.07,-249.02"/>
<polygon fill="#2563eb" stroke="#2563eb" points="1868.53,-252.48 1878.95,-250.58 1869.62,-245.57 1868.53,-252.48"/>
<text text-anchor="middle" x="1823" y="-251.8" font-family="Helvetica,sans-Serif" font-size="14.00">ciph_result</text>
</g>
</g>
</svg>
