<?xml version="1.0" encoding="UTF-8" standalone="no"?>
<!DOCTYPE svg PUBLIC "-//W3C//DTD SVG 1.1//EN"
 "http://www.w3.org/Graphics/SVG/1.1/DTD/svg11.dtd">
<!-- Generated by graphviz version 2.43.0 (0)
 -->
<!-- Title: hedag_v2 Pages: 1 -->
<svg width="3121pt" height="753pt"
 viewBox="0.00 0.00 3121.00 753.19" xmlns="http://www.w3.org/2000/svg" xmlns:xlink="http://www.w3.org/1999/xlink">
<g id="graph0" class="graph" transform="scale(1 1) rotate(0) translate(4 749.19)">
<title>hedag_v2</title>
<polygon fill="white" stroke="transparent" points="-4,4 -4,-749.19 3117,-749.19 3117,4 -4,4"/>
<g id="clust1" class="cluster">
<title>cluster_layer_0</title>
<polygon fill="none" stroke="#d1d5db" points="8,-84.19 8,-484.19 209,-484.19 209,-84.19 8,-84.19"/>
<text text-anchor="middle" x="108.5" y="-468.99" font-family="Times,serif" font-size="14.00">layer 0</text>
</g>
<g id="clust2" class="cluster">
<title>cluster_layer_1</title>
<polygon fill="none" stroke="#d1d5db" points="388,-115.19 388,-530.19 637,-530.19 637,-115.19 388,-115.19"/>
<text text-anchor="middle" x="512.5" y="-514.99" font-family="Times,serif" font-size="14.00">layer 1</text>
</g>
<g id="clust3" class="cluster">
<title>cluster_layer_2</title>
<polygon fill="none" stroke="#d1d5db" points="823,-141.19 823,-556.19 1072,-556.19 1072,-141.19 823,-141.19"/>
<text text-anchor="middle" x="947.5" y="-540.99" font-family="Times,serif" font-size="14.00">layer 2</text>
</g>
<g id="clust4" class="cluster">
<title>cluster_layer_3</title>
<polygon fill="none" stroke="#d1d5db" points="1258,-89.19 1258,-373.19 1645,-373.19 1645,-89.19 1258,-89.19"/>
<text text-anchor="middle" x="1451.5" y="-357.99" font-family="Times,serif" font-size="14.00">layer 3</text>
</g>
<g id="clust5" class="cluster">
<title>cluster_layer_4</title>
<polygon fill="none" stroke="#d1d5db" points="1831,-334.19 1831,-618.19 2080,-618.19 2080,-334.19 1831,-334.19"/>
<text text-anchor="middle" x="1955.5" y="-602.99" font-family="Times,serif" font-size="14.00">layer 4</text>
</g>
<g id="clust6" class="cluster">
<title>cluster_layer_5</title>
<polygon fill="none" stroke="#d1d5db" points="2283,-317.19 2283,-601.19 2532,-601.19 2532,-317.19 2283,-317.19"/>
<text text-anchor="middle" x="2407.5" y="-585.99" font-family="Times,serif" font-size="14.00">layer 5</text>
</g>
<g id="clust7" class="cluster">
<title>cluster_layer_6</title>
<polygon fill="none" stroke="#d1d5db" points="2718,-355.19 2718,-508.19 3105,-508.19 3105,-355.19 2718,-355.19"/>
<text text-anchor="middle" x="2911.5" y="-492.99" font-family="Times,serif" font-size="14.00">layer 6</text>
</g>
<!-- op0 -->
<g id="node1" class="node">
<title>op0</title>
<path fill="#e5e7eb" stroke="black" d="M189,-453.19C189,-453.19 28,-453.19 28,-453.19 22,-453.19 16,-447.19 16,-441.19 16,-441.19 16,-367.19 16,-367.19 16,-361.19 22,-355.19 28,-355.19 28,-355.19 189,-355.19 189,-355.19 195,-355.19 201,-361.19 201,-367.19 201,-367.19 201,-441.19 201,-441.19 201,-447.19 195,-453.19 189,-453.19"/>
<text text-anchor="middle" x="108.5" y="-437.99" font-family="Helvetica,sans-Serif" font-size="14.00">op0</text>
<text text-anchor="middle" x="108.5" y="-422.99" font-family="Helvetica,sans-Serif" font-size="14.00">apply_galois</text>
<text text-anchor="middle" x="108.5" y="-407.99" font-family="Helvetica,sans-Serif" font-size="14.00">line 380</text>
<text text-anchor="middle" x="108.5" y="-392.99" font-family="Helvetica,sans-Serif" font-size="14.00">layer 0</text>
<text text-anchor="middle" x="108.5" y="-377.99" font-family="Helvetica,sans-Serif" font-size="14.00">cost 4</text>
<text text-anchor="middle" x="108.5" y="-362.99" font-family="Helvetica,sans-Serif" font-size="14.00">out tempctxt_rotated@1</text>
</g>
<!-- op1 -->
<g id="node4" class="node">
<title>op1</title>
<path fill="#e5e7eb" stroke="black" d="M588.5,-498.69C588.5,-498.69 436.5,-498.69 436.5,-498.69 430.5,-498.69 424.5,-492.69 424.5,-486.69 424.5,-486.69 424.5,-397.69 424.5,-397.69 424.5,-391.69 430.5,-385.69 436.5,-385.69 436.5,-385.69 588.5,-385.69 588.5,-385.69 594.5,-385.69 600.5,-391.69 600.5,-397.69 600.5,-397.69 600.5,-486.69 600.5,-486.69 600.5,-492.69 594.5,-498.69 588.5,-498.69"/>
<text text-anchor="middle" x="512.5" y="-483.49" font-family="Helvetica,sans-Serif" font-size="14.00">op1</text>
<text text-anchor="middle" x="512.5" y="-468.49" font-family="Helvetica,sans-Serif" font-size="14.00">add</text>
<text text-anchor="middle" x="512.5" y="-453.49" font-family="Helvetica,sans-Serif" font-size="14.00">line 383</text>
<text text-anchor="middle" x="512.5" y="-438.49" font-family="Helvetica,sans-Serif" font-size="14.00">layer 1</text>
<text text-anchor="middle" x="512.5" y="-423.49" font-family="Helvetica,sans-Serif" font-size="14.00">cost 1</text>
<text text-anchor="middle" x="512.5" y="-408.49" font-family="Helvetica,sans-Serif" font-size="14.00">out newtemp[a]@1</text>
<text text-anchor="middle" x="512.5" y="-393.49" font-family="Helvetica,sans-Serif" font-size="14.00">in tempctxt_rotated@1</text>
</g>
<!-- op0&#45;&gt;op1 -->
<g id="edge1" class="edge">
<title>op0&#45;&gt;op1</title>
<path fill="none" stroke="#1f2937" d="M201.15,-418.06C207.18,-418.83 213.18,-419.54 219,-420.19 283.94,-427.37 357.25,-432.87 414.24,-436.58"/>
<polygon fill="#1f2937" stroke="#1f2937" points="414.12,-440.08 424.32,-437.23 414.57,-433.1 414.12,-440.08"/>
<text text-anchor="middle" x="298.5" y="-436.99" font-family="Helvetica,sans-Serif" font-size="14.00">tempctxt_rotated</text>
</g>
<!-- op0&#45;&gt;op1 -->
<g id="edge2" class="edge">
<title>op0&#45;&gt;op1</title>
<path fill="none" stroke="#2563eb" d="M201.21,-401.49C207.23,-401.37 213.2,-401.27 219,-401.19 289.66,-400.22 308.12,-390.7 378,-401.19 390.01,-402.99 402.44,-405.66 414.65,-408.78"/>
<polygon fill="#2563eb" stroke="#2563eb" points="413.83,-412.19 424.39,-411.38 415.63,-405.42 413.83,-412.19"/>
<text text-anchor="middle" x="298.5" y="-404.99" font-family="Helvetica,sans-Serif" font-size="14.00">tempctxt_rotated</text>
</g>
<!-- op4 -->
<g id="node5" class="node">
<title>op4</title>
<path fill="#17becf" stroke="black" d="M617,-367.69C617,-367.69 408,-367.69 408,-367.69 402,-367.69 396,-361.69 396,-355.69 396,-355.69 396,-266.69 396,-266.69 396,-260.69 402,-254.69 408,-254.69 408,-254.69 617,-254.69 617,-254.69 623,-254.69 629,-260.69 629,-266.69 629,-266.69 629,-355.69 629,-355.69 629,-361.69 623,-367.69 617,-367.69"/>
<text text-anchor="middle" x="512.5" y="-352.49" font-family="Helvetica,sans-Serif" font-size="14.00">op4</text>
<text text-anchor="middle" x="512.5" y="-337.49" font-family="Helvetica,sans-Serif" font-size="14.00">assign</text>
<text text-anchor="middle" x="512.5" y="-322.49" font-family="Helvetica,sans-Serif" font-size="14.00">line 439</text>
<text text-anchor="middle" x="512.5" y="-307.49" font-family="Helvetica,sans-Serif" font-size="14.00">layer 1</text>
<text text-anchor="middle" x="512.5" y="-292.49" font-family="Helvetica,sans-Serif" font-size="14.00">cost 1</text>
<text text-anchor="middle" x="512.5" y="-277.49" font-family="Helvetica,sans-Serif" font-size="14.00">out tempctxt_rotatedshifted@1</text>
<text text-anchor="middle" x="512.5" y="-262.49" font-family="Helvetica,sans-Serif" font-size="14.00">in tempctxt_rotated@1</text>
</g>
<!-- op0&#45;&gt;op4 -->
<g id="edge7" class="edge">
<title>op0&#45;&gt;op4</title>
<path fill="none" stroke="#1f2937" d="M201.18,-381.44C207.21,-379.99 213.19,-378.56 219,-377.19 273.62,-364.29 334.1,-350.56 385.83,-338.97"/>
<polygon fill="#1f2937" stroke="#1f2937" points="386.73,-342.36 395.72,-336.76 385.2,-335.53 386.73,-342.36"/>
<text text-anchor="middle" x="298.5" y="-380.99" font-family="Helvetica,sans-Serif" font-size="14.00">tempctxt_rotated</text>
</g>
<!-- op0&#45;&gt;op4 -->
<g id="edge8" class="edge">
<title>op0&#45;&gt;op4</title>
<path fill="none" stroke="#2563eb" d="M200.61,-354.92C203.58,-352.13 206.39,-349.22 209,-346.19 216.82,-337.13 209.21,-328.07 219,-321.19 266.56,-287.79 330.01,-282.24 385.66,-286.32"/>
<polygon fill="#2563eb" stroke="#2563eb" points="385.7,-289.83 395.96,-287.19 386.29,-282.86 385.7,-289.83"/>
<text text-anchor="middle" x="298.5" y="-324.99" font-family="Helvetica,sans-Serif" font-size="14.00">tempctxt_rotated</text>
</g>
<!-- op8 -->
<g id="node9" class="node">
<title>op8</title>
<path fill="#e5e7eb" stroke="black" d="M1028,-524.69C1028,-524.69 867,-524.69 867,-524.69 861,-524.69 855,-518.69 855,-512.69 855,-512.69 855,-423.69 855,-423.69 855,-417.69 861,-411.69 867,-411.69 867,-411.69 1028,-411.69 1028,-411.69 1034,-411.69 1040,-417.69 1040,-423.69 1040,-423.69 1040,-512.69 1040,-512.69 1040,-518.69 1034,-524.69 1028,-524.69"/>
<text text-anchor="middle" x="947.5" y="-509.49" font-family="Helvetica,sans-Serif" font-size="14.00">op8</text>
<text text-anchor="middle" x="947.5" y="-494.49" font-family="Helvetica,sans-Serif" font-size="14.00">apply_galois</text>
<text text-anchor="middle" x="947.5" y="-479.49" font-family="Helvetica,sans-Serif" font-size="14.00">line 402</text>
<text text-anchor="middle" x="947.5" y="-464.49" font-family="Helvetica,sans-Serif" font-size="14.00">layer 2</text>
<text text-anchor="middle" x="947.5" y="-449.49" font-family="Helvetica,sans-Serif" font-size="14.00">cost 4</text>
<text text-anchor="middle" x="947.5" y="-434.49" font-family="Helvetica,sans-Serif" font-size="14.00">out tempctxt_rotated@2</text>
<text text-anchor="middle" x="947.5" y="-419.49" font-family="Helvetica,sans-Serif" font-size="14.00">in temp[a]@0</text>
</g>
<!-- op0&#45;&gt;op8 -->
<g id="edge18" class="edge">
<title>op0&#45;&gt;op8</title>
<path fill="none" stroke="#f97316" d="M189.91,-453.24C243.8,-483.15 317.55,-518.55 388,-534.19 545.45,-569.13 732.24,-531.5 844.96,-500.4"/>
<polygon fill="#f97316" stroke="#f97316" points="845.93,-503.76 854.62,-497.7 844.05,-497.02 845.93,-503.76"/>
<text text-anchor="middle" x="512.5" y="-551.99" font-family="Helvetica,sans-Serif" font-size="14.00">tempctxt_rotated</text>
</g>
<!-- op15 -->
<g id="node2" class="node">
<title>op15</title>
<path fill="#64748b" stroke="black" d="M164.5,-336.69C164.5,-336.69 52.5,-336.69 52.5,-336.69 46.5,-336.69 40.5,-330.69 40.5,-324.69 40.5,-324.69 40.5,-235.69 40.5,-235.69 40.5,-229.69 46.5,-223.69 52.5,-223.69 52.5,-223.69 164.5,-223.69 164.5,-223.69 170.5,-223.69 176.5,-229.69 176.5,-235.69 176.5,-235.69 176.5,-324.69 176.5,-324.69 176.5,-330.69 170.5,-336.69 164.5,-336.69"/>
<text text-anchor="middle" x="108.5" y="-321.49" font-family="Helvetica,sans-Serif" font-size="14.00">op15</text>
<text text-anchor="middle" x="108.5" y="-306.49" font-family="Helvetica,sans-Serif" font-size="14.00">return</text>
<text text-anchor="middle" x="108.5" y="-291.49" font-family="Helvetica,sans-Serif" font-size="14.00">line 417</text>
<text text-anchor="middle" x="108.5" y="-276.49" font-family="Helvetica,sans-Serif" font-size="14.00">layer 0</text>
<text text-anchor="middle" x="108.5" y="-261.49" font-family="Helvetica,sans-Serif" font-size="14.00">cost 1</text>
<text text-anchor="middle" x="108.5" y="-246.49" font-family="Helvetica,sans-Serif" font-size="14.00">out __return__@1</text>
<text text-anchor="middle" x="108.5" y="-231.49" font-family="Helvetica,sans-Serif" font-size="14.00">in newVec@0</text>
</g>
<!-- op2 -->
<g id="node3" class="node">
<title>op2</title>
<path fill="#17becf" stroke="black" d="M188,-205.69C188,-205.69 29,-205.69 29,-205.69 23,-205.69 17,-199.69 17,-193.69 17,-193.69 17,-104.69 17,-104.69 17,-98.69 23,-92.69 29,-92.69 29,-92.69 188,-92.69 188,-92.69 194,-92.69 200,-98.69 200,-104.69 200,-104.69 200,-193.69 200,-193.69 200,-199.69 194,-205.69 188,-205.69"/>
<text text-anchor="middle" x="108.5" y="-190.49" font-family="Helvetica,sans-Serif" font-size="14.00">op2</text>
<text text-anchor="middle" x="108.5" y="-175.49" font-family="Helvetica,sans-Serif" font-size="14.00">assign</text>
<text text-anchor="middle" x="108.5" y="-160.49" font-family="Helvetica,sans-Serif" font-size="14.00">line 439</text>
<text text-anchor="middle" x="108.5" y="-145.49" font-family="Helvetica,sans-Serif" font-size="14.00">layer 0</text>
<text text-anchor="middle" x="108.5" y="-130.49" font-family="Helvetica,sans-Serif" font-size="14.00">cost 1</text>
<text text-anchor="middle" x="108.5" y="-115.49" font-family="Helvetica,sans-Serif" font-size="14.00">out tempctxt_shifted@1</text>
<text text-anchor="middle" x="108.5" y="-100.49" font-family="Helvetica,sans-Serif" font-size="14.00">in temp[a]@0</text>
</g>
<!-- op3 -->
<g id="node6" class="node">
<title>op3</title>
<path fill="#e5e7eb" stroke="black" d="M592,-236.69C592,-236.69 433,-236.69 433,-236.69 427,-236.69 421,-230.69 421,-224.69 421,-224.69 421,-135.69 421,-135.69 421,-129.69 427,-123.69 433,-123.69 433,-123.69 592,-123.69 592,-123.69 598,-123.69 604,-129.69 604,-135.69 604,-135.69 604,-224.69 604,-224.69 604,-230.69 598,-236.69 592,-236.69"/>
<text text-anchor="middle" x="512.5" y="-221.49" font-family="Helvetica,sans-Serif" font-size="14.00">op3</text>
<text text-anchor="middle" x="512.5" y="-206.49" font-family="Helvetica,sans-Serif" font-size="14.00">ntt_fwd</text>
<text text-anchor="middle" x="512.5" y="-191.49" font-family="Helvetica,sans-Serif" font-size="14.00">line 460</text>
<text text-anchor="middle" x="512.5" y="-176.49" font-family="Helvetica,sans-Serif" font-size="14.00">layer 1</text>
<text text-anchor="middle" x="512.5" y="-161.49" font-family="Helvetica,sans-Serif" font-size="14.00">cost 3</text>
<text text-anchor="middle" x="512.5" y="-146.49" font-family="Helvetica,sans-Serif" font-size="14.00">out tempctxt_shifted@2</text>
<text text-anchor="middle" x="512.5" y="-131.49" font-family="Helvetica,sans-Serif" font-size="14.00">in tempctxt_shifted@1</text>
</g>
<!-- op2&#45;&gt;op3 -->
<g id="edge3" class="edge">
<title>op2&#45;&gt;op3</title>
<path fill="none" stroke="#1f2937" d="M200.22,-112.44C206.51,-110.76 212.81,-109.31 219,-108.19 288.54,-95.6 309.48,-90.89 378,-108.19 389.27,-111.03 400.62,-115.04 411.69,-119.72"/>
<polygon fill="#1f2937" stroke="#1f2937" points="410.36,-122.95 420.92,-123.8 413.19,-116.55 410.36,-122.95"/>
<text text-anchor="middle" x="298.5" y="-111.99" font-family="Helvetica,sans-Serif" font-size="14.00">tempctxt_shifted</text>
</g>
<!-- op2&#45;&gt;op3 -->
<g id="edge4" class="edge">
<title>op2&#45;&gt;op3</title>
<path fill="none" stroke="#2563eb" d="M200.21,-194.07C206.47,-196.09 212.77,-197.83 219,-199.19 281.86,-212.86 353.96,-208.4 410.85,-200.38"/>
<polygon fill="#2563eb" stroke="#2563eb" points="411.54,-203.81 420.92,-198.9 410.52,-196.89 411.54,-203.81"/>
<text text-anchor="middle" x="298.5" y="-210.99" font-family="Helvetica,sans-Serif" font-size="14.00">tempctxt_shifted</text>
</g>
<!-- op2&#45;&gt;op3 -->
<g id="edge5" class="edge">
<title>op2&#45;&gt;op3</title>
<path fill="none" stroke="#f97316" d="M200.29,-159.45C206.62,-160.07 212.9,-160.66 219,-161.19 282.73,-166.75 354.39,-171.43 410.84,-174.75"/>
<polygon fill="#f97316" stroke="#f97316" points="410.65,-178.25 420.84,-175.34 411.06,-171.26 410.65,-178.25"/>
<text text-anchor="middle" x="298.5" y="-175.99" font-family="Helvetica,sans-Serif" font-size="14.00">tempctxt_shifted</text>
</g>
<!-- op2&#45;&gt;op3 -->
<g id="edge6" class="edge">
<title>op2&#45;&gt;op3</title>
<path fill="none" stroke="#0f766e" d="M200,-142.95C206.43,-142.65 212.81,-142.39 219,-142.19 289.63,-139.93 308.01,-132.42 378,-142.19 388.69,-143.68 399.73,-145.81 410.66,-148.32"/>
<polygon fill="#0f766e" stroke="#0f766e" points="410.12,-151.79 420.66,-150.71 411.75,-144.98 410.12,-151.79"/>
<text text-anchor="middle" x="298.5" y="-145.99" font-family="Helvetica,sans-Serif" font-size="14.00">expand_query@11206</text>
</g>
<!-- op7 -->
<g id="node7" class="node">
<title>op7</title>
<path fill="#e5e7eb" stroke="black" d="M1010.5,-393.69C1010.5,-393.69 884.5,-393.69 884.5,-393.69 878.5,-393.69 872.5,-387.69 872.5,-381.69 872.5,-381.69 872.5,-292.69 872.5,-292.69 872.5,-286.69 878.5,-280.69 884.5,-280.69 884.5,-280.69 1010.5,-280.69 1010.5,-280.69 1016.5,-280.69 1022.5,-286.69 1022.5,-292.69 1022.5,-292.69 1022.5,-381.69 1022.5,-381.69 1022.5,-387.69 1016.5,-393.69 1010.5,-393.69"/>
<text text-anchor="middle" x="947.5" y="-378.49" font-family="Helvetica,sans-Serif" font-size="14.00">op7</text>
<text text-anchor="middle" x="947.5" y="-363.49" font-family="Helvetica,sans-Serif" font-size="14.00">multiply_plain</text>
<text text-anchor="middle" x="947.5" y="-348.49" font-family="Helvetica,sans-Serif" font-size="14.00">line 396</text>
<text text-anchor="middle" x="947.5" y="-333.49" font-family="Helvetica,sans-Serif" font-size="14.00">layer 2</text>
<text text-anchor="middle" x="947.5" y="-318.49" font-family="Helvetica,sans-Serif" font-size="14.00">cost 3</text>
<text text-anchor="middle" x="947.5" y="-303.49" font-family="Helvetica,sans-Serif" font-size="14.00">out newtemp[a]@2</text>
<text text-anchor="middle" x="947.5" y="-288.49" font-family="Helvetica,sans-Serif" font-size="14.00">in temp[a]@0</text>
</g>
<!-- op1&#45;&gt;op7 -->
<g id="edge17" class="edge">
<title>op1&#45;&gt;op7</title>
<path fill="none" stroke="#f97316" d="M600.72,-435.19C685.68,-428.15 803.42,-417.71 813,-413.19 818.68,-410.51 817.95,-406.93 823,-403.19 835.49,-393.92 849.46,-385.17 863.38,-377.24"/>
<polygon fill="#f97316" stroke="#f97316" points="865.47,-380.08 872.5,-372.16 862.06,-373.97 865.47,-380.08"/>
<text text-anchor="middle" x="730" y="-433.99" font-family="Helvetica,sans-Serif" font-size="14.00">newtemp[a]</text>
</g>
<!-- op1&#45;&gt;op8 -->
<g id="edge19" class="edge">
<title>op1&#45;&gt;op8</title>
<path fill="none" stroke="#dc2626" d="M600.74,-448.2C616.15,-449.23 632.05,-450.26 647,-451.19 712.71,-455.27 786.55,-459.46 844.47,-462.67"/>
<polygon fill="#dc2626" stroke="#dc2626" points="844.55,-466.18 854.73,-463.23 844.94,-459.19 844.55,-466.18"/>
<text text-anchor="middle" x="730" y="-463.99" font-family="Helvetica,sans-Serif" font-size="14.00">tempctxt_rotated</text>
</g>
<!-- op5 -->
<g id="node8" class="node">
<title>op5</title>
<path fill="#e5e7eb" stroke="black" d="M1052,-262.69C1052,-262.69 843,-262.69 843,-262.69 837,-262.69 831,-256.69 831,-250.69 831,-250.69 831,-161.69 831,-161.69 831,-155.69 837,-149.69 843,-149.69 843,-149.69 1052,-149.69 1052,-149.69 1058,-149.69 1064,-155.69 1064,-161.69 1064,-161.69 1064,-250.69 1064,-250.69 1064,-256.69 1058,-262.69 1052,-262.69"/>
<text text-anchor="middle" x="947.5" y="-247.49" font-family="Helvetica,sans-Serif" font-size="14.00">op5</text>
<text text-anchor="middle" x="947.5" y="-232.49" font-family="Helvetica,sans-Serif" font-size="14.00">ntt_fwd</text>
<text text-anchor="middle" x="947.5" y="-217.49" font-family="Helvetica,sans-Serif" font-size="14.00">line 460</text>
<text text-anchor="middle" x="947.5" y="-202.49" font-family="Helvetica,sans-Serif" font-size="14.00">layer 2</text>
<text text-anchor="middle" x="947.5" y="-187.49" font-family="Helvetica,sans-Serif" font-size="14.00">cost 3</text>
<text text-anchor="middle" x="947.5" y="-172.49" font-family="Helvetica,sans-Serif" font-size="14.00">out tempctxt_rotatedshifted@2</text>
<text text-anchor="middle" x="947.5" y="-157.49" font-family="Helvetica,sans-Serif" font-size="14.00">in tempctxt_rotatedshifted@1</text>
</g>
<!-- op4&#45;&gt;op5 -->
<g id="edge9" class="edge">
<title>op4&#45;&gt;op5</title>
<path fill="none" stroke="#1f2937" d="M622.75,-254.6C630.84,-251.46 638.98,-248.61 647,-246.19 702.79,-229.36 766.56,-219.61 820.87,-213.95"/>
<polygon fill="#1f2937" stroke="#1f2937" points="821.3,-217.43 830.9,-212.94 820.6,-210.46 821.3,-217.43"/>
<text text-anchor="middle" x="730" y="-249.99" font-family="Helvetica,sans-Serif" font-size="14.00">tempctxt_rotatedshifted</text>
</g>
<!-- op4&#45;&gt;op5 -->
<g id="edge10" class="edge">
<title>op4&#45;&gt;op5</title>
<path fill="none" stroke="#2563eb" d="M629.18,-319.41C700.72,-322.09 784.21,-320.1 813,-299.19 823.35,-291.67 814.59,-281.83 823,-272.19 823.63,-271.47 824.27,-270.75 824.92,-270.04"/>
<polygon fill="#2563eb" stroke="#2563eb" points="827.64,-272.27 832.2,-262.7 822.68,-267.33 827.64,-272.27"/>
<text text-anchor="middle" x="730" y="-323.99" font-family="Helvetica,sans-Serif" font-size="14.00">tempctxt_rotatedshifted</text>
</g>
<!-- op4&#45;&gt;op5 -->
<g id="edge11" class="edge">
<title>op4&#45;&gt;op5</title>
<path fill="none" stroke="#f97316" d="M629.11,-283.49C635.15,-282.31 641.14,-281.2 647,-280.19 720.18,-267.55 741.09,-279.73 813,-261.19 815.64,-260.51 818.3,-259.79 820.96,-259.03"/>
<polygon fill="#f97316" stroke="#f97316" points="822.08,-262.35 830.65,-256.13 820.07,-255.64 822.08,-262.35"/>
<text text-anchor="middle" x="730" y="-283.99" font-family="Helvetica,sans-Serif" font-size="14.00">tempctxt_rotatedshifted</text>
</g>
<!-- op4&#45;&gt;op5 -->
<g id="edge12" class="edge">
<title>op4&#45;&gt;op5</title>
<path fill="none" stroke="#0f766e" d="M629.1,-337.76C701.39,-351.32 785.77,-360.55 813,-337.19 835.18,-318.16 806.1,-296.04 823,-272.19 823.45,-271.56 823.9,-270.93 824.37,-270.31"/>
<polygon fill="#0f766e" stroke="#0f766e" points="827.12,-272.47 830.81,-262.54 821.73,-268 827.12,-272.47"/>
<text text-anchor="middle" x="730" y="-354.99" font-family="Helvetica,sans-Serif" font-size="14.00">expand_query@11277</text>
</g>
<!-- op4&#45;&gt;op8 -->
<g id="edge20" class="edge">
<title>op4&#45;&gt;op8</title>
<path fill="none" stroke="#dc2626" d="M629.3,-364.59C635.23,-366.62 641.16,-368.51 647,-370.19 718.64,-390.78 745.5,-362.56 813,-394.19 818.41,-396.73 818.09,-399.77 823,-403.19 830.37,-408.33 838.2,-413.34 846.2,-418.16"/>
<polygon fill="#dc2626" stroke="#dc2626" points="844.54,-421.24 854.93,-423.3 848.09,-415.21 844.54,-421.24"/>
<text text-anchor="middle" x="730" y="-397.99" font-family="Helvetica,sans-Serif" font-size="14.00">tempctxt_rotated</text>
</g>
<!-- op6 -->
<g id="node10" class="node">
<title>op6</title>
<path fill="#e5e7eb" stroke="black" d="M1625,-210.69C1625,-210.69 1278,-210.69 1278,-210.69 1272,-210.69 1266,-204.69 1266,-198.69 1266,-198.69 1266,-109.69 1266,-109.69 1266,-103.69 1272,-97.69 1278,-97.69 1278,-97.69 1625,-97.69 1625,-97.69 1631,-97.69 1637,-103.69 1637,-109.69 1637,-109.69 1637,-198.69 1637,-198.69 1637,-204.69 1631,-210.69 1625,-210.69"/>
<text text-anchor="middle" x="1451.5" y="-195.49" font-family="Helvetica,sans-Serif" font-size="14.00">op6</text>
<text text-anchor="middle" x="1451.5" y="-180.49" font-family="Helvetica,sans-Serif" font-size="14.00">add</text>
<text text-anchor="middle" x="1451.5" y="-165.49" font-family="Helvetica,sans-Serif" font-size="14.00">line 387</text>
<text text-anchor="middle" x="1451.5" y="-150.49" font-family="Helvetica,sans-Serif" font-size="14.00">layer 3</text>
<text text-anchor="middle" x="1451.5" y="-135.49" font-family="Helvetica,sans-Serif" font-size="14.00">cost 1</text>
<text text-anchor="middle" x="1451.5" y="-120.49" font-family="Helvetica,sans-Serif" font-size="14.00">out newtemp[a + temp.size()]@1</text>
<text text-anchor="middle" x="1451.5" y="-105.49" font-family="Helvetica,sans-Serif" font-size="14.00">in tempctxt_shifted@2, tempctxt_rotatedshifted@2</text>
</g>
<!-- op3&#45;&gt;op6 -->
<g id="edge13" class="edge">
<title>op3&#45;&gt;op6</title>
<path fill="none" stroke="#1f2937" d="M604.29,-158.58C665.64,-145.12 748.7,-129.09 823,-122.19 967.75,-108.74 1131.84,-117.97 1255.91,-129.9"/>
<polygon fill="#1f2937" stroke="#1f2937" points="1255.61,-133.39 1265.9,-130.88 1256.29,-126.42 1255.61,-133.39"/>
<text text-anchor="middle" x="947.5" y="-125.99" font-family="Helvetica,sans-Serif" font-size="14.00">tempctxt_shifted</text>
</g>
<!-- op3&#45;&gt;op6 -->
<g id="edge14" class="edge">
<title>op3&#45;&gt;op6</title>
<path fill="none" stroke="#2563eb" d="M604.1,-135.24C618.21,-129.48 632.82,-124.21 647,-120.19 904,-47.35 983.7,-75.42 1248,-114.19 1250.56,-114.56 1253.14,-114.95 1255.73,-115.35"/>
<polygon fill="#2563eb" stroke="#2563eb" points="1255.36,-118.83 1265.78,-116.92 1256.44,-111.91 1255.36,-118.83"/>
<text text-anchor="middle" x="947.5" y="-90.99" font-family="Helvetica,sans-Serif" font-size="14.00">tempctxt_shifted</text>
</g>
<!-- op10 -->
<g id="node12" class="node">
<title>op10</title>
<path fill="#17becf" stroke="black" d="M2035,-586.69C2035,-586.69 1876,-586.69 1876,-586.69 1870,-586.69 1864,-580.69 1864,-574.69 1864,-574.69 1864,-485.69 1864,-485.69 1864,-479.69 1870,-473.69 1876,-473.69 1876,-473.69 2035,-473.69 2035,-473.69 2041,-473.69 2047,-479.69 2047,-485.69 2047,-485.69 2047,-574.69 2047,-574.69 2047,-580.69 2041,-586.69 2035,-586.69"/>
<text text-anchor="middle" x="1955.5" y="-571.49" font-family="Helvetica,sans-Serif" font-size="14.00">op10</text>
<text text-anchor="middle" x="1955.5" y="-556.49" font-family="Helvetica,sans-Serif" font-size="14.00">assign</text>
<text text-anchor="middle" x="1955.5" y="-541.49" font-family="Helvetica,sans-Serif" font-size="14.00">line 439</text>
<text text-anchor="middle" x="1955.5" y="-526.49" font-family="Helvetica,sans-Serif" font-size="14.00">layer 4</text>
<text text-anchor="middle" x="1955.5" y="-511.49" font-family="Helvetica,sans-Serif" font-size="14.00">cost 1</text>
<text text-anchor="middle" x="1955.5" y="-496.49" font-family="Helvetica,sans-Serif" font-size="14.00">out tempctxt_shifted@3</text>
<text text-anchor="middle" x="1955.5" y="-481.49" font-family="Helvetica,sans-Serif" font-size="14.00">in temp[a]@0</text>
</g>
<!-- op3&#45;&gt;op10 -->
<g id="edge24" class="edge">
<title>op3&#45;&gt;op10</title>
<path fill="none" stroke="#f97316" d="M604.37,-192.74C691.21,-204.94 809.49,-222.21 813,-226.19 839.62,-256.36 794.27,-560.02 823,-588.19 1103.24,-862.91 1633.91,-674.2 1854.46,-577.55"/>
<polygon fill="#f97316" stroke="#f97316" points="1856.04,-580.68 1863.77,-573.44 1853.21,-574.27 1856.04,-580.68"/>
<text text-anchor="middle" x="1165" y="-733.99" font-family="Helvetica,sans-Serif" font-size="14.00">tempctxt_shifted</text>
</g>
<!-- op3&#45;&gt;op10 -->
<g id="edge25" class="edge">
<title>op3&#45;&gt;op10</title>
<path fill="none" stroke="#dc2626" d="M604.09,-157.84C671.56,-147.14 760.7,-146.63 813,-201.19 840.62,-229.99 794.39,-532.37 823,-560.19 859.62,-595.8 1583.36,-553.76 1853.75,-536.73"/>
<polygon fill="#dc2626" stroke="#dc2626" points="1854.2,-540.2 1863.95,-536.08 1853.75,-533.22 1854.2,-540.2"/>
<text text-anchor="middle" x="1165" y="-575.99" font-family="Helvetica,sans-Serif" font-size="14.00">tempctxt_shifted</text>
</g>
<!-- op9 -->
<g id="node11" class="node">
<title>op9</title>
<path fill="#e5e7eb" stroke="black" d="M1571,-341.69C1571,-341.69 1332,-341.69 1332,-341.69 1326,-341.69 1320,-335.69 1320,-329.69 1320,-329.69 1320,-240.69 1320,-240.69 1320,-234.69 1326,-228.69 1332,-228.69 1332,-228.69 1571,-228.69 1571,-228.69 1577,-228.69 1583,-234.69 1583,-240.69 1583,-240.69 1583,-329.69 1583,-329.69 1583,-335.69 1577,-341.69 1571,-341.69"/>
<text text-anchor="middle" x="1451.5" y="-326.49" font-family="Helvetica,sans-Serif" font-size="14.00">op9</text>
<text text-anchor="middle" x="1451.5" y="-311.49" font-family="Helvetica,sans-Serif" font-size="14.00">add</text>
<text text-anchor="middle" x="1451.5" y="-296.49" font-family="Helvetica,sans-Serif" font-size="14.00">line 406</text>
<text text-anchor="middle" x="1451.5" y="-281.49" font-family="Helvetica,sans-Serif" font-size="14.00">layer 3</text>
<text text-anchor="middle" x="1451.5" y="-266.49" font-family="Helvetica,sans-Serif" font-size="14.00">cost 1</text>
<text text-anchor="middle" x="1451.5" y="-251.49" font-family="Helvetica,sans-Serif" font-size="14.00">out newtemp[a]@3</text>
<text text-anchor="middle" x="1451.5" y="-236.49" font-family="Helvetica,sans-Serif" font-size="14.00">in temp[a]@0, tempctxt_rotated@2</text>
</g>
<!-- op7&#45;&gt;op9 -->
<g id="edge23" class="edge">
<title>op7&#45;&gt;op9</title>
<path fill="none" stroke="#f97316" d="M1022.57,-329.52C1097.83,-321.72 1216.27,-309.45 1309.48,-299.8"/>
<polygon fill="#f97316" stroke="#f97316" points="1309.98,-303.26 1319.57,-298.75 1309.26,-296.3 1309.98,-303.26"/>
<text text-anchor="middle" x="1165" y="-326.99" font-family="Helvetica,sans-Serif" font-size="14.00">newtemp[a]</text>
</g>
<!-- op5&#45;&gt;op6 -->
<g id="edge15" class="edge">
<title>op5&#45;&gt;op6</title>
<path fill="none" stroke="#1f2937" d="M1064.06,-194.23C1119.67,-188.48 1187.29,-181.48 1248,-175.19 1250.58,-174.92 1253.17,-174.65 1255.78,-174.38"/>
<polygon fill="#1f2937" stroke="#1f2937" points="1256.33,-177.84 1265.92,-173.33 1255.61,-170.88 1256.33,-177.84"/>
<text text-anchor="middle" x="1165" y="-194.99" font-family="Helvetica,sans-Serif" font-size="14.00">tempctxt_rotatedshifted</text>
</g>
<!-- op5&#45;&gt;op6 -->
<g id="edge16" class="edge">
<title>op5&#45;&gt;op6</title>
<path fill="none" stroke="#2563eb" d="M1064.31,-160.07C1070.24,-158.58 1076.16,-157.26 1082,-156.19 1137.8,-145.93 1199.15,-142.53 1255.52,-142.48"/>
<polygon fill="#2563eb" stroke="#2563eb" points="1255.61,-145.98 1265.62,-142.51 1255.63,-138.98 1255.61,-145.98"/>
<text text-anchor="middle" x="1165" y="-159.99" font-family="Helvetica,sans-Serif" font-size="14.00">tempctxt_rotatedshifted</text>
</g>
<!-- op12 -->
<g id="node13" class="node">
<title>op12</title>
<path fill="#17becf" stroke="black" d="M2060,-455.69C2060,-455.69 1851,-455.69 1851,-455.69 1845,-455.69 1839,-449.69 1839,-443.69 1839,-443.69 1839,-354.69 1839,-354.69 1839,-348.69 1845,-342.69 1851,-342.69 1851,-342.69 2060,-342.69 2060,-342.69 2066,-342.69 2072,-348.69 2072,-354.69 2072,-354.69 2072,-443.69 2072,-443.69 2072,-449.69 2066,-455.69 2060,-455.69"/>
<text text-anchor="middle" x="1955.5" y="-440.49" font-family="Helvetica,sans-Serif" font-size="14.00">op12</text>
<text text-anchor="middle" x="1955.5" y="-425.49" font-family="Helvetica,sans-Serif" font-size="14.00">assign</text>
<text text-anchor="middle" x="1955.5" y="-410.49" font-family="Helvetica,sans-Serif" font-size="14.00">line 439</text>
<text text-anchor="middle" x="1955.5" y="-395.49" font-family="Helvetica,sans-Serif" font-size="14.00">layer 4</text>
<text text-anchor="middle" x="1955.5" y="-380.49" font-family="Helvetica,sans-Serif" font-size="14.00">cost 1</text>
<text text-anchor="middle" x="1955.5" y="-365.49" font-family="Helvetica,sans-Serif" font-size="14.00">out tempctxt_rotatedshifted@3</text>
<text text-anchor="middle" x="1955.5" y="-350.49" font-family="Helvetica,sans-Serif" font-size="14.00">in tempctxt_rotated@2</text>
</g>
<!-- op5&#45;&gt;op12 -->
<g id="edge33" class="edge">
<title>op5&#45;&gt;op12</title>
<path fill="none" stroke="#f97316" d="M1063.96,-262.7C1066.83,-265.72 1069.52,-268.88 1072,-272.19 1085.06,-289.63 1066.3,-305.08 1082,-320.19 1135.91,-372.07 1195.77,-294.62 1248,-348.19 1269.94,-370.69 1234.26,-397.6 1258,-418.19 1340.29,-489.56 1651.5,-451.11 1828.82,-422.03"/>
<polygon fill="#f97316" stroke="#f97316" points="1829.43,-425.48 1838.73,-420.39 1828.29,-418.57 1829.43,-425.48"/>
<text text-anchor="middle" x="1451.5" y="-461.99" font-family="Helvetica,sans-Serif" font-size="14.00">tempctxt_rotatedshifted</text>
</g>
<!-- op5&#45;&gt;op12 -->
<g id="edge34" class="edge">
<title>op5&#45;&gt;op12</title>
<path fill="none" stroke="#dc2626" d="M1064.11,-223.38C1127.6,-238.86 1202.48,-268.11 1248,-323.19 1263.55,-342 1239.48,-361.28 1258,-377.19 1279.24,-395.43 1634.1,-398.79 1828.88,-399.26"/>
<polygon fill="#dc2626" stroke="#dc2626" points="1828.89,-402.76 1838.89,-399.28 1828.9,-395.76 1828.89,-402.76"/>
<text text-anchor="middle" x="1451.5" y="-400.99" font-family="Helvetica,sans-Serif" font-size="14.00">tempctxt_rotatedshifted</text>
</g>
<!-- op8&#45;&gt;op9 -->
<g id="edge21" class="edge">
<title>op8&#45;&gt;op9</title>
<path fill="none" stroke="#1f2937" d="M1040.03,-441.1C1054.02,-437.46 1068.34,-434.01 1082,-431.19 1118.47,-423.64 1219.47,-432.13 1248,-408.19 1259.09,-398.88 1248.47,-388.09 1258,-377.19 1272.76,-360.31 1291.31,-346.26 1311.02,-334.66"/>
<polygon fill="#1f2937" stroke="#1f2937" points="1312.86,-337.64 1319.84,-329.67 1309.41,-331.55 1312.86,-337.64"/>
<text text-anchor="middle" x="1165" y="-434.99" font-family="Helvetica,sans-Serif" font-size="14.00">tempctxt_rotated</text>
</g>
<!-- op8&#45;&gt;op9 -->
<g id="edge22" class="edge">
<title>op8&#45;&gt;op9</title>
<path fill="none" stroke="#2563eb" d="M1040.34,-467.15C1122.73,-465.3 1232.96,-460.21 1248,-446.19 1270.67,-425.06 1239.63,-402.15 1258,-377.19 1271.83,-358.39 1290.51,-343.28 1310.82,-331.17"/>
<polygon fill="#2563eb" stroke="#2563eb" points="1312.66,-334.15 1319.61,-326.16 1309.19,-328.07 1312.66,-334.15"/>
<text text-anchor="middle" x="1165" y="-468.99" font-family="Helvetica,sans-Serif" font-size="14.00">tempctxt_rotated</text>
</g>
<!-- op8&#45;&gt;op12 -->
<g id="edge31" class="edge">
<title>op8&#45;&gt;op12</title>
<path fill="none" stroke="#1f2937" d="M1040.06,-481.8C1200.93,-502.65 1543.56,-533.26 1821,-464.19 1826.77,-462.75 1832.58,-461.05 1838.38,-459.13"/>
<polygon fill="#1f2937" stroke="#1f2937" points="1839.84,-462.33 1848.13,-455.73 1837.53,-455.72 1839.84,-462.33"/>
<text text-anchor="middle" x="1451.5" y="-509.99" font-family="Helvetica,sans-Serif" font-size="14.00">tempctxt_rotated</text>
</g>
<!-- op8&#45;&gt;op12 -->
<g id="edge32" class="edge">
<title>op8&#45;&gt;op12</title>
<path fill="none" stroke="#2563eb" d="M1040.01,-428.98C1054.07,-423 1068.41,-416.91 1082,-411.19 1155.63,-380.17 1202.44,-407.82 1248,-342.19 1265.25,-317.34 1236.23,-91.18 1258,-70.19 1381.84,49.18 1484.57,-8.17 1645,-70.19 1771.85,-119.23 1868.88,-252.82 1918.27,-333.89"/>
<polygon fill="#2563eb" stroke="#2563eb" points="1915.32,-335.78 1923.48,-342.54 1921.31,-332.17 1915.32,-335.78"/>
<text text-anchor="middle" x="1451.5" y="-73.99" font-family="Helvetica,sans-Serif" font-size="14.00">tempctxt_rotated</text>
</g>
<!-- op6&#45;&gt;op10 -->
<g id="edge26" class="edge">
<title>op6&#45;&gt;op10</title>
<path fill="none" stroke="#dc2626" d="M1637,-211.06C1639.81,-213.95 1642.49,-216.99 1645,-220.19 1659.9,-239.13 1643.43,-307.05 1655,-328.19 1697.73,-406.24 1785.09,-459.82 1854.48,-492.09"/>
<polygon fill="#dc2626" stroke="#dc2626" points="1853.17,-495.33 1863.72,-496.3 1856.08,-488.96 1853.17,-495.33"/>
<text text-anchor="middle" x="1738" y="-476.99" font-family="Helvetica,sans-Serif" font-size="14.00">tempctxt_shifted</text>
</g>
<!-- op6&#45;&gt;op12 -->
<g id="edge35" class="edge">
<title>op6&#45;&gt;op12</title>
<path fill="none" stroke="#dc2626" d="M1631.34,-210.83C1636.04,-213.8 1640.61,-216.92 1645,-220.19 1651.13,-224.76 1649.14,-229.28 1655,-234.19 1717.63,-286.66 1749.62,-273.43 1821,-313.19 1834.24,-320.56 1847.94,-328.73 1861.31,-337.02"/>
<polygon fill="#dc2626" stroke="#dc2626" points="1859.7,-340.14 1870.03,-342.48 1863.41,-334.21 1859.7,-340.14"/>
<text text-anchor="middle" x="1738" y="-316.99" font-family="Helvetica,sans-Serif" font-size="14.00">tempctxt_rotatedshifted</text>
</g>
<!-- op14 -->
<g id="node16" class="node">
<title>op14</title>
<path fill="#e5e7eb" stroke="black" d="M3085,-476.69C3085,-476.69 2738,-476.69 2738,-476.69 2732,-476.69 2726,-470.69 2726,-464.69 2726,-464.69 2726,-375.69 2726,-375.69 2726,-369.69 2732,-363.69 2738,-363.69 2738,-363.69 3085,-363.69 3085,-363.69 3091,-363.69 3097,-369.69 3097,-375.69 3097,-375.69 3097,-464.69 3097,-464.69 3097,-470.69 3091,-476.69 3085,-476.69"/>
<text text-anchor="middle" x="2911.5" y="-461.49" font-family="Helvetica,sans-Serif" font-size="14.00">op14</text>
<text text-anchor="middle" x="2911.5" y="-446.49" font-family="Helvetica,sans-Serif" font-size="14.00">add</text>
<text text-anchor="middle" x="2911.5" y="-431.49" font-family="Helvetica,sans-Serif" font-size="14.00">line 409</text>
<text text-anchor="middle" x="2911.5" y="-416.49" font-family="Helvetica,sans-Serif" font-size="14.00">layer 6</text>
<text text-anchor="middle" x="2911.5" y="-401.49" font-family="Helvetica,sans-Serif" font-size="14.00">cost 1</text>
<text text-anchor="middle" x="2911.5" y="-386.49" font-family="Helvetica,sans-Serif" font-size="14.00">out newtemp[a + temp.size()]@2</text>
<text text-anchor="middle" x="2911.5" y="-371.49" font-family="Helvetica,sans-Serif" font-size="14.00">in tempctxt_shifted@4, tempctxt_rotatedshifted@4</text>
</g>
<!-- op6&#45;&gt;op14 -->
<g id="edge44" class="edge">
<title>op6&#45;&gt;op14</title>
<path fill="none" stroke="#f97316" d="M1637.16,-174.02C1853.15,-198.92 2220.8,-246.57 2532,-313.19 2593.36,-326.32 2659.43,-343.81 2718.93,-360.84"/>
<polygon fill="#f97316" stroke="#f97316" points="2718.22,-364.28 2728.8,-363.68 2720.16,-357.55 2718.22,-364.28"/>
<text text-anchor="middle" x="2181.5" y="-266.99" font-family="Helvetica,sans-Serif" font-size="14.00">newtemp[a + temp.size()]</text>
</g>
<!-- op11 -->
<g id="node14" class="node">
<title>op11</title>
<path fill="#e5e7eb" stroke="black" d="M2487,-569.69C2487,-569.69 2328,-569.69 2328,-569.69 2322,-569.69 2316,-563.69 2316,-557.69 2316,-557.69 2316,-468.69 2316,-468.69 2316,-462.69 2322,-456.69 2328,-456.69 2328,-456.69 2487,-456.69 2487,-456.69 2493,-456.69 2499,-462.69 2499,-468.69 2499,-468.69 2499,-557.69 2499,-557.69 2499,-563.69 2493,-569.69 2487,-569.69"/>
<text text-anchor="middle" x="2407.5" y="-554.49" font-family="Helvetica,sans-Serif" font-size="14.00">op11</text>
<text text-anchor="middle" x="2407.5" y="-539.49" font-family="Helvetica,sans-Serif" font-size="14.00">ntt_fwd</text>
<text text-anchor="middle" x="2407.5" y="-524.49" font-family="Helvetica,sans-Serif" font-size="14.00">line 460</text>
<text text-anchor="middle" x="2407.5" y="-509.49" font-family="Helvetica,sans-Serif" font-size="14.00">layer 5</text>
<text text-anchor="middle" x="2407.5" y="-494.49" font-family="Helvetica,sans-Serif" font-size="14.00">cost 3</text>
<text text-anchor="middle" x="2407.5" y="-479.49" font-family="Helvetica,sans-Serif" font-size="14.00">out tempctxt_shifted@4</text>
<text text-anchor="middle" x="2407.5" y="-464.49" font-family="Helvetica,sans-Serif" font-size="14.00">in tempctxt_shifted@3</text>
</g>
<!-- op10&#45;&gt;op11 -->
<g id="edge27" class="edge">
<title>op10&#45;&gt;op11</title>
<path fill="none" stroke="#1f2937" d="M2047.31,-532.69C2110.63,-533.76 2197.04,-533.84 2273,-529.19 2283.61,-528.54 2294.68,-527.61 2305.7,-526.53"/>
<polygon fill="#1f2937" stroke="#1f2937" points="2306.2,-530 2315.79,-525.49 2305.48,-523.03 2306.2,-530"/>
<text text-anchor="middle" x="2181.5" y="-536.99" font-family="Helvetica,sans-Serif" font-size="14.00">tempctxt_shifted</text>
</g>
<!-- op10&#45;&gt;op11 -->
<g id="edge28" class="edge">
<title>op10&#45;&gt;op11</title>
<path fill="none" stroke="#2563eb" d="M2047.14,-514.76C2061.44,-512.86 2076.09,-511.22 2090,-510.19 2162.02,-504.82 2243.52,-505.76 2305.77,-507.94"/>
<polygon fill="#2563eb" stroke="#2563eb" points="2305.87,-511.44 2315.99,-508.31 2306.12,-504.45 2305.87,-511.44"/>
<text text-anchor="middle" x="2181.5" y="-513.99" font-family="Helvetica,sans-Serif" font-size="14.00">tempctxt_shifted</text>
</g>
<!-- op10&#45;&gt;op11 -->
<g id="edge29" class="edge">
<title>op10&#45;&gt;op11</title>
<path fill="none" stroke="#f97316" d="M2047.15,-496.84C2061.32,-492.84 2075.93,-489.4 2090,-487.19 2170.35,-474.57 2192.04,-479.38 2273,-487.19 2283.62,-488.21 2294.64,-489.68 2305.61,-491.42"/>
<polygon fill="#f97316" stroke="#f97316" points="2305.2,-494.9 2315.64,-493.07 2306.34,-487.99 2305.2,-494.9"/>
<text text-anchor="middle" x="2181.5" y="-490.99" font-family="Helvetica,sans-Serif" font-size="14.00">tempctxt_shifted</text>
</g>
<!-- op10&#45;&gt;op11 -->
<g id="edge30" class="edge">
<title>op10&#45;&gt;op11</title>
<path fill="none" stroke="#0f766e" d="M2047.1,-547.16C2061.4,-549.25 2076.07,-551.05 2090,-552.19 2171.06,-558.82 2192.49,-563.71 2273,-552.19 2283.71,-550.66 2294.75,-548.47 2305.69,-545.9"/>
<polygon fill="#0f766e" stroke="#0f766e" points="2306.82,-549.22 2315.7,-543.44 2305.15,-542.43 2306.82,-549.22"/>
<text text-anchor="middle" x="2181.5" y="-561.99" font-family="Helvetica,sans-Serif" font-size="14.00">expand_query@12092</text>
</g>
<!-- op13 -->
<g id="node15" class="node">
<title>op13</title>
<path fill="#e5e7eb" stroke="black" d="M2512,-438.69C2512,-438.69 2303,-438.69 2303,-438.69 2297,-438.69 2291,-432.69 2291,-426.69 2291,-426.69 2291,-337.69 2291,-337.69 2291,-331.69 2297,-325.69 2303,-325.69 2303,-325.69 2512,-325.69 2512,-325.69 2518,-325.69 2524,-331.69 2524,-337.69 2524,-337.69 2524,-426.69 2524,-426.69 2524,-432.69 2518,-438.69 2512,-438.69"/>
<text text-anchor="middle" x="2407.5" y="-423.49" font-family="Helvetica,sans-Serif" font-size="14.00">op13</text>
<text text-anchor="middle" x="2407.5" y="-408.49" font-family="Helvetica,sans-Serif" font-size="14.00">ntt_fwd</text>
<text text-anchor="middle" x="2407.5" y="-393.49" font-family="Helvetica,sans-Serif" font-size="14.00">line 460</text>
<text text-anchor="middle" x="2407.5" y="-378.49" font-family="Helvetica,sans-Serif" font-size="14.00">layer 5</text>
<text text-anchor="middle" x="2407.5" y="-363.49" font-family="Helvetica,sans-Serif" font-size="14.00">cost 3</text>
<text text-anchor="middle" x="2407.5" y="-348.49" font-family="Helvetica,sans-Serif" font-size="14.00">out tempctxt_rotatedshifted@4</text>
<text text-anchor="middle" x="2407.5" y="-333.49" font-family="Helvetica,sans-Serif" font-size="14.00">in tempctxt_rotatedshifted@3</text>
</g>
<!-- op12&#45;&gt;op13 -->
<g id="edge36" class="edge">
<title>op12&#45;&gt;op13</title>
<path fill="none" stroke="#1f2937" d="M2042.46,-342.63C2057.74,-335.02 2073.93,-328.39 2090,-324.19 2168.68,-303.6 2193.37,-307.64 2273,-324.19 2275.69,-324.75 2278.39,-325.36 2281.1,-326.03"/>
<polygon fill="#1f2937" stroke="#1f2937" points="2280.37,-329.46 2290.93,-328.66 2282.18,-322.7 2280.37,-329.46"/>
<text text-anchor="middle" x="2181.5" y="-327.99" font-family="Helvetica,sans-Serif" font-size="14.00">tempctxt_rotatedshifted</text>
</g>
<!-- op12&#45;&gt;op13 -->
<g id="edge37" class="edge">
<title>op12&#45;&gt;op13</title>
<path fill="none" stroke="#2563eb" d="M2072.21,-414.52C2132.29,-420.09 2206.78,-423.25 2273,-415.19 2275.54,-414.88 2278.1,-414.54 2280.68,-414.17"/>
<polygon fill="#2563eb" stroke="#2563eb" points="2281.34,-417.61 2290.68,-412.6 2280.26,-410.69 2281.34,-417.61"/>
<text text-anchor="middle" x="2181.5" y="-422.99" font-family="Helvetica,sans-Serif" font-size="14.00">tempctxt_rotatedshifted</text>
</g>
<!-- op12&#45;&gt;op13 -->
<g id="edge38" class="edge">
<title>op12&#45;&gt;op13</title>
<path fill="none" stroke="#f97316" d="M2072.09,-394.82C2135.87,-392.41 2215.14,-389.42 2280.5,-386.95"/>
<polygon fill="#f97316" stroke="#f97316" points="2281,-390.43 2290.86,-386.56 2280.74,-383.44 2281,-390.43"/>
<text text-anchor="middle" x="2181.5" y="-396.99" font-family="Helvetica,sans-Serif" font-size="14.00">tempctxt_rotatedshifted</text>
</g>
<!-- op12&#45;&gt;op13 -->
<g id="edge39" class="edge">
<title>op12&#45;&gt;op13</title>
<path fill="none" stroke="#0f766e" d="M2072.36,-370.61C2078.3,-369.67 2084.21,-368.85 2090,-368.19 2152.63,-361.01 2222.63,-363.07 2280.83,-367.53"/>
<polygon fill="#0f766e" stroke="#0f766e" points="2280.57,-371.02 2290.81,-368.32 2281.13,-364.04 2280.57,-371.02"/>
<text text-anchor="middle" x="2181.5" y="-371.99" font-family="Helvetica,sans-Serif" font-size="14.00">expand_query@12163</text>
</g>
<!-- op11&#45;&gt;op14 -->
<g id="edge40" class="edge">
<title>op11&#45;&gt;op14</title>
<path fill="none" stroke="#1f2937" d="M2499.15,-482.44C2513.38,-478.26 2528.01,-474.33 2542,-471.19 2597.88,-458.62 2659.26,-448.65 2715.63,-440.97"/>
<polygon fill="#1f2937" stroke="#1f2937" points="2716.28,-444.41 2725.72,-439.61 2715.35,-437.47 2716.28,-444.41"/>
<text text-anchor="middle" x="2625" y="-474.99" font-family="Helvetica,sans-Serif" font-size="14.00">tempctxt_shifted</text>
</g>
<!-- op11&#45;&gt;op14 -->
<g id="edge41" class="edge">
<title>op11&#45;&gt;op14</title>
<path fill="none" stroke="#2563eb" d="M2499.04,-510.33C2558.86,-507.15 2638.7,-500.41 2708,-486.19 2717.88,-484.16 2727.96,-481.81 2738.07,-479.24"/>
<polygon fill="#2563eb" stroke="#2563eb" points="2738.99,-482.62 2747.78,-476.71 2737.22,-475.85 2738.99,-482.62"/>
<text text-anchor="middle" x="2625" y="-510.99" font-family="Helvetica,sans-Serif" font-size="14.00">tempctxt_shifted</text>
</g>
<!-- op13&#45;&gt;op14 -->
<g id="edge42" class="edge">
<title>op13&#45;&gt;op14</title>
<path fill="none" stroke="#1f2937" d="M2524.23,-396.49C2530.24,-397.09 2536.19,-397.67 2542,-398.19 2598.3,-403.24 2659.55,-407.42 2715.66,-410.73"/>
<polygon fill="#1f2937" stroke="#1f2937" points="2715.52,-414.23 2725.71,-411.32 2715.93,-407.24 2715.52,-414.23"/>
<text text-anchor="middle" x="2625" y="-412.99" font-family="Helvetica,sans-Serif" font-size="14.00">tempctxt_rotatedshifted</text>
</g>
<!-- op13&#45;&gt;op14 -->
<g id="edge43" class="edge">
<title>op13&#45;&gt;op14</title>
<path fill="none" stroke="#2563eb" d="M2524.27,-379.43C2530.27,-379.33 2536.2,-379.25 2542,-379.19 2615.77,-378.36 2634.59,-371.83 2708,-379.19 2710.58,-379.45 2713.17,-379.72 2715.77,-380.02"/>
<polygon fill="#2563eb" stroke="#2563eb" points="2715.53,-383.51 2725.88,-381.23 2716.37,-376.56 2715.53,-383.51"/>
<text text-anchor="middle" x="2625" y="-382.99" font-family="Helvetica,sans-Serif" font-size="14.00">tempctxt_rotatedshifted</text>
</g>
</g>
</svg>
