<?xml version="1.0" encoding="UTF-8" standalone="no"?>
<!DOCTYPE svg PUBLIC "-//W3C//DTD SVG 1.1//EN"
 "http://www.w3.org/Graphics/SVG/1.1/DTD/svg11.dtd">
<!-- Generated by graphviz version 2.43.0 (0)
 -->
<!-- Title: hedag_v2 Pages: 1 -->
<svg width="180pt" height="278pt"
 viewBox="0.00 0.00 180.00 278.00" xmlns="http://www.w3.org/2000/svg" xmlns:xlink="http://www.w3.org/1999/xlink">
<g id="graph0" class="graph" transform="scale(1 1) rotate(0) translate(4 274)">
<title>hedag_v2</title>
<polygon fill="white" stroke="transparent" points="-4,4 -4,-274 176,-274 176,4 -4,4"/>
<g id="clust1" class="cluster">
<title>cluster_layer_0</title>
<polygon fill="none" stroke="#d1d5db" points="8,-8 8,-262 164,-262 164,-8 8,-8"/>
<text text-anchor="middle" x="86" y="-246.8" font-family="Times,serif" font-size="14.00">layer 0</text>
</g>
<!-- op0 -->
<g id="node1" class="node">
<title>op0</title>
<path fill="#e5e7eb" stroke="black" d="M110.5,-230.5C110.5,-230.5 61.5,-230.5 61.5,-230.5 55.5,-230.5 49.5,-224.5 49.5,-218.5 49.5,-218.5 49.5,-159.5 49.5,-159.5 49.5,-153.5 55.5,-147.5 61.5,-147.5 61.5,-147.5 110.5,-147.5 110.5,-147.5 116.5,-147.5 122.5,-153.5 122.5,-159.5 122.5,-159.5 122.5,-218.5 122.5,-218.5 122.5,-224.5 116.5,-230.5 110.5,-230.5"/>
<text text-anchor="middle" x="86" y="-215.3" font-family="Helvetica,sans-Serif" font-size="14.00">op0</text>
<text text-anchor="middle" x="86" y="-200.3" font-family="Helvetica,sans-Serif" font-size="14.00">read</text>
<text text-anchor="middle" x="86" y="-185.3" font-family="Helvetica,sans-Serif" font-size="14.00">line 116</text>
<text text-anchor="middle" x="86" y="-170.3" font-family="Helvetica,sans-Serif" font-size="14.00">layer 0</text>
<text text-anchor="middle" x="86" y="-155.3" font-family="Helvetica,sans-Serif" font-size="14.00">cost 1</text>
</g>
<!-- op1 -->
<g id="node2" class="node">
<title>op1</title>
<path fill="#64748b" stroke="black" d="M144,-129.5C144,-129.5 28,-129.5 28,-129.5 22,-129.5 16,-123.5 16,-117.5 16,-117.5 16,-28.5 16,-28.5 16,-22.5 22,-16.5 28,-16.5 28,-16.5 144,-16.5 144,-16.5 150,-16.5 156,-22.5 156,-28.5 156,-28.5 156,-117.5 156,-117.5 156,-123.5 150,-129.5 144,-129.5"/>
<text text-anchor="middle" x="86" y="-114.3" font-family="Helvetica,sans-Serif" font-size="14.00">op1</text>
<text text-anchor="middle" x="86" y="-99.3" font-family="Helvetica,sans-Serif" font-size="14.00">return</text>
<text text-anchor="middle" x="86" y="-84.3" font-family="Helvetica,sans-Serif" font-size="14.00">line 117</text>
<text text-anchor="middle" x="86" y="-69.3" font-family="Helvetica,sans-Serif" font-size="14.00">layer 0</text>
<text text-anchor="middle" x="86" y="-54.3" font-family="Helvetica,sans-Serif" font-size="14.00">cost 1</text>
<text text-anchor="middle" x="86" y="-39.3" font-family="Helvetica,sans-Serif" font-size="14.00">out __return__@1</text>
<text text-anchor="middle" x="86" y="-24.3" font-family="Helvetica,sans-Serif" font-size="14.00">in param_data@0</text>
</g>
</g>
</svg>
