<?xml version="1.0" encoding="UTF-8" standalone="no"?>
<!DOCTYPE svg PUBLIC "-//W3C//DTD SVG 1.1//EN"
 "http://www.w3.org/Graphics/SVG/1.1/DTD/svg11.dtd">
<!-- Generated by graphviz version 2.43.0 (0)
 -->
<!-- Title: hedag_v2 Pages: 1 -->
<svg width="358pt" height="177pt"
 viewBox="0.00 0.00 358.00 177.00" xmlns="http://www.w3.org/2000/svg" xmlns:xlink="http://www.w3.org/1999/xlink">
<g id="graph0" class="graph" transform="scale(1 1) rotate(0) translate(4 173)">
<title>hedag_v2</title>
<polygon fill="white" stroke="transparent" points="-4,4 -4,-173 354,-173 354,4 -4,4"/>
<g id="clust1" class="cluster">
<title>cluster_layer_0</title>
<polygon fill="none" stroke="#d1d5db" points="8,-14 8,-151 130,-151 130,-14 8,-14"/>
<text text-anchor="middle" x="69" y="-135.8" font-family="Times,serif" font-size="14.00">layer 0</text>
</g>
<g id="clust2" class="cluster">
<title>cluster_layer_1</title>
<polygon fill="none" stroke="#d1d5db" points="190,-8 190,-161 342,-161 342,-8 190,-8"/>
<text text-anchor="middle" x="266" y="-145.8" font-family="Times,serif" font-size="14.00">layer 1</text>
</g>
<!-- op0 -->
<g id="node1" class="node">
<title>op0</title>
<path fill="#e5e7eb" stroke="black" d="M110,-120C110,-120 28,-120 28,-120 22,-120 16,-114 16,-108 16,-108 16,-34 16,-34 16,-28 22,-22 28,-22 28,-22 110,-22 110,-22 116,-22 122,-28 122,-34 122,-34 122,-108 122,-108 122,-114 116,-120 110,-120"/>
<text text-anchor="middle" x="69" y="-104.8" font-family="Helvetica,sans-Serif" font-size="14.00">op0</text>
<text text-anchor="middle" x="69" y="-89.8" font-family="Helvetica,sans-Serif" font-size="14.00">encode</text>
<text text-anchor="middle" x="69" y="-74.8" font-family="Helvetica,sans-Serif" font-size="14.00">line 137</text>
<text text-anchor="middle" x="69" y="-59.8" font-family="Helvetica,sans-Serif" font-size="14.00">layer 0</text>
<text text-anchor="middle" x="69" y="-44.8" font-family="Helvetica,sans-Serif" font-size="14.00">cost 1</text>
<text text-anchor="middle" x="69" y="-29.8" font-family="Helvetica,sans-Serif" font-size="14.00">out result@1</text>
</g>
<!-- op1 -->
<g id="node2" class="node">
<title>op1</title>
<path fill="#64748b" stroke="black" d="M322,-129.5C322,-129.5 210,-129.5 210,-129.5 204,-129.5 198,-123.5 198,-117.5 198,-117.5 198,-28.5 198,-28.5 198,-22.5 204,-16.5 210,-16.5 210,-16.5 322,-16.5 322,-16.5 328,-16.5 334,-22.5 334,-28.5 334,-28.5 334,-117.5 334,-117.5 334,-123.5 328,-129.5 322,-129.5"/>
<text text-anchor="middle" x="266" y="-114.3" font-family="Helvetica,sans-Serif" font-size="14.00">op1</text>
<text text-anchor="middle" x="266" y="-99.3" font-family="Helvetica,sans-Serif" font-size="14.00">return</text>
<text text-anchor="middle" x="266" y="-84.3" font-family="Helvetica,sans-Serif" font-size="14.00">line 138</text>
<text text-anchor="middle" x="266" y="-69.3" font-family="Helvetica,sans-Serif" font-size="14.00">layer 1</text>
<text text-anchor="middle" x="266" y="-54.3" font-family="Helvetica,sans-Serif" font-size="14.00">cost 1</text>
<text text-anchor="middle" x="266" y="-39.3" font-family="Helvetica,sans-Serif" font-size="14.00">out __return__@1</text>
<text text-anchor="middle" x="266" y="-24.3" font-family="Helvetica,sans-Serif" font-size="14.00">in result@1</text>
</g>
<!-- op0&#45;&gt;op1 -->
<g id="edge1" class="edge">
<title>op0&#45;&gt;op1</title>
<path fill="none" stroke="#1f2937" d="M122,-71.53C142.16,-71.74 165.65,-71.98 187.71,-72.21"/>
<polygon fill="#1f2937" stroke="#1f2937" points="187.69,-75.71 197.72,-72.31 187.76,-68.71 187.69,-75.71"/>
<text text-anchor="middle" x="160" y="-75.8" font-family="Helvetica,sans-Serif" font-size="14.00">result</text>
</g>
<!-- op0&#45;&gt;op1 -->
<g id="edge2" class="edge">
<title>op0&#45;&gt;op1</title>
<path fill="none" stroke="#2563eb" d="M122.06,-55.25C128.06,-53.92 134.13,-52.78 140,-52 155.48,-49.94 171.98,-50.63 187.75,-52.71"/>
<polygon fill="#2563eb" stroke="#2563eb" points="187.57,-56.23 197.98,-54.26 188.62,-49.3 187.57,-56.23"/>
<text text-anchor="middle" x="160" y="-55.8" font-family="Helvetica,sans-Serif" font-size="14.00">result</text>
</g>
</g>
</svg>
