<?xml version="1.0" encoding="UTF-8" standalone="no"?>
<!DOCTYPE svg PUBLIC "-//W3C//DTD SVG 1.1//EN"
 "http://www.w3.org/Graphics/SVG/1.1/DTD/svg11.dtd">
<!-- Generated by graphviz version 2.43.0 (0)
 -->
<!-- Title: hedag_v2 Pages: 1 -->
<svg width="113pt" height="147pt"
 viewBox="0.00 0.00 113.00 147.00" xmlns="http://www.w3.org/2000/svg" xmlns:xlink="http://www.w3.org/1999/xlink">
<g id="graph0" class="graph" transform="scale(1 1) rotate(0) translate(4 143)">
<title>hedag_v2</title>
<polygon fill="white" stroke="transparent" points="-4,4 -4,-143 109,-143 109,4 -4,4"/>
<g id="clust1" class="cluster">
<title>cluster_layer_0</title>
<polygon fill="none" stroke="#d1d5db" points="8,-8 8,-131 97,-131 97,-8 8,-8"/>
<text text-anchor="middle" x="52.5" y="-115.8" font-family="Times,serif" font-size="14.00">layer 0</text>
</g>
<!-- op0 -->
<g id="node1" class="node">
<title>op0</title>
<path fill="#e5e7eb" stroke="black" d="M77,-99.5C77,-99.5 28,-99.5 28,-99.5 22,-99.5 16,-93.5 16,-87.5 16,-87.5 16,-28.5 16,-28.5 16,-22.5 22,-16.5 28,-16.5 28,-16.5 77,-16.5 77,-16.5 83,-16.5 89,-22.5 89,-28.5 89,-28.5 89,-87.5 89,-87.5 89,-93.5 83,-99.5 77,-99.5"/>
<text text-anchor="middle" x="52.5" y="-84.3" font-family="Helvetica,sans-Serif" font-size="14.00">op0</text>
<text text-anchor="middle" x="52.5" y="-69.3" font-family="Helvetica,sans-Serif" font-size="14.00">read</text>
<text text-anchor="middle" x="52.5" y="-54.3" font-family="Helvetica,sans-Serif" font-size="14.00">line 167</text>
<text text-anchor="middle" x="52.5" y="-39.3" font-family="Helvetica,sans-Serif" font-size="14.00">layer 0</text>
<text text-anchor="middle" x="52.5" y="-24.3" font-family="Helvetica,sans-Serif" font-size="14.00">cost 1</text>
</g>
</g>
</svg>
