<?xml version="1.0" encoding="UTF-8" standalone="no"?>
<!DOCTYPE svg PUBLIC "-//W3C//DTD SVG 1.1//EN"
 "http://www.w3.org/Graphics/SVG/1.1/DTD/svg11.dtd">
<!-- Generated by graphviz version 2.43.0 (0)
 -->
<!-- Title: hedag_v2 Pages: 1 -->
<svg width="1024pt" height="314pt"
 viewBox="0.00 0.00 1024.00 314.00" xmlns="http://www.w3.org/2000/svg" xmlns:xlink="http://www.w3.org/1999/xlink">
<g id="graph0" class="graph" transform="scale(1 1) rotate(0) translate(4 310)">
<title>hedag_v2</title>
<polygon fill="white" stroke="transparent" points="-4,4 -4,-310 1020,-310 1020,4 -4,4"/>
<g id="clust1" class="cluster">
<title>cluster_layer_0</title>
<polygon fill="none" stroke="#d1d5db" points="8,-11 8,-295 195,-295 195,-11 8,-11"/>
<text text-anchor="middle" x="101.5" y="-279.8" font-family="Times,serif" font-size="14.00">layer 0</text>
</g>
<g id="clust2" class="cluster">
<title>cluster_layer_1</title>
<polygon fill="none" stroke="#d1d5db" points="247,-8 247,-292 415,-292 415,-8 247,-8"/>
<text text-anchor="middle" x="331" y="-276.8" font-family="Times,serif" font-size="14.00">layer 1</text>
</g>
<g id="clust3" class="cluster">
<title>cluster_layer_2</title>
<polygon fill="none" stroke="#d1d5db" points="461,-145 461,-298 572,-298 572,-145 461,-145"/>
<text text-anchor="middle" x="516.5" y="-282.8" font-family="Times,serif" font-size="14.00">layer 2</text>
</g>
<g id="clust4" class="cluster">
<title>cluster_layer_3</title>
<polygon fill="none" stroke="#d1d5db" points="620,-76 620,-229 779,-229 779,-76 620,-76"/>
<text text-anchor="middle" x="699.5" y="-213.8" font-family="Times,serif" font-size="14.00">layer 3</text>
</g>
<g id="clust5" class="cluster">
<title>cluster_layer_4</title>
<polygon fill="none" stroke="#d1d5db" points="830,-76 830,-229 1008,-229 1008,-76 830,-76"/>
<text text-anchor="middle" x="919" y="-213.8" font-family="Times,serif" font-size="14.00">layer 4</text>
</g>
<!-- op0 -->
<g id="node1" class="node">
<title>op0</title>
<path fill="#e5e7eb" stroke="black" d="M175,-263.5C175,-263.5 28,-263.5 28,-263.5 22,-263.5 16,-257.5 16,-251.5 16,-251.5 16,-162.5 16,-162.5 16,-156.5 22,-150.5 28,-150.5 28,-150.5 175,-150.5 175,-150.5 181,-150.5 187,-156.5 187,-162.5 187,-162.5 187,-251.5 187,-251.5 187,-257.5 181,-263.5 175,-263.5"/>
<text text-anchor="middle" x="101.5" y="-248.3" font-family="Helvetica,sans-Serif" font-size="14.00">op0</text>
<text text-anchor="middle" x="101.5" y="-233.3" font-family="Helvetica,sans-Serif" font-size="14.00">sub</text>
<text text-anchor="middle" x="101.5" y="-218.3" font-family="Helvetica,sans-Serif" font-size="14.00">line 13</text>
<text text-anchor="middle" x="101.5" y="-203.3" font-family="Helvetica,sans-Serif" font-size="14.00">layer 0</text>
<text text-anchor="middle" x="101.5" y="-188.3" font-family="Helvetica,sans-Serif" font-size="14.00">cost 1</text>
<text text-anchor="middle" x="101.5" y="-173.3" font-family="Helvetica,sans-Serif" font-size="14.00">out diff0@1</text>
<text text-anchor="middle" x="101.5" y="-158.3" font-family="Helvetica,sans-Serif" font-size="14.00">in query@0, train0@0</text>
</g>
<!-- op2 -->
<g id="node3" class="node">
<title>op2</title>
<path fill="#e5e7eb" stroke="black" d="M395,-260.5C395,-260.5 267,-260.5 267,-260.5 261,-260.5 255,-254.5 255,-248.5 255,-248.5 255,-159.5 255,-159.5 255,-153.5 261,-147.5 267,-147.5 267,-147.5 395,-147.5 395,-147.5 401,-147.5 407,-153.5 407,-159.5 407,-159.5 407,-248.5 407,-248.5 407,-254.5 401,-260.5 395,-260.5"/>
<text text-anchor="middle" x="331" y="-245.3" font-family="Helvetica,sans-Serif" font-size="14.00">op2</text>
<text text-anchor="middle" x="331" y="-230.3" font-family="Helvetica,sans-Serif" font-size="14.00">multiply</text>
<text text-anchor="middle" x="331" y="-215.3" font-family="Helvetica,sans-Serif" font-size="14.00">line 15</text>
<text text-anchor="middle" x="331" y="-200.3" font-family="Helvetica,sans-Serif" font-size="14.00">layer 1</text>
<text text-anchor="middle" x="331" y="-185.3" font-family="Helvetica,sans-Serif" font-size="14.00">cost 5</text>
<text text-anchor="middle" x="331" y="-170.3" font-family="Helvetica,sans-Serif" font-size="14.00">out sq0@1</text>
<text text-anchor="middle" x="331" y="-155.3" font-family="Helvetica,sans-Serif" font-size="14.00">in diff0@1, diff0@1</text>
</g>
<!-- op0&#45;&gt;op2 -->
<g id="edge1" class="edge">
<title>op0&#45;&gt;op2</title>
<path fill="none" stroke="#1f2937" d="M187.21,-205.88C206.06,-205.63 226.05,-205.37 244.91,-205.12"/>
<polygon fill="#1f2937" stroke="#1f2937" points="245,-208.62 254.96,-204.99 244.91,-201.62 245,-208.62"/>
<text text-anchor="middle" x="221" y="-208.8" font-family="Helvetica,sans-Serif" font-size="14.00">diff0</text>
</g>
<!-- op0&#45;&gt;op2 -->
<g id="edge2" class="edge">
<title>op0&#45;&gt;op2</title>
<path fill="none" stroke="#2563eb" d="M187.33,-187.22C203.76,-185.24 220.88,-184.45 237,-186 239.54,-186.24 242.12,-186.52 244.72,-186.84"/>
<polygon fill="#2563eb" stroke="#2563eb" points="244.43,-190.33 254.8,-188.18 245.35,-183.39 244.43,-190.33"/>
<text text-anchor="middle" x="221" y="-189.8" font-family="Helvetica,sans-Serif" font-size="14.00">diff0</text>
</g>
<!-- op1 -->
<g id="node2" class="node">
<title>op1</title>
<path fill="#e5e7eb" stroke="black" d="M175,-132.5C175,-132.5 28,-132.5 28,-132.5 22,-132.5 16,-126.5 16,-120.5 16,-120.5 16,-31.5 16,-31.5 16,-25.5 22,-19.5 28,-19.5 28,-19.5 175,-19.5 175,-19.5 181,-19.5 187,-25.5 187,-31.5 187,-31.5 187,-120.5 187,-120.5 187,-126.5 181,-132.5 175,-132.5"/>
<text text-anchor="middle" x="101.5" y="-117.3" font-family="Helvetica,sans-Serif" font-size="14.00">op1</text>
<text text-anchor="middle" x="101.5" y="-102.3" font-family="Helvetica,sans-Serif" font-size="14.00">sub</text>
<text text-anchor="middle" x="101.5" y="-87.3" font-family="Helvetica,sans-Serif" font-size="14.00">line 14</text>
<text text-anchor="middle" x="101.5" y="-72.3" font-family="Helvetica,sans-Serif" font-size="14.00">layer 0</text>
<text text-anchor="middle" x="101.5" y="-57.3" font-family="Helvetica,sans-Serif" font-size="14.00">cost 1</text>
<text text-anchor="middle" x="101.5" y="-42.3" font-family="Helvetica,sans-Serif" font-size="14.00">out diff1@1</text>
<text text-anchor="middle" x="101.5" y="-27.3" font-family="Helvetica,sans-Serif" font-size="14.00">in query@0, train1@0</text>
</g>
<!-- op3 -->
<g id="node4" class="node">
<title>op3</title>
<path fill="#e5e7eb" stroke="black" d="M395,-129.5C395,-129.5 267,-129.5 267,-129.5 261,-129.5 255,-123.5 255,-117.5 255,-117.5 255,-28.5 255,-28.5 255,-22.5 261,-16.5 267,-16.5 267,-16.5 395,-16.5 395,-16.5 401,-16.5 407,-22.5 407,-28.5 407,-28.5 407,-117.5 407,-117.5 407,-123.5 401,-129.5 395,-129.5"/>
<text text-anchor="middle" x="331" y="-114.3" font-family="Helvetica,sans-Serif" font-size="14.00">op3</text>
<text text-anchor="middle" x="331" y="-99.3" font-family="Helvetica,sans-Serif" font-size="14.00">multiply</text>
<text text-anchor="middle" x="331" y="-84.3" font-family="Helvetica,sans-Serif" font-size="14.00">line 16</text>
<text text-anchor="middle" x="331" y="-69.3" font-family="Helvetica,sans-Serif" font-size="14.00">layer 1</text>
<text text-anchor="middle" x="331" y="-54.3" font-family="Helvetica,sans-Serif" font-size="14.00">cost 5</text>
<text text-anchor="middle" x="331" y="-39.3" font-family="Helvetica,sans-Serif" font-size="14.00">out sq1@1</text>
<text text-anchor="middle" x="331" y="-24.3" font-family="Helvetica,sans-Serif" font-size="14.00">in diff1@1, diff1@1</text>
</g>
<!-- op1&#45;&gt;op3 -->
<g id="edge3" class="edge">
<title>op1&#45;&gt;op3</title>
<path fill="none" stroke="#1f2937" d="M187.21,-74.88C206.06,-74.63 226.05,-74.37 244.91,-74.12"/>
<polygon fill="#1f2937" stroke="#1f2937" points="245,-77.62 254.96,-73.99 244.91,-70.62 245,-77.62"/>
<text text-anchor="middle" x="221" y="-78.8" font-family="Helvetica,sans-Serif" font-size="14.00">diff1</text>
</g>
<!-- op1&#45;&gt;op3 -->
<g id="edge4" class="edge">
<title>op1&#45;&gt;op3</title>
<path fill="none" stroke="#2563eb" d="M187.35,-57.18C203.78,-55.29 220.89,-54.54 237,-56 239.54,-56.23 242.11,-56.49 244.71,-56.79"/>
<polygon fill="#2563eb" stroke="#2563eb" points="244.43,-60.28 254.78,-58.06 245.3,-53.34 244.43,-60.28"/>
<text text-anchor="middle" x="221" y="-59.8" font-family="Helvetica,sans-Serif" font-size="14.00">diff1</text>
</g>
<!-- op4 -->
<g id="node5" class="node">
<title>op4</title>
<path fill="#9467bd" stroke="black" d="M552,-266.5C552,-266.5 481,-266.5 481,-266.5 475,-266.5 469,-260.5 469,-254.5 469,-254.5 469,-165.5 469,-165.5 469,-159.5 475,-153.5 481,-153.5 481,-153.5 552,-153.5 552,-153.5 558,-153.5 564,-159.5 564,-165.5 564,-165.5 564,-254.5 564,-254.5 564,-260.5 558,-266.5 552,-266.5"/>
<text text-anchor="middle" x="516.5" y="-251.3" font-family="Helvetica,sans-Serif" font-size="14.00">op4</text>
<text text-anchor="middle" x="516.5" y="-236.3" font-family="Helvetica,sans-Serif" font-size="14.00">rotate</text>
<text text-anchor="middle" x="516.5" y="-221.3" font-family="Helvetica,sans-Serif" font-size="14.00">line 17</text>
<text text-anchor="middle" x="516.5" y="-206.3" font-family="Helvetica,sans-Serif" font-size="14.00">layer 2</text>
<text text-anchor="middle" x="516.5" y="-191.3" font-family="Helvetica,sans-Serif" font-size="14.00">cost 4</text>
<text text-anchor="middle" x="516.5" y="-176.3" font-family="Helvetica,sans-Serif" font-size="14.00">out rot0@1</text>
<text text-anchor="middle" x="516.5" y="-161.3" font-family="Helvetica,sans-Serif" font-size="14.00">in sq0@1</text>
</g>
<!-- op2&#45;&gt;op4 -->
<g id="edge5" class="edge">
<title>op2&#45;&gt;op4</title>
<path fill="none" stroke="#1f2937" d="M407.17,-206.46C424.3,-207.02 442.23,-207.6 458.46,-208.13"/>
<polygon fill="#1f2937" stroke="#1f2937" points="458.74,-211.65 468.85,-208.47 458.97,-204.65 458.74,-211.65"/>
<text text-anchor="middle" x="438" y="-210.8" font-family="Helvetica,sans-Serif" font-size="14.00">sq0</text>
</g>
<!-- op2&#45;&gt;op4 -->
<g id="edge6" class="edge">
<title>op2&#45;&gt;op4</title>
<path fill="none" stroke="#2563eb" d="M407.01,-187.09C421.62,-185.72 436.81,-185.65 451,-188 453.64,-188.44 456.33,-188.97 459.02,-189.58"/>
<polygon fill="#2563eb" stroke="#2563eb" points="458.2,-192.98 468.76,-192.07 459.94,-186.2 458.2,-192.98"/>
<text text-anchor="middle" x="438" y="-191.8" font-family="Helvetica,sans-Serif" font-size="14.00">sq0</text>
</g>
<!-- op5 -->
<g id="node6" class="node">
<title>op5</title>
<path fill="#e5e7eb" stroke="black" d="M759,-197.5C759,-197.5 640,-197.5 640,-197.5 634,-197.5 628,-191.5 628,-185.5 628,-185.5 628,-96.5 628,-96.5 628,-90.5 634,-84.5 640,-84.5 640,-84.5 759,-84.5 759,-84.5 765,-84.5 771,-90.5 771,-96.5 771,-96.5 771,-185.5 771,-185.5 771,-191.5 765,-197.5 759,-197.5"/>
<text text-anchor="middle" x="699.5" y="-182.3" font-family="Helvetica,sans-Serif" font-size="14.00">op5</text>
<text text-anchor="middle" x="699.5" y="-167.3" font-family="Helvetica,sans-Serif" font-size="14.00">add</text>
<text text-anchor="middle" x="699.5" y="-152.3" font-family="Helvetica,sans-Serif" font-size="14.00">line 18</text>
<text text-anchor="middle" x="699.5" y="-137.3" font-family="Helvetica,sans-Serif" font-size="14.00">layer 3</text>
<text text-anchor="middle" x="699.5" y="-122.3" font-family="Helvetica,sans-Serif" font-size="14.00">cost 1</text>
<text text-anchor="middle" x="699.5" y="-107.3" font-family="Helvetica,sans-Serif" font-size="14.00">out total@1</text>
<text text-anchor="middle" x="699.5" y="-92.3" font-family="Helvetica,sans-Serif" font-size="14.00">in rot0@1, sq1@1</text>
</g>
<!-- op3&#45;&gt;op5 -->
<g id="edge9" class="edge">
<title>op3&#45;&gt;op5</title>
<path fill="none" stroke="#1f2937" d="M407.05,-86.92C468.48,-98.32 555.17,-114.41 618.03,-126.07"/>
<polygon fill="#1f2937" stroke="#1f2937" points="617.43,-129.52 627.9,-127.9 618.71,-122.64 617.43,-129.52"/>
<text text-anchor="middle" x="516.5" y="-121.8" font-family="Helvetica,sans-Serif" font-size="14.00">sq1</text>
</g>
<!-- op3&#45;&gt;op5 -->
<g id="edge10" class="edge">
<title>op3&#45;&gt;op5</title>
<path fill="none" stroke="#2563eb" d="M407.16,-66.2C455.03,-63.91 517.98,-64.7 572,-78 587.59,-81.84 603.47,-87.83 618.47,-94.62"/>
<polygon fill="#2563eb" stroke="#2563eb" points="617.16,-97.87 627.7,-98.94 620.13,-91.53 617.16,-97.87"/>
<text text-anchor="middle" x="516.5" y="-81.8" font-family="Helvetica,sans-Serif" font-size="14.00">sq1</text>
</g>
<!-- op4&#45;&gt;op5 -->
<g id="edge7" class="edge">
<title>op4&#45;&gt;op5</title>
<path fill="none" stroke="#1f2937" d="M564.46,-196.48C579.17,-191.93 595.37,-186.57 610,-181 612.73,-179.96 615.5,-178.87 618.29,-177.76"/>
<polygon fill="#1f2937" stroke="#1f2937" points="619.88,-180.89 627.81,-173.86 617.23,-174.41 619.88,-180.89"/>
<text text-anchor="middle" x="596" y="-193.8" font-family="Helvetica,sans-Serif" font-size="14.00">rot0</text>
</g>
<!-- op4&#45;&gt;op5 -->
<g id="edge8" class="edge">
<title>op4&#45;&gt;op5</title>
<path fill="none" stroke="#2563eb" d="M564.24,-171.48C570,-167.88 575.98,-164.61 582,-162 593.31,-157.1 605.71,-153.34 618.08,-150.46"/>
<polygon fill="#2563eb" stroke="#2563eb" points="618.92,-153.86 627.96,-148.33 617.45,-147.01 618.92,-153.86"/>
<text text-anchor="middle" x="596" y="-165.8" font-family="Helvetica,sans-Serif" font-size="14.00">rot0</text>
</g>
<!-- op6 -->
<g id="node7" class="node">
<title>op6</title>
<path fill="#17becf" stroke="black" d="M988,-197.5C988,-197.5 850,-197.5 850,-197.5 844,-197.5 838,-191.5 838,-185.5 838,-185.5 838,-96.5 838,-96.5 838,-90.5 844,-84.5 850,-84.5 850,-84.5 988,-84.5 988,-84.5 994,-84.5 1000,-90.5 1000,-96.5 1000,-96.5 1000,-185.5 1000,-185.5 1000,-191.5 994,-197.5 988,-197.5"/>
<text text-anchor="middle" x="919" y="-182.3" font-family="Helvetica,sans-Serif" font-size="14.00">op6</text>
<text text-anchor="middle" x="919" y="-167.3" font-family="Helvetica,sans-Serif" font-size="14.00">assign</text>
<text text-anchor="middle" x="919" y="-152.3" font-family="Helvetica,sans-Serif" font-size="14.00">line 19</text>
<text text-anchor="middle" x="919" y="-137.3" font-family="Helvetica,sans-Serif" font-size="14.00">layer 4</text>
<text text-anchor="middle" x="919" y="-122.3" font-family="Helvetica,sans-Serif" font-size="14.00">cost 1</text>
<text text-anchor="middle" x="919" y="-107.3" font-family="Helvetica,sans-Serif" font-size="14.00">out distance_sum@1</text>
<text text-anchor="middle" x="919" y="-92.3" font-family="Helvetica,sans-Serif" font-size="14.00">in total@1</text>
</g>
<!-- op5&#45;&gt;op6 -->
<g id="edge11" class="edge">
<title>op5&#45;&gt;op6</title>
<path fill="none" stroke="#1f2937" d="M771.12,-141C789.2,-141 808.9,-141 827.82,-141"/>
<polygon fill="#1f2937" stroke="#1f2937" points="827.93,-144.5 837.93,-141 827.93,-137.5 827.93,-144.5"/>
<text text-anchor="middle" x="804.5" y="-144.8" font-family="Helvetica,sans-Serif" font-size="14.00">total</text>
</g>
<!-- op5&#45;&gt;op6 -->
<g id="edge12" class="edge">
<title>op5&#45;&gt;op6</title>
<path fill="none" stroke="#2563eb" d="M771.29,-124.42C777.26,-123.45 783.22,-122.61 789,-122 801.52,-120.67 814.69,-120.82 827.64,-121.86"/>
<polygon fill="#2563eb" stroke="#2563eb" points="827.66,-125.38 837.96,-122.88 828.35,-118.41 827.66,-125.38"/>
<text text-anchor="middle" x="804.5" y="-125.8" font-family="Helvetica,sans-Serif" font-size="14.00">total</text>
</g>
</g>
</svg>
