<?xml version="1.0" encoding="UTF-8" standalone="no"?>
<!DOCTYPE svg PUBLIC "-//W3C//DTD SVG 1.1//EN"
 "http://www.w3.org/Graphics/SVG/1.1/DTD/svg11.dtd">
<!-- Generated by graphviz version 2.43.0 (0)
 -->
<!-- Title: hedag_v2 Pages: 1 -->
<svg width="660pt" height="200pt"
 viewBox="0.00 0.00 660.00 200.00" xmlns="http://www.w3.org/2000/svg" xmlns:xlink="http://www.w3.org/1999/xlink">
<g id="graph0" class="graph" transform="scale(1 1) rotate(0) translate(4 196)">
<title>hedag_v2</title>
<polygon fill="white" stroke="transparent" points="-4,4 -4,-196 656,-196 656,4 -4,4"/>
<g id="clust1" class="cluster">
<title>cluster_layer_0</title>
<polygon fill="none" stroke="#d1d5db" points="8,-8 8,-145 169,-145 169,-8 8,-8"/>
<text text-anchor="middle" x="88.5" y="-129.8" font-family="Times,serif" font-size="14.00">layer 0</text>
</g>
<g id="clust2" class="cluster">
<title>cluster_layer_1</title>
<polygon fill="none" stroke="#d1d5db" points="268,-12 268,-165 464,-165 464,-12 268,-12"/>
<text text-anchor="middle" x="366" y="-149.8" font-family="Times,serif" font-size="14.00">layer 1</text>
</g>
<g id="clust3" class="cluster">
<title>cluster_layer_2</title>
<polygon fill="none" stroke="#d1d5db" points="497,-31 497,-184 644,-184 644,-31 497,-31"/>
<text text-anchor="middle" x="570.5" y="-168.8" font-family="Times,serif" font-size="14.00">layer 2</text>
</g>
<!-- op0 -->
<g id="node1" class="node">
<title>op0</title>
<path fill="#e5e7eb" stroke="black" d="M149,-114C149,-114 28,-114 28,-114 22,-114 16,-108 16,-102 16,-102 16,-28 16,-28 16,-22 22,-16 28,-16 28,-16 149,-16 149,-16 155,-16 161,-22 161,-28 161,-28 161,-102 161,-102 161,-108 155,-114 149,-114"/>
<text text-anchor="middle" x="88.5" y="-98.8" font-family="Helvetica,sans-Serif" font-size="14.00">op0</text>
<text text-anchor="middle" x="88.5" y="-83.8" font-family="Helvetica,sans-Serif" font-size="14.00">encode</text>
<text text-anchor="middle" x="88.5" y="-68.8" font-family="Helvetica,sans-Serif" font-size="14.00">line 52</text>
<text text-anchor="middle" x="88.5" y="-53.8" font-family="Helvetica,sans-Serif" font-size="14.00">layer 0</text>
<text text-anchor="middle" x="88.5" y="-38.8" font-family="Helvetica,sans-Serif" font-size="14.00">cost 1</text>
<text text-anchor="middle" x="88.5" y="-23.8" font-family="Helvetica,sans-Serif" font-size="14.00">out mask_plain@1</text>
</g>
<!-- op1 -->
<g id="node2" class="node">
<title>op1</title>
<path fill="#e5e7eb" stroke="black" d="M444,-133.5C444,-133.5 288,-133.5 288,-133.5 282,-133.5 276,-127.5 276,-121.5 276,-121.5 276,-32.5 276,-32.5 276,-26.5 282,-20.5 288,-20.5 288,-20.5 444,-20.5 444,-20.5 450,-20.5 456,-26.5 456,-32.5 456,-32.5 456,-121.5 456,-121.5 456,-127.5 450,-133.5 444,-133.5"/>
<text text-anchor="middle" x="366" y="-118.3" font-family="Helvetica,sans-Serif" font-size="14.00">op1</text>
<text text-anchor="middle" x="366" y="-103.3" font-family="Helvetica,sans-Serif" font-size="14.00">multiply_plain</text>
<text text-anchor="middle" x="366" y="-88.3" font-family="Helvetica,sans-Serif" font-size="14.00">line 54</text>
<text text-anchor="middle" x="366" y="-73.3" font-family="Helvetica,sans-Serif" font-size="14.00">layer 1</text>
<text text-anchor="middle" x="366" y="-58.3" font-family="Helvetica,sans-Serif" font-size="14.00">cost 3</text>
<text text-anchor="middle" x="366" y="-43.3" font-family="Helvetica,sans-Serif" font-size="14.00">out ct@1</text>
<text text-anchor="middle" x="366" y="-28.3" font-family="Helvetica,sans-Serif" font-size="14.00">in ct@0, mask_plain@1</text>
</g>
<!-- op0&#45;&gt;op1 -->
<g id="edge1" class="edge">
<title>op0&#45;&gt;op1</title>
<path fill="none" stroke="#1f2937" d="M161.17,-68.12C193.09,-69.51 231.22,-71.17 265.82,-72.68"/>
<polygon fill="#1f2937" stroke="#1f2937" points="265.81,-76.18 275.95,-73.12 266.11,-69.19 265.81,-76.18"/>
<text text-anchor="middle" x="218.5" y="-76.8" font-family="Helvetica,sans-Serif" font-size="14.00">mask_plain</text>
</g>
<!-- op0&#45;&gt;op1 -->
<g id="edge2" class="edge">
<title>op0&#45;&gt;op1</title>
<path fill="none" stroke="#2563eb" d="M161.19,-52.78C167.2,-52.06 173.2,-51.45 179,-51 214.01,-48.28 223.14,-46.83 258,-51 260.67,-51.32 263.36,-51.68 266.08,-52.08"/>
<polygon fill="#2563eb" stroke="#2563eb" points="265.53,-55.54 275.96,-53.68 266.65,-48.63 265.53,-55.54"/>
<text text-anchor="middle" x="218.5" y="-54.8" font-family="Helvetica,sans-Serif" font-size="14.00">mask_plain</text>
</g>
<!-- op2 -->
<g id="node3" class="node">
<title>op2</title>
<path fill="#8c564b" stroke="black" d="M624,-152.5C624,-152.5 517,-152.5 517,-152.5 511,-152.5 505,-146.5 505,-140.5 505,-140.5 505,-51.5 505,-51.5 505,-45.5 511,-39.5 517,-39.5 517,-39.5 624,-39.5 624,-39.5 630,-39.5 636,-45.5 636,-51.5 636,-51.5 636,-140.5 636,-140.5 636,-146.5 630,-152.5 624,-152.5"/>
<text text-anchor="middle" x="570.5" y="-137.3" font-family="Helvetica,sans-Serif" font-size="14.00">op2</text>
<text text-anchor="middle" x="570.5" y="-122.3" font-family="Helvetica,sans-Serif" font-size="14.00">rescale_dynamic</text>
<text text-anchor="middle" x="570.5" y="-107.3" font-family="Helvetica,sans-Serif" font-size="14.00">line 55</text>
<text text-anchor="middle" x="570.5" y="-92.3" font-family="Helvetica,sans-Serif" font-size="14.00">layer 2</text>
<text text-anchor="middle" x="570.5" y="-77.3" font-family="Helvetica,sans-Serif" font-size="14.00">cost 4</text>
<text text-anchor="middle" x="570.5" y="-62.3" font-family="Helvetica,sans-Serif" font-size="14.00">out ct@2</text>
<text text-anchor="middle" x="570.5" y="-47.3" font-family="Helvetica,sans-Serif" font-size="14.00">in ct@1</text>
</g>
<!-- op1&#45;&gt;op2 -->
<g id="edge3" class="edge">
<title>op1&#45;&gt;op2</title>
<path fill="none" stroke="#1f2937" d="M456.04,-125.68C462.01,-127.77 468.03,-129.58 474,-131 480.81,-132.62 487.8,-132.9 494.75,-132.22"/>
<polygon fill="#1f2937" stroke="#1f2937" points="495.58,-135.63 504.89,-130.57 494.45,-128.72 495.58,-135.63"/>
<text text-anchor="middle" x="480.5" y="-135.8" font-family="Helvetica,sans-Serif" font-size="14.00">ct</text>
</g>
<!-- op1&#45;&gt;op2 -->
<g id="edge4" class="edge">
<title>op1&#45;&gt;op2</title>
<path fill="none" stroke="#2563eb" d="M456.23,-91.14C462.24,-91.85 468.2,-92.48 474,-93 480.72,-93.61 487.71,-94.09 494.72,-94.49"/>
<polygon fill="#2563eb" stroke="#2563eb" points="494.81,-98 504.97,-95 495.15,-91.01 494.81,-98"/>
<text text-anchor="middle" x="480.5" y="-97.8" font-family="Helvetica,sans-Serif" font-size="14.00">ct</text>
</g>
<!-- op1&#45;&gt;op2 -->
<g id="edge5" class="edge">
<title>op1&#45;&gt;op2</title>
<path fill="none" stroke="#f97316" d="M456.28,-71.7C466.66,-71.99 477.08,-72.7 487,-74 489.66,-74.35 492.36,-74.76 495.08,-75.22"/>
<polygon fill="#f97316" stroke="#f97316" points="494.49,-78.67 504.97,-77.09 495.79,-71.79 494.49,-78.67"/>
<text text-anchor="middle" x="480.5" y="-77.8" font-family="Helvetica,sans-Serif" font-size="14.00">ct</text>
</g>
<!-- op1&#45;&gt;op2 -->
<g id="edge6" class="edge">
<title>op1&#45;&gt;op2</title>
<path fill="none" stroke="#dc2626" d="M456.32,-51.42C466.69,-50.95 477.1,-51.62 487,-54 489.78,-54.67 492.58,-55.45 495.37,-56.32"/>
<polygon fill="#dc2626" stroke="#dc2626" points="494.24,-59.63 504.83,-59.6 496.53,-53.01 494.24,-59.63"/>
<text text-anchor="middle" x="480.5" y="-57.8" font-family="Helvetica,sans-Serif" font-size="14.00">ct</text>
</g>
</g>
</svg>
