<?xml version="1.0" encoding="UTF-8" standalone="no"?>
<!DOCTYPE svg PUBLIC "-//W3C//DTD SVG 1.1//EN"
 "http://www.w3.org/Graphics/SVG/1.1/DTD/svg11.dtd">
<!-- Generated by graphviz version 2.43.0 (0)
 -->
<!-- Title: hedag_v2 Pages: 1 -->
<svg width="1461pt" height="308pt"
 viewBox="0.00 0.00 1461.00 308.00" xmlns="http://www.w3.org/2000/svg" xmlns:xlink="http://www.w3.org/1999/xlink">
<g id="graph0" class="graph" transform="scale(1 1) rotate(0) translate(4 304)">
<title>hedag_v2</title>
<polygon fill="white" stroke="transparent" points="-4,4 -4,-304 1457,-304 1457,4 -4,4"/>
<g id="clust1" class="cluster">
<title>cluster_layer_0</title>
<polygon fill="none" stroke="#d1d5db" points="8,-8 8,-292 384,-292 384,-8 8,-8"/>
<text text-anchor="middle" x="196" y="-276.8" font-family="Times,serif" font-size="14.00">layer 0</text>
</g>
<g id="clust2" class="cluster">
<title>cluster_layer_1</title>
<polygon fill="none" stroke="#d1d5db" points="546,-8 546,-161 936,-161 936,-8 546,-8"/>
<text text-anchor="middle" x="741" y="-145.8" font-family="Times,serif" font-size="14.00">layer 1</text>
</g>
<g id="clust3" class="cluster">
<title>cluster_layer_2</title>
<polygon fill="none" stroke="#d1d5db" points="1098,-8 1098,-161 1445,-161 1445,-8 1098,-8"/>
<text text-anchor="middle" x="1271.5" y="-145.8" font-family="Times,serif" font-size="14.00">layer 2</text>
</g>
<!-- op3 -->
<g id="node1" class="node">
<title>op3</title>
<path fill="#64748b" stroke="black" d="M308,-260.5C308,-260.5 84,-260.5 84,-260.5 78,-260.5 72,-254.5 72,-248.5 72,-248.5 72,-159.5 72,-159.5 72,-153.5 78,-147.5 84,-147.5 84,-147.5 308,-147.5 308,-147.5 314,-147.5 320,-153.5 320,-159.5 320,-159.5 320,-248.5 320,-248.5 320,-254.5 314,-260.5 308,-260.5"/>
<text text-anchor="middle" x="196" y="-245.3" font-family="Helvetica,sans-Serif" font-size="14.00">op3</text>
<text text-anchor="middle" x="196" y="-230.3" font-family="Helvetica,sans-Serif" font-size="14.00">return</text>
<text text-anchor="middle" x="196" y="-215.3" font-family="Helvetica,sans-Serif" font-size="14.00">line 172</text>
<text text-anchor="middle" x="196" y="-200.3" font-family="Helvetica,sans-Serif" font-size="14.00">layer 0</text>
<text text-anchor="middle" x="196" y="-185.3" font-family="Helvetica,sans-Serif" font-size="14.00">cost 1</text>
<text text-anchor="middle" x="196" y="-170.3" font-family="Helvetica,sans-Serif" font-size="14.00">out __return__@1</text>
<text text-anchor="middle" x="196" y="-155.3" font-family="Helvetica,sans-Serif" font-size="14.00">in extract_bytes(result, offset)@0</text>
</g>
<!-- op0 -->
<g id="node2" class="node">
<title>op0</title>
<path fill="#e5e7eb" stroke="black" d="M364,-129.5C364,-129.5 28,-129.5 28,-129.5 22,-129.5 16,-123.5 16,-117.5 16,-117.5 16,-28.5 16,-28.5 16,-22.5 22,-16.5 28,-16.5 28,-16.5 364,-16.5 364,-16.5 370,-16.5 376,-22.5 376,-28.5 376,-28.5 376,-117.5 376,-117.5 376,-123.5 370,-129.5 364,-129.5"/>
<text text-anchor="middle" x="196" y="-114.3" font-family="Helvetica,sans-Serif" font-size="14.00">op0</text>
<text text-anchor="middle" x="196" y="-99.3" font-family="Helvetica,sans-Serif" font-size="14.00">decrypt</text>
<text text-anchor="middle" x="196" y="-84.3" font-family="Helvetica,sans-Serif" font-size="14.00">line 242</text>
<text text-anchor="middle" x="196" y="-69.3" font-family="Helvetica,sans-Serif" font-size="14.00">layer 0</text>
<text text-anchor="middle" x="196" y="-54.3" font-family="Helvetica,sans-Serif" font-size="14.00">cost 4</text>
<text text-anchor="middle" x="196" y="-39.3" font-family="Helvetica,sans-Serif" font-size="14.00">out decode_reply__decode_reply_5079__ptxt@1</text>
<text text-anchor="middle" x="196" y="-24.3" font-family="Helvetica,sans-Serif" font-size="14.00">in decode_reply__decode_reply_5079__temp[j]@0</text>
</g>
<!-- op1 -->
<g id="node3" class="node">
<title>op1</title>
<path fill="#17becf" stroke="black" d="M916,-129.5C916,-129.5 566,-129.5 566,-129.5 560,-129.5 554,-123.5 554,-117.5 554,-117.5 554,-28.5 554,-28.5 554,-22.5 560,-16.5 566,-16.5 566,-16.5 916,-16.5 916,-16.5 922,-16.5 928,-22.5 928,-28.5 928,-28.5 928,-117.5 928,-117.5 928,-123.5 922,-129.5 916,-129.5"/>
<text text-anchor="middle" x="741" y="-114.3" font-family="Helvetica,sans-Serif" font-size="14.00">op1</text>
<text text-anchor="middle" x="741" y="-99.3" font-family="Helvetica,sans-Serif" font-size="14.00">assign</text>
<text text-anchor="middle" x="741" y="-84.3" font-family="Helvetica,sans-Serif" font-size="14.00">line 266</text>
<text text-anchor="middle" x="741" y="-69.3" font-family="Helvetica,sans-Serif" font-size="14.00">layer 1</text>
<text text-anchor="middle" x="741" y="-54.3" font-family="Helvetica,sans-Serif" font-size="14.00">cost 1</text>
<text text-anchor="middle" x="741" y="-39.3" font-family="Helvetica,sans-Serif" font-size="14.00">out decode_reply__decode_reply_5079__temp@1</text>
<text text-anchor="middle" x="741" y="-24.3" font-family="Helvetica,sans-Serif" font-size="14.00">in decode_reply__decode_reply_5079__newtemp@0</text>
</g>
<!-- op0&#45;&gt;op1 -->
<g id="edge1" class="edge">
<title>op0&#45;&gt;op1</title>
<path fill="none" stroke="#0f766e" d="M376.3,-73C429.96,-73 489.06,-73 543.75,-73"/>
<polygon fill="#0f766e" stroke="#0f766e" points="543.91,-76.5 553.91,-73 543.91,-69.5 543.91,-76.5"/>
<text text-anchor="middle" x="465" y="-76.8" font-family="Helvetica,sans-Serif" font-size="14.00">decode_reply@5079</text>
</g>
<!-- op2 -->
<g id="node4" class="node">
<title>op2</title>
<path fill="#17becf" stroke="black" d="M1425,-129.5C1425,-129.5 1118,-129.5 1118,-129.5 1112,-129.5 1106,-123.5 1106,-117.5 1106,-117.5 1106,-28.5 1106,-28.5 1106,-22.5 1112,-16.5 1118,-16.5 1118,-16.5 1425,-16.5 1425,-16.5 1431,-16.5 1437,-22.5 1437,-28.5 1437,-28.5 1437,-117.5 1437,-117.5 1437,-123.5 1431,-129.5 1425,-129.5"/>
<text text-anchor="middle" x="1271.5" y="-114.3" font-family="Helvetica,sans-Serif" font-size="14.00">op2</text>
<text text-anchor="middle" x="1271.5" y="-99.3" font-family="Helvetica,sans-Serif" font-size="14.00">assign</text>
<text text-anchor="middle" x="1271.5" y="-84.3" font-family="Helvetica,sans-Serif" font-size="14.00">line 171</text>
<text text-anchor="middle" x="1271.5" y="-69.3" font-family="Helvetica,sans-Serif" font-size="14.00">layer 2</text>
<text text-anchor="middle" x="1271.5" y="-54.3" font-family="Helvetica,sans-Serif" font-size="14.00">cost 1</text>
<text text-anchor="middle" x="1271.5" y="-39.3" font-family="Helvetica,sans-Serif" font-size="14.00">out result@1</text>
<text text-anchor="middle" x="1271.5" y="-24.3" font-family="Helvetica,sans-Serif" font-size="14.00">in decode_reply__decode_reply_5079__fail@0</text>
</g>
<!-- op1&#45;&gt;op2 -->
<g id="edge2" class="edge">
<title>op1&#45;&gt;op2</title>
<path fill="none" stroke="#0f766e" d="M928.33,-73C982.63,-73 1041.76,-73 1095.34,-73"/>
<polygon fill="#0f766e" stroke="#0f766e" points="1095.63,-76.5 1105.63,-73 1095.63,-69.5 1095.63,-76.5"/>
<text text-anchor="middle" x="1017" y="-76.8" font-family="Helvetica,sans-Serif" font-size="14.00">decode_reply@5079</text>
</g>
</g>
</svg>
