<?xml version="1.0" encoding="UTF-8" standalone="no"?>
<!DOCTYPE svg PUBLIC "-//W3C//DTD SVG 1.1//EN"
 "http://www.w3.org/Graphics/SVG/1.1/DTD/svg11.dtd">
<!-- Generated by graphviz version 2.43.0 (0)
 -->
<!-- Title: hedag_v2 Pages: 1 -->
<svg width="704pt" height="177pt"
 viewBox="0.00 0.00 704.00 177.00" xmlns="http://www.w3.org/2000/svg" xmlns:xlink="http://www.w3.org/1999/xlink">
<g id="graph0" class="graph" transform="scale(1 1) rotate(0) translate(4 173)">
<title>hedag_v2</title>
<polygon fill="white" stroke="transparent" points="-4,4 -4,-173 700,-173 700,4 -4,4"/>
<g id="clust1" class="cluster">
<title>cluster_layer_0</title>
<polygon fill="none" stroke="#d1d5db" points="8,-8 8,-161 166,-161 166,-8 8,-8"/>
<text text-anchor="middle" x="87" y="-145.8" font-family="Times,serif" font-size="14.00">layer 0</text>
</g>
<g id="clust2" class="cluster">
<title>cluster_layer_1</title>
<polygon fill="none" stroke="#d1d5db" points="262,-8 262,-161 440,-161 440,-8 262,-8"/>
<text text-anchor="middle" x="351" y="-145.8" font-family="Times,serif" font-size="14.00">layer 1</text>
</g>
<g id="clust3" class="cluster">
<title>cluster_layer_2</title>
<polygon fill="none" stroke="#d1d5db" points="536,-8 536,-161 688,-161 688,-8 536,-8"/>
<text text-anchor="middle" x="612" y="-145.8" font-family="Times,serif" font-size="14.00">layer 2</text>
</g>
<!-- op0 -->
<g id="node1" class="node">
<title>op0</title>
<path fill="#17becf" stroke="black" d="M146,-129.5C146,-129.5 28,-129.5 28,-129.5 22,-129.5 16,-123.5 16,-117.5 16,-117.5 16,-28.5 16,-28.5 16,-22.5 22,-16.5 28,-16.5 28,-16.5 146,-16.5 146,-16.5 152,-16.5 158,-22.5 158,-28.5 158,-28.5 158,-117.5 158,-117.5 158,-123.5 152,-129.5 146,-129.5"/>
<text text-anchor="middle" x="87" y="-114.3" font-family="Helvetica,sans-Serif" font-size="14.00">op0</text>
<text text-anchor="middle" x="87" y="-99.3" font-family="Helvetica,sans-Serif" font-size="14.00">assign</text>
<text text-anchor="middle" x="87" y="-84.3" font-family="Helvetica,sans-Serif" font-size="14.00">line 333</text>
<text text-anchor="middle" x="87" y="-69.3" font-family="Helvetica,sans-Serif" font-size="14.00">layer 0</text>
<text text-anchor="middle" x="87" y="-54.3" font-family="Helvetica,sans-Serif" font-size="14.00">cost 1</text>
<text text-anchor="middle" x="87" y="-39.3" font-family="Helvetica,sans-Serif" font-size="14.00">out ciph_result@1</text>
<text text-anchor="middle" x="87" y="-24.3" font-family="Helvetica,sans-Serif" font-size="14.00">in ciph@0</text>
</g>
<!-- op1 -->
<g id="node2" class="node">
<title>op1</title>
<path fill="#e377c2" stroke="black" d="M420,-129.5C420,-129.5 282,-129.5 282,-129.5 276,-129.5 270,-123.5 270,-117.5 270,-117.5 270,-28.5 270,-28.5 270,-22.5 276,-16.5 282,-16.5 282,-16.5 420,-16.5 420,-16.5 426,-16.5 432,-22.5 432,-28.5 432,-28.5 432,-117.5 432,-117.5 432,-123.5 426,-129.5 420,-129.5"/>
<text text-anchor="middle" x="351" y="-114.3" font-family="Helvetica,sans-Serif" font-size="14.00">op1</text>
<text text-anchor="middle" x="351" y="-99.3" font-family="Helvetica,sans-Serif" font-size="14.00">evaluate_poly_vector</text>
<text text-anchor="middle" x="351" y="-84.3" font-family="Helvetica,sans-Serif" font-size="14.00">line 334</text>
<text text-anchor="middle" x="351" y="-69.3" font-family="Helvetica,sans-Serif" font-size="14.00">layer 1</text>
<text text-anchor="middle" x="351" y="-54.3" font-family="Helvetica,sans-Serif" font-size="14.00">cost 8</text>
<text text-anchor="middle" x="351" y="-39.3" font-family="Helvetica,sans-Serif" font-size="14.00">out ciph_result@2</text>
<text text-anchor="middle" x="351" y="-24.3" font-family="Helvetica,sans-Serif" font-size="14.00">in ciph_result@1</text>
</g>
<!-- op0&#45;&gt;op1 -->
<g id="edge1" class="edge">
<title>op0&#45;&gt;op1</title>
<path fill="none" stroke="#1f2937" d="M158.45,-86.96C164.37,-87.78 170.28,-88.48 176,-89 209.64,-92.03 218.33,-91.73 252,-89 254.56,-88.79 257.15,-88.56 259.76,-88.29"/>
<polygon fill="#1f2937" stroke="#1f2937" points="260.36,-91.75 269.91,-87.16 259.58,-84.79 260.36,-91.75"/>
<text text-anchor="middle" x="214" y="-94.8" font-family="Helvetica,sans-Serif" font-size="14.00">ciph_result</text>
</g>
<!-- op0&#45;&gt;op1 -->
<g id="edge2" class="edge">
<title>op0&#45;&gt;op1</title>
<path fill="none" stroke="#2563eb" d="M158.12,-70.39C164.17,-70.23 170.19,-70.1 176,-70 209.77,-69.42 218.23,-69.48 252,-70 254.53,-70.04 257.1,-70.08 259.69,-70.13"/>
<polygon fill="#2563eb" stroke="#2563eb" points="259.71,-73.63 269.78,-70.34 259.86,-66.63 259.71,-73.63"/>
<text text-anchor="middle" x="214" y="-73.8" font-family="Helvetica,sans-Serif" font-size="14.00">ciph_result</text>
</g>
<!-- op0&#45;&gt;op1 -->
<g id="edge3" class="edge">
<title>op0&#45;&gt;op1</title>
<path fill="none" stroke="#f97316" d="M158.32,-53.81C164.27,-52.68 170.22,-51.71 176,-51 209.52,-46.87 218.43,-47.28 252,-51 254.54,-51.28 257.11,-51.6 259.7,-51.96"/>
<polygon fill="#f97316" stroke="#f97316" points="259.34,-55.44 269.75,-53.49 260.39,-48.52 259.34,-55.44"/>
<text text-anchor="middle" x="214" y="-54.8" font-family="Helvetica,sans-Serif" font-size="14.00">ciph_result</text>
</g>
<!-- op2 -->
<g id="node3" class="node">
<title>op2</title>
<path fill="#64748b" stroke="black" d="M668,-129.5C668,-129.5 556,-129.5 556,-129.5 550,-129.5 544,-123.5 544,-117.5 544,-117.5 544,-28.5 544,-28.5 544,-22.5 550,-16.5 556,-16.5 556,-16.5 668,-16.5 668,-16.5 674,-16.5 680,-22.5 680,-28.5 680,-28.5 680,-117.5 680,-117.5 680,-123.5 674,-129.5 668,-129.5"/>
<text text-anchor="middle" x="612" y="-114.3" font-family="Helvetica,sans-Serif" font-size="14.00">op2</text>
<text text-anchor="middle" x="612" y="-99.3" font-family="Helvetica,sans-Serif" font-size="14.00">return</text>
<text text-anchor="middle" x="612" y="-84.3" font-family="Helvetica,sans-Serif" font-size="14.00">line 335</text>
<text text-anchor="middle" x="612" y="-69.3" font-family="Helvetica,sans-Serif" font-size="14.00">layer 2</text>
<text text-anchor="middle" x="612" y="-54.3" font-family="Helvetica,sans-Serif" font-size="14.00">cost 1</text>
<text text-anchor="middle" x="612" y="-39.3" font-family="Helvetica,sans-Serif" font-size="14.00">out __return__@1</text>
<text text-anchor="middle" x="612" y="-24.3" font-family="Helvetica,sans-Serif" font-size="14.00">in ciph_result@2</text>
</g>
<!-- op1&#45;&gt;op2 -->
<g id="edge4" class="edge">
<title>op1&#45;&gt;op2</title>
<path fill="none" stroke="#1f2937" d="M432.18,-73C464.48,-73 501.61,-73 533.63,-73"/>
<polygon fill="#1f2937" stroke="#1f2937" points="533.83,-76.5 543.83,-73 533.83,-69.5 533.83,-76.5"/>
<text text-anchor="middle" x="488" y="-76.8" font-family="Helvetica,sans-Serif" font-size="14.00">ciph_result</text>
</g>
<!-- op1&#45;&gt;op2 -->
<g id="edge5" class="edge">
<title>op1&#45;&gt;op2</title>
<path fill="none" stroke="#2563eb" d="M432.04,-56.19C438.1,-55.31 444.13,-54.56 450,-54 483.62,-50.77 492.43,-50.29 526,-54 528.66,-54.29 531.35,-54.64 534.07,-55.02"/>
<polygon fill="#2563eb" stroke="#2563eb" points="533.53,-58.48 543.95,-56.58 534.62,-51.57 533.53,-58.48"/>
<text text-anchor="middle" x="488" y="-57.8" font-family="Helvetica,sans-Serif" font-size="14.00">ciph_result</text>
</g>
</g>
</svg>
