<?xml version="1.0" encoding="UTF-8" standalone="no"?>
<!DOCTYPE svg PUBLIC "-//W3C//DTD SVG 1.1//EN"
 "http://www.w3.org/Graphics/SVG/1.1/DTD/svg11.dtd">
<!-- Generated by graphviz version 2.43.0 (0)
 -->
<!-- Title: hedag_v2 Pages: 1 -->
<svg width="450pt" height="187pt"
 viewBox="0.00 0.00 450.00 187.00" xmlns="http://www.w3.org/2000/svg" xmlns:xlink="http://www.w3.org/1999/xlink">
<g id="graph0" class="graph" transform="scale(1 1) rotate(0) translate(4 183)">
<title>hedag_v2</title>
<polygon fill="white" stroke="transparent" points="-4,4 -4,-183 446,-183 446,4 -4,4"/>
<g id="clust1" class="cluster">
<title>cluster_layer_0</title>
<polygon fill="none" stroke="#d1d5db" points="8,-18 8,-171 186,-171 186,-18 8,-18"/>
<text text-anchor="middle" x="97" y="-155.8" font-family="Times,serif" font-size="14.00">layer 0</text>
</g>
<g id="clust2" class="cluster">
<title>cluster_layer_1</title>
<polygon fill="none" stroke="#d1d5db" points="282,-8 282,-161 434,-161 434,-8 282,-8"/>
<text text-anchor="middle" x="358" y="-145.8" font-family="Times,serif" font-size="14.00">layer 1</text>
</g>
<!-- op0 -->
<g id="node1" class="node">
<title>op0</title>
<path fill="#e377c2" stroke="black" d="M166,-139.5C166,-139.5 28,-139.5 28,-139.5 22,-139.5 16,-133.5 16,-127.5 16,-127.5 16,-38.5 16,-38.5 16,-32.5 22,-26.5 28,-26.5 28,-26.5 166,-26.5 166,-26.5 172,-26.5 178,-32.5 178,-38.5 178,-38.5 178,-127.5 178,-127.5 178,-133.5 172,-139.5 166,-139.5"/>
<text text-anchor="middle" x="97" y="-124.3" font-family="Helvetica,sans-Serif" font-size="14.00">op0</text>
<text text-anchor="middle" x="97" y="-109.3" font-family="Helvetica,sans-Serif" font-size="14.00">evaluate_poly_vector</text>
<text text-anchor="middle" x="97" y="-94.3" font-family="Helvetica,sans-Serif" font-size="14.00">line 559</text>
<text text-anchor="middle" x="97" y="-79.3" font-family="Helvetica,sans-Serif" font-size="14.00">layer 0</text>
<text text-anchor="middle" x="97" y="-64.3" font-family="Helvetica,sans-Serif" font-size="14.00">cost 8</text>
<text text-anchor="middle" x="97" y="-49.3" font-family="Helvetica,sans-Serif" font-size="14.00">out ciph_result@1</text>
<text text-anchor="middle" x="97" y="-34.3" font-family="Helvetica,sans-Serif" font-size="14.00">in ciph@0</text>
</g>
<!-- op1 -->
<g id="node2" class="node">
<title>op1</title>
<path fill="#64748b" stroke="black" d="M414,-129.5C414,-129.5 302,-129.5 302,-129.5 296,-129.5 290,-123.5 290,-117.5 290,-117.5 290,-28.5 290,-28.5 290,-22.5 296,-16.5 302,-16.5 302,-16.5 414,-16.5 414,-16.5 420,-16.5 426,-22.5 426,-28.5 426,-28.5 426,-117.5 426,-117.5 426,-123.5 420,-129.5 414,-129.5"/>
<text text-anchor="middle" x="358" y="-114.3" font-family="Helvetica,sans-Serif" font-size="14.00">op1</text>
<text text-anchor="middle" x="358" y="-99.3" font-family="Helvetica,sans-Serif" font-size="14.00">return</text>
<text text-anchor="middle" x="358" y="-84.3" font-family="Helvetica,sans-Serif" font-size="14.00">line 560</text>
<text text-anchor="middle" x="358" y="-69.3" font-family="Helvetica,sans-Serif" font-size="14.00">layer 1</text>
<text text-anchor="middle" x="358" y="-54.3" font-family="Helvetica,sans-Serif" font-size="14.00">cost 1</text>
<text text-anchor="middle" x="358" y="-39.3" font-family="Helvetica,sans-Serif" font-size="14.00">out __return__@1</text>
<text text-anchor="middle" x="358" y="-24.3" font-family="Helvetica,sans-Serif" font-size="14.00">in ciph_result@1</text>
</g>
<!-- op0&#45;&gt;op1 -->
<g id="edge1" class="edge">
<title>op0&#45;&gt;op1</title>
<path fill="none" stroke="#1f2937" d="M178.18,-79.9C210.48,-78.66 247.61,-77.22 279.63,-75.99"/>
<polygon fill="#1f2937" stroke="#1f2937" points="279.97,-79.48 289.83,-75.59 279.7,-72.48 279.97,-79.48"/>
<text text-anchor="middle" x="234" y="-82.8" font-family="Helvetica,sans-Serif" font-size="14.00">ciph_result</text>
</g>
<!-- op0&#45;&gt;op1 -->
<g id="edge2" class="edge">
<title>op0&#45;&gt;op1</title>
<path fill="none" stroke="#2563eb" d="M178.15,-59.95C184.16,-58.77 190.15,-57.76 196,-57 229.49,-52.63 238.37,-53.86 272,-57 274.55,-57.24 277.14,-57.52 279.75,-57.83"/>
<polygon fill="#2563eb" stroke="#2563eb" points="279.51,-61.32 289.89,-59.17 280.43,-54.39 279.51,-61.32"/>
<text text-anchor="middle" x="234" y="-60.8" font-family="Helvetica,sans-Serif" font-size="14.00">ciph_result</text>
</g>
</g>
</svg>
