<?xml version="1.0" encoding="UTF-8" standalone="no"?>
<!DOCTYPE svg PUBLIC "-//W3C//DTD SVG 1.1//EN"
 "http://www.w3.org/Graphics/SVG/1.1/DTD/svg11.dtd">
<!-- Generated by graphviz version 2.43.0 (0)
 -->
<!-- Title: hedag_v2 Pages: 1 -->
<svg width="362pt" height="187pt"
 viewBox="0.00 0.00 362.00 187.00" xmlns="http://www.w3.org/2000/svg" xmlns:xlink="http://www.w3.org/1999/xlink">
<g id="graph0" class="graph" transform="scale(1 1) rotate(0) translate(4 183)">
<title>hedag_v2</title>
<polygon fill="white" stroke="transparent" points="-4,4 -4,-183 358,-183 358,4 -4,4"/>
<g id="clust1" class="cluster">
<title>cluster_layer_0</title>
<polygon fill="none" stroke="#d1d5db" points="8,-18 8,-171 132,-171 132,-18 8,-18"/>
<text text-anchor="middle" x="70" y="-155.8" font-family="Times,serif" font-size="14.00">layer 0</text>
</g>
<g id="clust2" class="cluster">
<title>cluster_layer_1</title>
<polygon fill="none" stroke="#d1d5db" points="194,-8 194,-161 346,-161 346,-8 194,-8"/>
<text text-anchor="middle" x="270" y="-145.8" font-family="Times,serif" font-size="14.00">layer 1</text>
</g>
<!-- op0 -->
<g id="node1" class="node">
<title>op0</title>
<path fill="#e5e7eb" stroke="black" d="M112,-139.5C112,-139.5 28,-139.5 28,-139.5 22,-139.5 16,-133.5 16,-127.5 16,-127.5 16,-38.5 16,-38.5 16,-32.5 22,-26.5 28,-26.5 28,-26.5 112,-26.5 112,-26.5 118,-26.5 124,-32.5 124,-38.5 124,-38.5 124,-127.5 124,-127.5 124,-133.5 118,-139.5 112,-139.5"/>
<text text-anchor="middle" x="70" y="-124.3" font-family="Helvetica,sans-Serif" font-size="14.00">op0</text>
<text text-anchor="middle" x="70" y="-109.3" font-family="Helvetica,sans-Serif" font-size="14.00">decode</text>
<text text-anchor="middle" x="70" y="-94.3" font-family="Helvetica,sans-Serif" font-size="14.00">line 178</text>
<text text-anchor="middle" x="70" y="-79.3" font-family="Helvetica,sans-Serif" font-size="14.00">layer 0</text>
<text text-anchor="middle" x="70" y="-64.3" font-family="Helvetica,sans-Serif" font-size="14.00">cost 1</text>
<text text-anchor="middle" x="70" y="-49.3" font-family="Helvetica,sans-Serif" font-size="14.00">out coeffs@1</text>
<text text-anchor="middle" x="70" y="-34.3" font-family="Helvetica,sans-Serif" font-size="14.00">in pt@0</text>
</g>
<!-- op1 -->
<g id="node2" class="node">
<title>op1</title>
<path fill="#64748b" stroke="black" d="M326,-129.5C326,-129.5 214,-129.5 214,-129.5 208,-129.5 202,-123.5 202,-117.5 202,-117.5 202,-28.5 202,-28.5 202,-22.5 208,-16.5 214,-16.5 214,-16.5 326,-16.5 326,-16.5 332,-16.5 338,-22.5 338,-28.5 338,-28.5 338,-117.5 338,-117.5 338,-123.5 332,-129.5 326,-129.5"/>
<text text-anchor="middle" x="270" y="-114.3" font-family="Helvetica,sans-Serif" font-size="14.00">op1</text>
<text text-anchor="middle" x="270" y="-99.3" font-family="Helvetica,sans-Serif" font-size="14.00">return</text>
<text text-anchor="middle" x="270" y="-84.3" font-family="Helvetica,sans-Serif" font-size="14.00">line 179</text>
<text text-anchor="middle" x="270" y="-69.3" font-family="Helvetica,sans-Serif" font-size="14.00">layer 1</text>
<text text-anchor="middle" x="270" y="-54.3" font-family="Helvetica,sans-Serif" font-size="14.00">cost 1</text>
<text text-anchor="middle" x="270" y="-39.3" font-family="Helvetica,sans-Serif" font-size="14.00">out __return__@1</text>
<text text-anchor="middle" x="270" y="-24.3" font-family="Helvetica,sans-Serif" font-size="14.00">in coeffs@1</text>
</g>
<!-- op0&#45;&gt;op1 -->
<g id="edge1" class="edge">
<title>op0&#45;&gt;op1</title>
<path fill="none" stroke="#1f2937" d="M124.06,-80.32C144.82,-79.27 169.05,-78.05 191.68,-76.9"/>
<polygon fill="#1f2937" stroke="#1f2937" points="192.14,-80.39 201.95,-76.39 191.79,-73.4 192.14,-80.39"/>
<text text-anchor="middle" x="163" y="-82.8" font-family="Helvetica,sans-Serif" font-size="14.00">coeffs</text>
</g>
<!-- op0&#45;&gt;op1 -->
<g id="edge2" class="edge">
<title>op0&#45;&gt;op1</title>
<path fill="none" stroke="#2563eb" d="M124.38,-62.06C130.25,-60.41 136.2,-58.99 142,-58 158.04,-55.26 175.3,-55.32 191.78,-56.8"/>
<polygon fill="#2563eb" stroke="#2563eb" points="191.6,-60.3 201.91,-57.89 192.35,-53.34 191.6,-60.3"/>
<text text-anchor="middle" x="163" y="-61.8" font-family="Helvetica,sans-Serif" font-size="14.00">coeffs</text>
</g>
</g>
</svg>
