<?xml version="1.0" encoding="UTF-8" standalone="no"?>
<!DOCTYPE svg PUBLIC "-//W3C//DTD SVG 1.1//EN"
 "http://www.w3.org/Graphics/SVG/1.1/DTD/svg11.dtd">
<!-- Generated by graphviz version 2.43.0 (0)
 -->
<!-- Title: hedag_v2 Pages: 1 -->
<svg width="213pt" height="161pt"
 viewBox="0.00 0.00 213.00 161.00" xmlns="http://www.w3.org/2000/svg" xmlns:xlink="http://www.w3.org/1999/xlink">
<g id="graph0" class="graph" transform="scale(1 1) rotate(0) translate(4 157)">
<title>hedag_v2</title>
<polygon fill="white" stroke="transparent" points="-4,4 -4,-157 209,-157 209,4 -4,4"/>
<g id="clust1" class="cluster">
<title>cluster_layer_0</title>
<polygon fill="none" stroke="#d1d5db" points="8,-8 8,-145 197,-145 197,-8 8,-8"/>
<text text-anchor="middle" x="102.5" y="-129.8" font-family="Times,serif" font-size="14.00">layer 0</text>
</g>
<!-- op0 -->
<g id="node1" class="node">
<title>op0</title>
<path fill="#dbeafe" stroke="black" d="M177,-114C177,-114 28,-114 28,-114 22,-114 16,-108 16,-102 16,-102 16,-28 16,-28 16,-22 22,-16 28,-16 28,-16 177,-16 177,-16 183,-16 189,-22 189,-28 189,-28 189,-102 189,-102 189,-108 183,-114 177,-114"/>
<text text-anchor="middle" x="102.5" y="-98.8" font-family="Helvetica,sans-Serif" font-size="14.00">op0</text>
<text text-anchor="middle" x="102.5" y="-83.8" font-family="Helvetica,sans-Serif" font-size="14.00">drop_modulus_to_next</text>
<text text-anchor="middle" x="102.5" y="-68.8" font-family="Helvetica,sans-Serif" font-size="14.00">line 215</text>
<text text-anchor="middle" x="102.5" y="-53.8" font-family="Helvetica,sans-Serif" font-size="14.00">layer 0</text>
<text text-anchor="middle" x="102.5" y="-38.8" font-family="Helvetica,sans-Serif" font-size="14.00">cost 4</text>
<text text-anchor="middle" x="102.5" y="-23.8" font-family="Helvetica,sans-Serif" font-size="14.00">out tmp@1</text>
</g>
</g>
</svg>
