<?xml version="1.0" encoding="UTF-8" standalone="no"?>
<!DOCTYPE svg PUBLIC "-//W3C//DTD SVG 1.1//EN"
 "http://www.w3.org/Graphics/SVG/1.1/DTD/svg11.dtd">
<!-- Generated by graphviz version 2.43.0 (0)
 -->
<!-- Title: hedag_v2 Pages: 1 -->
<svg width="3471pt" height="338pt"
 viewBox="0.00 0.00 3471.00 338.00" xmlns="http://www.w3.org/2000/svg" xmlns:xlink="http://www.w3.org/1999/xlink">
<g id="graph0" class="graph" transform="scale(1 1) rotate(0) translate(4 334)">
<title>hedag_v2</title>
<polygon fill="white" stroke="transparent" points="-4,4 -4,-334 3467,-334 3467,4 -4,4"/>
<g id="clust1" class="cluster">
<title>cluster_layer_0</title>
<polygon fill="none" stroke="#d1d5db" points="109,-8 109,-161 291,-161 291,-8 109,-8"/>
<text text-anchor="middle" x="200" y="-145.8" font-family="Times,serif" font-size="14.00">layer 0</text>
</g>
<g id="clust2" class="cluster">
<title>cluster_layer_1</title>
<polygon fill="none" stroke="#d1d5db" points="8,-169 8,-322 392,-322 392,-169 8,-169"/>
<text text-anchor="middle" x="200" y="-306.8" font-family="Times,serif" font-size="14.00">layer 1</text>
</g>
<g id="clust3" class="cluster">
<title>cluster_layer_2</title>
<polygon fill="none" stroke="#d1d5db" points="714,-169 714,-322 1098,-322 1098,-169 714,-169"/>
<text text-anchor="middle" x="906" y="-306.8" font-family="Times,serif" font-size="14.00">layer 2</text>
</g>
<g id="clust4" class="cluster">
<title>cluster_layer_3</title>
<polygon fill="none" stroke="#d1d5db" points="1420,-169 1420,-322 1804,-322 1804,-169 1420,-169"/>
<text text-anchor="middle" x="1612" y="-306.8" font-family="Times,serif" font-size="14.00">layer 3</text>
</g>
<g id="clust5" class="cluster">
<title>cluster_layer_4</title>
<polygon fill="none" stroke="#d1d5db" points="2126,-169 2126,-322 2510,-322 2510,-169 2126,-169"/>
<text text-anchor="middle" x="2318" y="-306.8" font-family="Times,serif" font-size="14.00">layer 4</text>
</g>
<g id="clust6" class="cluster">
<title>cluster_layer_5</title>
<polygon fill="none" stroke="#d1d5db" points="2832,-169 2832,-322 3207,-322 3207,-169 2832,-169"/>
<text text-anchor="middle" x="3019.5" y="-306.8" font-family="Times,serif" font-size="14.00">layer 5</text>
</g>
<g id="clust7" class="cluster">
<title>cluster_layer_6</title>
<polygon fill="none" stroke="#d1d5db" points="3303,-150 3303,-303 3455,-303 3455,-150 3303,-150"/>
<text text-anchor="middle" x="3379" y="-287.8" font-family="Times,serif" font-size="14.00">layer 6</text>
</g>
<!-- op0 -->
<g id="node1" class="node">
<title>op0</title>
<path fill="#e5e7eb" stroke="black" d="M271,-129.5C271,-129.5 129,-129.5 129,-129.5 123,-129.5 117,-123.5 117,-117.5 117,-117.5 117,-28.5 117,-28.5 117,-22.5 123,-16.5 129,-16.5 129,-16.5 271,-16.5 271,-16.5 277,-16.5 283,-22.5 283,-28.5 283,-28.5 283,-117.5 283,-117.5 283,-123.5 277,-129.5 271,-129.5"/>
<text text-anchor="middle" x="200" y="-114.3" font-family="Helvetica,sans-Serif" font-size="14.00">op0</text>
<text text-anchor="middle" x="200" y="-99.3" font-family="Helvetica,sans-Serif" font-size="14.00">sub_dynamic</text>
<text text-anchor="middle" x="200" y="-84.3" font-family="Helvetica,sans-Serif" font-size="14.00">line 154</text>
<text text-anchor="middle" x="200" y="-69.3" font-family="Helvetica,sans-Serif" font-size="14.00">layer 0</text>
<text text-anchor="middle" x="200" y="-54.3" font-family="Helvetica,sans-Serif" font-size="14.00">cost 1</text>
<text text-anchor="middle" x="200" y="-39.3" font-family="Helvetica,sans-Serif" font-size="14.00">out ciph_tmp@1</text>
<text text-anchor="middle" x="200" y="-24.3" font-family="Helvetica,sans-Serif" font-size="14.00">in ciph2@0, ciph1@0</text>
</g>
<!-- op1 -->
<g id="node2" class="node">
<title>op1</title>
<path fill="#e377c2" stroke="black" d="M372,-290.5C372,-290.5 28,-290.5 28,-290.5 22,-290.5 16,-284.5 16,-278.5 16,-278.5 16,-189.5 16,-189.5 16,-183.5 22,-177.5 28,-177.5 28,-177.5 372,-177.5 372,-177.5 378,-177.5 384,-183.5 384,-189.5 384,-189.5 384,-278.5 384,-278.5 384,-284.5 378,-290.5 372,-290.5"/>
<text text-anchor="middle" x="200" y="-275.3" font-family="Helvetica,sans-Serif" font-size="14.00">op1</text>
<text text-anchor="middle" x="200" y="-260.3" font-family="Helvetica,sans-Serif" font-size="14.00">evaluate_poly_vector</text>
<text text-anchor="middle" x="200" y="-245.3" font-family="Helvetica,sans-Serif" font-size="14.00">line 109</text>
<text text-anchor="middle" x="200" y="-230.3" font-family="Helvetica,sans-Serif" font-size="14.00">layer 1</text>
<text text-anchor="middle" x="200" y="-215.3" font-family="Helvetica,sans-Serif" font-size="14.00">cost 8</text>
<text text-anchor="middle" x="200" y="-200.3" font-family="Helvetica,sans-Serif" font-size="14.00">out sign__compare_two_ciph_5066__ciph_result@1</text>
<text text-anchor="middle" x="200" y="-185.3" font-family="Helvetica,sans-Serif" font-size="14.00">in sign__compare_two_ciph_5066__ciph_result@0</text>
</g>
<!-- op2 -->
<g id="node3" class="node">
<title>op2</title>
<path fill="#e377c2" stroke="black" d="M1078,-290.5C1078,-290.5 734,-290.5 734,-290.5 728,-290.5 722,-284.5 722,-278.5 722,-278.5 722,-189.5 722,-189.5 722,-183.5 728,-177.5 734,-177.5 734,-177.5 1078,-177.5 1078,-177.5 1084,-177.5 1090,-183.5 1090,-189.5 1090,-189.5 1090,-278.5 1090,-278.5 1090,-284.5 1084,-290.5 1078,-290.5"/>
<text text-anchor="middle" x="906" y="-275.3" font-family="Helvetica,sans-Serif" font-size="14.00">op2</text>
<text text-anchor="middle" x="906" y="-260.3" font-family="Helvetica,sans-Serif" font-size="14.00">evaluate_poly_vector</text>
<text text-anchor="middle" x="906" y="-245.3" font-family="Helvetica,sans-Serif" font-size="14.00">line 110</text>
<text text-anchor="middle" x="906" y="-230.3" font-family="Helvetica,sans-Serif" font-size="14.00">layer 2</text>
<text text-anchor="middle" x="906" y="-215.3" font-family="Helvetica,sans-Serif" font-size="14.00">cost 8</text>
<text text-anchor="middle" x="906" y="-200.3" font-family="Helvetica,sans-Serif" font-size="14.00">out sign__compare_two_ciph_5066__ciph_result@2</text>
<text text-anchor="middle" x="906" y="-185.3" font-family="Helvetica,sans-Serif" font-size="14.00">in sign__compare_two_ciph_5066__ciph_result@1</text>
</g>
<!-- op1&#45;&gt;op2 -->
<g id="edge1" class="edge">
<title>op1&#45;&gt;op2</title>
<path fill="none" stroke="#1f2937" d="M384.08,-285.31C390.11,-286.32 396.09,-287.22 402,-288 535.07,-305.56 570.93,-305.56 704,-288 706.59,-287.66 709.19,-287.29 711.8,-286.91"/>
<polygon fill="#1f2937" stroke="#1f2937" points="712.59,-290.33 721.92,-285.31 711.49,-283.41 712.59,-290.33"/>
<text text-anchor="middle" x="553" y="-304.8" font-family="Helvetica,sans-Serif" font-size="14.00">sign__compare_two_ciph_5066__ciph_result</text>
</g>
<!-- op1&#45;&gt;op2 -->
<g id="edge2" class="edge">
<title>op1&#45;&gt;op2</title>
<path fill="none" stroke="#2563eb" d="M384.18,-249.19C390.19,-249.5 396.14,-249.77 402,-250 536.12,-255.33 569.88,-255.33 704,-250 706.56,-249.9 709.14,-249.79 711.74,-249.67"/>
<polygon fill="#2563eb" stroke="#2563eb" points="712,-253.16 721.82,-249.19 711.67,-246.17 712,-253.16"/>
<text text-anchor="middle" x="553" y="-256.8" font-family="Helvetica,sans-Serif" font-size="14.00">sign__compare_two_ciph_5066__ciph_result</text>
</g>
<!-- op1&#45;&gt;op2 -->
<g id="edge3" class="edge">
<title>op1&#45;&gt;op2</title>
<path fill="none" stroke="#f97316" d="M384.21,-231.15C390.21,-231.09 396.15,-231.04 402,-231 536.22,-230 569.78,-230 704,-231 706.56,-231.02 709.13,-231.04 711.72,-231.06"/>
<polygon fill="#f97316" stroke="#f97316" points="711.75,-234.56 721.79,-231.15 711.82,-227.56 711.75,-234.56"/>
<text text-anchor="middle" x="553" y="-234.8" font-family="Helvetica,sans-Serif" font-size="14.00">sign__compare_two_ciph_5066__ciph_result</text>
</g>
<!-- op1&#45;&gt;op2 -->
<g id="edge4" class="edge">
<title>op1&#45;&gt;op2</title>
<path fill="none" stroke="#dc2626" d="M384.14,-212.16C390.16,-211.72 396.13,-211.33 402,-211 536,-203.36 570,-203.36 704,-211 706.57,-211.15 709.16,-211.3 711.76,-211.47"/>
<polygon fill="#dc2626" stroke="#dc2626" points="711.64,-214.97 721.86,-212.16 712.12,-207.99 711.64,-214.97"/>
<text text-anchor="middle" x="553" y="-214.8" font-family="Helvetica,sans-Serif" font-size="14.00">sign__compare_two_ciph_5066__ciph_result</text>
</g>
<!-- op1&#45;&gt;op2 -->
<g id="edge5" class="edge">
<title>op1&#45;&gt;op2</title>
<path fill="none" stroke="#0f766e" d="M384.17,-188.39C390.16,-187.49 396.12,-186.69 402,-186 535.3,-170.3 570.7,-170.3 704,-186 706.57,-186.3 709.16,-186.63 711.76,-186.97"/>
<polygon fill="#0f766e" stroke="#0f766e" points="711.44,-190.46 721.83,-188.39 712.42,-183.53 711.44,-190.46"/>
<text text-anchor="middle" x="553" y="-189.8" font-family="Helvetica,sans-Serif" font-size="14.00">compare_two_ciph@5066</text>
</g>
<!-- op3 -->
<g id="node4" class="node">
<title>op3</title>
<path fill="#e377c2" stroke="black" d="M1784,-290.5C1784,-290.5 1440,-290.5 1440,-290.5 1434,-290.5 1428,-284.5 1428,-278.5 1428,-278.5 1428,-189.5 1428,-189.5 1428,-183.5 1434,-177.5 1440,-177.5 1440,-177.5 1784,-177.5 1784,-177.5 1790,-177.5 1796,-183.5 1796,-189.5 1796,-189.5 1796,-278.5 1796,-278.5 1796,-284.5 1790,-290.5 1784,-290.5"/>
<text text-anchor="middle" x="1612" y="-275.3" font-family="Helvetica,sans-Serif" font-size="14.00">op3</text>
<text text-anchor="middle" x="1612" y="-260.3" font-family="Helvetica,sans-Serif" font-size="14.00">evaluate_poly_vector</text>
<text text-anchor="middle" x="1612" y="-245.3" font-family="Helvetica,sans-Serif" font-size="14.00">line 111</text>
<text text-anchor="middle" x="1612" y="-230.3" font-family="Helvetica,sans-Serif" font-size="14.00">layer 3</text>
<text text-anchor="middle" x="1612" y="-215.3" font-family="Helvetica,sans-Serif" font-size="14.00">cost 8</text>
<text text-anchor="middle" x="1612" y="-200.3" font-family="Helvetica,sans-Serif" font-size="14.00">out sign__compare_two_ciph_5066__ciph_result@3</text>
<text text-anchor="middle" x="1612" y="-185.3" font-family="Helvetica,sans-Serif" font-size="14.00">in sign__compare_two_ciph_5066__ciph_result@2</text>
</g>
<!-- op2&#45;&gt;op3 -->
<g id="edge6" class="edge">
<title>op2&#45;&gt;op3</title>
<path fill="none" stroke="#1f2937" d="M1090.08,-285.31C1096.11,-286.32 1102.09,-287.22 1108,-288 1241.07,-305.56 1276.93,-305.56 1410,-288 1412.59,-287.66 1415.19,-287.29 1417.8,-286.91"/>
<polygon fill="#1f2937" stroke="#1f2937" points="1418.59,-290.33 1427.92,-285.31 1417.49,-283.41 1418.59,-290.33"/>
<text text-anchor="middle" x="1259" y="-304.8" font-family="Helvetica,sans-Serif" font-size="14.00">sign__compare_two_ciph_5066__ciph_result</text>
</g>
<!-- op2&#45;&gt;op3 -->
<g id="edge7" class="edge">
<title>op2&#45;&gt;op3</title>
<path fill="none" stroke="#2563eb" d="M1090.18,-249.19C1096.19,-249.5 1102.14,-249.77 1108,-250 1242.12,-255.33 1275.88,-255.33 1410,-250 1412.56,-249.9 1415.14,-249.79 1417.74,-249.67"/>
<polygon fill="#2563eb" stroke="#2563eb" points="1418,-253.16 1427.82,-249.19 1417.67,-246.17 1418,-253.16"/>
<text text-anchor="middle" x="1259" y="-256.8" font-family="Helvetica,sans-Serif" font-size="14.00">sign__compare_two_ciph_5066__ciph_result</text>
</g>
<!-- op2&#45;&gt;op3 -->
<g id="edge8" class="edge">
<title>op2&#45;&gt;op3</title>
<path fill="none" stroke="#f97316" d="M1090.21,-231.15C1096.21,-231.09 1102.15,-231.04 1108,-231 1242.22,-230 1275.78,-230 1410,-231 1412.56,-231.02 1415.13,-231.04 1417.72,-231.06"/>
<polygon fill="#f97316" stroke="#f97316" points="1417.75,-234.56 1427.79,-231.15 1417.82,-227.56 1417.75,-234.56"/>
<text text-anchor="middle" x="1259" y="-234.8" font-family="Helvetica,sans-Serif" font-size="14.00">sign__compare_two_ciph_5066__ciph_result</text>
</g>
<!-- op2&#45;&gt;op3 -->
<g id="edge9" class="edge">
<title>op2&#45;&gt;op3</title>
<path fill="none" stroke="#dc2626" d="M1090.14,-212.16C1096.16,-211.72 1102.13,-211.33 1108,-211 1242,-203.36 1276,-203.36 1410,-211 1412.57,-211.15 1415.16,-211.3 1417.76,-211.47"/>
<polygon fill="#dc2626" stroke="#dc2626" points="1417.64,-214.97 1427.86,-212.16 1418.12,-207.99 1417.64,-214.97"/>
<text text-anchor="middle" x="1259" y="-214.8" font-family="Helvetica,sans-Serif" font-size="14.00">sign__compare_two_ciph_5066__ciph_result</text>
</g>
<!-- op2&#45;&gt;op3 -->
<g id="edge10" class="edge">
<title>op2&#45;&gt;op3</title>
<path fill="none" stroke="#0f766e" d="M1090.17,-188.39C1096.16,-187.49 1102.12,-186.69 1108,-186 1241.3,-170.3 1276.7,-170.3 1410,-186 1412.57,-186.3 1415.16,-186.63 1417.76,-186.97"/>
<polygon fill="#0f766e" stroke="#0f766e" points="1417.44,-190.46 1427.83,-188.39 1418.42,-183.53 1417.44,-190.46"/>
<text text-anchor="middle" x="1259" y="-189.8" font-family="Helvetica,sans-Serif" font-size="14.00">compare_two_ciph@5066</text>
</g>
<!-- op4 -->
<g id="node5" class="node">
<title>op4</title>
<path fill="#e5e7eb" stroke="black" d="M2490,-290.5C2490,-290.5 2146,-290.5 2146,-290.5 2140,-290.5 2134,-284.5 2134,-278.5 2134,-278.5 2134,-189.5 2134,-189.5 2134,-183.5 2140,-177.5 2146,-177.5 2146,-177.5 2490,-177.5 2490,-177.5 2496,-177.5 2502,-183.5 2502,-189.5 2502,-189.5 2502,-278.5 2502,-278.5 2502,-284.5 2496,-290.5 2490,-290.5"/>
<text text-anchor="middle" x="2318" y="-275.3" font-family="Helvetica,sans-Serif" font-size="14.00">op4</text>
<text text-anchor="middle" x="2318" y="-260.3" font-family="Helvetica,sans-Serif" font-size="14.00">add_const</text>
<text text-anchor="middle" x="2318" y="-245.3" font-family="Helvetica,sans-Serif" font-size="14.00">line 114</text>
<text text-anchor="middle" x="2318" y="-230.3" font-family="Helvetica,sans-Serif" font-size="14.00">layer 4</text>
<text text-anchor="middle" x="2318" y="-215.3" font-family="Helvetica,sans-Serif" font-size="14.00">cost 1</text>
<text text-anchor="middle" x="2318" y="-200.3" font-family="Helvetica,sans-Serif" font-size="14.00">out sign__compare_two_ciph_5066__ciph_result@4</text>
<text text-anchor="middle" x="2318" y="-185.3" font-family="Helvetica,sans-Serif" font-size="14.00">in sign__compare_two_ciph_5066__ciph_result@3</text>
</g>
<!-- op3&#45;&gt;op4 -->
<g id="edge11" class="edge">
<title>op3&#45;&gt;op4</title>
<path fill="none" stroke="#1f2937" d="M1796.08,-285.31C1802.11,-286.32 1808.09,-287.22 1814,-288 1947.07,-305.56 1982.93,-305.56 2116,-288 2118.59,-287.66 2121.19,-287.29 2123.8,-286.91"/>
<polygon fill="#1f2937" stroke="#1f2937" points="2124.59,-290.33 2133.92,-285.31 2123.49,-283.41 2124.59,-290.33"/>
<text text-anchor="middle" x="1965" y="-304.8" font-family="Helvetica,sans-Serif" font-size="14.00">sign__compare_two_ciph_5066__ciph_result</text>
</g>
<!-- op3&#45;&gt;op4 -->
<g id="edge12" class="edge">
<title>op3&#45;&gt;op4</title>
<path fill="none" stroke="#2563eb" d="M1796.18,-249.19C1802.19,-249.5 1808.14,-249.77 1814,-250 1948.12,-255.33 1981.88,-255.33 2116,-250 2118.56,-249.9 2121.14,-249.79 2123.74,-249.67"/>
<polygon fill="#2563eb" stroke="#2563eb" points="2124,-253.16 2133.82,-249.19 2123.67,-246.17 2124,-253.16"/>
<text text-anchor="middle" x="1965" y="-256.8" font-family="Helvetica,sans-Serif" font-size="14.00">sign__compare_two_ciph_5066__ciph_result</text>
</g>
<!-- op3&#45;&gt;op4 -->
<g id="edge13" class="edge">
<title>op3&#45;&gt;op4</title>
<path fill="none" stroke="#f97316" d="M1796.21,-231.15C1802.21,-231.09 1808.15,-231.04 1814,-231 1948.22,-230 1981.78,-230 2116,-231 2118.56,-231.02 2121.13,-231.04 2123.72,-231.06"/>
<polygon fill="#f97316" stroke="#f97316" points="2123.75,-234.56 2133.79,-231.15 2123.82,-227.56 2123.75,-234.56"/>
<text text-anchor="middle" x="1965" y="-234.8" font-family="Helvetica,sans-Serif" font-size="14.00">sign__compare_two_ciph_5066__ciph_result</text>
</g>
<!-- op3&#45;&gt;op4 -->
<g id="edge14" class="edge">
<title>op3&#45;&gt;op4</title>
<path fill="none" stroke="#dc2626" d="M1796.14,-212.16C1802.16,-211.72 1808.13,-211.33 1814,-211 1948,-203.36 1982,-203.36 2116,-211 2118.57,-211.15 2121.16,-211.3 2123.76,-211.47"/>
<polygon fill="#dc2626" stroke="#dc2626" points="2123.64,-214.97 2133.86,-212.16 2124.12,-207.99 2123.64,-214.97"/>
<text text-anchor="middle" x="1965" y="-214.8" font-family="Helvetica,sans-Serif" font-size="14.00">sign__compare_two_ciph_5066__ciph_result</text>
</g>
<!-- op3&#45;&gt;op4 -->
<g id="edge15" class="edge">
<title>op3&#45;&gt;op4</title>
<path fill="none" stroke="#0f766e" d="M1796.17,-188.39C1802.16,-187.49 1808.12,-186.69 1814,-186 1947.3,-170.3 1982.7,-170.3 2116,-186 2118.57,-186.3 2121.16,-186.63 2123.76,-186.97"/>
<polygon fill="#0f766e" stroke="#0f766e" points="2123.44,-190.46 2133.83,-188.39 2124.42,-183.53 2123.44,-190.46"/>
<text text-anchor="middle" x="1965" y="-189.8" font-family="Helvetica,sans-Serif" font-size="14.00">compare_two_ciph@5066</text>
</g>
<!-- op5 -->
<g id="node6" class="node">
<title>op5</title>
<path fill="#17becf" stroke="black" d="M3187,-290.5C3187,-290.5 2852,-290.5 2852,-290.5 2846,-290.5 2840,-284.5 2840,-278.5 2840,-278.5 2840,-189.5 2840,-189.5 2840,-183.5 2846,-177.5 2852,-177.5 2852,-177.5 3187,-177.5 3187,-177.5 3193,-177.5 3199,-183.5 3199,-189.5 3199,-189.5 3199,-278.5 3199,-278.5 3199,-284.5 3193,-290.5 3187,-290.5"/>
<text text-anchor="middle" x="3019.5" y="-275.3" font-family="Helvetica,sans-Serif" font-size="14.00">op5</text>
<text text-anchor="middle" x="3019.5" y="-260.3" font-family="Helvetica,sans-Serif" font-size="14.00">assign</text>
<text text-anchor="middle" x="3019.5" y="-245.3" font-family="Helvetica,sans-Serif" font-size="14.00">line 156</text>
<text text-anchor="middle" x="3019.5" y="-230.3" font-family="Helvetica,sans-Serif" font-size="14.00">layer 5</text>
<text text-anchor="middle" x="3019.5" y="-215.3" font-family="Helvetica,sans-Serif" font-size="14.00">cost 1</text>
<text text-anchor="middle" x="3019.5" y="-200.3" font-family="Helvetica,sans-Serif" font-size="14.00">out ciph_result@1</text>
<text text-anchor="middle" x="3019.5" y="-185.3" font-family="Helvetica,sans-Serif" font-size="14.00">in sign__compare_two_ciph_5066__ciph_result@4</text>
</g>
<!-- op4&#45;&gt;op5 -->
<g id="edge16" class="edge">
<title>op4&#45;&gt;op5</title>
<path fill="none" stroke="#1f2937" d="M2502.18,-249.19C2508.19,-249.5 2514.14,-249.77 2520,-250 2654.12,-255.33 2687.89,-255.45 2822,-250 2824.58,-249.9 2827.18,-249.78 2829.8,-249.66"/>
<polygon fill="#1f2937" stroke="#1f2937" points="2830.13,-253.15 2839.95,-249.17 2829.79,-246.16 2830.13,-253.15"/>
<text text-anchor="middle" x="2671" y="-257.8" font-family="Helvetica,sans-Serif" font-size="14.00">sign__compare_two_ciph_5066__ciph_result</text>
</g>
<!-- op4&#45;&gt;op5 -->
<g id="edge17" class="edge">
<title>op4&#45;&gt;op5</title>
<path fill="none" stroke="#2563eb" d="M2502.21,-231.15C2508.21,-231.09 2514.15,-231.04 2520,-231 2654.22,-230 2687.78,-229.98 2822,-231 2824.57,-231.02 2827.17,-231.04 2829.78,-231.06"/>
<polygon fill="#2563eb" stroke="#2563eb" points="2829.88,-234.56 2839.91,-231.16 2829.95,-227.56 2829.88,-234.56"/>
<text text-anchor="middle" x="2671" y="-234.8" font-family="Helvetica,sans-Serif" font-size="14.00">sign__compare_two_ciph_5066__ciph_result</text>
</g>
<!-- op4&#45;&gt;op5 -->
<g id="edge18" class="edge">
<title>op4&#45;&gt;op5</title>
<path fill="none" stroke="#0f766e" d="M2502.14,-212.16C2508.16,-211.72 2514.13,-211.33 2520,-211 2654,-203.36 2688.01,-203.18 2822,-211 2824.59,-211.15 2827.19,-211.31 2829.81,-211.49"/>
<polygon fill="#0f766e" stroke="#0f766e" points="2829.77,-214.99 2839.99,-212.2 2830.26,-208.01 2829.77,-214.99"/>
<text text-anchor="middle" x="2671" y="-214.8" font-family="Helvetica,sans-Serif" font-size="14.00">compare_two_ciph@5066</text>
</g>
<!-- op6 -->
<g id="node7" class="node">
<title>op6</title>
<path fill="#64748b" stroke="black" d="M3435,-271.5C3435,-271.5 3323,-271.5 3323,-271.5 3317,-271.5 3311,-265.5 3311,-259.5 3311,-259.5 3311,-170.5 3311,-170.5 3311,-164.5 3317,-158.5 3323,-158.5 3323,-158.5 3435,-158.5 3435,-158.5 3441,-158.5 3447,-164.5 3447,-170.5 3447,-170.5 3447,-259.5 3447,-259.5 3447,-265.5 3441,-271.5 3435,-271.5"/>
<text text-anchor="middle" x="3379" y="-256.3" font-family="Helvetica,sans-Serif" font-size="14.00">op6</text>
<text text-anchor="middle" x="3379" y="-241.3" font-family="Helvetica,sans-Serif" font-size="14.00">return</text>
<text text-anchor="middle" x="3379" y="-226.3" font-family="Helvetica,sans-Serif" font-size="14.00">line 159</text>
<text text-anchor="middle" x="3379" y="-211.3" font-family="Helvetica,sans-Serif" font-size="14.00">layer 6</text>
<text text-anchor="middle" x="3379" y="-196.3" font-family="Helvetica,sans-Serif" font-size="14.00">cost 1</text>
<text text-anchor="middle" x="3379" y="-181.3" font-family="Helvetica,sans-Serif" font-size="14.00">out __return__@1</text>
<text text-anchor="middle" x="3379" y="-166.3" font-family="Helvetica,sans-Serif" font-size="14.00">in ciph_result@1</text>
</g>
<!-- op5&#45;&gt;op6 -->
<g id="edge19" class="edge">
<title>op5&#45;&gt;op6</title>
<path fill="none" stroke="#1f2937" d="M3199.25,-224.5C3234.85,-222.61 3270.45,-220.72 3300.41,-219.12"/>
<polygon fill="#1f2937" stroke="#1f2937" points="3300.96,-222.6 3310.76,-218.57 3300.59,-215.61 3300.96,-222.6"/>
<text text-anchor="middle" x="3255" y="-226.8" font-family="Helvetica,sans-Serif" font-size="14.00">ciph_result</text>
</g>
<!-- op5&#45;&gt;op6 -->
<g id="edge20" class="edge">
<title>op5&#45;&gt;op6</title>
<path fill="none" stroke="#2563eb" d="M3199.13,-200.82C3230.37,-198.13 3262.6,-197.34 3293,-200 3295.55,-200.22 3298.13,-200.48 3300.74,-200.77"/>
<polygon fill="#2563eb" stroke="#2563eb" points="3300.51,-204.27 3310.87,-202.04 3301.38,-197.33 3300.51,-204.27"/>
<text text-anchor="middle" x="3255" y="-203.8" font-family="Helvetica,sans-Serif" font-size="14.00">ciph_result</text>
</g>
</g>
</svg>
