<?xml version="1.0" encoding="UTF-8" standalone="no"?>
<!DOCTYPE svg PUBLIC "-//W3C//DTD SVG 1.1//EN"
 "http://www.w3.org/Graphics/SVG/1.1/DTD/svg11.dtd">
<!-- Generated by graphviz version 2.43.0 (0)
 -->
<!-- Title: hedag_v2 Pages: 1 -->
<svg width="3803pt" height="357pt"
 viewBox="0.00 0.00 3803.00 357.00" xmlns="http://www.w3.org/2000/svg" xmlns:xlink="http://www.w3.org/1999/xlink">
<g id="graph0" class="graph" transform="scale(1 1) rotate(0) translate(4 353)">
<title>hedag_v2</title>
<polygon fill="white" stroke="transparent" points="-4,4 -4,-353 3799,-353 3799,4 -4,4"/>
<g id="clust1" class="cluster">
<title>cluster_layer_0</title>
<polygon fill="none" stroke="#d1d5db" points="1064,-188 1064,-341 1211,-341 1211,-188 1064,-188"/>
<text text-anchor="middle" x="1137.5" y="-325.8" font-family="Times,serif" font-size="14.00">layer 0</text>
</g>
<g id="clust2" class="cluster">
<title>cluster_layer_1</title>
<polygon fill="none" stroke="#d1d5db" points="8,-8 8,-161 287,-161 287,-8 8,-8"/>
<text text-anchor="middle" x="147.5" y="-145.8" font-family="Times,serif" font-size="14.00">layer 1</text>
</g>
<g id="clust3" class="cluster">
<title>cluster_layer_2</title>
<polygon fill="none" stroke="#d1d5db" points="503,-8 503,-161 782,-161 782,-8 503,-8"/>
<text text-anchor="middle" x="642.5" y="-145.8" font-family="Times,serif" font-size="14.00">layer 2</text>
</g>
<g id="clust4" class="cluster">
<title>cluster_layer_3</title>
<polygon fill="none" stroke="#d1d5db" points="1554,-169 1554,-322 1701,-322 1701,-169 1554,-169"/>
<text text-anchor="middle" x="1627.5" y="-306.8" font-family="Times,serif" font-size="14.00">layer 3</text>
</g>
<g id="clust5" class="cluster">
<title>cluster_layer_4</title>
<polygon fill="none" stroke="#d1d5db" points="998,-8 998,-161 1277,-161 1277,-8 998,-8"/>
<text text-anchor="middle" x="1137.5" y="-145.8" font-family="Times,serif" font-size="14.00">layer 4</text>
</g>
<g id="clust6" class="cluster">
<title>cluster_layer_5</title>
<polygon fill="none" stroke="#d1d5db" points="1493,-8 1493,-161 1762,-161 1762,-8 1493,-8"/>
<text text-anchor="middle" x="1627.5" y="-145.8" font-family="Times,serif" font-size="14.00">layer 5</text>
</g>
<g id="clust7" class="cluster">
<title>cluster_layer_6</title>
<polygon fill="none" stroke="#d1d5db" points="1849,-119 1849,-272 1996,-272 1996,-119 1849,-119"/>
<text text-anchor="middle" x="1922.5" y="-256.8" font-family="Times,serif" font-size="14.00">layer 6</text>
</g>
<g id="clust8" class="cluster">
<title>cluster_layer_7</title>
<polygon fill="none" stroke="#d1d5db" points="2080,-119 2080,-272 2227,-272 2227,-119 2080,-119"/>
<text text-anchor="middle" x="2153.5" y="-256.8" font-family="Times,serif" font-size="14.00">layer 7</text>
</g>
<g id="clust9" class="cluster">
<title>cluster_layer_8</title>
<polygon fill="none" stroke="#d1d5db" points="2311,-95 2311,-248 2458,-248 2458,-95 2311,-95"/>
<text text-anchor="middle" x="2384.5" y="-232.8" font-family="Times,serif" font-size="14.00">layer 8</text>
</g>
<g id="clust10" class="cluster">
<title>cluster_layer_9</title>
<polygon fill="none" stroke="#d1d5db" points="2542,-34 2542,-187 2777,-187 2777,-34 2542,-34"/>
<text text-anchor="middle" x="2659.5" y="-171.8" font-family="Times,serif" font-size="14.00">layer 9</text>
</g>
<g id="clust11" class="cluster">
<title>cluster_layer_10</title>
<polygon fill="none" stroke="#d1d5db" points="2873,-34 2873,-187 3031,-187 3031,-34 2873,-34"/>
<text text-anchor="middle" x="2952" y="-171.8" font-family="Times,serif" font-size="14.00">layer 10</text>
</g>
<g id="clust12" class="cluster">
<title>cluster_layer_11</title>
<polygon fill="none" stroke="#d1d5db" points="3127,-23 3127,-176 3285,-176 3285,-23 3127,-23"/>
<text text-anchor="middle" x="3206" y="-160.8" font-family="Times,serif" font-size="14.00">layer 11</text>
</g>
<g id="clust13" class="cluster">
<title>cluster_layer_12</title>
<polygon fill="none" stroke="#d1d5db" points="3381,-16 3381,-169 3539,-169 3539,-16 3381,-16"/>
<text text-anchor="middle" x="3460" y="-153.8" font-family="Times,serif" font-size="14.00">layer 12</text>
</g>
<g id="clust14" class="cluster">
<title>cluster_layer_13</title>
<polygon fill="none" stroke="#d1d5db" points="3635,-14 3635,-167 3787,-167 3787,-14 3635,-14"/>
<text text-anchor="middle" x="3711" y="-151.8" font-family="Times,serif" font-size="14.00">layer 13</text>
</g>
<!-- op0 -->
<g id="node1" class="node">
<title>op0</title>
<path fill="#e5e7eb" stroke="black" d="M1191,-309.5C1191,-309.5 1084,-309.5 1084,-309.5 1078,-309.5 1072,-303.5 1072,-297.5 1072,-297.5 1072,-208.5 1072,-208.5 1072,-202.5 1078,-196.5 1084,-196.5 1084,-196.5 1191,-196.5 1191,-196.5 1197,-196.5 1203,-202.5 1203,-208.5 1203,-208.5 1203,-297.5 1203,-297.5 1203,-303.5 1197,-309.5 1191,-309.5"/>
<text text-anchor="middle" x="1137.5" y="-294.3" font-family="Helvetica,sans-Serif" font-size="14.00">op0</text>
<text text-anchor="middle" x="1137.5" y="-279.3" font-family="Helvetica,sans-Serif" font-size="14.00">multiply_const</text>
<text text-anchor="middle" x="1137.5" y="-264.3" font-family="Helvetica,sans-Serif" font-size="14.00">line 257</text>
<text text-anchor="middle" x="1137.5" y="-249.3" font-family="Helvetica,sans-Serif" font-size="14.00">layer 0</text>
<text text-anchor="middle" x="1137.5" y="-234.3" font-family="Helvetica,sans-Serif" font-size="14.00">cost 3</text>
<text text-anchor="middle" x="1137.5" y="-219.3" font-family="Helvetica,sans-Serif" font-size="14.00">out ciph_tmp@1</text>
<text text-anchor="middle" x="1137.5" y="-204.3" font-family="Helvetica,sans-Serif" font-size="14.00">in ciph_tmp@0</text>
</g>
<!-- op1 -->
<g id="node4" class="node">
<title>op1</title>
<path fill="#8c564b" stroke="black" d="M1681,-290.5C1681,-290.5 1574,-290.5 1574,-290.5 1568,-290.5 1562,-284.5 1562,-278.5 1562,-278.5 1562,-189.5 1562,-189.5 1562,-183.5 1568,-177.5 1574,-177.5 1574,-177.5 1681,-177.5 1681,-177.5 1687,-177.5 1693,-183.5 1693,-189.5 1693,-189.5 1693,-278.5 1693,-278.5 1693,-284.5 1687,-290.5 1681,-290.5"/>
<text text-anchor="middle" x="1627.5" y="-275.3" font-family="Helvetica,sans-Serif" font-size="14.00">op1</text>
<text text-anchor="middle" x="1627.5" y="-260.3" font-family="Helvetica,sans-Serif" font-size="14.00">rescale_dynamic</text>
<text text-anchor="middle" x="1627.5" y="-245.3" font-family="Helvetica,sans-Serif" font-size="14.00">line 258</text>
<text text-anchor="middle" x="1627.5" y="-230.3" font-family="Helvetica,sans-Serif" font-size="14.00">layer 3</text>
<text text-anchor="middle" x="1627.5" y="-215.3" font-family="Helvetica,sans-Serif" font-size="14.00">cost 4</text>
<text text-anchor="middle" x="1627.5" y="-200.3" font-family="Helvetica,sans-Serif" font-size="14.00">out ciph_tmp@2</text>
<text text-anchor="middle" x="1627.5" y="-185.3" font-family="Helvetica,sans-Serif" font-size="14.00">in ciph_tmp@1</text>
</g>
<!-- op0&#45;&gt;op1 -->
<g id="edge1" class="edge">
<title>op0&#45;&gt;op1</title>
<path fill="none" stroke="#1f2937" d="M1203.18,-262.37C1272.59,-270.95 1385.95,-280.66 1483,-269 1505.63,-266.28 1529.85,-261.23 1551.82,-255.79"/>
<polygon fill="#1f2937" stroke="#1f2937" points="1552.91,-259.13 1561.74,-253.28 1551.19,-252.34 1552.91,-259.13"/>
<text text-anchor="middle" x="1385" y="-277.8" font-family="Helvetica,sans-Serif" font-size="14.00">ciph_tmp</text>
</g>
<!-- op0&#45;&gt;op1 -->
<g id="edge2" class="edge">
<title>op0&#45;&gt;op1</title>
<path fill="none" stroke="#2563eb" d="M1203.05,-250.49C1293.15,-246.98 1456.26,-240.63 1551.6,-236.92"/>
<polygon fill="#2563eb" stroke="#2563eb" points="1551.89,-240.41 1561.74,-236.52 1551.62,-233.41 1551.89,-240.41"/>
<text text-anchor="middle" x="1385" y="-250.8" font-family="Helvetica,sans-Serif" font-size="14.00">ciph_tmp</text>
</g>
<!-- op0&#45;&gt;op1 -->
<g id="edge3" class="edge">
<title>op0&#45;&gt;op1</title>
<path fill="none" stroke="#f97316" d="M1203.04,-235.43C1228.93,-229.24 1259.17,-223.05 1287,-220 1377.64,-210.05 1482.59,-217.22 1551.53,-224.46"/>
<polygon fill="#f97316" stroke="#f97316" points="1551.53,-227.98 1561.85,-225.58 1552.28,-221.02 1551.53,-227.98"/>
<text text-anchor="middle" x="1385" y="-223.8" font-family="Helvetica,sans-Serif" font-size="14.00">ciph_tmp</text>
</g>
<!-- op0&#45;&gt;op1 -->
<g id="edge4" class="edge">
<title>op0&#45;&gt;op1</title>
<path fill="none" stroke="#dc2626" d="M1203.16,-222.26C1228.67,-211.72 1258.63,-201.26 1287,-196 1372.65,-180.13 1396.62,-184.76 1483,-196 1505.72,-198.96 1529.96,-204.44 1551.93,-210.34"/>
<polygon fill="#dc2626" stroke="#dc2626" points="1551.28,-213.79 1561.85,-213.07 1553.14,-207.04 1551.28,-213.79"/>
<text text-anchor="middle" x="1385" y="-199.8" font-family="Helvetica,sans-Serif" font-size="14.00">ciph_tmp</text>
</g>
<!-- op2 -->
<g id="node2" class="node">
<title>op2</title>
<path fill="#e377c2" stroke="black" d="M267,-129.5C267,-129.5 28,-129.5 28,-129.5 22,-129.5 16,-123.5 16,-117.5 16,-117.5 16,-28.5 16,-28.5 16,-22.5 22,-16.5 28,-16.5 28,-16.5 267,-16.5 267,-16.5 273,-16.5 279,-22.5 279,-28.5 279,-28.5 279,-117.5 279,-117.5 279,-123.5 273,-129.5 267,-129.5"/>
<text text-anchor="middle" x="147.5" y="-114.3" font-family="Helvetica,sans-Serif" font-size="14.00">op2</text>
<text text-anchor="middle" x="147.5" y="-99.3" font-family="Helvetica,sans-Serif" font-size="14.00">evaluate_poly_vector</text>
<text text-anchor="middle" x="147.5" y="-84.3" font-family="Helvetica,sans-Serif" font-size="14.00">line 223</text>
<text text-anchor="middle" x="147.5" y="-69.3" font-family="Helvetica,sans-Serif" font-size="14.00">layer 1</text>
<text text-anchor="middle" x="147.5" y="-54.3" font-family="Helvetica,sans-Serif" font-size="14.00">cost 8</text>
<text text-anchor="middle" x="147.5" y="-39.3" font-family="Helvetica,sans-Serif" font-size="14.00">out sign__ind_7038__ciph_result@1</text>
<text text-anchor="middle" x="147.5" y="-24.3" font-family="Helvetica,sans-Serif" font-size="14.00">in sign__ind_7038__ciph_result@0</text>
</g>
<!-- op3 -->
<g id="node3" class="node">
<title>op3</title>
<path fill="#e377c2" stroke="black" d="M762,-129.5C762,-129.5 523,-129.5 523,-129.5 517,-129.5 511,-123.5 511,-117.5 511,-117.5 511,-28.5 511,-28.5 511,-22.5 517,-16.5 523,-16.5 523,-16.5 762,-16.5 762,-16.5 768,-16.5 774,-22.5 774,-28.5 774,-28.5 774,-117.5 774,-117.5 774,-123.5 768,-129.5 762,-129.5"/>
<text text-anchor="middle" x="642.5" y="-114.3" font-family="Helvetica,sans-Serif" font-size="14.00">op3</text>
<text text-anchor="middle" x="642.5" y="-99.3" font-family="Helvetica,sans-Serif" font-size="14.00">evaluate_poly_vector</text>
<text text-anchor="middle" x="642.5" y="-84.3" font-family="Helvetica,sans-Serif" font-size="14.00">line 224</text>
<text text-anchor="middle" x="642.5" y="-69.3" font-family="Helvetica,sans-Serif" font-size="14.00">layer 2</text>
<text text-anchor="middle" x="642.5" y="-54.3" font-family="Helvetica,sans-Serif" font-size="14.00">cost 8</text>
<text text-anchor="middle" x="642.5" y="-39.3" font-family="Helvetica,sans-Serif" font-size="14.00">out sign__ind_7038__ciph_result@2</text>
<text text-anchor="middle" x="642.5" y="-24.3" font-family="Helvetica,sans-Serif" font-size="14.00">in sign__ind_7038__ciph_result@1</text>
</g>
<!-- op2&#45;&gt;op3 -->
<g id="edge5" class="edge">
<title>op2&#45;&gt;op3</title>
<path fill="none" stroke="#1f2937" d="M279,-123.25C285.04,-124.69 291.06,-125.95 297,-127 382.79,-142.11 407.21,-142.11 493,-127 495.69,-126.53 498.4,-126.01 501.12,-125.45"/>
<polygon fill="#1f2937" stroke="#1f2937" points="502,-128.84 511,-123.25 500.48,-122 502,-128.84"/>
<text text-anchor="middle" x="395" y="-141.8" font-family="Helvetica,sans-Serif" font-size="14.00">sign__ind_7038__ciph_result</text>
</g>
<!-- op2&#45;&gt;op3 -->
<g id="edge6" class="edge">
<title>op2&#45;&gt;op3</title>
<path fill="none" stroke="#2563eb" d="M279.22,-87.87C285.23,-88.31 291.17,-88.69 297,-89 383.99,-93.67 406.01,-93.67 493,-89 495.55,-88.86 498.12,-88.71 500.71,-88.55"/>
<polygon fill="#2563eb" stroke="#2563eb" points="501.04,-92.04 510.78,-87.87 500.57,-85.05 501.04,-92.04"/>
<text text-anchor="middle" x="395" y="-95.8" font-family="Helvetica,sans-Serif" font-size="14.00">sign__ind_7038__ciph_result</text>
</g>
<!-- op2&#45;&gt;op3 -->
<g id="edge7" class="edge">
<title>op2&#45;&gt;op3</title>
<path fill="none" stroke="#f97316" d="M279.28,-70.21C285.27,-70.13 291.2,-70.06 297,-70 384.11,-69.12 405.89,-69.12 493,-70 495.54,-70.03 498.1,-70.05 500.68,-70.08"/>
<polygon fill="#f97316" stroke="#f97316" points="500.68,-73.58 510.72,-70.21 500.77,-66.58 500.68,-73.58"/>
<text text-anchor="middle" x="395" y="-73.8" font-family="Helvetica,sans-Serif" font-size="14.00">sign__ind_7038__ciph_result</text>
</g>
<!-- op2&#45;&gt;op3 -->
<g id="edge8" class="edge">
<title>op2&#45;&gt;op3</title>
<path fill="none" stroke="#dc2626" d="M279.15,-51.63C285.18,-51 291.15,-50.45 297,-50 383.85,-43.31 406.15,-43.31 493,-50 495.56,-50.2 498.14,-50.41 500.74,-50.65"/>
<polygon fill="#dc2626" stroke="#dc2626" points="500.56,-54.14 510.85,-51.63 501.23,-47.18 500.56,-54.14"/>
<text text-anchor="middle" x="395" y="-53.8" font-family="Helvetica,sans-Serif" font-size="14.00">sign__ind_7038__ciph_result</text>
</g>
<!-- op2&#45;&gt;op3 -->
<g id="edge9" class="edge">
<title>op2&#45;&gt;op3</title>
<path fill="none" stroke="#0f766e" d="M279.14,-28.33C285.14,-27.05 291.11,-25.93 297,-25 383.05,-11.44 406.95,-11.44 493,-25 495.67,-25.42 498.35,-25.88 501.05,-26.38"/>
<polygon fill="#0f766e" stroke="#0f766e" points="500.37,-29.81 510.86,-28.33 501.74,-22.95 500.37,-29.81"/>
<text text-anchor="middle" x="395" y="-28.8" font-family="Helvetica,sans-Serif" font-size="14.00">ind@7038</text>
</g>
<!-- op4 -->
<g id="node5" class="node">
<title>op4</title>
<path fill="#e5e7eb" stroke="black" d="M1257,-129.5C1257,-129.5 1018,-129.5 1018,-129.5 1012,-129.5 1006,-123.5 1006,-117.5 1006,-117.5 1006,-28.5 1006,-28.5 1006,-22.5 1012,-16.5 1018,-16.5 1018,-16.5 1257,-16.5 1257,-16.5 1263,-16.5 1269,-22.5 1269,-28.5 1269,-28.5 1269,-117.5 1269,-117.5 1269,-123.5 1263,-129.5 1257,-129.5"/>
<text text-anchor="middle" x="1137.5" y="-114.3" font-family="Helvetica,sans-Serif" font-size="14.00">op4</text>
<text text-anchor="middle" x="1137.5" y="-99.3" font-family="Helvetica,sans-Serif" font-size="14.00">add_const</text>
<text text-anchor="middle" x="1137.5" y="-84.3" font-family="Helvetica,sans-Serif" font-size="14.00">line 227</text>
<text text-anchor="middle" x="1137.5" y="-69.3" font-family="Helvetica,sans-Serif" font-size="14.00">layer 4</text>
<text text-anchor="middle" x="1137.5" y="-54.3" font-family="Helvetica,sans-Serif" font-size="14.00">cost 1</text>
<text text-anchor="middle" x="1137.5" y="-39.3" font-family="Helvetica,sans-Serif" font-size="14.00">out sign__ind_7038__ciph_result@3</text>
<text text-anchor="middle" x="1137.5" y="-24.3" font-family="Helvetica,sans-Serif" font-size="14.00">in sign__ind_7038__ciph_result@2</text>
</g>
<!-- op3&#45;&gt;op4 -->
<g id="edge10" class="edge">
<title>op3&#45;&gt;op4</title>
<path fill="none" stroke="#1f2937" d="M774,-123.25C780.04,-124.69 786.06,-125.95 792,-127 877.79,-142.11 902.21,-142.11 988,-127 990.69,-126.53 993.4,-126.01 996.12,-125.45"/>
<polygon fill="#1f2937" stroke="#1f2937" points="997,-128.84 1006,-123.25 995.48,-122 997,-128.84"/>
<text text-anchor="middle" x="890" y="-141.8" font-family="Helvetica,sans-Serif" font-size="14.00">sign__ind_7038__ciph_result</text>
</g>
<!-- op3&#45;&gt;op4 -->
<g id="edge11" class="edge">
<title>op3&#45;&gt;op4</title>
<path fill="none" stroke="#2563eb" d="M774.22,-87.87C780.23,-88.31 786.17,-88.69 792,-89 878.99,-93.67 901.01,-93.67 988,-89 990.55,-88.86 993.12,-88.71 995.71,-88.55"/>
<polygon fill="#2563eb" stroke="#2563eb" points="996.04,-92.04 1005.78,-87.87 995.57,-85.05 996.04,-92.04"/>
<text text-anchor="middle" x="890" y="-95.8" font-family="Helvetica,sans-Serif" font-size="14.00">sign__ind_7038__ciph_result</text>
</g>
<!-- op3&#45;&gt;op4 -->
<g id="edge12" class="edge">
<title>op3&#45;&gt;op4</title>
<path fill="none" stroke="#f97316" d="M774.28,-70.21C780.27,-70.13 786.2,-70.06 792,-70 879.11,-69.12 900.89,-69.12 988,-70 990.54,-70.03 993.1,-70.05 995.68,-70.08"/>
<polygon fill="#f97316" stroke="#f97316" points="995.68,-73.58 1005.72,-70.21 995.77,-66.58 995.68,-73.58"/>
<text text-anchor="middle" x="890" y="-73.8" font-family="Helvetica,sans-Serif" font-size="14.00">sign__ind_7038__ciph_result</text>
</g>
<!-- op3&#45;&gt;op4 -->
<g id="edge13" class="edge">
<title>op3&#45;&gt;op4</title>
<path fill="none" stroke="#dc2626" d="M774.15,-51.63C780.18,-51 786.15,-50.45 792,-50 878.85,-43.31 901.15,-43.31 988,-50 990.56,-50.2 993.14,-50.41 995.74,-50.65"/>
<polygon fill="#dc2626" stroke="#dc2626" points="995.56,-54.14 1005.85,-51.63 996.23,-47.18 995.56,-54.14"/>
<text text-anchor="middle" x="890" y="-53.8" font-family="Helvetica,sans-Serif" font-size="14.00">sign__ind_7038__ciph_result</text>
</g>
<!-- op3&#45;&gt;op4 -->
<g id="edge14" class="edge">
<title>op3&#45;&gt;op4</title>
<path fill="none" stroke="#0f766e" d="M774.14,-28.33C780.14,-27.05 786.11,-25.93 792,-25 878.05,-11.44 901.95,-11.44 988,-25 990.67,-25.42 993.35,-25.88 996.05,-26.38"/>
<polygon fill="#0f766e" stroke="#0f766e" points="995.37,-29.81 1005.86,-28.33 996.74,-22.95 995.37,-29.81"/>
<text text-anchor="middle" x="890" y="-28.8" font-family="Helvetica,sans-Serif" font-size="14.00">ind@7038</text>
</g>
<!-- op6 -->
<g id="node7" class="node">
<title>op6</title>
<path fill="#e5e7eb" stroke="black" d="M1976,-240.5C1976,-240.5 1869,-240.5 1869,-240.5 1863,-240.5 1857,-234.5 1857,-228.5 1857,-228.5 1857,-139.5 1857,-139.5 1857,-133.5 1863,-127.5 1869,-127.5 1869,-127.5 1976,-127.5 1976,-127.5 1982,-127.5 1988,-133.5 1988,-139.5 1988,-139.5 1988,-228.5 1988,-228.5 1988,-234.5 1982,-240.5 1976,-240.5"/>
<text text-anchor="middle" x="1922.5" y="-225.3" font-family="Helvetica,sans-Serif" font-size="14.00">op6</text>
<text text-anchor="middle" x="1922.5" y="-210.3" font-family="Helvetica,sans-Serif" font-size="14.00">multiply_const</text>
<text text-anchor="middle" x="1922.5" y="-195.3" font-family="Helvetica,sans-Serif" font-size="14.00">line 261</text>
<text text-anchor="middle" x="1922.5" y="-180.3" font-family="Helvetica,sans-Serif" font-size="14.00">layer 6</text>
<text text-anchor="middle" x="1922.5" y="-165.3" font-family="Helvetica,sans-Serif" font-size="14.00">cost 3</text>
<text text-anchor="middle" x="1922.5" y="-150.3" font-family="Helvetica,sans-Serif" font-size="14.00">out ciph_tmp@3</text>
<text text-anchor="middle" x="1922.5" y="-135.3" font-family="Helvetica,sans-Serif" font-size="14.00">in ciph_cmp@1</text>
</g>
<!-- op1&#45;&gt;op6 -->
<g id="edge20" class="edge">
<title>op1&#45;&gt;op6</title>
<path fill="none" stroke="#f97316" d="M1693.34,-227.55C1735.15,-222.86 1790.55,-215.64 1839,-206 1841.64,-205.48 1844.31,-204.92 1847.01,-204.33"/>
<polygon fill="#f97316" stroke="#f97316" points="1847.86,-207.72 1856.83,-202.09 1846.31,-200.9 1847.86,-207.72"/>
<text text-anchor="middle" x="1805.5" y="-219.8" font-family="Helvetica,sans-Serif" font-size="14.00">ciph_tmp</text>
</g>
<!-- op1&#45;&gt;op6 -->
<g id="edge21" class="edge">
<title>op1&#45;&gt;op6</title>
<path fill="none" stroke="#dc2626" d="M1693.19,-208.3C1717.5,-199.85 1745.64,-191.48 1772,-187 1796.07,-182.91 1822.64,-181.42 1846.62,-181.17"/>
<polygon fill="#dc2626" stroke="#dc2626" points="1846.73,-184.67 1856.72,-181.14 1846.71,-177.67 1846.73,-184.67"/>
<text text-anchor="middle" x="1805.5" y="-190.8" font-family="Helvetica,sans-Serif" font-size="14.00">ciph_tmp</text>
</g>
<!-- op5 -->
<g id="node6" class="node">
<title>op5</title>
<path fill="#17becf" stroke="black" d="M1742,-129.5C1742,-129.5 1513,-129.5 1513,-129.5 1507,-129.5 1501,-123.5 1501,-117.5 1501,-117.5 1501,-28.5 1501,-28.5 1501,-22.5 1507,-16.5 1513,-16.5 1513,-16.5 1742,-16.5 1742,-16.5 1748,-16.5 1754,-22.5 1754,-28.5 1754,-28.5 1754,-117.5 1754,-117.5 1754,-123.5 1748,-129.5 1742,-129.5"/>
<text text-anchor="middle" x="1627.5" y="-114.3" font-family="Helvetica,sans-Serif" font-size="14.00">op5</text>
<text text-anchor="middle" x="1627.5" y="-99.3" font-family="Helvetica,sans-Serif" font-size="14.00">assign</text>
<text text-anchor="middle" x="1627.5" y="-84.3" font-family="Helvetica,sans-Serif" font-size="14.00">line 259</text>
<text text-anchor="middle" x="1627.5" y="-69.3" font-family="Helvetica,sans-Serif" font-size="14.00">layer 5</text>
<text text-anchor="middle" x="1627.5" y="-54.3" font-family="Helvetica,sans-Serif" font-size="14.00">cost 1</text>
<text text-anchor="middle" x="1627.5" y="-39.3" font-family="Helvetica,sans-Serif" font-size="14.00">out ciph_cmp@1</text>
<text text-anchor="middle" x="1627.5" y="-24.3" font-family="Helvetica,sans-Serif" font-size="14.00">in sign__ind_7038__ciph_result@3</text>
</g>
<!-- op4&#45;&gt;op5 -->
<g id="edge15" class="edge">
<title>op4&#45;&gt;op5</title>
<path fill="none" stroke="#1f2937" d="M1269.22,-87.87C1275.23,-88.31 1281.17,-88.69 1287,-89 1373.99,-93.67 1396.02,-93.83 1483,-89 1485.57,-88.86 1488.17,-88.7 1490.79,-88.53"/>
<polygon fill="#1f2937" stroke="#1f2937" points="1491.23,-92.01 1500.96,-87.81 1490.74,-85.02 1491.23,-92.01"/>
<text text-anchor="middle" x="1385" y="-95.8" font-family="Helvetica,sans-Serif" font-size="14.00">sign__ind_7038__ciph_result</text>
</g>
<!-- op4&#45;&gt;op5 -->
<g id="edge16" class="edge">
<title>op4&#45;&gt;op5</title>
<path fill="none" stroke="#2563eb" d="M1269.28,-70.21C1275.27,-70.13 1281.2,-70.06 1287,-70 1374.11,-69.12 1395.89,-69.09 1483,-70 1485.56,-70.03 1488.15,-70.06 1490.76,-70.09"/>
<polygon fill="#2563eb" stroke="#2563eb" points="1490.85,-73.59 1500.9,-70.22 1490.94,-66.59 1490.85,-73.59"/>
<text text-anchor="middle" x="1385" y="-73.8" font-family="Helvetica,sans-Serif" font-size="14.00">sign__ind_7038__ciph_result</text>
</g>
<!-- op4&#45;&gt;op5 -->
<g id="edge17" class="edge">
<title>op4&#45;&gt;op5</title>
<path fill="none" stroke="#0f766e" d="M1269.15,-51.63C1275.18,-51 1281.15,-50.45 1287,-50 1373.85,-43.31 1396.16,-43.09 1483,-50 1485.53,-50.2 1488.08,-50.42 1490.66,-50.66"/>
<polygon fill="#0f766e" stroke="#0f766e" points="1490.34,-54.15 1500.64,-51.67 1491.04,-47.18 1490.34,-54.15"/>
<text text-anchor="middle" x="1385" y="-53.8" font-family="Helvetica,sans-Serif" font-size="14.00">ind@7038</text>
</g>
<!-- op5&#45;&gt;op6 -->
<g id="edge18" class="edge">
<title>op5&#45;&gt;op6</title>
<path fill="none" stroke="#1f2937" d="M1754.03,-120.56C1785.85,-132.61 1819.01,-145.17 1847.35,-155.91"/>
<polygon fill="#1f2937" stroke="#1f2937" points="1846.18,-159.21 1856.77,-159.48 1848.66,-152.66 1846.18,-159.21"/>
<text text-anchor="middle" x="1805.5" y="-154.8" font-family="Helvetica,sans-Serif" font-size="14.00">ciph_cmp</text>
</g>
<!-- op5&#45;&gt;op6 -->
<g id="edge19" class="edge">
<title>op5&#45;&gt;op6</title>
<path fill="none" stroke="#2563eb" d="M1754.21,-88.56C1789.75,-94.26 1823.09,-101.24 1839,-109 1845.97,-112.4 1852.79,-116.57 1859.32,-121.19"/>
<polygon fill="#2563eb" stroke="#2563eb" points="1857.32,-124.08 1867.43,-127.26 1861.52,-118.47 1857.32,-124.08"/>
<text text-anchor="middle" x="1805.5" y="-112.8" font-family="Helvetica,sans-Serif" font-size="14.00">ciph_cmp</text>
</g>
<!-- op9 -->
<g id="node10" class="node">
<title>op9</title>
<path fill="#d62728" stroke="black" d="M2757,-155.5C2757,-155.5 2562,-155.5 2562,-155.5 2556,-155.5 2550,-149.5 2550,-143.5 2550,-143.5 2550,-54.5 2550,-54.5 2550,-48.5 2556,-42.5 2562,-42.5 2562,-42.5 2757,-42.5 2757,-42.5 2763,-42.5 2769,-48.5 2769,-54.5 2769,-54.5 2769,-143.5 2769,-143.5 2769,-149.5 2763,-155.5 2757,-155.5"/>
<text text-anchor="middle" x="2659.5" y="-140.3" font-family="Helvetica,sans-Serif" font-size="14.00">op9</text>
<text text-anchor="middle" x="2659.5" y="-125.3" font-family="Helvetica,sans-Serif" font-size="14.00">multiply_relin</text>
<text text-anchor="middle" x="2659.5" y="-110.3" font-family="Helvetica,sans-Serif" font-size="14.00">line 268</text>
<text text-anchor="middle" x="2659.5" y="-95.3" font-family="Helvetica,sans-Serif" font-size="14.00">layer 9</text>
<text text-anchor="middle" x="2659.5" y="-80.3" font-family="Helvetica,sans-Serif" font-size="14.00">cost 6</text>
<text text-anchor="middle" x="2659.5" y="-65.3" font-family="Helvetica,sans-Serif" font-size="14.00">out ciph_result@1</text>
<text text-anchor="middle" x="2659.5" y="-50.3" font-family="Helvetica,sans-Serif" font-size="14.00">in ciph_cmp@1, ciph_tmp@5</text>
</g>
<!-- op5&#45;&gt;op9 -->
<g id="edge29" class="edge">
<title>op5&#45;&gt;op9</title>
<path fill="none" stroke="#1f2937" d="M1754.33,-74.24C1806.11,-74.65 1866.69,-75 1921.5,-75 1921.5,-75 1921.5,-75 2385.5,-75 2436.14,-75 2491.86,-79.15 2539.68,-84"/>
<polygon fill="#1f2937" stroke="#1f2937" points="2539.45,-87.49 2549.76,-85.04 2540.17,-80.53 2539.45,-87.49"/>
<text text-anchor="middle" x="2153.5" y="-78.8" font-family="Helvetica,sans-Serif" font-size="14.00">ciph_cmp</text>
</g>
<!-- op5&#45;&gt;op9 -->
<g id="edge30" class="edge">
<title>op5&#45;&gt;op9</title>
<path fill="none" stroke="#2563eb" d="M1754.29,-42.59C1805.79,-32.6 1866.19,-24 1921.5,-24 1921.5,-24 1921.5,-24 2385.5,-24 2437.35,-24 2492.82,-36.73 2540.12,-51.71"/>
<polygon fill="#2563eb" stroke="#2563eb" points="2539.19,-55.08 2549.78,-54.83 2541.34,-48.42 2539.19,-55.08"/>
<text text-anchor="middle" x="2153.5" y="-27.8" font-family="Helvetica,sans-Serif" font-size="14.00">ciph_cmp</text>
</g>
<!-- op7 -->
<g id="node8" class="node">
<title>op7</title>
<path fill="#8c564b" stroke="black" d="M2207,-240.5C2207,-240.5 2100,-240.5 2100,-240.5 2094,-240.5 2088,-234.5 2088,-228.5 2088,-228.5 2088,-139.5 2088,-139.5 2088,-133.5 2094,-127.5 2100,-127.5 2100,-127.5 2207,-127.5 2207,-127.5 2213,-127.5 2219,-133.5 2219,-139.5 2219,-139.5 2219,-228.5 2219,-228.5 2219,-234.5 2213,-240.5 2207,-240.5"/>
<text text-anchor="middle" x="2153.5" y="-225.3" font-family="Helvetica,sans-Serif" font-size="14.00">op7</text>
<text text-anchor="middle" x="2153.5" y="-210.3" font-family="Helvetica,sans-Serif" font-size="14.00">rescale_dynamic</text>
<text text-anchor="middle" x="2153.5" y="-195.3" font-family="Helvetica,sans-Serif" font-size="14.00">line 262</text>
<text text-anchor="middle" x="2153.5" y="-180.3" font-family="Helvetica,sans-Serif" font-size="14.00">layer 7</text>
<text text-anchor="middle" x="2153.5" y="-165.3" font-family="Helvetica,sans-Serif" font-size="14.00">cost 4</text>
<text text-anchor="middle" x="2153.5" y="-150.3" font-family="Helvetica,sans-Serif" font-size="14.00">out ciph_tmp@4</text>
<text text-anchor="middle" x="2153.5" y="-135.3" font-family="Helvetica,sans-Serif" font-size="14.00">in ciph_tmp@3</text>
</g>
<!-- op6&#45;&gt;op7 -->
<g id="edge22" class="edge">
<title>op6&#45;&gt;op7</title>
<path fill="none" stroke="#1f2937" d="M1988.18,-197.76C1994.18,-198.67 2000.19,-199.44 2006,-200 2034.31,-202.72 2041.69,-202.72 2070,-200 2072.54,-199.76 2075.12,-199.47 2077.72,-199.15"/>
<polygon fill="#1f2937" stroke="#1f2937" points="2078.39,-202.59 2087.82,-197.76 2077.44,-195.66 2078.39,-202.59"/>
<text text-anchor="middle" x="2038" y="-205.8" font-family="Helvetica,sans-Serif" font-size="14.00">ciph_tmp</text>
</g>
<!-- op6&#45;&gt;op7 -->
<g id="edge23" class="edge">
<title>op6&#45;&gt;op7</title>
<path fill="none" stroke="#2563eb" d="M1988.34,-181.42C1994.31,-181.25 2000.27,-181.1 2006,-181 2034.44,-180.48 2041.56,-180.48 2070,-181 2072.51,-181.05 2075.06,-181.1 2077.63,-181.16"/>
<polygon fill="#2563eb" stroke="#2563eb" points="2077.57,-184.66 2087.66,-181.42 2077.75,-177.66 2077.57,-184.66"/>
<text text-anchor="middle" x="2038" y="-184.8" font-family="Helvetica,sans-Serif" font-size="14.00">ciph_tmp</text>
</g>
<!-- op6&#45;&gt;op7 -->
<g id="edge24" class="edge">
<title>op6&#45;&gt;op7</title>
<path fill="none" stroke="#f97316" d="M1988,-164.23C1994.04,-162.92 2000.11,-161.81 2006,-161 2034.18,-157.15 2041.82,-157.15 2070,-161 2072.67,-161.37 2075.38,-161.79 2078.1,-162.28"/>
<polygon fill="#f97316" stroke="#f97316" points="2077.51,-165.73 2088,-164.23 2078.87,-158.86 2077.51,-165.73"/>
<text text-anchor="middle" x="2038" y="-164.8" font-family="Helvetica,sans-Serif" font-size="14.00">ciph_tmp</text>
</g>
<!-- op8 -->
<g id="node9" class="node">
<title>op8</title>
<path fill="#e5e7eb" stroke="black" d="M2438,-216.5C2438,-216.5 2331,-216.5 2331,-216.5 2325,-216.5 2319,-210.5 2319,-204.5 2319,-204.5 2319,-115.5 2319,-115.5 2319,-109.5 2325,-103.5 2331,-103.5 2331,-103.5 2438,-103.5 2438,-103.5 2444,-103.5 2450,-109.5 2450,-115.5 2450,-115.5 2450,-204.5 2450,-204.5 2450,-210.5 2444,-216.5 2438,-216.5"/>
<text text-anchor="middle" x="2384.5" y="-201.3" font-family="Helvetica,sans-Serif" font-size="14.00">op8</text>
<text text-anchor="middle" x="2384.5" y="-186.3" font-family="Helvetica,sans-Serif" font-size="14.00">add_const</text>
<text text-anchor="middle" x="2384.5" y="-171.3" font-family="Helvetica,sans-Serif" font-size="14.00">line 265</text>
<text text-anchor="middle" x="2384.5" y="-156.3" font-family="Helvetica,sans-Serif" font-size="14.00">layer 8</text>
<text text-anchor="middle" x="2384.5" y="-141.3" font-family="Helvetica,sans-Serif" font-size="14.00">cost 1</text>
<text text-anchor="middle" x="2384.5" y="-126.3" font-family="Helvetica,sans-Serif" font-size="14.00">out ciph_tmp@5</text>
<text text-anchor="middle" x="2384.5" y="-111.3" font-family="Helvetica,sans-Serif" font-size="14.00">in ciph_tmp@4</text>
</g>
<!-- op7&#45;&gt;op8 -->
<g id="edge25" class="edge">
<title>op7&#45;&gt;op8</title>
<path fill="none" stroke="#1f2937" d="M2219.24,-201.82C2244.93,-206.34 2274.59,-208.34 2301,-202 2303.78,-201.33 2306.58,-200.55 2309.37,-199.68"/>
<polygon fill="#1f2937" stroke="#1f2937" points="2310.53,-202.99 2318.83,-196.4 2308.24,-196.37 2310.53,-202.99"/>
<text text-anchor="middle" x="2269" y="-209.8" font-family="Helvetica,sans-Serif" font-size="14.00">ciph_tmp</text>
</g>
<!-- op7&#45;&gt;op8 -->
<g id="edge26" class="edge">
<title>op7&#45;&gt;op8</title>
<path fill="none" stroke="#2563eb" d="M2219.2,-177.22C2247.13,-174.29 2279.95,-170.85 2308.9,-167.82"/>
<polygon fill="#2563eb" stroke="#2563eb" points="2309.38,-171.29 2318.96,-166.76 2308.65,-164.33 2309.38,-171.29"/>
<text text-anchor="middle" x="2269" y="-177.8" font-family="Helvetica,sans-Serif" font-size="14.00">ciph_tmp</text>
</g>
<!-- op7&#45;&gt;op8 -->
<g id="edge27" class="edge">
<title>op7&#45;&gt;op8</title>
<path fill="none" stroke="#f97316" d="M2219.06,-154.66C2225.04,-152.78 2231.07,-151.17 2237,-150 2260.09,-145.43 2285.58,-145.46 2308.74,-147.36"/>
<polygon fill="#f97316" stroke="#f97316" points="2308.57,-150.86 2318.85,-148.32 2309.23,-143.89 2308.57,-150.86"/>
<text text-anchor="middle" x="2269" y="-153.8" font-family="Helvetica,sans-Serif" font-size="14.00">ciph_tmp</text>
</g>
<!-- op7&#45;&gt;op8 -->
<g id="edge28" class="edge">
<title>op7&#45;&gt;op8</title>
<path fill="none" stroke="#dc2626" d="M2219.31,-134.2C2225.09,-131.33 2231.02,-128.87 2237,-127 2260.08,-119.8 2285.67,-122.15 2308.92,-128.07"/>
<polygon fill="#dc2626" stroke="#dc2626" points="2308.15,-131.49 2318.72,-130.81 2310.04,-124.75 2308.15,-131.49"/>
<text text-anchor="middle" x="2269" y="-130.8" font-family="Helvetica,sans-Serif" font-size="14.00">ciph_tmp</text>
</g>
<!-- op8&#45;&gt;op9 -->
<g id="edge31" class="edge">
<title>op8&#45;&gt;op9</title>
<path fill="none" stroke="#1f2937" d="M2450.31,-149.85C2475.87,-145.5 2505.42,-140.02 2532,-134 2534.67,-133.4 2537.37,-132.77 2540.08,-132.13"/>
<polygon fill="#1f2937" stroke="#1f2937" points="2541.09,-135.49 2549.99,-129.74 2539.44,-128.68 2541.09,-135.49"/>
<text text-anchor="middle" x="2500" y="-149.8" font-family="Helvetica,sans-Serif" font-size="14.00">ciph_tmp</text>
</g>
<!-- op8&#45;&gt;op9 -->
<g id="edge32" class="edge">
<title>op8&#45;&gt;op9</title>
<path fill="none" stroke="#2563eb" d="M2450.17,-121.56C2456.07,-119.03 2462.06,-116.78 2468,-115 2490.67,-108.2 2515.49,-103.94 2539.51,-101.34"/>
<polygon fill="#2563eb" stroke="#2563eb" points="2540.14,-104.8 2549.74,-100.33 2539.45,-97.83 2540.14,-104.8"/>
<text text-anchor="middle" x="2500" y="-118.8" font-family="Helvetica,sans-Serif" font-size="14.00">ciph_tmp</text>
</g>
<!-- op10 -->
<g id="node11" class="node">
<title>op10</title>
<path fill="#8c564b" stroke="black" d="M3011,-155.5C3011,-155.5 2893,-155.5 2893,-155.5 2887,-155.5 2881,-149.5 2881,-143.5 2881,-143.5 2881,-54.5 2881,-54.5 2881,-48.5 2887,-42.5 2893,-42.5 2893,-42.5 3011,-42.5 3011,-42.5 3017,-42.5 3023,-48.5 3023,-54.5 3023,-54.5 3023,-143.5 3023,-143.5 3023,-149.5 3017,-155.5 3011,-155.5"/>
<text text-anchor="middle" x="2952" y="-140.3" font-family="Helvetica,sans-Serif" font-size="14.00">op10</text>
<text text-anchor="middle" x="2952" y="-125.3" font-family="Helvetica,sans-Serif" font-size="14.00">rescale_dynamic</text>
<text text-anchor="middle" x="2952" y="-110.3" font-family="Helvetica,sans-Serif" font-size="14.00">line 269</text>
<text text-anchor="middle" x="2952" y="-95.3" font-family="Helvetica,sans-Serif" font-size="14.00">layer 10</text>
<text text-anchor="middle" x="2952" y="-80.3" font-family="Helvetica,sans-Serif" font-size="14.00">cost 4</text>
<text text-anchor="middle" x="2952" y="-65.3" font-family="Helvetica,sans-Serif" font-size="14.00">out ciph_result@2</text>
<text text-anchor="middle" x="2952" y="-50.3" font-family="Helvetica,sans-Serif" font-size="14.00">in ciph_result@1</text>
</g>
<!-- op9&#45;&gt;op10 -->
<g id="edge33" class="edge">
<title>op9&#45;&gt;op10</title>
<path fill="none" stroke="#1f2937" d="M2769.05,-114.34C2799.46,-116.8 2832.53,-117.75 2863,-115 2865.5,-114.77 2868.04,-114.51 2870.6,-114.22"/>
<polygon fill="#1f2937" stroke="#1f2937" points="2871.07,-117.69 2880.55,-112.96 2870.19,-110.75 2871.07,-117.69"/>
<text text-anchor="middle" x="2825" y="-119.8" font-family="Helvetica,sans-Serif" font-size="14.00">ciph_result</text>
</g>
<!-- op9&#45;&gt;op10 -->
<g id="edge34" class="edge">
<title>op9&#45;&gt;op10</title>
<path fill="none" stroke="#2563eb" d="M2769.01,-96.12C2799.42,-95.66 2832.5,-95.48 2863,-96 2865.54,-96.04 2868.12,-96.09 2870.73,-96.15"/>
<polygon fill="#2563eb" stroke="#2563eb" points="2870.8,-99.65 2880.88,-96.39 2870.96,-92.65 2870.8,-99.65"/>
<text text-anchor="middle" x="2825" y="-99.8" font-family="Helvetica,sans-Serif" font-size="14.00">ciph_result</text>
</g>
<!-- op9&#45;&gt;op10 -->
<g id="edge35" class="edge">
<title>op9&#45;&gt;op10</title>
<path fill="none" stroke="#f97316" d="M2769.08,-77C2799.49,-73.47 2832.56,-72.09 2863,-76 2865.54,-76.33 2868.1,-76.7 2870.69,-77.12"/>
<polygon fill="#f97316" stroke="#f97316" points="2870.24,-80.6 2880.71,-78.94 2871.49,-73.71 2870.24,-80.6"/>
<text text-anchor="middle" x="2825" y="-79.8" font-family="Helvetica,sans-Serif" font-size="14.00">ciph_result</text>
</g>
<!-- op11 -->
<g id="node12" class="node">
<title>op11</title>
<path fill="#e5e7eb" stroke="black" d="M3265,-144.5C3265,-144.5 3147,-144.5 3147,-144.5 3141,-144.5 3135,-138.5 3135,-132.5 3135,-132.5 3135,-43.5 3135,-43.5 3135,-37.5 3141,-31.5 3147,-31.5 3147,-31.5 3265,-31.5 3265,-31.5 3271,-31.5 3277,-37.5 3277,-43.5 3277,-43.5 3277,-132.5 3277,-132.5 3277,-138.5 3271,-144.5 3265,-144.5"/>
<text text-anchor="middle" x="3206" y="-129.3" font-family="Helvetica,sans-Serif" font-size="14.00">op11</text>
<text text-anchor="middle" x="3206" y="-114.3" font-family="Helvetica,sans-Serif" font-size="14.00">multiply_const</text>
<text text-anchor="middle" x="3206" y="-99.3" font-family="Helvetica,sans-Serif" font-size="14.00">line 272</text>
<text text-anchor="middle" x="3206" y="-84.3" font-family="Helvetica,sans-Serif" font-size="14.00">layer 11</text>
<text text-anchor="middle" x="3206" y="-69.3" font-family="Helvetica,sans-Serif" font-size="14.00">cost 3</text>
<text text-anchor="middle" x="3206" y="-54.3" font-family="Helvetica,sans-Serif" font-size="14.00">out ciph_result@3</text>
<text text-anchor="middle" x="3206" y="-39.3" font-family="Helvetica,sans-Serif" font-size="14.00">in ciph_result@2</text>
</g>
<!-- op10&#45;&gt;op11 -->
<g id="edge36" class="edge">
<title>op10&#45;&gt;op11</title>
<path fill="none" stroke="#1f2937" d="M3023.05,-117.26C3052.2,-122.45 3086.33,-125.4 3117,-120 3119.68,-119.53 3122.39,-118.98 3125.12,-118.37"/>
<polygon fill="#1f2937" stroke="#1f2937" points="3126.14,-121.72 3134.99,-115.9 3124.44,-114.93 3126.14,-121.72"/>
<text text-anchor="middle" x="3079" y="-125.8" font-family="Helvetica,sans-Serif" font-size="14.00">ciph_result</text>
</g>
<!-- op10&#45;&gt;op11 -->
<g id="edge37" class="edge">
<title>op10&#45;&gt;op11</title>
<path fill="none" stroke="#2563eb" d="M3023.2,-95.94C3054.6,-94.56 3091.81,-92.94 3124.35,-91.52"/>
<polygon fill="#2563eb" stroke="#2563eb" points="3124.91,-95 3134.74,-91.07 3124.6,-88.01 3124.91,-95"/>
<text text-anchor="middle" x="3079" y="-98.8" font-family="Helvetica,sans-Serif" font-size="14.00">ciph_result</text>
</g>
<!-- op10&#45;&gt;op11 -->
<g id="edge38" class="edge">
<title>op10&#45;&gt;op11</title>
<path fill="none" stroke="#f97316" d="M3023.18,-75.45C3029.16,-74.06 3035.15,-72.88 3041,-72 3068.22,-67.92 3098.14,-69.16 3124.89,-72.31"/>
<polygon fill="#f97316" stroke="#f97316" points="3124.61,-75.8 3134.98,-73.6 3125.5,-68.86 3124.61,-75.8"/>
<text text-anchor="middle" x="3079" y="-75.8" font-family="Helvetica,sans-Serif" font-size="14.00">ciph_result</text>
</g>
<!-- op10&#45;&gt;op11 -->
<g id="edge39" class="edge">
<title>op10&#45;&gt;op11</title>
<path fill="none" stroke="#dc2626" d="M3023.02,-56.04C3028.96,-53.63 3034.99,-51.56 3041,-50 3073.69,-41.51 3083.92,-43.16 3117,-50 3119.66,-50.55 3122.34,-51.18 3125.02,-51.89"/>
<polygon fill="#dc2626" stroke="#dc2626" points="3124.15,-55.28 3134.73,-54.73 3126.11,-48.56 3124.15,-55.28"/>
<text text-anchor="middle" x="3079" y="-53.8" font-family="Helvetica,sans-Serif" font-size="14.00">ciph_result</text>
</g>
<!-- op12 -->
<g id="node13" class="node">
<title>op12</title>
<path fill="#8c564b" stroke="black" d="M3519,-137.5C3519,-137.5 3401,-137.5 3401,-137.5 3395,-137.5 3389,-131.5 3389,-125.5 3389,-125.5 3389,-36.5 3389,-36.5 3389,-30.5 3395,-24.5 3401,-24.5 3401,-24.5 3519,-24.5 3519,-24.5 3525,-24.5 3531,-30.5 3531,-36.5 3531,-36.5 3531,-125.5 3531,-125.5 3531,-131.5 3525,-137.5 3519,-137.5"/>
<text text-anchor="middle" x="3460" y="-122.3" font-family="Helvetica,sans-Serif" font-size="14.00">op12</text>
<text text-anchor="middle" x="3460" y="-107.3" font-family="Helvetica,sans-Serif" font-size="14.00">rescale_dynamic</text>
<text text-anchor="middle" x="3460" y="-92.3" font-family="Helvetica,sans-Serif" font-size="14.00">line 273</text>
<text text-anchor="middle" x="3460" y="-77.3" font-family="Helvetica,sans-Serif" font-size="14.00">layer 12</text>
<text text-anchor="middle" x="3460" y="-62.3" font-family="Helvetica,sans-Serif" font-size="14.00">cost 4</text>
<text text-anchor="middle" x="3460" y="-47.3" font-family="Helvetica,sans-Serif" font-size="14.00">out ciph_result@4</text>
<text text-anchor="middle" x="3460" y="-32.3" font-family="Helvetica,sans-Serif" font-size="14.00">in ciph_result@3</text>
</g>
<!-- op11&#45;&gt;op12 -->
<g id="edge40" class="edge">
<title>op11&#45;&gt;op12</title>
<path fill="none" stroke="#1f2937" d="M3277.05,-115.03C3283.05,-116.62 3289.09,-117.99 3295,-119 3328.29,-124.69 3337.92,-125.84 3371,-119 3373.66,-118.45 3376.34,-117.82 3379.02,-117.11"/>
<polygon fill="#1f2937" stroke="#1f2937" points="3380.11,-120.44 3388.73,-114.27 3378.15,-113.72 3380.11,-120.44"/>
<text text-anchor="middle" x="3333" y="-126.8" font-family="Helvetica,sans-Serif" font-size="14.00">ciph_result</text>
</g>
<!-- op11&#45;&gt;op12 -->
<g id="edge41" class="edge">
<title>op11&#45;&gt;op12</title>
<path fill="none" stroke="#2563eb" d="M3277.2,-86.05C3308.6,-85.18 3345.81,-84.14 3378.35,-83.24"/>
<polygon fill="#2563eb" stroke="#2563eb" points="3378.84,-86.73 3388.74,-82.95 3378.65,-79.73 3378.84,-86.73"/>
<text text-anchor="middle" x="3333" y="-88.8" font-family="Helvetica,sans-Serif" font-size="14.00">ciph_result</text>
</g>
<!-- op11&#45;&gt;op12 -->
<g id="edge42" class="edge">
<title>op11&#45;&gt;op12</title>
<path fill="none" stroke="#f97316" d="M3277.27,-67.07C3283.23,-65.83 3289.19,-64.78 3295,-64 3328.48,-59.52 3337.38,-60.78 3371,-64 3373.51,-64.24 3376.05,-64.52 3378.61,-64.83"/>
<polygon fill="#f97316" stroke="#f97316" points="3378.19,-68.3 3388.57,-66.17 3379.12,-61.36 3378.19,-68.3"/>
<text text-anchor="middle" x="3333" y="-67.8" font-family="Helvetica,sans-Serif" font-size="14.00">ciph_result</text>
</g>
<!-- op11&#45;&gt;op12 -->
<g id="edge43" class="edge">
<title>op11&#45;&gt;op12</title>
<path fill="none" stroke="#dc2626" d="M3277.41,-47.56C3283.24,-45.34 3289.14,-43.44 3295,-42 3327.8,-33.94 3337.95,-35.01 3371,-42 3373.67,-42.56 3376.35,-43.22 3379.04,-43.94"/>
<polygon fill="#dc2626" stroke="#dc2626" points="3378.19,-47.34 3388.77,-46.86 3380.2,-40.63 3378.19,-47.34"/>
<text text-anchor="middle" x="3333" y="-45.8" font-family="Helvetica,sans-Serif" font-size="14.00">ciph_result</text>
</g>
<!-- op13 -->
<g id="node14" class="node">
<title>op13</title>
<path fill="#64748b" stroke="black" d="M3767,-135.5C3767,-135.5 3655,-135.5 3655,-135.5 3649,-135.5 3643,-129.5 3643,-123.5 3643,-123.5 3643,-34.5 3643,-34.5 3643,-28.5 3649,-22.5 3655,-22.5 3655,-22.5 3767,-22.5 3767,-22.5 3773,-22.5 3779,-28.5 3779,-34.5 3779,-34.5 3779,-123.5 3779,-123.5 3779,-129.5 3773,-135.5 3767,-135.5"/>
<text text-anchor="middle" x="3711" y="-120.3" font-family="Helvetica,sans-Serif" font-size="14.00">op13</text>
<text text-anchor="middle" x="3711" y="-105.3" font-family="Helvetica,sans-Serif" font-size="14.00">return</text>
<text text-anchor="middle" x="3711" y="-90.3" font-family="Helvetica,sans-Serif" font-size="14.00">line 274</text>
<text text-anchor="middle" x="3711" y="-75.3" font-family="Helvetica,sans-Serif" font-size="14.00">layer 13</text>
<text text-anchor="middle" x="3711" y="-60.3" font-family="Helvetica,sans-Serif" font-size="14.00">cost 1</text>
<text text-anchor="middle" x="3711" y="-45.3" font-family="Helvetica,sans-Serif" font-size="14.00">out __return__@1</text>
<text text-anchor="middle" x="3711" y="-30.3" font-family="Helvetica,sans-Serif" font-size="14.00">in ciph_result@4</text>
</g>
<!-- op12&#45;&gt;op13 -->
<g id="edge44" class="edge">
<title>op12&#45;&gt;op13</title>
<path fill="none" stroke="#1f2937" d="M3531.02,-80.44C3562.56,-80.18 3599.91,-79.88 3632.31,-79.62"/>
<polygon fill="#1f2937" stroke="#1f2937" points="3632.67,-83.12 3642.65,-79.54 3632.62,-76.12 3632.67,-83.12"/>
<text text-anchor="middle" x="3587" y="-83.8" font-family="Helvetica,sans-Serif" font-size="14.00">ciph_result</text>
</g>
<!-- op12&#45;&gt;op13 -->
<g id="edge45" class="edge">
<title>op12&#45;&gt;op13</title>
<path fill="none" stroke="#2563eb" d="M3531.34,-62.68C3537.29,-61.6 3543.23,-60.68 3549,-60 3582.55,-56.05 3591.43,-56.29 3625,-60 3627.66,-60.29 3630.35,-60.64 3633.07,-61.02"/>
<polygon fill="#2563eb" stroke="#2563eb" points="3632.53,-64.48 3642.95,-62.58 3633.62,-57.57 3632.53,-64.48"/>
<text text-anchor="middle" x="3587" y="-63.8" font-family="Helvetica,sans-Serif" font-size="14.00">ciph_result</text>
</g>
</g>
</svg>
