<?xml version="1.0" encoding="UTF-8" standalone="no"?>
<!DOCTYPE svg PUBLIC "-//W3C//DTD SVG 1.1//EN"
 "http://www.w3.org/Graphics/SVG/1.1/DTD/svg11.dtd">
<!-- Generated by graphviz version 2.43.0 (0)
 -->
<!-- Title: hedag_v2 Pages: 1 -->
<svg width="575pt" height="177pt"
 viewBox="0.00 0.00 575.00 177.00" xmlns="http://www.w3.org/2000/svg" xmlns:xlink="http://www.w3.org/1999/xlink">
<g id="graph0" class="graph" transform="scale(1 1) rotate(0) translate(4 173)">
<title>hedag_v2</title>
<polygon fill="white" stroke="transparent" points="-4,4 -4,-173 571,-173 571,4 -4,4"/>
<g id="clust1" class="cluster">
<title>cluster_layer_0</title>
<polygon fill="none" stroke="#d1d5db" points="8,-8 8,-161 125,-161 125,-8 8,-8"/>
<text text-anchor="middle" x="66.5" y="-145.8" font-family="Times,serif" font-size="14.00">layer 0</text>
</g>
<g id="clust2" class="cluster">
<title>cluster_layer_1</title>
<polygon fill="none" stroke="#d1d5db" points="179,-8 179,-161 324,-161 324,-8 179,-8"/>
<text text-anchor="middle" x="251.5" y="-145.8" font-family="Times,serif" font-size="14.00">layer 1</text>
</g>
<g id="clust3" class="cluster">
<title>cluster_layer_2</title>
<polygon fill="none" stroke="#d1d5db" points="407,-8 407,-161 559,-161 559,-8 407,-8"/>
<text text-anchor="middle" x="483" y="-145.8" font-family="Times,serif" font-size="14.00">layer 2</text>
</g>
<!-- op0 -->
<g id="node1" class="node">
<title>op0</title>
<path fill="#e5e7eb" stroke="black" d="M105,-129.5C105,-129.5 28,-129.5 28,-129.5 22,-129.5 16,-123.5 16,-117.5 16,-117.5 16,-28.5 16,-28.5 16,-22.5 22,-16.5 28,-16.5 28,-16.5 105,-16.5 105,-16.5 111,-16.5 117,-22.5 117,-28.5 117,-28.5 117,-117.5 117,-117.5 117,-123.5 111,-129.5 105,-129.5"/>
<text text-anchor="middle" x="66.5" y="-114.3" font-family="Helvetica,sans-Serif" font-size="14.00">op0</text>
<text text-anchor="middle" x="66.5" y="-99.3" font-family="Helvetica,sans-Serif" font-size="14.00">decrypt</text>
<text text-anchor="middle" x="66.5" y="-84.3" font-family="Helvetica,sans-Serif" font-size="14.00">line 518</text>
<text text-anchor="middle" x="66.5" y="-69.3" font-family="Helvetica,sans-Serif" font-size="14.00">layer 0</text>
<text text-anchor="middle" x="66.5" y="-54.3" font-family="Helvetica,sans-Serif" font-size="14.00">cost 4</text>
<text text-anchor="middle" x="66.5" y="-39.3" font-family="Helvetica,sans-Serif" font-size="14.00">out plain@1</text>
<text text-anchor="middle" x="66.5" y="-24.3" font-family="Helvetica,sans-Serif" font-size="14.00">in ciph@0</text>
</g>
<!-- op1 -->
<g id="node2" class="node">
<title>op1</title>
<path fill="#e5e7eb" stroke="black" d="M304,-129.5C304,-129.5 199,-129.5 199,-129.5 193,-129.5 187,-123.5 187,-117.5 187,-117.5 187,-28.5 187,-28.5 187,-22.5 193,-16.5 199,-16.5 199,-16.5 304,-16.5 304,-16.5 310,-16.5 316,-22.5 316,-28.5 316,-28.5 316,-117.5 316,-117.5 316,-123.5 310,-129.5 304,-129.5"/>
<text text-anchor="middle" x="251.5" y="-114.3" font-family="Helvetica,sans-Serif" font-size="14.00">op1</text>
<text text-anchor="middle" x="251.5" y="-99.3" font-family="Helvetica,sans-Serif" font-size="14.00">decode</text>
<text text-anchor="middle" x="251.5" y="-84.3" font-family="Helvetica,sans-Serif" font-size="14.00">line 520</text>
<text text-anchor="middle" x="251.5" y="-69.3" font-family="Helvetica,sans-Serif" font-size="14.00">layer 1</text>
<text text-anchor="middle" x="251.5" y="-54.3" font-family="Helvetica,sans-Serif" font-size="14.00">cost 1</text>
<text text-anchor="middle" x="251.5" y="-39.3" font-family="Helvetica,sans-Serif" font-size="14.00">out message@1</text>
<text text-anchor="middle" x="251.5" y="-24.3" font-family="Helvetica,sans-Serif" font-size="14.00">in plain@1</text>
</g>
<!-- op0&#45;&gt;op1 -->
<g id="edge1" class="edge">
<title>op0&#45;&gt;op1</title>
<path fill="none" stroke="#1f2937" d="M117.02,-73C135.4,-73 156.67,-73 176.75,-73"/>
<polygon fill="#1f2937" stroke="#1f2937" points="176.81,-76.5 186.81,-73 176.81,-69.5 176.81,-76.5"/>
<text text-anchor="middle" x="152" y="-76.8" font-family="Helvetica,sans-Serif" font-size="14.00">plain</text>
</g>
<!-- op0&#45;&gt;op1 -->
<g id="edge2" class="edge">
<title>op0&#45;&gt;op1</title>
<path fill="none" stroke="#2563eb" d="M117.31,-57.34C123.22,-55.97 129.21,-54.8 135,-54 148.53,-52.13 162.91,-52.55 176.77,-54.19"/>
<polygon fill="#2563eb" stroke="#2563eb" points="176.36,-57.67 186.74,-55.58 177.32,-50.74 176.36,-57.67"/>
<text text-anchor="middle" x="152" y="-57.8" font-family="Helvetica,sans-Serif" font-size="14.00">plain</text>
</g>
<!-- op2 -->
<g id="node3" class="node">
<title>op2</title>
<path fill="#64748b" stroke="black" d="M539,-129.5C539,-129.5 427,-129.5 427,-129.5 421,-129.5 415,-123.5 415,-117.5 415,-117.5 415,-28.5 415,-28.5 415,-22.5 421,-16.5 427,-16.5 427,-16.5 539,-16.5 539,-16.5 545,-16.5 551,-22.5 551,-28.5 551,-28.5 551,-117.5 551,-117.5 551,-123.5 545,-129.5 539,-129.5"/>
<text text-anchor="middle" x="483" y="-114.3" font-family="Helvetica,sans-Serif" font-size="14.00">op2</text>
<text text-anchor="middle" x="483" y="-99.3" font-family="Helvetica,sans-Serif" font-size="14.00">return</text>
<text text-anchor="middle" x="483" y="-84.3" font-family="Helvetica,sans-Serif" font-size="14.00">line 521</text>
<text text-anchor="middle" x="483" y="-69.3" font-family="Helvetica,sans-Serif" font-size="14.00">layer 2</text>
<text text-anchor="middle" x="483" y="-54.3" font-family="Helvetica,sans-Serif" font-size="14.00">cost 1</text>
<text text-anchor="middle" x="483" y="-39.3" font-family="Helvetica,sans-Serif" font-size="14.00">out __return__@1</text>
<text text-anchor="middle" x="483" y="-24.3" font-family="Helvetica,sans-Serif" font-size="14.00">in message@1</text>
</g>
<!-- op1&#45;&gt;op2 -->
<g id="edge3" class="edge">
<title>op1&#45;&gt;op2</title>
<path fill="none" stroke="#1f2937" d="M316.12,-73C343.54,-73 375.84,-73 404.62,-73"/>
<polygon fill="#1f2937" stroke="#1f2937" points="404.64,-76.5 414.64,-73 404.64,-69.5 404.64,-76.5"/>
<text text-anchor="middle" x="365.5" y="-76.8" font-family="Helvetica,sans-Serif" font-size="14.00">message</text>
</g>
<!-- op1&#45;&gt;op2 -->
<g id="edge4" class="edge">
<title>op1&#45;&gt;op2</title>
<path fill="none" stroke="#2563eb" d="M316.32,-56.66C322.27,-55.58 328.23,-54.66 334,-54 361.82,-50.8 369.17,-50.93 397,-54 399.66,-54.29 402.35,-54.64 405.07,-55.02"/>
<polygon fill="#2563eb" stroke="#2563eb" points="404.53,-58.48 414.95,-56.58 405.62,-51.57 404.53,-58.48"/>
<text text-anchor="middle" x="365.5" y="-57.8" font-family="Helvetica,sans-Serif" font-size="14.00">message</text>
</g>
</g>
</svg>
