<?xml version="1.0" encoding="UTF-8" standalone="no"?>
<!DOCTYPE svg PUBLIC "-//W3C//DTD SVG 1.1//EN"
 "http://www.w3.org/Graphics/SVG/1.1/DTD/svg11.dtd">
<!-- Generated by graphviz version 2.43.0 (0)
 -->
<!-- Title: hedag_v2 Pages: 1 -->
<svg width="595pt" height="327pt"
 viewBox="0.00 0.00 595.00 327.00" xmlns="http://www.w3.org/2000/svg" xmlns:xlink="http://www.w3.org/1999/xlink">
<g id="graph0" class="graph" transform="scale(1 1) rotate(0) translate(4 323)">
<title>hedag_v2</title>
<polygon fill="white" stroke="transparent" points="-4,4 -4,-323 591,-323 591,4 -4,4"/>
<g id="clust1" class="cluster">
<title>cluster_layer_0</title>
<polygon fill="none" stroke="#d1d5db" points="8,-8 8,-292 311,-292 311,-8 8,-8"/>
<text text-anchor="middle" x="159.5" y="-276.8" font-family="Times,serif" font-size="14.00">layer 0</text>
</g>
<g id="clust2" class="cluster">
<title>cluster_layer_1</title>
<polygon fill="none" stroke="#d1d5db" points="419,-158 419,-311 579,-311 579,-158 419,-158"/>
<text text-anchor="middle" x="499" y="-295.8" font-family="Times,serif" font-size="14.00">layer 1</text>
</g>
<!-- op0 -->
<g id="node1" class="node">
<title>op0</title>
<path fill="#e5e7eb" stroke="black" d="M224.5,-260.5C224.5,-260.5 94.5,-260.5 94.5,-260.5 88.5,-260.5 82.5,-254.5 82.5,-248.5 82.5,-248.5 82.5,-159.5 82.5,-159.5 82.5,-153.5 88.5,-147.5 94.5,-147.5 94.5,-147.5 224.5,-147.5 224.5,-147.5 230.5,-147.5 236.5,-153.5 236.5,-159.5 236.5,-159.5 236.5,-248.5 236.5,-248.5 236.5,-254.5 230.5,-260.5 224.5,-260.5"/>
<text text-anchor="middle" x="159.5" y="-245.3" font-family="Helvetica,sans-Serif" font-size="14.00">op0</text>
<text text-anchor="middle" x="159.5" y="-230.3" font-family="Helvetica,sans-Serif" font-size="14.00">decrypt</text>
<text text-anchor="middle" x="159.5" y="-215.3" font-family="Helvetica,sans-Serif" font-size="14.00">line 589</text>
<text text-anchor="middle" x="159.5" y="-200.3" font-family="Helvetica,sans-Serif" font-size="14.00">layer 0</text>
<text text-anchor="middle" x="159.5" y="-185.3" font-family="Helvetica,sans-Serif" font-size="14.00">cost 4</text>
<text text-anchor="middle" x="159.5" y="-170.3" font-family="Helvetica,sans-Serif" font-size="14.00">out plain_weight@1</text>
<text text-anchor="middle" x="159.5" y="-155.3" font-family="Helvetica,sans-Serif" font-size="14.00">in ciph_weight@0</text>
</g>
<!-- op1 -->
<g id="node3" class="node">
<title>op1</title>
<path fill="#e5e7eb" stroke="black" d="M559,-279.5C559,-279.5 439,-279.5 439,-279.5 433,-279.5 427,-273.5 427,-267.5 427,-267.5 427,-178.5 427,-178.5 427,-172.5 433,-166.5 439,-166.5 439,-166.5 559,-166.5 559,-166.5 565,-166.5 571,-172.5 571,-178.5 571,-178.5 571,-267.5 571,-267.5 571,-273.5 565,-279.5 559,-279.5"/>
<text text-anchor="middle" x="499" y="-264.3" font-family="Helvetica,sans-Serif" font-size="14.00">op1</text>
<text text-anchor="middle" x="499" y="-249.3" font-family="Helvetica,sans-Serif" font-size="14.00">decode</text>
<text text-anchor="middle" x="499" y="-234.3" font-family="Helvetica,sans-Serif" font-size="14.00">line 591</text>
<text text-anchor="middle" x="499" y="-219.3" font-family="Helvetica,sans-Serif" font-size="14.00">layer 1</text>
<text text-anchor="middle" x="499" y="-204.3" font-family="Helvetica,sans-Serif" font-size="14.00">cost 1</text>
<text text-anchor="middle" x="499" y="-189.3" font-family="Helvetica,sans-Serif" font-size="14.00">out message@1</text>
<text text-anchor="middle" x="499" y="-174.3" font-family="Helvetica,sans-Serif" font-size="14.00">in plain_weight@1</text>
</g>
<!-- op0&#45;&gt;op1 -->
<g id="edge1" class="edge">
<title>op0&#45;&gt;op1</title>
<path fill="none" stroke="#1f2937" d="M236.66,-208.29C290.29,-211.31 361.98,-215.34 416.71,-218.42"/>
<polygon fill="#1f2937" stroke="#1f2937" points="416.55,-221.92 426.73,-218.99 416.94,-214.93 416.55,-221.92"/>
<text text-anchor="middle" x="365" y="-220.8" font-family="Helvetica,sans-Serif" font-size="14.00">plain_weight</text>
</g>
<!-- op0&#45;&gt;op1 -->
<g id="edge2" class="edge">
<title>op0&#45;&gt;op1</title>
<path fill="none" stroke="#2563eb" d="M236.54,-193.23C285.96,-188.11 351.65,-184.89 409,-194 411.53,-194.4 414.08,-194.86 416.65,-195.38"/>
<polygon fill="#2563eb" stroke="#2563eb" points="416.06,-198.83 426.59,-197.59 417.59,-192 416.06,-198.83"/>
<text text-anchor="middle" x="365" y="-197.8" font-family="Helvetica,sans-Serif" font-size="14.00">plain_weight</text>
</g>
<!-- op2 -->
<g id="node2" class="node">
<title>op2</title>
<path fill="#64748b" stroke="black" d="M291,-129.5C291,-129.5 28,-129.5 28,-129.5 22,-129.5 16,-123.5 16,-117.5 16,-117.5 16,-28.5 16,-28.5 16,-22.5 22,-16.5 28,-16.5 28,-16.5 291,-16.5 291,-16.5 297,-16.5 303,-22.5 303,-28.5 303,-28.5 303,-117.5 303,-117.5 303,-123.5 297,-129.5 291,-129.5"/>
<text text-anchor="middle" x="159.5" y="-114.3" font-family="Helvetica,sans-Serif" font-size="14.00">op2</text>
<text text-anchor="middle" x="159.5" y="-99.3" font-family="Helvetica,sans-Serif" font-size="14.00">return</text>
<text text-anchor="middle" x="159.5" y="-84.3" font-family="Helvetica,sans-Serif" font-size="14.00">line 592</text>
<text text-anchor="middle" x="159.5" y="-69.3" font-family="Helvetica,sans-Serif" font-size="14.00">layer 0</text>
<text text-anchor="middle" x="159.5" y="-54.3" font-family="Helvetica,sans-Serif" font-size="14.00">cost 1</text>
<text text-anchor="middle" x="159.5" y="-39.3" font-family="Helvetica,sans-Serif" font-size="14.00">out __return__@1</text>
<text text-anchor="middle" x="159.5" y="-24.3" font-family="Helvetica,sans-Serif" font-size="14.00">in accuracy_of_plain(message, x, y)@0</text>
</g>
</g>
</svg>
