<?xml version="1.0" encoding="UTF-8" standalone="no"?>
<!DOCTYPE svg PUBLIC "-//W3C//DTD SVG 1.1//EN"
 "http://www.w3.org/Graphics/SVG/1.1/DTD/svg11.dtd">
<!-- Generated by graphviz version 2.43.0 (0)
 -->
<!-- Title: hedag_v2 Pages: 1 -->
<svg width="1232pt" height="191pt"
 viewBox="0.00 0.00 1232.00 191.00" xmlns="http://www.w3.org/2000/svg" xmlns:xlink="http://www.w3.org/1999/xlink">
<g id="graph0" class="graph" transform="scale(1 1) rotate(0) translate(4 187)">
<title>hedag_v2</title>
<polygon fill="white" stroke="transparent" points="-4,4 -4,-187 1228,-187 1228,4 -4,4"/>
<g id="clust1" class="cluster">
<title>cluster_layer_0</title>
<polygon fill="none" stroke="#d1d5db" points="8,-8 8,-161 166,-161 166,-8 8,-8"/>
<text text-anchor="middle" x="87" y="-145.8" font-family="Times,serif" font-size="14.00">layer 0</text>
</g>
<g id="clust2" class="cluster">
<title>cluster_layer_1</title>
<polygon fill="none" stroke="#d1d5db" points="262,-8 262,-161 440,-161 440,-8 262,-8"/>
<text text-anchor="middle" x="351" y="-145.8" font-family="Times,serif" font-size="14.00">layer 1</text>
</g>
<g id="clust3" class="cluster">
<title>cluster_layer_2</title>
<polygon fill="none" stroke="#d1d5db" points="536,-13 536,-166 714,-166 714,-13 536,-13"/>
<text text-anchor="middle" x="625" y="-150.8" font-family="Times,serif" font-size="14.00">layer 2</text>
</g>
<g id="clust4" class="cluster">
<title>cluster_layer_3</title>
<polygon fill="none" stroke="#d1d5db" points="810,-22 810,-175 968,-175 968,-22 810,-22"/>
<text text-anchor="middle" x="889" y="-159.8" font-family="Times,serif" font-size="14.00">layer 3</text>
</g>
<g id="clust5" class="cluster">
<title>cluster_layer_4</title>
<polygon fill="none" stroke="#d1d5db" points="1064,-8 1064,-161 1216,-161 1216,-8 1064,-8"/>
<text text-anchor="middle" x="1140" y="-145.8" font-family="Times,serif" font-size="14.00">layer 4</text>
</g>
<!-- op0 -->
<g id="node1" class="node">
<title>op0</title>
<path fill="#17becf" stroke="black" d="M146,-129.5C146,-129.5 28,-129.5 28,-129.5 22,-129.5 16,-123.5 16,-117.5 16,-117.5 16,-28.5 16,-28.5 16,-22.5 22,-16.5 28,-16.5 28,-16.5 146,-16.5 146,-16.5 152,-16.5 158,-22.5 158,-28.5 158,-28.5 158,-117.5 158,-117.5 158,-123.5 152,-129.5 146,-129.5"/>
<text text-anchor="middle" x="87" y="-114.3" font-family="Helvetica,sans-Serif" font-size="14.00">op0</text>
<text text-anchor="middle" x="87" y="-99.3" font-family="Helvetica,sans-Serif" font-size="14.00">assign</text>
<text text-anchor="middle" x="87" y="-84.3" font-family="Helvetica,sans-Serif" font-size="14.00">line 319</text>
<text text-anchor="middle" x="87" y="-69.3" font-family="Helvetica,sans-Serif" font-size="14.00">layer 0</text>
<text text-anchor="middle" x="87" y="-54.3" font-family="Helvetica,sans-Serif" font-size="14.00">cost 1</text>
<text text-anchor="middle" x="87" y="-39.3" font-family="Helvetica,sans-Serif" font-size="14.00">out ciph_result@1</text>
<text text-anchor="middle" x="87" y="-24.3" font-family="Helvetica,sans-Serif" font-size="14.00">in ciph@0</text>
</g>
<!-- op1 -->
<g id="node2" class="node">
<title>op1</title>
<path fill="#e377c2" stroke="black" d="M420,-129.5C420,-129.5 282,-129.5 282,-129.5 276,-129.5 270,-123.5 270,-117.5 270,-117.5 270,-28.5 270,-28.5 270,-22.5 276,-16.5 282,-16.5 282,-16.5 420,-16.5 420,-16.5 426,-16.5 432,-22.5 432,-28.5 432,-28.5 432,-117.5 432,-117.5 432,-123.5 426,-129.5 420,-129.5"/>
<text text-anchor="middle" x="351" y="-114.3" font-family="Helvetica,sans-Serif" font-size="14.00">op1</text>
<text text-anchor="middle" x="351" y="-99.3" font-family="Helvetica,sans-Serif" font-size="14.00">evaluate_poly_vector</text>
<text text-anchor="middle" x="351" y="-84.3" font-family="Helvetica,sans-Serif" font-size="14.00">line 320</text>
<text text-anchor="middle" x="351" y="-69.3" font-family="Helvetica,sans-Serif" font-size="14.00">layer 1</text>
<text text-anchor="middle" x="351" y="-54.3" font-family="Helvetica,sans-Serif" font-size="14.00">cost 8</text>
<text text-anchor="middle" x="351" y="-39.3" font-family="Helvetica,sans-Serif" font-size="14.00">out ciph_result@2</text>
<text text-anchor="middle" x="351" y="-24.3" font-family="Helvetica,sans-Serif" font-size="14.00">in ciph_result@1</text>
</g>
<!-- op0&#45;&gt;op1 -->
<g id="edge1" class="edge">
<title>op0&#45;&gt;op1</title>
<path fill="none" stroke="#1f2937" d="M158.45,-86.96C164.37,-87.78 170.28,-88.48 176,-89 209.64,-92.03 218.33,-91.73 252,-89 254.56,-88.79 257.15,-88.56 259.76,-88.29"/>
<polygon fill="#1f2937" stroke="#1f2937" points="260.36,-91.75 269.91,-87.16 259.58,-84.79 260.36,-91.75"/>
<text text-anchor="middle" x="214" y="-94.8" font-family="Helvetica,sans-Serif" font-size="14.00">ciph_result</text>
</g>
<!-- op0&#45;&gt;op1 -->
<g id="edge2" class="edge">
<title>op0&#45;&gt;op1</title>
<path fill="none" stroke="#2563eb" d="M158.12,-70.39C164.17,-70.23 170.19,-70.1 176,-70 209.77,-69.42 218.23,-69.48 252,-70 254.53,-70.04 257.1,-70.08 259.69,-70.13"/>
<polygon fill="#2563eb" stroke="#2563eb" points="259.71,-73.63 269.78,-70.34 259.86,-66.63 259.71,-73.63"/>
<text text-anchor="middle" x="214" y="-73.8" font-family="Helvetica,sans-Serif" font-size="14.00">ciph_result</text>
</g>
<!-- op0&#45;&gt;op1 -->
<g id="edge3" class="edge">
<title>op0&#45;&gt;op1</title>
<path fill="none" stroke="#f97316" d="M158.32,-53.81C164.27,-52.68 170.22,-51.71 176,-51 209.52,-46.87 218.43,-47.28 252,-51 254.54,-51.28 257.11,-51.6 259.7,-51.96"/>
<polygon fill="#f97316" stroke="#f97316" points="259.34,-55.44 269.75,-53.49 260.39,-48.52 259.34,-55.44"/>
<text text-anchor="middle" x="214" y="-54.8" font-family="Helvetica,sans-Serif" font-size="14.00">ciph_result</text>
</g>
<!-- op2 -->
<g id="node3" class="node">
<title>op2</title>
<path fill="#e377c2" stroke="black" d="M694,-134.5C694,-134.5 556,-134.5 556,-134.5 550,-134.5 544,-128.5 544,-122.5 544,-122.5 544,-33.5 544,-33.5 544,-27.5 550,-21.5 556,-21.5 556,-21.5 694,-21.5 694,-21.5 700,-21.5 706,-27.5 706,-33.5 706,-33.5 706,-122.5 706,-122.5 706,-128.5 700,-134.5 694,-134.5"/>
<text text-anchor="middle" x="625" y="-119.3" font-family="Helvetica,sans-Serif" font-size="14.00">op2</text>
<text text-anchor="middle" x="625" y="-104.3" font-family="Helvetica,sans-Serif" font-size="14.00">evaluate_poly_vector</text>
<text text-anchor="middle" x="625" y="-89.3" font-family="Helvetica,sans-Serif" font-size="14.00">line 321</text>
<text text-anchor="middle" x="625" y="-74.3" font-family="Helvetica,sans-Serif" font-size="14.00">layer 2</text>
<text text-anchor="middle" x="625" y="-59.3" font-family="Helvetica,sans-Serif" font-size="14.00">cost 8</text>
<text text-anchor="middle" x="625" y="-44.3" font-family="Helvetica,sans-Serif" font-size="14.00">out ciph_result@3</text>
<text text-anchor="middle" x="625" y="-29.3" font-family="Helvetica,sans-Serif" font-size="14.00">in ciph_result@2</text>
</g>
<!-- op1&#45;&gt;op2 -->
<g id="edge4" class="edge">
<title>op1&#45;&gt;op2</title>
<path fill="none" stroke="#1f2937" d="M432.24,-121.23C438.12,-123.51 444.07,-125.48 450,-127 482.71,-135.42 493.13,-134.76 526,-127 528.68,-126.37 531.38,-125.65 534.07,-124.85"/>
<polygon fill="#1f2937" stroke="#1f2937" points="535.39,-128.11 543.82,-121.68 533.23,-121.45 535.39,-128.11"/>
<text text-anchor="middle" x="488" y="-136.8" font-family="Helvetica,sans-Serif" font-size="14.00">ciph_result</text>
</g>
<!-- op1&#45;&gt;op2 -->
<g id="edge5" class="edge">
<title>op1&#45;&gt;op2</title>
<path fill="none" stroke="#2563eb" d="M432.09,-87.16C438.14,-87.9 444.16,-88.53 450,-89 477.15,-91.2 506.72,-90.5 533.65,-88.65"/>
<polygon fill="#2563eb" stroke="#2563eb" points="534.12,-92.13 543.83,-87.9 533.6,-85.15 534.12,-92.13"/>
<text text-anchor="middle" x="488" y="-93.8" font-family="Helvetica,sans-Serif" font-size="14.00">ciph_result</text>
</g>
<!-- op1&#45;&gt;op2 -->
<g id="edge6" class="edge">
<title>op1&#45;&gt;op2</title>
<path fill="none" stroke="#f97316" d="M432.15,-69.68C461.66,-68.96 495.36,-68.75 526,-70 528.54,-70.1 531.11,-70.22 533.71,-70.35"/>
<polygon fill="#f97316" stroke="#f97316" points="533.63,-73.85 543.81,-70.92 534.02,-66.87 533.63,-73.85"/>
<text text-anchor="middle" x="488" y="-73.8" font-family="Helvetica,sans-Serif" font-size="14.00">ciph_result</text>
</g>
<!-- op1&#45;&gt;op2 -->
<g id="edge7" class="edge">
<title>op1&#45;&gt;op2</title>
<path fill="none" stroke="#dc2626" d="M432.25,-53.49C438.23,-52.5 444.19,-51.64 450,-51 483.57,-47.28 492.53,-46.47 526,-51 528.65,-51.36 531.34,-51.77 534.04,-52.23"/>
<polygon fill="#dc2626" stroke="#dc2626" points="533.4,-55.67 543.87,-54.06 534.68,-48.79 533.4,-55.67"/>
<text text-anchor="middle" x="488" y="-54.8" font-family="Helvetica,sans-Serif" font-size="14.00">ciph_result</text>
</g>
<!-- op3 -->
<g id="node4" class="node">
<title>op3</title>
<path fill="#e5e7eb" stroke="black" d="M948,-143.5C948,-143.5 830,-143.5 830,-143.5 824,-143.5 818,-137.5 818,-131.5 818,-131.5 818,-42.5 818,-42.5 818,-36.5 824,-30.5 830,-30.5 830,-30.5 948,-30.5 948,-30.5 954,-30.5 960,-36.5 960,-42.5 960,-42.5 960,-131.5 960,-131.5 960,-137.5 954,-143.5 948,-143.5"/>
<text text-anchor="middle" x="889" y="-128.3" font-family="Helvetica,sans-Serif" font-size="14.00">op3</text>
<text text-anchor="middle" x="889" y="-113.3" font-family="Helvetica,sans-Serif" font-size="14.00">add_const</text>
<text text-anchor="middle" x="889" y="-98.3" font-family="Helvetica,sans-Serif" font-size="14.00">line 322</text>
<text text-anchor="middle" x="889" y="-83.3" font-family="Helvetica,sans-Serif" font-size="14.00">layer 3</text>
<text text-anchor="middle" x="889" y="-68.3" font-family="Helvetica,sans-Serif" font-size="14.00">cost 1</text>
<text text-anchor="middle" x="889" y="-53.3" font-family="Helvetica,sans-Serif" font-size="14.00">out ciph_result@4</text>
<text text-anchor="middle" x="889" y="-38.3" font-family="Helvetica,sans-Serif" font-size="14.00">in ciph_result@3</text>
</g>
<!-- op2&#45;&gt;op3 -->
<g id="edge8" class="edge">
<title>op2&#45;&gt;op3</title>
<path fill="none" stroke="#1f2937" d="M706.24,-126.23C712.12,-128.51 718.07,-130.48 724,-132 756.71,-140.42 767.16,-139.91 800,-132 802.65,-131.36 805.3,-130.63 807.96,-129.82"/>
<polygon fill="#1f2937" stroke="#1f2937" points="809.2,-133.1 817.54,-126.56 806.94,-126.47 809.2,-133.1"/>
<text text-anchor="middle" x="762" y="-141.8" font-family="Helvetica,sans-Serif" font-size="14.00">ciph_result</text>
</g>
<!-- op2&#45;&gt;op3 -->
<g id="edge9" class="edge">
<title>op2&#45;&gt;op3</title>
<path fill="none" stroke="#2563eb" d="M706.09,-92.16C712.14,-92.9 718.16,-93.53 724,-94 757.67,-96.73 766.25,-95.34 800,-94 802.55,-93.9 805.13,-93.78 807.74,-93.65"/>
<polygon fill="#2563eb" stroke="#2563eb" points="808.11,-97.13 817.9,-93.08 807.72,-90.15 808.11,-97.13"/>
<text text-anchor="middle" x="762" y="-98.8" font-family="Helvetica,sans-Serif" font-size="14.00">ciph_result</text>
</g>
<!-- op2&#45;&gt;op3 -->
<g id="edge10" class="edge">
<title>op2&#45;&gt;op3</title>
<path fill="none" stroke="#f97316" d="M706.2,-73.77C735.72,-72.97 769.4,-72.92 800,-75 802.56,-75.17 805.15,-75.38 807.77,-75.6"/>
<polygon fill="#f97316" stroke="#f97316" points="807.67,-79.11 817.96,-76.58 808.34,-72.14 807.67,-79.11"/>
<text text-anchor="middle" x="762" y="-78.8" font-family="Helvetica,sans-Serif" font-size="14.00">ciph_result</text>
</g>
<!-- op2&#45;&gt;op3 -->
<g id="edge11" class="edge">
<title>op2&#45;&gt;op3</title>
<path fill="none" stroke="#dc2626" d="M706.35,-57.12C735.88,-52.14 769.54,-49.63 800,-55 802.68,-55.47 805.39,-56.02 808.12,-56.63"/>
<polygon fill="#dc2626" stroke="#dc2626" points="807.44,-60.07 817.99,-59.1 809.14,-53.28 807.44,-60.07"/>
<text text-anchor="middle" x="762" y="-58.8" font-family="Helvetica,sans-Serif" font-size="14.00">ciph_result</text>
</g>
<!-- op4 -->
<g id="node5" class="node">
<title>op4</title>
<path fill="#64748b" stroke="black" d="M1196,-129.5C1196,-129.5 1084,-129.5 1084,-129.5 1078,-129.5 1072,-123.5 1072,-117.5 1072,-117.5 1072,-28.5 1072,-28.5 1072,-22.5 1078,-16.5 1084,-16.5 1084,-16.5 1196,-16.5 1196,-16.5 1202,-16.5 1208,-22.5 1208,-28.5 1208,-28.5 1208,-117.5 1208,-117.5 1208,-123.5 1202,-129.5 1196,-129.5"/>
<text text-anchor="middle" x="1140" y="-114.3" font-family="Helvetica,sans-Serif" font-size="14.00">op4</text>
<text text-anchor="middle" x="1140" y="-99.3" font-family="Helvetica,sans-Serif" font-size="14.00">return</text>
<text text-anchor="middle" x="1140" y="-84.3" font-family="Helvetica,sans-Serif" font-size="14.00">line 323</text>
<text text-anchor="middle" x="1140" y="-69.3" font-family="Helvetica,sans-Serif" font-size="14.00">layer 4</text>
<text text-anchor="middle" x="1140" y="-54.3" font-family="Helvetica,sans-Serif" font-size="14.00">cost 1</text>
<text text-anchor="middle" x="1140" y="-39.3" font-family="Helvetica,sans-Serif" font-size="14.00">out __return__@1</text>
<text text-anchor="middle" x="1140" y="-24.3" font-family="Helvetica,sans-Serif" font-size="14.00">in ciph_result@4</text>
</g>
<!-- op3&#45;&gt;op4 -->
<g id="edge12" class="edge">
<title>op3&#45;&gt;op4</title>
<path fill="none" stroke="#1f2937" d="M960.31,-87.42C989.35,-87.15 1023.33,-86.26 1054,-84 1056.53,-83.81 1059.1,-83.6 1061.7,-83.37"/>
<polygon fill="#1f2937" stroke="#1f2937" points="1062.18,-86.84 1071.79,-82.39 1061.5,-79.88 1062.18,-86.84"/>
<text text-anchor="middle" x="1016" y="-90.8" font-family="Helvetica,sans-Serif" font-size="14.00">ciph_result</text>
</g>
<!-- op3&#45;&gt;op4 -->
<g id="edge13" class="edge">
<title>op3&#45;&gt;op4</title>
<path fill="none" stroke="#2563eb" d="M960.32,-67.81C966.27,-66.68 972.22,-65.71 978,-65 1005.22,-61.65 1035.18,-62.04 1061.81,-63.79"/>
<polygon fill="#2563eb" stroke="#2563eb" points="1061.61,-67.28 1071.84,-64.52 1062.12,-60.3 1061.61,-67.28"/>
<text text-anchor="middle" x="1016" y="-68.8" font-family="Helvetica,sans-Serif" font-size="14.00">ciph_result</text>
</g>
</g>
</svg>
