<?xml version="1.0" encoding="UTF-8" standalone="no"?>
<!DOCTYPE svg PUBLIC "-//W3C//DTD SVG 1.1//EN"
 "http://www.w3.org/Graphics/SVG/1.1/DTD/svg11.dtd">
<!-- Generated by graphviz version 2.43.0 (0)
 -->
<!-- Title: hedag_v2 Pages: 1 -->
<svg width="978pt" height="196pt"
 viewBox="0.00 0.00 978.00 196.00" xmlns="http://www.w3.org/2000/svg" xmlns:xlink="http://www.w3.org/1999/xlink">
<g id="graph0" class="graph" transform="scale(1 1) rotate(0) translate(4 192)">
<title>hedag_v2</title>
<polygon fill="white" stroke="transparent" points="-4,4 -4,-192 974,-192 974,4 -4,4"/>
<g id="clust1" class="cluster">
<title>cluster_layer_0</title>
<polygon fill="none" stroke="#d1d5db" points="8,-13 8,-166 186,-166 186,-13 8,-13"/>
<text text-anchor="middle" x="97" y="-150.8" font-family="Times,serif" font-size="14.00">layer 0</text>
</g>
<g id="clust2" class="cluster">
<title>cluster_layer_1</title>
<polygon fill="none" stroke="#d1d5db" points="282,-18 282,-171 460,-171 460,-18 282,-18"/>
<text text-anchor="middle" x="371" y="-155.8" font-family="Times,serif" font-size="14.00">layer 1</text>
</g>
<g id="clust3" class="cluster">
<title>cluster_layer_2</title>
<polygon fill="none" stroke="#d1d5db" points="556,-27 556,-180 714,-180 714,-27 556,-27"/>
<text text-anchor="middle" x="635" y="-164.8" font-family="Times,serif" font-size="14.00">layer 2</text>
</g>
<g id="clust4" class="cluster">
<title>cluster_layer_3</title>
<polygon fill="none" stroke="#d1d5db" points="810,-8 810,-161 962,-161 962,-8 810,-8"/>
<text text-anchor="middle" x="886" y="-145.8" font-family="Times,serif" font-size="14.00">layer 3</text>
</g>
<!-- op0 -->
<g id="node1" class="node">
<title>op0</title>
<path fill="#e377c2" stroke="black" d="M166,-134.5C166,-134.5 28,-134.5 28,-134.5 22,-134.5 16,-128.5 16,-122.5 16,-122.5 16,-33.5 16,-33.5 16,-27.5 22,-21.5 28,-21.5 28,-21.5 166,-21.5 166,-21.5 172,-21.5 178,-27.5 178,-33.5 178,-33.5 178,-122.5 178,-122.5 178,-128.5 172,-134.5 166,-134.5"/>
<text text-anchor="middle" x="97" y="-119.3" font-family="Helvetica,sans-Serif" font-size="14.00">op0</text>
<text text-anchor="middle" x="97" y="-104.3" font-family="Helvetica,sans-Serif" font-size="14.00">evaluate_poly_vector</text>
<text text-anchor="middle" x="97" y="-89.3" font-family="Helvetica,sans-Serif" font-size="14.00">line 223</text>
<text text-anchor="middle" x="97" y="-74.3" font-family="Helvetica,sans-Serif" font-size="14.00">layer 0</text>
<text text-anchor="middle" x="97" y="-59.3" font-family="Helvetica,sans-Serif" font-size="14.00">cost 8</text>
<text text-anchor="middle" x="97" y="-44.3" font-family="Helvetica,sans-Serif" font-size="14.00">out ciph_result@1</text>
<text text-anchor="middle" x="97" y="-29.3" font-family="Helvetica,sans-Serif" font-size="14.00">in ciph_result@0</text>
</g>
<!-- op1 -->
<g id="node2" class="node">
<title>op1</title>
<path fill="#e377c2" stroke="black" d="M440,-139.5C440,-139.5 302,-139.5 302,-139.5 296,-139.5 290,-133.5 290,-127.5 290,-127.5 290,-38.5 290,-38.5 290,-32.5 296,-26.5 302,-26.5 302,-26.5 440,-26.5 440,-26.5 446,-26.5 452,-32.5 452,-38.5 452,-38.5 452,-127.5 452,-127.5 452,-133.5 446,-139.5 440,-139.5"/>
<text text-anchor="middle" x="371" y="-124.3" font-family="Helvetica,sans-Serif" font-size="14.00">op1</text>
<text text-anchor="middle" x="371" y="-109.3" font-family="Helvetica,sans-Serif" font-size="14.00">evaluate_poly_vector</text>
<text text-anchor="middle" x="371" y="-94.3" font-family="Helvetica,sans-Serif" font-size="14.00">line 224</text>
<text text-anchor="middle" x="371" y="-79.3" font-family="Helvetica,sans-Serif" font-size="14.00">layer 1</text>
<text text-anchor="middle" x="371" y="-64.3" font-family="Helvetica,sans-Serif" font-size="14.00">cost 8</text>
<text text-anchor="middle" x="371" y="-49.3" font-family="Helvetica,sans-Serif" font-size="14.00">out ciph_result@2</text>
<text text-anchor="middle" x="371" y="-34.3" font-family="Helvetica,sans-Serif" font-size="14.00">in ciph_result@1</text>
</g>
<!-- op0&#45;&gt;op1 -->
<g id="edge1" class="edge">
<title>op0&#45;&gt;op1</title>
<path fill="none" stroke="#1f2937" d="M178,-96.58C184.07,-97.55 190.12,-98.38 196,-99 229.59,-102.56 238.33,-101.73 272,-99 274.56,-98.79 277.15,-98.56 279.76,-98.29"/>
<polygon fill="#1f2937" stroke="#1f2937" points="280.36,-101.75 289.91,-97.16 279.58,-94.79 280.36,-101.75"/>
<text text-anchor="middle" x="234" y="-104.8" font-family="Helvetica,sans-Serif" font-size="14.00">ciph_result</text>
</g>
<!-- op0&#45;&gt;op1 -->
<g id="edge2" class="edge">
<title>op0&#45;&gt;op1</title>
<path fill="none" stroke="#2563eb" d="M178.13,-78.6C207.64,-78.91 241.34,-79.35 272,-80 274.53,-80.05 277.1,-80.11 279.69,-80.17"/>
<polygon fill="#2563eb" stroke="#2563eb" points="279.7,-83.67 289.78,-80.42 279.87,-76.67 279.7,-83.67"/>
<text text-anchor="middle" x="234" y="-83.8" font-family="Helvetica,sans-Serif" font-size="14.00">ciph_result</text>
</g>
<!-- op0&#45;&gt;op1 -->
<g id="edge3" class="edge">
<title>op0&#45;&gt;op1</title>
<path fill="none" stroke="#f97316" d="M178.04,-61.19C184.1,-60.31 190.13,-59.56 196,-59 229.62,-55.77 238.47,-54.95 272,-59 274.55,-59.31 277.13,-59.66 279.72,-60.05"/>
<polygon fill="#f97316" stroke="#f97316" points="279.36,-63.53 289.8,-61.72 280.51,-56.63 279.36,-63.53"/>
<text text-anchor="middle" x="234" y="-62.8" font-family="Helvetica,sans-Serif" font-size="14.00">ciph_result</text>
</g>
<!-- op0&#45;&gt;op1 -->
<g id="edge4" class="edge">
<title>op0&#45;&gt;op1</title>
<path fill="none" stroke="#dc2626" d="M178.22,-41.51C184.16,-39.72 190.12,-38.18 196,-37 229.12,-30.35 239.03,-29.65 272,-37 274.79,-37.62 277.6,-38.34 280.42,-39.12"/>
<polygon fill="#dc2626" stroke="#dc2626" points="279.38,-42.47 289.97,-42.08 281.45,-35.78 279.38,-42.47"/>
<text text-anchor="middle" x="234" y="-40.8" font-family="Helvetica,sans-Serif" font-size="14.00">ciph_result</text>
</g>
<!-- op2 -->
<g id="node3" class="node">
<title>op2</title>
<path fill="#e5e7eb" stroke="black" d="M694,-148.5C694,-148.5 576,-148.5 576,-148.5 570,-148.5 564,-142.5 564,-136.5 564,-136.5 564,-47.5 564,-47.5 564,-41.5 570,-35.5 576,-35.5 576,-35.5 694,-35.5 694,-35.5 700,-35.5 706,-41.5 706,-47.5 706,-47.5 706,-136.5 706,-136.5 706,-142.5 700,-148.5 694,-148.5"/>
<text text-anchor="middle" x="635" y="-133.3" font-family="Helvetica,sans-Serif" font-size="14.00">op2</text>
<text text-anchor="middle" x="635" y="-118.3" font-family="Helvetica,sans-Serif" font-size="14.00">add_const</text>
<text text-anchor="middle" x="635" y="-103.3" font-family="Helvetica,sans-Serif" font-size="14.00">line 227</text>
<text text-anchor="middle" x="635" y="-88.3" font-family="Helvetica,sans-Serif" font-size="14.00">layer 2</text>
<text text-anchor="middle" x="635" y="-73.3" font-family="Helvetica,sans-Serif" font-size="14.00">cost 1</text>
<text text-anchor="middle" x="635" y="-58.3" font-family="Helvetica,sans-Serif" font-size="14.00">out ciph_result@3</text>
<text text-anchor="middle" x="635" y="-43.3" font-family="Helvetica,sans-Serif" font-size="14.00">in ciph_result@2</text>
</g>
<!-- op1&#45;&gt;op2 -->
<g id="edge5" class="edge">
<title>op1&#45;&gt;op2</title>
<path fill="none" stroke="#1f2937" d="M452.18,-105.17C458.18,-106.3 464.16,-107.27 470,-108 503.51,-112.21 512.36,-111.03 546,-108 548.5,-107.77 551.04,-107.51 553.6,-107.22"/>
<polygon fill="#1f2937" stroke="#1f2937" points="554.07,-110.69 563.55,-105.96 553.19,-103.75 554.07,-110.69"/>
<text text-anchor="middle" x="508" y="-113.8" font-family="Helvetica,sans-Serif" font-size="14.00">ciph_result</text>
</g>
<!-- op1&#45;&gt;op2 -->
<g id="edge6" class="edge">
<title>op1&#45;&gt;op2</title>
<path fill="none" stroke="#2563eb" d="M452.03,-85.75C484.21,-86.85 521.26,-88.13 553.49,-89.23"/>
<polygon fill="#2563eb" stroke="#2563eb" points="553.66,-92.74 563.77,-89.59 553.9,-85.75 553.66,-92.74"/>
<text text-anchor="middle" x="508" y="-91.8" font-family="Helvetica,sans-Serif" font-size="14.00">ciph_result</text>
</g>
<!-- op1&#45;&gt;op2 -->
<g id="edge7" class="edge">
<title>op1&#45;&gt;op2</title>
<path fill="none" stroke="#f97316" d="M452.31,-67.91C481.84,-64.39 515.5,-62.75 546,-67 548.55,-67.35 551.12,-67.76 553.71,-68.22"/>
<polygon fill="#f97316" stroke="#f97316" points="553.27,-71.7 563.76,-70.2 554.62,-64.83 553.27,-71.7"/>
<text text-anchor="middle" x="508" y="-70.8" font-family="Helvetica,sans-Serif" font-size="14.00">ciph_result</text>
</g>
<!-- op1&#45;&gt;op2 -->
<g id="edge8" class="edge">
<title>op1&#45;&gt;op2</title>
<path fill="none" stroke="#dc2626" d="M452.06,-49.25C458.06,-47.56 464.08,-46.11 470,-45 503.2,-38.79 513.23,-36.8 546,-45 548.8,-45.7 551.6,-46.51 554.4,-47.41"/>
<polygon fill="#dc2626" stroke="#dc2626" points="553.29,-50.72 563.88,-50.78 555.64,-44.13 553.29,-50.72"/>
<text text-anchor="middle" x="508" y="-48.8" font-family="Helvetica,sans-Serif" font-size="14.00">ciph_result</text>
</g>
<!-- op3 -->
<g id="node4" class="node">
<title>op3</title>
<path fill="#64748b" stroke="black" d="M942,-129.5C942,-129.5 830,-129.5 830,-129.5 824,-129.5 818,-123.5 818,-117.5 818,-117.5 818,-28.5 818,-28.5 818,-22.5 824,-16.5 830,-16.5 830,-16.5 942,-16.5 942,-16.5 948,-16.5 954,-22.5 954,-28.5 954,-28.5 954,-117.5 954,-117.5 954,-123.5 948,-129.5 942,-129.5"/>
<text text-anchor="middle" x="886" y="-114.3" font-family="Helvetica,sans-Serif" font-size="14.00">op3</text>
<text text-anchor="middle" x="886" y="-99.3" font-family="Helvetica,sans-Serif" font-size="14.00">return</text>
<text text-anchor="middle" x="886" y="-84.3" font-family="Helvetica,sans-Serif" font-size="14.00">line 228</text>
<text text-anchor="middle" x="886" y="-69.3" font-family="Helvetica,sans-Serif" font-size="14.00">layer 3</text>
<text text-anchor="middle" x="886" y="-54.3" font-family="Helvetica,sans-Serif" font-size="14.00">cost 1</text>
<text text-anchor="middle" x="886" y="-39.3" font-family="Helvetica,sans-Serif" font-size="14.00">out __return__@1</text>
<text text-anchor="middle" x="886" y="-24.3" font-family="Helvetica,sans-Serif" font-size="14.00">in ciph_result@3</text>
</g>
<!-- op2&#45;&gt;op3 -->
<g id="edge9" class="edge">
<title>op2&#45;&gt;op3</title>
<path fill="none" stroke="#1f2937" d="M706.02,-86.66C737.56,-84.25 774.91,-81.4 807.31,-78.93"/>
<polygon fill="#1f2937" stroke="#1f2937" points="807.94,-82.39 817.65,-78.14 807.41,-75.41 807.94,-82.39"/>
<text text-anchor="middle" x="762" y="-87.8" font-family="Helvetica,sans-Serif" font-size="14.00">ciph_result</text>
</g>
<!-- op2&#45;&gt;op3 -->
<g id="edge10" class="edge">
<title>op2&#45;&gt;op3</title>
<path fill="none" stroke="#2563eb" d="M706.01,-64.1C712.03,-62.45 718.08,-61.04 724,-60 751.06,-55.23 780.99,-56.02 807.63,-58.81"/>
<polygon fill="#2563eb" stroke="#2563eb" points="807.33,-62.29 817.67,-59.97 808.14,-55.34 807.33,-62.29"/>
<text text-anchor="middle" x="762" y="-63.8" font-family="Helvetica,sans-Serif" font-size="14.00">ciph_result</text>
</g>
</g>
</svg>
