<?xml version="1.0" encoding="UTF-8" standalone="no"?>
<!DOCTYPE svg PUBLIC "-//W3C//DTD SVG 1.1//EN"
 "http://www.w3.org/Graphics/SVG/1.1/DTD/svg11.dtd">
<!-- Generated by graphviz version 2.43.0 (0)
 -->
<!-- Title: hedag_v2 Pages: 1 -->
<svg width="471pt" height="215pt"
 viewBox="0.00 0.00 471.00 215.00" xmlns="http://www.w3.org/2000/svg" xmlns:xlink="http://www.w3.org/1999/xlink">
<g id="graph0" class="graph" transform="scale(1 1) rotate(0) translate(4 211)">
<title>hedag_v2</title>
<polygon fill="white" stroke="transparent" points="-4,4 -4,-211 467,-211 467,4 -4,4"/>
<g id="clust1" class="cluster">
<title>cluster_layer_0</title>
<polygon fill="none" stroke="#d1d5db" points="8,-8 8,-161 123,-161 123,-8 8,-8"/>
<text text-anchor="middle" x="65.5" y="-145.8" font-family="Times,serif" font-size="14.00">layer 0</text>
</g>
<g id="clust2" class="cluster">
<title>cluster_layer_1</title>
<polygon fill="none" stroke="#d1d5db" points="176,-46 176,-199 287,-199 287,-46 176,-46"/>
<text text-anchor="middle" x="231.5" y="-183.8" font-family="Times,serif" font-size="14.00">layer 1</text>
</g>
<g id="clust3" class="cluster">
<title>cluster_layer_2</title>
<polygon fill="none" stroke="#d1d5db" points="340,-22 340,-175 455,-175 455,-22 340,-22"/>
<text text-anchor="middle" x="397.5" y="-159.8" font-family="Times,serif" font-size="14.00">layer 2</text>
</g>
<!-- op0 -->
<g id="node1" class="node">
<title>op0</title>
<path fill="#17becf" stroke="black" d="M103,-129.5C103,-129.5 28,-129.5 28,-129.5 22,-129.5 16,-123.5 16,-117.5 16,-117.5 16,-28.5 16,-28.5 16,-22.5 22,-16.5 28,-16.5 28,-16.5 103,-16.5 103,-16.5 109,-16.5 115,-22.5 115,-28.5 115,-28.5 115,-117.5 115,-117.5 115,-123.5 109,-129.5 103,-129.5"/>
<text text-anchor="middle" x="65.5" y="-114.3" font-family="Helvetica,sans-Serif" font-size="14.00">op0</text>
<text text-anchor="middle" x="65.5" y="-99.3" font-family="Helvetica,sans-Serif" font-size="14.00">assign</text>
<text text-anchor="middle" x="65.5" y="-84.3" font-family="Helvetica,sans-Serif" font-size="14.00">line 601</text>
<text text-anchor="middle" x="65.5" y="-69.3" font-family="Helvetica,sans-Serif" font-size="14.00">layer 0</text>
<text text-anchor="middle" x="65.5" y="-54.3" font-family="Helvetica,sans-Serif" font-size="14.00">cost 1</text>
<text text-anchor="middle" x="65.5" y="-39.3" font-family="Helvetica,sans-Serif" font-size="14.00">out one_@1</text>
<text text-anchor="middle" x="65.5" y="-24.3" font-family="Helvetica,sans-Serif" font-size="14.00">in one@0</text>
</g>
<!-- op1 -->
<g id="node2" class="node">
<title>op1</title>
<path fill="#e5e7eb" stroke="black" d="M267,-167.5C267,-167.5 196,-167.5 196,-167.5 190,-167.5 184,-161.5 184,-155.5 184,-155.5 184,-66.5 184,-66.5 184,-60.5 190,-54.5 196,-54.5 196,-54.5 267,-54.5 267,-54.5 273,-54.5 279,-60.5 279,-66.5 279,-66.5 279,-155.5 279,-155.5 279,-161.5 273,-167.5 267,-167.5"/>
<text text-anchor="middle" x="231.5" y="-152.3" font-family="Helvetica,sans-Serif" font-size="14.00">op1</text>
<text text-anchor="middle" x="231.5" y="-137.3" font-family="Helvetica,sans-Serif" font-size="14.00">ntt_fwd</text>
<text text-anchor="middle" x="231.5" y="-122.3" font-family="Helvetica,sans-Serif" font-size="14.00">line 603</text>
<text text-anchor="middle" x="231.5" y="-107.3" font-family="Helvetica,sans-Serif" font-size="14.00">layer 1</text>
<text text-anchor="middle" x="231.5" y="-92.3" font-family="Helvetica,sans-Serif" font-size="14.00">cost 3</text>
<text text-anchor="middle" x="231.5" y="-77.3" font-family="Helvetica,sans-Serif" font-size="14.00">out tmp@1</text>
<text text-anchor="middle" x="231.5" y="-62.3" font-family="Helvetica,sans-Serif" font-size="14.00">in one_@1</text>
</g>
<!-- op0&#45;&gt;op1 -->
<g id="edge1" class="edge">
<title>op0&#45;&gt;op1</title>
<path fill="none" stroke="#1f2937" d="M115.15,-84.79C121.16,-86.22 127.22,-87.65 133,-89 146.2,-92.08 160.42,-95.32 173.81,-98.35"/>
<polygon fill="#1f2937" stroke="#1f2937" points="173.33,-101.83 183.85,-100.62 174.87,-95 173.33,-101.83"/>
<text text-anchor="middle" x="149.5" y="-99.8" font-family="Helvetica,sans-Serif" font-size="14.00">one_</text>
</g>
<!-- op0&#45;&gt;op1 -->
<g id="edge2" class="edge">
<title>op0&#45;&gt;op1</title>
<path fill="none" stroke="#2563eb" d="M115.09,-65.56C131.53,-64.61 149.82,-65.29 166,-70 168.81,-70.82 171.61,-71.8 174.38,-72.91"/>
<polygon fill="#2563eb" stroke="#2563eb" points="173.14,-76.19 183.7,-77.12 176.03,-69.81 173.14,-76.19"/>
<text text-anchor="middle" x="149.5" y="-73.8" font-family="Helvetica,sans-Serif" font-size="14.00">one_</text>
</g>
<!-- op2 -->
<g id="node3" class="node">
<title>op2</title>
<path fill="#17becf" stroke="black" d="M435,-143.5C435,-143.5 360,-143.5 360,-143.5 354,-143.5 348,-137.5 348,-131.5 348,-131.5 348,-42.5 348,-42.5 348,-36.5 354,-30.5 360,-30.5 360,-30.5 435,-30.5 435,-30.5 441,-30.5 447,-36.5 447,-42.5 447,-42.5 447,-131.5 447,-131.5 447,-137.5 441,-143.5 435,-143.5"/>
<text text-anchor="middle" x="397.5" y="-128.3" font-family="Helvetica,sans-Serif" font-size="14.00">op2</text>
<text text-anchor="middle" x="397.5" y="-113.3" font-family="Helvetica,sans-Serif" font-size="14.00">assign</text>
<text text-anchor="middle" x="397.5" y="-98.3" font-family="Helvetica,sans-Serif" font-size="14.00">line 604</text>
<text text-anchor="middle" x="397.5" y="-83.3" font-family="Helvetica,sans-Serif" font-size="14.00">layer 2</text>
<text text-anchor="middle" x="397.5" y="-68.3" font-family="Helvetica,sans-Serif" font-size="14.00">cost 1</text>
<text text-anchor="middle" x="397.5" y="-53.3" font-family="Helvetica,sans-Serif" font-size="14.00">out one_@2</text>
<text text-anchor="middle" x="397.5" y="-38.3" font-family="Helvetica,sans-Serif" font-size="14.00">in tmp@1</text>
</g>
<!-- op0&#45;&gt;op2 -->
<g id="edge5" class="edge">
<title>op0&#45;&gt;op2</title>
<path fill="none" stroke="#f97316" d="M115.05,-47.72C133.6,-39.38 155.28,-31.18 176,-27 224.36,-17.25 239.21,-14.76 287,-27 304.81,-31.56 322.83,-39.68 338.98,-48.51"/>
<polygon fill="#f97316" stroke="#f97316" points="337.31,-51.58 347.74,-53.46 340.76,-45.49 337.31,-51.58"/>
<text text-anchor="middle" x="231.5" y="-30.8" font-family="Helvetica,sans-Serif" font-size="14.00">one_</text>
</g>
<!-- op1&#45;&gt;op2 -->
<g id="edge3" class="edge">
<title>op1&#45;&gt;op2</title>
<path fill="none" stroke="#1f2937" d="M279.01,-118.99C295.29,-120.43 313.59,-120.53 330,-117 332.79,-116.4 335.6,-115.67 338.4,-114.85"/>
<polygon fill="#1f2937" stroke="#1f2937" points="339.52,-118.17 347.91,-111.7 337.31,-111.52 339.52,-118.17"/>
<text text-anchor="middle" x="313.5" y="-122.8" font-family="Helvetica,sans-Serif" font-size="14.00">tmp</text>
</g>
<!-- op1&#45;&gt;op2 -->
<g id="edge4" class="edge">
<title>op1&#45;&gt;op2</title>
<path fill="none" stroke="#2563eb" d="M279.27,-101.07C285.22,-99.95 291.24,-98.9 297,-98 310.14,-95.95 324.31,-94.15 337.72,-92.62"/>
<polygon fill="#2563eb" stroke="#2563eb" points="338.25,-96.09 347.8,-91.51 337.48,-89.13 338.25,-96.09"/>
<text text-anchor="middle" x="313.5" y="-101.8" font-family="Helvetica,sans-Serif" font-size="14.00">tmp</text>
</g>
<!-- op1&#45;&gt;op2 -->
<g id="edge6" class="edge">
<title>op1&#45;&gt;op2</title>
<path fill="none" stroke="#dc2626" d="M279.19,-80.57C285,-77.89 291.01,-75.6 297,-74 310.01,-70.53 324.24,-70.34 337.76,-71.77"/>
<polygon fill="#dc2626" stroke="#dc2626" points="337.55,-75.27 347.93,-73.15 338.49,-68.34 337.55,-75.27"/>
<text text-anchor="middle" x="313.5" y="-77.8" font-family="Helvetica,sans-Serif" font-size="14.00">one_</text>
</g>
</g>
</svg>
