<?xml version="1.0" encoding="UTF-8" standalone="no"?>
<!DOCTYPE svg PUBLIC "-//W3C//DTD SVG 1.1//EN"
 "http://www.w3.org/Graphics/SVG/1.1/DTD/svg11.dtd">
<!-- Generated by graphviz version 2.43.0 (0)
 -->
<!-- Title: hedag_v2 Pages: 1 -->
<svg width="1027pt" height="177pt"
 viewBox="0.00 0.00 1027.00 177.00" xmlns="http://www.w3.org/2000/svg" xmlns:xlink="http://www.w3.org/1999/xlink">
<g id="graph0" class="graph" transform="scale(1 1) rotate(0) translate(4 173)">
<title>hedag_v2</title>
<polygon fill="white" stroke="transparent" points="-4,4 -4,-173 1023,-173 1023,4 -4,4"/>
<g id="clust1" class="cluster">
<title>cluster_layer_0</title>
<polygon fill="none" stroke="#d1d5db" points="8,-8 8,-161 161,-161 161,-8 8,-8"/>
<text text-anchor="middle" x="84.5" y="-145.8" font-family="Times,serif" font-size="14.00">layer 0</text>
</g>
<g id="clust2" class="cluster">
<title>cluster_layer_1</title>
<polygon fill="none" stroke="#d1d5db" points="251,-8 251,-161 400,-161 400,-8 251,-8"/>
<text text-anchor="middle" x="325.5" y="-145.8" font-family="Times,serif" font-size="14.00">layer 1</text>
</g>
<g id="clust3" class="cluster">
<title>cluster_layer_2</title>
<polygon fill="none" stroke="#d1d5db" points="487,-8 487,-161 772,-161 772,-8 487,-8"/>
<text text-anchor="middle" x="629.5" y="-145.8" font-family="Times,serif" font-size="14.00">layer 2</text>
</g>
<g id="clust4" class="cluster">
<title>cluster_layer_3</title>
<polygon fill="none" stroke="#d1d5db" points="859,-8 859,-161 1011,-161 1011,-8 859,-8"/>
<text text-anchor="middle" x="935" y="-145.8" font-family="Times,serif" font-size="14.00">layer 3</text>
</g>
<!-- op0 -->
<g id="node1" class="node">
<title>op0</title>
<path fill="#e5e7eb" stroke="black" d="M141,-129.5C141,-129.5 28,-129.5 28,-129.5 22,-129.5 16,-123.5 16,-117.5 16,-117.5 16,-28.5 16,-28.5 16,-22.5 22,-16.5 28,-16.5 28,-16.5 141,-16.5 141,-16.5 147,-16.5 153,-22.5 153,-28.5 153,-28.5 153,-117.5 153,-117.5 153,-123.5 147,-129.5 141,-129.5"/>
<text text-anchor="middle" x="84.5" y="-114.3" font-family="Helvetica,sans-Serif" font-size="14.00">op0</text>
<text text-anchor="middle" x="84.5" y="-99.3" font-family="Helvetica,sans-Serif" font-size="14.00">encode</text>
<text text-anchor="middle" x="84.5" y="-84.3" font-family="Helvetica,sans-Serif" font-size="14.00">line 292</text>
<text text-anchor="middle" x="84.5" y="-69.3" font-family="Helvetica,sans-Serif" font-size="14.00">layer 0</text>
<text text-anchor="middle" x="84.5" y="-54.3" font-family="Helvetica,sans-Serif" font-size="14.00">cost 1</text>
<text text-anchor="middle" x="84.5" y="-39.3" font-family="Helvetica,sans-Serif" font-size="14.00">out plain_zero@1</text>
<text text-anchor="middle" x="84.5" y="-24.3" font-family="Helvetica,sans-Serif" font-size="14.00">in zero@0</text>
</g>
<!-- op1 -->
<g id="node2" class="node">
<title>op1</title>
<path fill="#e5e7eb" stroke="black" d="M380,-129.5C380,-129.5 271,-129.5 271,-129.5 265,-129.5 259,-123.5 259,-117.5 259,-117.5 259,-28.5 259,-28.5 259,-22.5 265,-16.5 271,-16.5 271,-16.5 380,-16.5 380,-16.5 386,-16.5 392,-22.5 392,-28.5 392,-28.5 392,-117.5 392,-117.5 392,-123.5 386,-129.5 380,-129.5"/>
<text text-anchor="middle" x="325.5" y="-114.3" font-family="Helvetica,sans-Serif" font-size="14.00">op1</text>
<text text-anchor="middle" x="325.5" y="-99.3" font-family="Helvetica,sans-Serif" font-size="14.00">encrypt</text>
<text text-anchor="middle" x="325.5" y="-84.3" font-family="Helvetica,sans-Serif" font-size="14.00">line 293</text>
<text text-anchor="middle" x="325.5" y="-69.3" font-family="Helvetica,sans-Serif" font-size="14.00">layer 1</text>
<text text-anchor="middle" x="325.5" y="-54.3" font-family="Helvetica,sans-Serif" font-size="14.00">cost 4</text>
<text text-anchor="middle" x="325.5" y="-39.3" font-family="Helvetica,sans-Serif" font-size="14.00">out ciph_sum@1</text>
<text text-anchor="middle" x="325.5" y="-24.3" font-family="Helvetica,sans-Serif" font-size="14.00">in plain_zero@1</text>
</g>
<!-- op0&#45;&gt;op1 -->
<g id="edge1" class="edge">
<title>op0&#45;&gt;op1</title>
<path fill="none" stroke="#1f2937" d="M153.03,-73C182.79,-73 217.9,-73 248.57,-73"/>
<polygon fill="#1f2937" stroke="#1f2937" points="248.79,-76.5 258.79,-73 248.79,-69.5 248.79,-76.5"/>
<text text-anchor="middle" x="206" y="-76.8" font-family="Helvetica,sans-Serif" font-size="14.00">plain_zero</text>
</g>
<!-- op0&#45;&gt;op1 -->
<g id="edge2" class="edge">
<title>op0&#45;&gt;op1</title>
<path fill="none" stroke="#2563eb" d="M153.41,-56.5C159.33,-55.49 165.26,-54.63 171,-54 201.93,-50.61 210.08,-50.53 241,-54 243.52,-54.28 246.08,-54.61 248.65,-54.98"/>
<polygon fill="#2563eb" stroke="#2563eb" points="248.22,-58.46 258.64,-56.58 249.32,-51.55 248.22,-58.46"/>
<text text-anchor="middle" x="206" y="-57.8" font-family="Helvetica,sans-Serif" font-size="14.00">plain_zero</text>
</g>
<!-- op2 -->
<g id="node3" class="node">
<title>op2</title>
<path fill="#e5e7eb" stroke="black" d="M752,-129.5C752,-129.5 507,-129.5 507,-129.5 501,-129.5 495,-123.5 495,-117.5 495,-117.5 495,-28.5 495,-28.5 495,-22.5 501,-16.5 507,-16.5 507,-16.5 752,-16.5 752,-16.5 758,-16.5 764,-22.5 764,-28.5 764,-28.5 764,-117.5 764,-117.5 764,-123.5 758,-129.5 752,-129.5"/>
<text text-anchor="middle" x="629.5" y="-114.3" font-family="Helvetica,sans-Serif" font-size="14.00">op2</text>
<text text-anchor="middle" x="629.5" y="-99.3" font-family="Helvetica,sans-Serif" font-size="14.00">add</text>
<text text-anchor="middle" x="629.5" y="-84.3" font-family="Helvetica,sans-Serif" font-size="14.00">line 314</text>
<text text-anchor="middle" x="629.5" y="-69.3" font-family="Helvetica,sans-Serif" font-size="14.00">layer 2</text>
<text text-anchor="middle" x="629.5" y="-54.3" font-family="Helvetica,sans-Serif" font-size="14.00">cost 1</text>
<text text-anchor="middle" x="629.5" y="-39.3" font-family="Helvetica,sans-Serif" font-size="14.00">out ciph_sum@2</text>
<text text-anchor="middle" x="629.5" y="-24.3" font-family="Helvetica,sans-Serif" font-size="14.00">in ciph_sum@1, ciph_rotate_sum@0</text>
</g>
<!-- op1&#45;&gt;op2 -->
<g id="edge3" class="edge">
<title>op1&#45;&gt;op2</title>
<path fill="none" stroke="#1f2937" d="M392.42,-86.83C398.35,-87.71 404.27,-88.46 410,-89 434.13,-91.29 459.78,-91.45 484.71,-90.4"/>
<polygon fill="#1f2937" stroke="#1f2937" points="485.15,-93.88 494.96,-89.89 484.8,-86.89 485.15,-93.88"/>
<text text-anchor="middle" x="443.5" y="-94.8" font-family="Helvetica,sans-Serif" font-size="14.00">ciph_sum</text>
</g>
<!-- op1&#45;&gt;op2 -->
<g id="edge4" class="edge">
<title>op1&#45;&gt;op2</title>
<path fill="none" stroke="#2563eb" d="M392.13,-70.42C398.17,-70.25 404.2,-70.1 410,-70 434.09,-69.57 459.67,-69.53 484.52,-69.73"/>
<polygon fill="#2563eb" stroke="#2563eb" points="484.71,-73.23 494.75,-69.82 484.78,-66.23 484.71,-73.23"/>
<text text-anchor="middle" x="443.5" y="-73.8" font-family="Helvetica,sans-Serif" font-size="14.00">ciph_sum</text>
</g>
<!-- op1&#45;&gt;op2 -->
<g id="edge5" class="edge">
<title>op1&#45;&gt;op2</title>
<path fill="none" stroke="#f97316" d="M392.28,-54C398.23,-52.78 404.2,-51.75 410,-51 434.09,-47.88 459.73,-47.68 484.65,-49.13"/>
<polygon fill="#f97316" stroke="#f97316" points="484.69,-52.64 494.9,-49.82 485.16,-45.66 484.69,-52.64"/>
<text text-anchor="middle" x="443.5" y="-54.8" font-family="Helvetica,sans-Serif" font-size="14.00">ciph_sum</text>
</g>
<!-- op3 -->
<g id="node4" class="node">
<title>op3</title>
<path fill="#64748b" stroke="black" d="M991,-129.5C991,-129.5 879,-129.5 879,-129.5 873,-129.5 867,-123.5 867,-117.5 867,-117.5 867,-28.5 867,-28.5 867,-22.5 873,-16.5 879,-16.5 879,-16.5 991,-16.5 991,-16.5 997,-16.5 1003,-22.5 1003,-28.5 1003,-28.5 1003,-117.5 1003,-117.5 1003,-123.5 997,-129.5 991,-129.5"/>
<text text-anchor="middle" x="935" y="-114.3" font-family="Helvetica,sans-Serif" font-size="14.00">op3</text>
<text text-anchor="middle" x="935" y="-99.3" font-family="Helvetica,sans-Serif" font-size="14.00">return</text>
<text text-anchor="middle" x="935" y="-84.3" font-family="Helvetica,sans-Serif" font-size="14.00">line 315</text>
<text text-anchor="middle" x="935" y="-69.3" font-family="Helvetica,sans-Serif" font-size="14.00">layer 3</text>
<text text-anchor="middle" x="935" y="-54.3" font-family="Helvetica,sans-Serif" font-size="14.00">cost 1</text>
<text text-anchor="middle" x="935" y="-39.3" font-family="Helvetica,sans-Serif" font-size="14.00">out __return__@1</text>
<text text-anchor="middle" x="935" y="-24.3" font-family="Helvetica,sans-Serif" font-size="14.00">in ciph_sum@2</text>
</g>
<!-- op2&#45;&gt;op3 -->
<g id="edge6" class="edge">
<title>op2&#45;&gt;op3</title>
<path fill="none" stroke="#1f2937" d="M764.06,-73C795.79,-73 828.59,-73 856.82,-73"/>
<polygon fill="#1f2937" stroke="#1f2937" points="857,-76.5 867,-73 857,-69.5 857,-76.5"/>
<text text-anchor="middle" x="815.5" y="-76.8" font-family="Helvetica,sans-Serif" font-size="14.00">ciph_sum</text>
</g>
<!-- op2&#45;&gt;op3 -->
<g id="edge7" class="edge">
<title>op2&#45;&gt;op3</title>
<path fill="none" stroke="#2563eb" d="M764.06,-53.04C792.14,-51.18 821.56,-50.97 849,-54 851.66,-54.29 854.35,-54.64 857.07,-55.02"/>
<polygon fill="#2563eb" stroke="#2563eb" points="856.53,-58.48 866.95,-56.58 857.62,-51.57 856.53,-58.48"/>
<text text-anchor="middle" x="815.5" y="-57.8" font-family="Helvetica,sans-Serif" font-size="14.00">ciph_sum</text>
</g>
</g>
</svg>
