<?xml version="1.0" encoding="UTF-8" standalone="no"?>
<!DOCTYPE svg PUBLIC "-//W3C//DTD SVG 1.1//EN"
 "http://www.w3.org/Graphics/SVG/1.1/DTD/svg11.dtd">
<!-- Generated by graphviz version 2.43.0 (0)
 -->
<!-- Title: hedag_v2 Pages: 1 -->
<svg width="998pt" height="293pt"
 viewBox="0.00 0.00 998.00 293.00" xmlns="http://www.w3.org/2000/svg" xmlns:xlink="http://www.w3.org/1999/xlink">
<g id="graph0" class="graph" transform="scale(1 1) rotate(0) translate(4 289)">
<title>hedag_v2</title>
<polygon fill="white" stroke="transparent" points="-4,4 -4,-289 994,-289 994,4 -4,4"/>
<g id="clust1" class="cluster">
<title>cluster_layer_0</title>
<polygon fill="none" stroke="#d1d5db" points="8,-8 8,-277 169,-277 169,-8 8,-8"/>
<text text-anchor="middle" x="88.5" y="-261.8" font-family="Times,serif" font-size="14.00">layer 0</text>
</g>
<g id="clust2" class="cluster">
<title>cluster_layer_1</title>
<polygon fill="none" stroke="#d1d5db" points="268,-76 268,-229 515,-229 515,-76 268,-76"/>
<text text-anchor="middle" x="391.5" y="-213.8" font-family="Times,serif" font-size="14.00">layer 1</text>
</g>
<g id="clust3" class="cluster">
<title>cluster_layer_2</title>
<polygon fill="none" stroke="#d1d5db" points="599,-76 599,-229 746,-229 746,-76 599,-76"/>
<text text-anchor="middle" x="672.5" y="-213.8" font-family="Times,serif" font-size="14.00">layer 2</text>
</g>
<g id="clust4" class="cluster">
<title>cluster_layer_3</title>
<polygon fill="none" stroke="#d1d5db" points="830,-76 830,-229 982,-229 982,-76 830,-76"/>
<text text-anchor="middle" x="906" y="-213.8" font-family="Times,serif" font-size="14.00">layer 3</text>
</g>
<!-- op0 -->
<g id="node1" class="node">
<title>op0</title>
<path fill="#17becf" stroke="black" d="M142,-245.5C142,-245.5 35,-245.5 35,-245.5 29,-245.5 23,-239.5 23,-233.5 23,-233.5 23,-144.5 23,-144.5 23,-138.5 29,-132.5 35,-132.5 35,-132.5 142,-132.5 142,-132.5 148,-132.5 154,-138.5 154,-144.5 154,-144.5 154,-233.5 154,-233.5 154,-239.5 148,-245.5 142,-245.5"/>
<text text-anchor="middle" x="88.5" y="-230.3" font-family="Helvetica,sans-Serif" font-size="14.00">op0</text>
<text text-anchor="middle" x="88.5" y="-215.3" font-family="Helvetica,sans-Serif" font-size="14.00">assign</text>
<text text-anchor="middle" x="88.5" y="-200.3" font-family="Helvetica,sans-Serif" font-size="14.00">line 368</text>
<text text-anchor="middle" x="88.5" y="-185.3" font-family="Helvetica,sans-Serif" font-size="14.00">layer 0</text>
<text text-anchor="middle" x="88.5" y="-170.3" font-family="Helvetica,sans-Serif" font-size="14.00">cost 1</text>
<text text-anchor="middle" x="88.5" y="-155.3" font-family="Helvetica,sans-Serif" font-size="14.00">out ciph_tmp@1</text>
<text text-anchor="middle" x="88.5" y="-140.3" font-family="Helvetica,sans-Serif" font-size="14.00">in ct@0</text>
</g>
<!-- op2 -->
<g id="node3" class="node">
<title>op2</title>
<path fill="#e5e7eb" stroke="black" d="M495,-197.5C495,-197.5 288,-197.5 288,-197.5 282,-197.5 276,-191.5 276,-185.5 276,-185.5 276,-96.5 276,-96.5 276,-90.5 282,-84.5 288,-84.5 288,-84.5 495,-84.5 495,-84.5 501,-84.5 507,-90.5 507,-96.5 507,-96.5 507,-185.5 507,-185.5 507,-191.5 501,-197.5 495,-197.5"/>
<text text-anchor="middle" x="391.5" y="-182.3" font-family="Helvetica,sans-Serif" font-size="14.00">op2</text>
<text text-anchor="middle" x="391.5" y="-167.3" font-family="Helvetica,sans-Serif" font-size="14.00">multiply_plain</text>
<text text-anchor="middle" x="391.5" y="-152.3" font-family="Helvetica,sans-Serif" font-size="14.00">line 378</text>
<text text-anchor="middle" x="391.5" y="-137.3" font-family="Helvetica,sans-Serif" font-size="14.00">layer 1</text>
<text text-anchor="middle" x="391.5" y="-122.3" font-family="Helvetica,sans-Serif" font-size="14.00">cost 3</text>
<text text-anchor="middle" x="391.5" y="-107.3" font-family="Helvetica,sans-Serif" font-size="14.00">out ciph_tmp@2</text>
<text text-anchor="middle" x="391.5" y="-92.3" font-family="Helvetica,sans-Serif" font-size="14.00">in ciph_tmp@1, mask_plain@1</text>
</g>
<!-- op0&#45;&gt;op2 -->
<g id="edge1" class="edge">
<title>op0&#45;&gt;op2</title>
<path fill="none" stroke="#1f2937" d="M154,-193.84C162.41,-194.32 170.91,-194.73 179,-195 214.09,-196.17 223.54,-201.75 258,-195 260.65,-194.48 263.32,-193.91 265.99,-193.29"/>
<polygon fill="#1f2937" stroke="#1f2937" points="266.85,-196.68 275.69,-190.84 265.14,-189.89 266.85,-196.68"/>
<text text-anchor="middle" x="218.5" y="-201.8" font-family="Helvetica,sans-Serif" font-size="14.00">ciph_tmp</text>
</g>
<!-- op0&#45;&gt;op2 -->
<g id="edge2" class="edge">
<title>op0&#45;&gt;op2</title>
<path fill="none" stroke="#2563eb" d="M154.07,-178.7C186.66,-173.51 227.33,-167.02 265.7,-160.9"/>
<polygon fill="#2563eb" stroke="#2563eb" points="266.6,-164.3 275.92,-159.27 265.5,-157.39 266.6,-164.3"/>
<text text-anchor="middle" x="218.5" y="-176.8" font-family="Helvetica,sans-Serif" font-size="14.00">ciph_tmp</text>
</g>
<!-- op0&#45;&gt;op2 -->
<g id="edge5" class="edge">
<title>op0&#45;&gt;op2</title>
<path fill="none" stroke="#f97316" d="M154.18,-152.29C162.33,-148.92 170.72,-146.03 179,-144 206.68,-137.23 237.01,-134.28 265.85,-133.47"/>
<polygon fill="#f97316" stroke="#f97316" points="266.05,-136.97 275.98,-133.27 265.91,-129.97 266.05,-136.97"/>
<text text-anchor="middle" x="218.5" y="-147.8" font-family="Helvetica,sans-Serif" font-size="14.00">ciph_tmp</text>
</g>
<!-- op1 -->
<g id="node2" class="node">
<title>op1</title>
<path fill="#e5e7eb" stroke="black" d="M149,-114C149,-114 28,-114 28,-114 22,-114 16,-108 16,-102 16,-102 16,-28 16,-28 16,-22 22,-16 28,-16 28,-16 149,-16 149,-16 155,-16 161,-22 161,-28 161,-28 161,-102 161,-102 161,-108 155,-114 149,-114"/>
<text text-anchor="middle" x="88.5" y="-98.8" font-family="Helvetica,sans-Serif" font-size="14.00">op1</text>
<text text-anchor="middle" x="88.5" y="-83.8" font-family="Helvetica,sans-Serif" font-size="14.00">encode</text>
<text text-anchor="middle" x="88.5" y="-68.8" font-family="Helvetica,sans-Serif" font-size="14.00">line 376</text>
<text text-anchor="middle" x="88.5" y="-53.8" font-family="Helvetica,sans-Serif" font-size="14.00">layer 0</text>
<text text-anchor="middle" x="88.5" y="-38.8" font-family="Helvetica,sans-Serif" font-size="14.00">cost 1</text>
<text text-anchor="middle" x="88.5" y="-23.8" font-family="Helvetica,sans-Serif" font-size="14.00">out mask_plain@1</text>
</g>
<!-- op1&#45;&gt;op2 -->
<g id="edge3" class="edge">
<title>op1&#45;&gt;op2</title>
<path fill="none" stroke="#1f2937" d="M161.21,-83.11C192.53,-91.01 230.17,-100.52 265.83,-109.52"/>
<polygon fill="#1f2937" stroke="#1f2937" points="265.27,-112.99 275.83,-112.05 266.99,-106.2 265.27,-112.99"/>
<text text-anchor="middle" x="218.5" y="-108.8" font-family="Helvetica,sans-Serif" font-size="14.00">mask_plain</text>
</g>
<!-- op1&#45;&gt;op2 -->
<g id="edge4" class="edge">
<title>op1&#45;&gt;op2</title>
<path fill="none" stroke="#2563eb" d="M161.05,-59.92C191.41,-59.61 226.9,-61.7 258,-70 268.03,-72.68 278.15,-76.24 288.07,-80.34"/>
<polygon fill="#2563eb" stroke="#2563eb" points="286.96,-83.67 297.53,-84.43 289.74,-77.25 286.96,-83.67"/>
<text text-anchor="middle" x="218.5" y="-73.8" font-family="Helvetica,sans-Serif" font-size="14.00">mask_plain</text>
</g>
<!-- op3 -->
<g id="node4" class="node">
<title>op3</title>
<path fill="#8c564b" stroke="black" d="M726,-197.5C726,-197.5 619,-197.5 619,-197.5 613,-197.5 607,-191.5 607,-185.5 607,-185.5 607,-96.5 607,-96.5 607,-90.5 613,-84.5 619,-84.5 619,-84.5 726,-84.5 726,-84.5 732,-84.5 738,-90.5 738,-96.5 738,-96.5 738,-185.5 738,-185.5 738,-191.5 732,-197.5 726,-197.5"/>
<text text-anchor="middle" x="672.5" y="-182.3" font-family="Helvetica,sans-Serif" font-size="14.00">op3</text>
<text text-anchor="middle" x="672.5" y="-167.3" font-family="Helvetica,sans-Serif" font-size="14.00">rescale_dynamic</text>
<text text-anchor="middle" x="672.5" y="-152.3" font-family="Helvetica,sans-Serif" font-size="14.00">line 379</text>
<text text-anchor="middle" x="672.5" y="-137.3" font-family="Helvetica,sans-Serif" font-size="14.00">layer 2</text>
<text text-anchor="middle" x="672.5" y="-122.3" font-family="Helvetica,sans-Serif" font-size="14.00">cost 4</text>
<text text-anchor="middle" x="672.5" y="-107.3" font-family="Helvetica,sans-Serif" font-size="14.00">out ciph_tmp@3</text>
<text text-anchor="middle" x="672.5" y="-92.3" font-family="Helvetica,sans-Serif" font-size="14.00">in ciph_tmp@2</text>
</g>
<!-- op2&#45;&gt;op3 -->
<g id="edge6" class="edge">
<title>op2&#45;&gt;op3</title>
<path fill="none" stroke="#1f2937" d="M507.23,-176.08C534.11,-180.25 562.6,-181.37 589,-176 591.69,-175.45 594.41,-174.81 597.13,-174.1"/>
<polygon fill="#1f2937" stroke="#1f2937" points="598.37,-177.38 606.98,-171.2 596.4,-170.67 598.37,-177.38"/>
<text text-anchor="middle" x="557" y="-182.8" font-family="Helvetica,sans-Serif" font-size="14.00">ciph_tmp</text>
</g>
<!-- op2&#45;&gt;op3 -->
<g id="edge7" class="edge">
<title>op2&#45;&gt;op3</title>
<path fill="none" stroke="#2563eb" d="M507.19,-141C537.31,-141 569.02,-141 596.47,-141"/>
<polygon fill="#2563eb" stroke="#2563eb" points="596.76,-144.5 606.76,-141 596.76,-137.5 596.76,-144.5"/>
<text text-anchor="middle" x="557" y="-144.8" font-family="Helvetica,sans-Serif" font-size="14.00">ciph_tmp</text>
</g>
<!-- op2&#45;&gt;op3 -->
<g id="edge8" class="edge">
<title>op2&#45;&gt;op3</title>
<path fill="none" stroke="#f97316" d="M507.12,-121.82C534,-119.56 562.52,-118.99 589,-122 591.56,-122.29 594.15,-122.63 596.76,-123.01"/>
<polygon fill="#f97316" stroke="#f97316" points="596.46,-126.51 606.89,-124.66 597.58,-119.6 596.46,-126.51"/>
<text text-anchor="middle" x="557" y="-125.8" font-family="Helvetica,sans-Serif" font-size="14.00">ciph_tmp</text>
</g>
<!-- op2&#45;&gt;op3 -->
<g id="edge9" class="edge">
<title>op2&#45;&gt;op3</title>
<path fill="none" stroke="#dc2626" d="M507.01,-100.09C533.96,-95.17 562.54,-93.79 589,-100 591.68,-100.63 594.37,-101.36 597.07,-102.17"/>
<polygon fill="#dc2626" stroke="#dc2626" points="596.19,-105.57 606.79,-105.46 598.44,-98.94 596.19,-105.57"/>
<text text-anchor="middle" x="557" y="-103.8" font-family="Helvetica,sans-Serif" font-size="14.00">ciph_tmp</text>
</g>
<!-- op4 -->
<g id="node5" class="node">
<title>op4</title>
<path fill="#64748b" stroke="black" d="M962,-197.5C962,-197.5 850,-197.5 850,-197.5 844,-197.5 838,-191.5 838,-185.5 838,-185.5 838,-96.5 838,-96.5 838,-90.5 844,-84.5 850,-84.5 850,-84.5 962,-84.5 962,-84.5 968,-84.5 974,-90.5 974,-96.5 974,-96.5 974,-185.5 974,-185.5 974,-191.5 968,-197.5 962,-197.5"/>
<text text-anchor="middle" x="906" y="-182.3" font-family="Helvetica,sans-Serif" font-size="14.00">op4</text>
<text text-anchor="middle" x="906" y="-167.3" font-family="Helvetica,sans-Serif" font-size="14.00">return</text>
<text text-anchor="middle" x="906" y="-152.3" font-family="Helvetica,sans-Serif" font-size="14.00">line 388</text>
<text text-anchor="middle" x="906" y="-137.3" font-family="Helvetica,sans-Serif" font-size="14.00">layer 3</text>
<text text-anchor="middle" x="906" y="-122.3" font-family="Helvetica,sans-Serif" font-size="14.00">cost 1</text>
<text text-anchor="middle" x="906" y="-107.3" font-family="Helvetica,sans-Serif" font-size="14.00">out __return__@1</text>
<text text-anchor="middle" x="906" y="-92.3" font-family="Helvetica,sans-Serif" font-size="14.00">in ciph_tmp@3</text>
</g>
<!-- op3&#45;&gt;op4 -->
<g id="edge10" class="edge">
<title>op3&#45;&gt;op4</title>
<path fill="none" stroke="#1f2937" d="M738.29,-141C766.05,-141 798.7,-141 827.71,-141"/>
<polygon fill="#1f2937" stroke="#1f2937" points="827.8,-144.5 837.8,-141 827.8,-137.5 827.8,-144.5"/>
<text text-anchor="middle" x="788" y="-144.8" font-family="Helvetica,sans-Serif" font-size="14.00">ciph_tmp</text>
</g>
<!-- op3&#45;&gt;op4 -->
<g id="edge11" class="edge">
<title>op3&#45;&gt;op4</title>
<path fill="none" stroke="#2563eb" d="M738.11,-124.66C744.13,-123.58 750.16,-122.66 756,-122 784.26,-118.79 791.73,-118.88 820,-122 822.66,-122.29 825.35,-122.64 828.07,-123.02"/>
<polygon fill="#2563eb" stroke="#2563eb" points="827.53,-126.48 837.95,-124.58 828.62,-119.57 827.53,-126.48"/>
<text text-anchor="middle" x="788" y="-125.8" font-family="Helvetica,sans-Serif" font-size="14.00">ciph_tmp</text>
</g>
</g>
</svg>
