<?xml version="1.0" encoding="UTF-8" standalone="no"?>
<!DOCTYPE svg PUBLIC "-//W3C//DTD SVG 1.1//EN"
 "http://www.w3.org/Graphics/SVG/1.1/DTD/svg11.dtd">
<!-- Generated by graphviz version 2.43.0 (0)
 -->
<!-- Title: hedag_v2 Pages: 1 -->
<svg width="417pt" height="177pt"
 viewBox="0.00 0.00 417.00 177.00" xmlns="http://www.w3.org/2000/svg" xmlns:xlink="http://www.w3.org/1999/xlink">
<g id="graph0" class="graph" transform="scale(1 1) rotate(0) translate(4 173)">
<title>hedag_v2</title>
<polygon fill="white" stroke="transparent" points="-4,4 -4,-173 413,-173 413,4 -4,4"/>
<g id="clust1" class="cluster">
<title>cluster_layer_0</title>
<polygon fill="none" stroke="#d1d5db" points="8,-14 8,-151 169,-151 169,-14 8,-14"/>
<text text-anchor="middle" x="88.5" y="-135.8" font-family="Times,serif" font-size="14.00">layer 0</text>
</g>
<g id="clust2" class="cluster">
<title>cluster_layer_1</title>
<polygon fill="none" stroke="#d1d5db" points="249,-8 249,-161 401,-161 401,-8 249,-8"/>
<text text-anchor="middle" x="325" y="-145.8" font-family="Times,serif" font-size="14.00">layer 1</text>
</g>
<!-- op0 -->
<g id="node1" class="node">
<title>op0</title>
<path fill="#e5e7eb" stroke="black" d="M149,-120C149,-120 28,-120 28,-120 22,-120 16,-114 16,-108 16,-108 16,-34 16,-34 16,-28 22,-22 28,-22 28,-22 149,-22 149,-22 155,-22 161,-28 161,-34 161,-34 161,-108 161,-108 161,-114 155,-120 149,-120"/>
<text text-anchor="middle" x="88.5" y="-104.8" font-family="Helvetica,sans-Serif" font-size="14.00">op0</text>
<text text-anchor="middle" x="88.5" y="-89.8" font-family="Helvetica,sans-Serif" font-size="14.00">create_galois_keys</text>
<text text-anchor="middle" x="88.5" y="-74.8" font-family="Helvetica,sans-Serif" font-size="14.00">line 289</text>
<text text-anchor="middle" x="88.5" y="-59.8" font-family="Helvetica,sans-Serif" font-size="14.00">layer 0</text>
<text text-anchor="middle" x="88.5" y="-44.8" font-family="Helvetica,sans-Serif" font-size="14.00">cost 2</text>
<text text-anchor="middle" x="88.5" y="-29.8" font-family="Helvetica,sans-Serif" font-size="14.00">out gal_keys@1</text>
</g>
<!-- op1 -->
<g id="node2" class="node">
<title>op1</title>
<path fill="#64748b" stroke="black" d="M381,-129.5C381,-129.5 269,-129.5 269,-129.5 263,-129.5 257,-123.5 257,-117.5 257,-117.5 257,-28.5 257,-28.5 257,-22.5 263,-16.5 269,-16.5 269,-16.5 381,-16.5 381,-16.5 387,-16.5 393,-22.5 393,-28.5 393,-28.5 393,-117.5 393,-117.5 393,-123.5 387,-129.5 381,-129.5"/>
<text text-anchor="middle" x="325" y="-114.3" font-family="Helvetica,sans-Serif" font-size="14.00">op1</text>
<text text-anchor="middle" x="325" y="-99.3" font-family="Helvetica,sans-Serif" font-size="14.00">return</text>
<text text-anchor="middle" x="325" y="-84.3" font-family="Helvetica,sans-Serif" font-size="14.00">line 290</text>
<text text-anchor="middle" x="325" y="-69.3" font-family="Helvetica,sans-Serif" font-size="14.00">layer 1</text>
<text text-anchor="middle" x="325" y="-54.3" font-family="Helvetica,sans-Serif" font-size="14.00">cost 1</text>
<text text-anchor="middle" x="325" y="-39.3" font-family="Helvetica,sans-Serif" font-size="14.00">out __return__@1</text>
<text text-anchor="middle" x="325" y="-24.3" font-family="Helvetica,sans-Serif" font-size="14.00">in gal_keys@1</text>
</g>
<!-- op0&#45;&gt;op1 -->
<g id="edge1" class="edge">
<title>op0&#45;&gt;op1</title>
<path fill="none" stroke="#1f2937" d="M161.13,-71.61C188.24,-71.84 219.21,-72.11 246.81,-72.34"/>
<polygon fill="#1f2937" stroke="#1f2937" points="246.78,-75.84 256.81,-72.43 246.84,-68.84 246.78,-75.84"/>
<text text-anchor="middle" x="209" y="-75.8" font-family="Helvetica,sans-Serif" font-size="14.00">gal_keys</text>
</g>
<!-- op0&#45;&gt;op1 -->
<g id="edge2" class="edge">
<title>op0&#45;&gt;op1</title>
<path fill="none" stroke="#2563eb" d="M161.1,-54.42C167.13,-53.45 173.15,-52.61 179,-52 205.52,-49.22 212.53,-48.78 239,-52 241.51,-52.31 244.05,-52.66 246.61,-53.05"/>
<polygon fill="#2563eb" stroke="#2563eb" points="246.09,-56.52 256.54,-54.77 247.28,-49.62 246.09,-56.52"/>
<text text-anchor="middle" x="209" y="-55.8" font-family="Helvetica,sans-Serif" font-size="14.00">gal_keys</text>
</g>
</g>
</svg>
