<?xml version="1.0" encoding="UTF-8" standalone="no"?>
<!DOCTYPE svg PUBLIC "-//W3C//DTD SVG 1.1//EN"
 "http://www.w3.org/Graphics/SVG/1.1/DTD/svg11.dtd">
<!-- Generated by graphviz version 2.43.0 (0)
 -->
<!-- Title: hedag_v2 Pages: 1 -->
<svg width="1352pt" height="308pt"
 viewBox="0.00 0.00 1352.00 308.00" xmlns="http://www.w3.org/2000/svg" xmlns:xlink="http://www.w3.org/1999/xlink">
<g id="graph0" class="graph" transform="scale(1 1) rotate(0) translate(4 304)">
<title>hedag_v2</title>
<polygon fill="white" stroke="transparent" points="-4,4 -4,-304 1348,-304 1348,4 -4,4"/>
<g id="clust1" class="cluster">
<title>cluster_layer_0</title>
<polygon fill="none" stroke="#d1d5db" points="8,-32 8,-286 160,-286 160,-32 8,-32"/>
<text text-anchor="middle" x="84" y="-270.8" font-family="Times,serif" font-size="14.00">layer 0</text>
</g>
<g id="clust2" class="cluster">
<title>cluster_layer_1</title>
<polygon fill="none" stroke="#d1d5db" points="327,-8 327,-292 610,-292 610,-8 327,-8"/>
<text text-anchor="middle" x="468.5" y="-276.8" font-family="Times,serif" font-size="14.00">layer 1</text>
</g>
<g id="clust3" class="cluster">
<title>cluster_layer_2</title>
<polygon fill="none" stroke="#d1d5db" points="700,-139 700,-292 852,-292 852,-139 700,-139"/>
<text text-anchor="middle" x="776" y="-276.8" font-family="Times,serif" font-size="14.00">layer 2</text>
</g>
<g id="clust4" class="cluster">
<title>cluster_layer_3</title>
<polygon fill="none" stroke="#d1d5db" points="942,-139 942,-292 1094,-292 1094,-139 942,-139"/>
<text text-anchor="middle" x="1018" y="-276.8" font-family="Times,serif" font-size="14.00">layer 3</text>
</g>
<g id="clust5" class="cluster">
<title>cluster_layer_4</title>
<polygon fill="none" stroke="#d1d5db" points="1184,-139 1184,-292 1336,-292 1336,-139 1184,-139"/>
<text text-anchor="middle" x="1260" y="-276.8" font-family="Times,serif" font-size="14.00">layer 4</text>
</g>
<!-- op0 -->
<g id="node1" class="node">
<title>op0</title>
<path fill="#64748b" stroke="black" d="M140,-254.5C140,-254.5 28,-254.5 28,-254.5 22,-254.5 16,-248.5 16,-242.5 16,-242.5 16,-153.5 16,-153.5 16,-147.5 22,-141.5 28,-141.5 28,-141.5 140,-141.5 140,-141.5 146,-141.5 152,-147.5 152,-153.5 152,-153.5 152,-242.5 152,-242.5 152,-248.5 146,-254.5 140,-254.5"/>
<text text-anchor="middle" x="84" y="-239.3" font-family="Helvetica,sans-Serif" font-size="14.00">op0</text>
<text text-anchor="middle" x="84" y="-224.3" font-family="Helvetica,sans-Serif" font-size="14.00">return</text>
<text text-anchor="middle" x="84" y="-209.3" font-family="Helvetica,sans-Serif" font-size="14.00">line 90</text>
<text text-anchor="middle" x="84" y="-194.3" font-family="Helvetica,sans-Serif" font-size="14.00">layer 0</text>
<text text-anchor="middle" x="84" y="-179.3" font-family="Helvetica,sans-Serif" font-size="14.00">cost 1</text>
<text text-anchor="middle" x="84" y="-164.3" font-family="Helvetica,sans-Serif" font-size="14.00">out __return__@1</text>
<text text-anchor="middle" x="84" y="-149.3" font-family="Helvetica,sans-Serif" font-size="14.00">in &#45;1@0</text>
</g>
<!-- op1 -->
<g id="node3" class="node">
<title>op1</title>
<path fill="#64748b" stroke="black" d="M524.5,-260.5C524.5,-260.5 412.5,-260.5 412.5,-260.5 406.5,-260.5 400.5,-254.5 400.5,-248.5 400.5,-248.5 400.5,-159.5 400.5,-159.5 400.5,-153.5 406.5,-147.5 412.5,-147.5 412.5,-147.5 524.5,-147.5 524.5,-147.5 530.5,-147.5 536.5,-153.5 536.5,-159.5 536.5,-159.5 536.5,-248.5 536.5,-248.5 536.5,-254.5 530.5,-260.5 524.5,-260.5"/>
<text text-anchor="middle" x="468.5" y="-245.3" font-family="Helvetica,sans-Serif" font-size="14.00">op1</text>
<text text-anchor="middle" x="468.5" y="-230.3" font-family="Helvetica,sans-Serif" font-size="14.00">return</text>
<text text-anchor="middle" x="468.5" y="-215.3" font-family="Helvetica,sans-Serif" font-size="14.00">line 100</text>
<text text-anchor="middle" x="468.5" y="-200.3" font-family="Helvetica,sans-Serif" font-size="14.00">layer 1</text>
<text text-anchor="middle" x="468.5" y="-185.3" font-family="Helvetica,sans-Serif" font-size="14.00">cost 1</text>
<text text-anchor="middle" x="468.5" y="-170.3" font-family="Helvetica,sans-Serif" font-size="14.00">out __return__@2</text>
<text text-anchor="middle" x="468.5" y="-155.3" font-family="Helvetica,sans-Serif" font-size="14.00">in &#45;1@0</text>
</g>
<!-- op0&#45;&gt;op1 -->
<g id="edge1" class="edge">
<title>op0&#45;&gt;op1</title>
<path fill="none" stroke="#f97316" d="M152.06,-199.05C218.54,-200.09 320.27,-201.69 390.12,-202.79"/>
<polygon fill="#f97316" stroke="#f97316" points="390.14,-206.29 400.19,-202.94 390.25,-199.29 390.14,-206.29"/>
<text text-anchor="middle" x="243.5" y="-204.8" font-family="Helvetica,sans-Serif" font-size="14.00">__return__</text>
</g>
<!-- op2 -->
<g id="node2" class="node">
<title>op2</title>
<path fill="#e5e7eb" stroke="black" d="M108.5,-123.5C108.5,-123.5 59.5,-123.5 59.5,-123.5 53.5,-123.5 47.5,-117.5 47.5,-111.5 47.5,-111.5 47.5,-52.5 47.5,-52.5 47.5,-46.5 53.5,-40.5 59.5,-40.5 59.5,-40.5 108.5,-40.5 108.5,-40.5 114.5,-40.5 120.5,-46.5 120.5,-52.5 120.5,-52.5 120.5,-111.5 120.5,-111.5 120.5,-117.5 114.5,-123.5 108.5,-123.5"/>
<text text-anchor="middle" x="84" y="-108.3" font-family="Helvetica,sans-Serif" font-size="14.00">op2</text>
<text text-anchor="middle" x="84" y="-93.3" font-family="Helvetica,sans-Serif" font-size="14.00">read</text>
<text text-anchor="middle" x="84" y="-78.3" font-family="Helvetica,sans-Serif" font-size="14.00">line 151</text>
<text text-anchor="middle" x="84" y="-63.3" font-family="Helvetica,sans-Serif" font-size="14.00">layer 0</text>
<text text-anchor="middle" x="84" y="-48.3" font-family="Helvetica,sans-Serif" font-size="14.00">cost 1</text>
</g>
<!-- op3 -->
<g id="node4" class="node">
<title>op3</title>
<path fill="#17becf" stroke="black" d="M590,-129.5C590,-129.5 347,-129.5 347,-129.5 341,-129.5 335,-123.5 335,-117.5 335,-117.5 335,-28.5 335,-28.5 335,-22.5 341,-16.5 347,-16.5 347,-16.5 590,-16.5 590,-16.5 596,-16.5 602,-22.5 602,-28.5 602,-28.5 602,-117.5 602,-117.5 602,-123.5 596,-129.5 590,-129.5"/>
<text text-anchor="middle" x="468.5" y="-114.3" font-family="Helvetica,sans-Serif" font-size="14.00">op3</text>
<text text-anchor="middle" x="468.5" y="-99.3" font-family="Helvetica,sans-Serif" font-size="14.00">assign</text>
<text text-anchor="middle" x="468.5" y="-84.3" font-family="Helvetica,sans-Serif" font-size="14.00">line 108</text>
<text text-anchor="middle" x="468.5" y="-69.3" font-family="Helvetica,sans-Serif" font-size="14.00">layer 1</text>
<text text-anchor="middle" x="468.5" y="-54.3" font-family="Helvetica,sans-Serif" font-size="14.00">cost 1</text>
<text text-anchor="middle" x="468.5" y="-39.3" font-family="Helvetica,sans-Serif" font-size="14.00">out auto[query_data, orig_items]@1</text>
<text text-anchor="middle" x="468.5" y="-24.3" font-family="Helvetica,sans-Serif" font-size="14.00">in { nullptr, orig_items }@0</text>
</g>
<!-- op2&#45;&gt;op3 -->
<g id="edge2" class="edge">
<title>op2&#45;&gt;op3</title>
<path fill="none" stroke="#0f766e" d="M120.64,-81.16C167.05,-80.07 250.95,-78.1 324.6,-76.36"/>
<polygon fill="#0f766e" stroke="#0f766e" points="325.01,-79.85 334.92,-76.12 324.84,-72.86 325.01,-79.85"/>
<text text-anchor="middle" x="243.5" y="-82.8" font-family="Helvetica,sans-Serif" font-size="14.00">remote_query@2280</text>
</g>
<!-- op4 -->
<g id="node5" class="node">
<title>op4</title>
<path fill="#64748b" stroke="black" d="M832,-260.5C832,-260.5 720,-260.5 720,-260.5 714,-260.5 708,-254.5 708,-248.5 708,-248.5 708,-159.5 708,-159.5 708,-153.5 714,-147.5 720,-147.5 720,-147.5 832,-147.5 832,-147.5 838,-147.5 844,-153.5 844,-159.5 844,-159.5 844,-248.5 844,-248.5 844,-254.5 838,-260.5 832,-260.5"/>
<text text-anchor="middle" x="776" y="-245.3" font-family="Helvetica,sans-Serif" font-size="14.00">op4</text>
<text text-anchor="middle" x="776" y="-230.3" font-family="Helvetica,sans-Serif" font-size="14.00">return</text>
<text text-anchor="middle" x="776" y="-215.3" font-family="Helvetica,sans-Serif" font-size="14.00">line 125</text>
<text text-anchor="middle" x="776" y="-200.3" font-family="Helvetica,sans-Serif" font-size="14.00">layer 2</text>
<text text-anchor="middle" x="776" y="-185.3" font-family="Helvetica,sans-Serif" font-size="14.00">cost 1</text>
<text text-anchor="middle" x="776" y="-170.3" font-family="Helvetica,sans-Serif" font-size="14.00">out __return__@3</text>
<text text-anchor="middle" x="776" y="-155.3" font-family="Helvetica,sans-Serif" font-size="14.00">in &#45;1@0</text>
</g>
<!-- op1&#45;&gt;op4 -->
<g id="edge3" class="edge">
<title>op1&#45;&gt;op4</title>
<path fill="none" stroke="#f97316" d="M536.54,-204C584.11,-204 648.08,-204 697.79,-204"/>
<polygon fill="#f97316" stroke="#f97316" points="697.85,-207.5 707.85,-204 697.85,-200.5 697.85,-207.5"/>
<text text-anchor="middle" x="655" y="-207.8" font-family="Helvetica,sans-Serif" font-size="14.00">__return__</text>
</g>
<!-- op5 -->
<g id="node6" class="node">
<title>op5</title>
<path fill="#64748b" stroke="black" d="M1074,-260.5C1074,-260.5 962,-260.5 962,-260.5 956,-260.5 950,-254.5 950,-248.5 950,-248.5 950,-159.5 950,-159.5 950,-153.5 956,-147.5 962,-147.5 962,-147.5 1074,-147.5 1074,-147.5 1080,-147.5 1086,-153.5 1086,-159.5 1086,-159.5 1086,-248.5 1086,-248.5 1086,-254.5 1080,-260.5 1074,-260.5"/>
<text text-anchor="middle" x="1018" y="-245.3" font-family="Helvetica,sans-Serif" font-size="14.00">op5</text>
<text text-anchor="middle" x="1018" y="-230.3" font-family="Helvetica,sans-Serif" font-size="14.00">return</text>
<text text-anchor="middle" x="1018" y="-215.3" font-family="Helvetica,sans-Serif" font-size="14.00">line 135</text>
<text text-anchor="middle" x="1018" y="-200.3" font-family="Helvetica,sans-Serif" font-size="14.00">layer 3</text>
<text text-anchor="middle" x="1018" y="-185.3" font-family="Helvetica,sans-Serif" font-size="14.00">cost 1</text>
<text text-anchor="middle" x="1018" y="-170.3" font-family="Helvetica,sans-Serif" font-size="14.00">out __return__@4</text>
<text text-anchor="middle" x="1018" y="-155.3" font-family="Helvetica,sans-Serif" font-size="14.00">in &#45;1@0</text>
</g>
<!-- op4&#45;&gt;op5 -->
<g id="edge4" class="edge">
<title>op4&#45;&gt;op5</title>
<path fill="none" stroke="#f97316" d="M844.17,-204C873.82,-204 908.85,-204 939.6,-204"/>
<polygon fill="#f97316" stroke="#f97316" points="939.84,-207.5 949.84,-204 939.84,-200.5 939.84,-207.5"/>
<text text-anchor="middle" x="897" y="-207.8" font-family="Helvetica,sans-Serif" font-size="14.00">__return__</text>
</g>
<!-- op6 -->
<g id="node7" class="node">
<title>op6</title>
<path fill="#64748b" stroke="black" d="M1316,-260.5C1316,-260.5 1204,-260.5 1204,-260.5 1198,-260.5 1192,-254.5 1192,-248.5 1192,-248.5 1192,-159.5 1192,-159.5 1192,-153.5 1198,-147.5 1204,-147.5 1204,-147.5 1316,-147.5 1316,-147.5 1322,-147.5 1328,-153.5 1328,-159.5 1328,-159.5 1328,-248.5 1328,-248.5 1328,-254.5 1322,-260.5 1316,-260.5"/>
<text text-anchor="middle" x="1260" y="-245.3" font-family="Helvetica,sans-Serif" font-size="14.00">op6</text>
<text text-anchor="middle" x="1260" y="-230.3" font-family="Helvetica,sans-Serif" font-size="14.00">return</text>
<text text-anchor="middle" x="1260" y="-215.3" font-family="Helvetica,sans-Serif" font-size="14.00">line 142</text>
<text text-anchor="middle" x="1260" y="-200.3" font-family="Helvetica,sans-Serif" font-size="14.00">layer 4</text>
<text text-anchor="middle" x="1260" y="-185.3" font-family="Helvetica,sans-Serif" font-size="14.00">cost 1</text>
<text text-anchor="middle" x="1260" y="-170.3" font-family="Helvetica,sans-Serif" font-size="14.00">out __return__@5</text>
<text text-anchor="middle" x="1260" y="-155.3" font-family="Helvetica,sans-Serif" font-size="14.00">in 0@0</text>
</g>
<!-- op5&#45;&gt;op6 -->
<g id="edge5" class="edge">
<title>op5&#45;&gt;op6</title>
<path fill="none" stroke="#f97316" d="M1086.17,-204C1115.82,-204 1150.85,-204 1181.6,-204"/>
<polygon fill="#f97316" stroke="#f97316" points="1181.84,-207.5 1191.84,-204 1181.84,-200.5 1181.84,-207.5"/>
<text text-anchor="middle" x="1139" y="-207.8" font-family="Helvetica,sans-Serif" font-size="14.00">__return__</text>
</g>
</g>
</svg>
