<?xml version="1.0" encoding="UTF-8" standalone="no"?>
<!DOCTYPE svg PUBLIC "-//W3C//DTD SVG 1.1//EN"
 "http://www.w3.org/Graphics/SVG/1.1/DTD/svg11.dtd">
<!-- Generated by graphviz version 2.43.0 (0)
 -->
<!-- Title: hedag_v2 Pages: 1 -->
<svg width="1164pt" height="308pt"
 viewBox="0.00 0.00 1164.00 308.00" xmlns="http://www.w3.org/2000/svg" xmlns:xlink="http://www.w3.org/1999/xlink">
<g id="graph0" class="graph" transform="scale(1 1) rotate(0) translate(4 304)">
<title>hedag_v2</title>
<polygon fill="white" stroke="transparent" points="-4,4 -4,-304 1160,-304 1160,4 -4,4"/>
<g id="clust1" class="cluster">
<title>cluster_layer_0</title>
<polygon fill="none" stroke="#d1d5db" points="8,-23 8,-292 412,-292 412,-23 8,-23"/>
<text text-anchor="middle" x="210" y="-276.8" font-family="Times,serif" font-size="14.00">layer 0</text>
</g>
<g id="clust2" class="cluster">
<title>cluster_layer_1</title>
<polygon fill="none" stroke="#d1d5db" points="754,-8 754,-292 1148,-292 1148,-8 754,-8"/>
<text text-anchor="middle" x="951" y="-276.8" font-family="Times,serif" font-size="14.00">layer 1</text>
</g>
<!-- op0 -->
<g id="node1" class="node">
<title>op0</title>
<path fill="#e5e7eb" stroke="black" d="M392,-260.5C392,-260.5 28,-260.5 28,-260.5 22,-260.5 16,-254.5 16,-248.5 16,-248.5 16,-159.5 16,-159.5 16,-153.5 22,-147.5 28,-147.5 28,-147.5 392,-147.5 392,-147.5 398,-147.5 404,-153.5 404,-159.5 404,-159.5 404,-248.5 404,-248.5 404,-254.5 398,-260.5 392,-260.5"/>
<text text-anchor="middle" x="210" y="-245.3" font-family="Helvetica,sans-Serif" font-size="14.00">op0</text>
<text text-anchor="middle" x="210" y="-230.3" font-family="Helvetica,sans-Serif" font-size="14.00">decode</text>
<text text-anchor="middle" x="210" y="-215.3" font-family="Helvetica,sans-Serif" font-size="14.00">line 172</text>
<text text-anchor="middle" x="210" y="-200.3" font-family="Helvetica,sans-Serif" font-size="14.00">layer 0</text>
<text text-anchor="middle" x="210" y="-185.3" font-family="Helvetica,sans-Serif" font-size="14.00">cost 1</text>
<text text-anchor="middle" x="210" y="-170.3" font-family="Helvetica,sans-Serif" font-size="14.00">out extract_coeffs__replace_element_8821__coeffs@1</text>
<text text-anchor="middle" x="210" y="-155.3" font-family="Helvetica,sans-Serif" font-size="14.00">in pt@0</text>
</g>
<!-- op1 -->
<g id="node3" class="node">
<title>op1</title>
<path fill="#17becf" stroke="black" d="M1128,-260.5C1128,-260.5 774,-260.5 774,-260.5 768,-260.5 762,-254.5 762,-248.5 762,-248.5 762,-159.5 762,-159.5 762,-153.5 768,-147.5 774,-147.5 774,-147.5 1128,-147.5 1128,-147.5 1134,-147.5 1140,-153.5 1140,-159.5 1140,-159.5 1140,-248.5 1140,-248.5 1140,-254.5 1134,-260.5 1128,-260.5"/>
<text text-anchor="middle" x="951" y="-245.3" font-family="Helvetica,sans-Serif" font-size="14.00">op1</text>
<text text-anchor="middle" x="951" y="-230.3" font-family="Helvetica,sans-Serif" font-size="14.00">assign</text>
<text text-anchor="middle" x="951" y="-215.3" font-family="Helvetica,sans-Serif" font-size="14.00">line 295</text>
<text text-anchor="middle" x="951" y="-200.3" font-family="Helvetica,sans-Serif" font-size="14.00">layer 1</text>
<text text-anchor="middle" x="951" y="-185.3" font-family="Helvetica,sans-Serif" font-size="14.00">cost 1</text>
<text text-anchor="middle" x="951" y="-170.3" font-family="Helvetica,sans-Serif" font-size="14.00">out coeffs@1</text>
<text text-anchor="middle" x="951" y="-155.3" font-family="Helvetica,sans-Serif" font-size="14.00">in extract_coeffs__replace_element_8821__coeffs@1</text>
</g>
<!-- op0&#45;&gt;op1 -->
<g id="edge1" class="edge">
<title>op0&#45;&gt;op1</title>
<path fill="none" stroke="#1f2937" d="M404.14,-219.23C410.16,-219.52 416.13,-219.78 422,-220 565.01,-225.41 601,-225.55 744,-220 746.59,-219.9 749.19,-219.79 751.81,-219.68"/>
<polygon fill="#1f2937" stroke="#1f2937" points="752.16,-223.17 761.99,-219.21 751.84,-216.17 752.16,-223.17"/>
<text text-anchor="middle" x="583" y="-227.8" font-family="Helvetica,sans-Serif" font-size="14.00">extract_coeffs__replace_element_8821__coeffs</text>
</g>
<!-- op0&#45;&gt;op1 -->
<g id="edge2" class="edge">
<title>op0&#45;&gt;op1</title>
<path fill="none" stroke="#2563eb" d="M404.18,-201.14C410.19,-201.09 416.14,-201.04 422,-201 565.11,-199.98 600.89,-199.96 744,-201 746.58,-201.02 749.18,-201.04 751.8,-201.06"/>
<polygon fill="#2563eb" stroke="#2563eb" points="751.92,-204.56 761.95,-201.15 751.98,-197.56 751.92,-204.56"/>
<text text-anchor="middle" x="583" y="-204.8" font-family="Helvetica,sans-Serif" font-size="14.00">extract_coeffs__replace_element_8821__coeffs</text>
</g>
<!-- op0&#45;&gt;op1 -->
<g id="edge3" class="edge">
<title>op0&#45;&gt;op1</title>
<path fill="none" stroke="#0f766e" d="M404.11,-182.1C410.14,-181.69 416.11,-181.32 422,-181 564.9,-173.23 601.11,-173.05 744,-181 746.55,-181.14 749.13,-181.29 751.71,-181.46"/>
<polygon fill="#0f766e" stroke="#0f766e" points="751.54,-184.95 761.75,-182.12 752,-177.97 751.54,-184.95"/>
<text text-anchor="middle" x="583" y="-184.8" font-family="Helvetica,sans-Serif" font-size="14.00">replace_element@8821</text>
</g>
<!-- op2 -->
<g id="node2" class="node">
<title>op2</title>
<path fill="#e5e7eb" stroke="black" d="M256,-129C256,-129 164,-129 164,-129 158,-129 152,-123 152,-117 152,-117 152,-43 152,-43 152,-37 158,-31 164,-31 164,-31 256,-31 256,-31 262,-31 268,-37 268,-43 268,-43 268,-117 268,-117 268,-123 262,-129 256,-129"/>
<text text-anchor="middle" x="210" y="-113.8" font-family="Helvetica,sans-Serif" font-size="14.00">op2</text>
<text text-anchor="middle" x="210" y="-98.8" font-family="Helvetica,sans-Serif" font-size="14.00">encode</text>
<text text-anchor="middle" x="210" y="-83.8" font-family="Helvetica,sans-Serif" font-size="14.00">line 309</text>
<text text-anchor="middle" x="210" y="-68.8" font-family="Helvetica,sans-Serif" font-size="14.00">layer 0</text>
<text text-anchor="middle" x="210" y="-53.8" font-family="Helvetica,sans-Serif" font-size="14.00">cost 1</text>
<text text-anchor="middle" x="210" y="-38.8" font-family="Helvetica,sans-Serif" font-size="14.00">out new_pt@1</text>
</g>
<!-- op3 -->
<g id="node4" class="node">
<title>op3</title>
<path fill="#64748b" stroke="black" d="M1007,-129.5C1007,-129.5 895,-129.5 895,-129.5 889,-129.5 883,-123.5 883,-117.5 883,-117.5 883,-28.5 883,-28.5 883,-22.5 889,-16.5 895,-16.5 895,-16.5 1007,-16.5 1007,-16.5 1013,-16.5 1019,-22.5 1019,-28.5 1019,-28.5 1019,-117.5 1019,-117.5 1019,-123.5 1013,-129.5 1007,-129.5"/>
<text text-anchor="middle" x="951" y="-114.3" font-family="Helvetica,sans-Serif" font-size="14.00">op3</text>
<text text-anchor="middle" x="951" y="-99.3" font-family="Helvetica,sans-Serif" font-size="14.00">return</text>
<text text-anchor="middle" x="951" y="-84.3" font-family="Helvetica,sans-Serif" font-size="14.00">line 310</text>
<text text-anchor="middle" x="951" y="-69.3" font-family="Helvetica,sans-Serif" font-size="14.00">layer 1</text>
<text text-anchor="middle" x="951" y="-54.3" font-family="Helvetica,sans-Serif" font-size="14.00">cost 1</text>
<text text-anchor="middle" x="951" y="-39.3" font-family="Helvetica,sans-Serif" font-size="14.00">out __return__@1</text>
<text text-anchor="middle" x="951" y="-24.3" font-family="Helvetica,sans-Serif" font-size="14.00">in new_pt@1</text>
</g>
<!-- op2&#45;&gt;op3 -->
<g id="edge4" class="edge">
<title>op2&#45;&gt;op3</title>
<path fill="none" stroke="#1f2937" d="M268.07,-79.46C399.4,-78.22 723.21,-75.15 872.42,-73.73"/>
<polygon fill="#1f2937" stroke="#1f2937" points="872.89,-77.23 882.86,-73.64 872.83,-70.23 872.89,-77.23"/>
<text text-anchor="middle" x="583" y="-80.8" font-family="Helvetica,sans-Serif" font-size="14.00">new_pt</text>
</g>
<!-- op2&#45;&gt;op3 -->
<g id="edge5" class="edge">
<title>op2&#45;&gt;op3</title>
<path fill="none" stroke="#2563eb" d="M268.15,-71.38C310.51,-65.44 369.71,-58.09 422,-55 564.86,-46.57 601.02,-48.77 744,-55 786.64,-56.86 834.1,-60.87 872.7,-64.64"/>
<polygon fill="#2563eb" stroke="#2563eb" points="872.54,-68.14 882.83,-65.64 873.23,-61.17 872.54,-68.14"/>
<text text-anchor="middle" x="583" y="-58.8" font-family="Helvetica,sans-Serif" font-size="14.00">new_pt</text>
</g>
</g>
</svg>
