<?xml version="1.0" encoding="UTF-8" standalone="no"?>
<!DOCTYPE svg PUBLIC "-//W3C//DTD SVG 1.1//EN"
 "http://www.w3.org/Graphics/SVG/1.1/DTD/svg11.dtd">
<!-- Generated by graphviz version 2.43.0 (0)
 -->
<!-- Title: hedag_v2 Pages: 1 -->
<svg width="527pt" height="177pt"
 viewBox="0.00 0.00 527.00 177.00" xmlns="http://www.w3.org/2000/svg" xmlns:xlink="http://www.w3.org/1999/xlink">
<g id="graph0" class="graph" transform="scale(1 1) rotate(0) translate(4 173)">
<title>hedag_v2</title>
<polygon fill="white" stroke="transparent" points="-4,4 -4,-173 523,-173 523,4 -4,4"/>
<g id="clust1" class="cluster">
<title>cluster_layer_0</title>
<polygon fill="none" stroke="#d1d5db" points="8,-8 8,-161 143,-161 143,-8 8,-8"/>
<text text-anchor="middle" x="75.5" y="-145.8" font-family="Times,serif" font-size="14.00">layer 0</text>
</g>
<g id="clust2" class="cluster">
<title>cluster_layer_1</title>
<polygon fill="none" stroke="#d1d5db" points="197,-8 197,-161 309,-161 309,-8 197,-8"/>
<text text-anchor="middle" x="253" y="-145.8" font-family="Times,serif" font-size="14.00">layer 1</text>
</g>
<g id="clust3" class="cluster">
<title>cluster_layer_2</title>
<polygon fill="none" stroke="#d1d5db" points="359,-8 359,-161 511,-161 511,-8 359,-8"/>
<text text-anchor="middle" x="435" y="-145.8" font-family="Times,serif" font-size="14.00">layer 2</text>
</g>
<!-- op0 -->
<g id="node1" class="node">
<title>op0</title>
<path fill="#e5e7eb" stroke="black" d="M123,-129.5C123,-129.5 28,-129.5 28,-129.5 22,-129.5 16,-123.5 16,-117.5 16,-117.5 16,-28.5 16,-28.5 16,-22.5 22,-16.5 28,-16.5 28,-16.5 123,-16.5 123,-16.5 129,-16.5 135,-22.5 135,-28.5 135,-28.5 135,-117.5 135,-117.5 135,-123.5 129,-129.5 123,-129.5"/>
<text text-anchor="middle" x="75.5" y="-114.3" font-family="Helvetica,sans-Serif" font-size="14.00">op0</text>
<text text-anchor="middle" x="75.5" y="-99.3" font-family="Helvetica,sans-Serif" font-size="14.00">encode</text>
<text text-anchor="middle" x="75.5" y="-84.3" font-family="Helvetica,sans-Serif" font-size="14.00">line 33</text>
<text text-anchor="middle" x="75.5" y="-69.3" font-family="Helvetica,sans-Serif" font-size="14.00">layer 0</text>
<text text-anchor="middle" x="75.5" y="-54.3" font-family="Helvetica,sans-Serif" font-size="14.00">cost 1</text>
<text text-anchor="middle" x="75.5" y="-39.3" font-family="Helvetica,sans-Serif" font-size="14.00">out plain@1</text>
<text text-anchor="middle" x="75.5" y="-24.3" font-family="Helvetica,sans-Serif" font-size="14.00">in message@0</text>
</g>
<!-- op1 -->
<g id="node2" class="node">
<title>op1</title>
<path fill="#e5e7eb" stroke="black" d="M289,-129.5C289,-129.5 217,-129.5 217,-129.5 211,-129.5 205,-123.5 205,-117.5 205,-117.5 205,-28.5 205,-28.5 205,-22.5 211,-16.5 217,-16.5 217,-16.5 289,-16.5 289,-16.5 295,-16.5 301,-22.5 301,-28.5 301,-28.5 301,-117.5 301,-117.5 301,-123.5 295,-129.5 289,-129.5"/>
<text text-anchor="middle" x="253" y="-114.3" font-family="Helvetica,sans-Serif" font-size="14.00">op1</text>
<text text-anchor="middle" x="253" y="-99.3" font-family="Helvetica,sans-Serif" font-size="14.00">encrypt</text>
<text text-anchor="middle" x="253" y="-84.3" font-family="Helvetica,sans-Serif" font-size="14.00">line 34</text>
<text text-anchor="middle" x="253" y="-69.3" font-family="Helvetica,sans-Serif" font-size="14.00">layer 1</text>
<text text-anchor="middle" x="253" y="-54.3" font-family="Helvetica,sans-Serif" font-size="14.00">cost 4</text>
<text text-anchor="middle" x="253" y="-39.3" font-family="Helvetica,sans-Serif" font-size="14.00">out ciph@1</text>
<text text-anchor="middle" x="253" y="-24.3" font-family="Helvetica,sans-Serif" font-size="14.00">in plain@1</text>
</g>
<!-- op0&#45;&gt;op1 -->
<g id="edge1" class="edge">
<title>op0&#45;&gt;op1</title>
<path fill="none" stroke="#1f2937" d="M135.43,-73C154.59,-73 175.81,-73 194.84,-73"/>
<polygon fill="#1f2937" stroke="#1f2937" points="194.86,-76.5 204.86,-73 194.86,-69.5 194.86,-76.5"/>
<text text-anchor="middle" x="170" y="-76.8" font-family="Helvetica,sans-Serif" font-size="14.00">plain</text>
</g>
<!-- op0&#45;&gt;op1 -->
<g id="edge2" class="edge">
<title>op0&#45;&gt;op1</title>
<path fill="none" stroke="#2563eb" d="M135.18,-56C151.9,-53.04 170.14,-51.59 187,-54 189.55,-54.36 192.13,-54.81 194.73,-55.31"/>
<polygon fill="#2563eb" stroke="#2563eb" points="194.26,-58.79 204.77,-57.51 195.76,-51.95 194.26,-58.79"/>
<text text-anchor="middle" x="170" y="-57.8" font-family="Helvetica,sans-Serif" font-size="14.00">plain</text>
</g>
<!-- op2 -->
<g id="node3" class="node">
<title>op2</title>
<path fill="#64748b" stroke="black" d="M491,-129.5C491,-129.5 379,-129.5 379,-129.5 373,-129.5 367,-123.5 367,-117.5 367,-117.5 367,-28.5 367,-28.5 367,-22.5 373,-16.5 379,-16.5 379,-16.5 491,-16.5 491,-16.5 497,-16.5 503,-22.5 503,-28.5 503,-28.5 503,-117.5 503,-117.5 503,-123.5 497,-129.5 491,-129.5"/>
<text text-anchor="middle" x="435" y="-114.3" font-family="Helvetica,sans-Serif" font-size="14.00">op2</text>
<text text-anchor="middle" x="435" y="-99.3" font-family="Helvetica,sans-Serif" font-size="14.00">return</text>
<text text-anchor="middle" x="435" y="-84.3" font-family="Helvetica,sans-Serif" font-size="14.00">line 35</text>
<text text-anchor="middle" x="435" y="-69.3" font-family="Helvetica,sans-Serif" font-size="14.00">layer 2</text>
<text text-anchor="middle" x="435" y="-54.3" font-family="Helvetica,sans-Serif" font-size="14.00">cost 1</text>
<text text-anchor="middle" x="435" y="-39.3" font-family="Helvetica,sans-Serif" font-size="14.00">out __return__@1</text>
<text text-anchor="middle" x="435" y="-24.3" font-family="Helvetica,sans-Serif" font-size="14.00">in ciph@1</text>
</g>
<!-- op1&#45;&gt;op2 -->
<g id="edge3" class="edge">
<title>op1&#45;&gt;op2</title>
<path fill="none" stroke="#1f2937" d="M301.29,-73C318.25,-73 337.83,-73 356.66,-73"/>
<polygon fill="#1f2937" stroke="#1f2937" points="356.72,-76.5 366.72,-73 356.72,-69.5 356.72,-76.5"/>
<text text-anchor="middle" x="334" y="-76.8" font-family="Helvetica,sans-Serif" font-size="14.00">ciph</text>
</g>
<!-- op1&#45;&gt;op2 -->
<g id="edge4" class="edge">
<title>op1&#45;&gt;op2</title>
<path fill="none" stroke="#2563eb" d="M301.23,-57.51C307.16,-56.07 313.18,-54.83 319,-54 331.25,-52.25 344.21,-52.41 356.84,-53.69"/>
<polygon fill="#2563eb" stroke="#2563eb" points="356.53,-57.17 366.88,-54.93 357.39,-50.23 356.53,-57.17"/>
<text text-anchor="middle" x="334" y="-57.8" font-family="Helvetica,sans-Serif" font-size="14.00">ciph</text>
</g>
</g>
</svg>
