<?xml version="1.0" encoding="UTF-8" standalone="no"?>
<!DOCTYPE svg PUBLIC "-//W3C//DTD SVG 1.1//EN"
 "http://www.w3.org/Graphics/SVG/1.1/DTD/svg11.dtd">
<!-- Generated by graphviz version 2.43.0 (0)
 -->
<!-- Title: hedag_v2 Pages: 1 -->
<svg width="1252pt" height="196pt"
 viewBox="0.00 0.00 1252.00 196.00" xmlns="http://www.w3.org/2000/svg" xmlns:xlink="http://www.w3.org/1999/xlink">
<g id="graph0" class="graph" transform="scale(1 1) rotate(0) translate(4 192)">
<title>hedag_v2</title>
<polygon fill="white" stroke="transparent" points="-4,4 -4,-192 1248,-192 1248,4 -4,4"/>
<g id="clust1" class="cluster">
<title>cluster_layer_0</title>
<polygon fill="none" stroke="#d1d5db" points="8,-11 8,-164 186,-164 186,-11 8,-11"/>
<text text-anchor="middle" x="97" y="-148.8" font-family="Times,serif" font-size="14.00">layer 0</text>
</g>
<g id="clust2" class="cluster">
<title>cluster_layer_1</title>
<polygon fill="none" stroke="#d1d5db" points="282,-13 282,-166 460,-166 460,-13 282,-13"/>
<text text-anchor="middle" x="371" y="-150.8" font-family="Times,serif" font-size="14.00">layer 1</text>
</g>
<g id="clust3" class="cluster">
<title>cluster_layer_2</title>
<polygon fill="none" stroke="#d1d5db" points="556,-18 556,-171 734,-171 734,-18 556,-18"/>
<text text-anchor="middle" x="645" y="-155.8" font-family="Times,serif" font-size="14.00">layer 2</text>
</g>
<g id="clust4" class="cluster">
<title>cluster_layer_3</title>
<polygon fill="none" stroke="#d1d5db" points="830,-27 830,-180 988,-180 988,-27 830,-27"/>
<text text-anchor="middle" x="909" y="-164.8" font-family="Times,serif" font-size="14.00">layer 3</text>
</g>
<g id="clust5" class="cluster">
<title>cluster_layer_4</title>
<polygon fill="none" stroke="#d1d5db" points="1084,-8 1084,-161 1236,-161 1236,-8 1084,-8"/>
<text text-anchor="middle" x="1160" y="-145.8" font-family="Times,serif" font-size="14.00">layer 4</text>
</g>
<!-- op0 -->
<g id="node1" class="node">
<title>op0</title>
<path fill="#e377c2" stroke="black" d="M166,-132.5C166,-132.5 28,-132.5 28,-132.5 22,-132.5 16,-126.5 16,-120.5 16,-120.5 16,-31.5 16,-31.5 16,-25.5 22,-19.5 28,-19.5 28,-19.5 166,-19.5 166,-19.5 172,-19.5 178,-25.5 178,-31.5 178,-31.5 178,-120.5 178,-120.5 178,-126.5 172,-132.5 166,-132.5"/>
<text text-anchor="middle" x="97" y="-117.3" font-family="Helvetica,sans-Serif" font-size="14.00">op0</text>
<text text-anchor="middle" x="97" y="-102.3" font-family="Helvetica,sans-Serif" font-size="14.00">evaluate_poly_vector</text>
<text text-anchor="middle" x="97" y="-87.3" font-family="Helvetica,sans-Serif" font-size="14.00">line 109</text>
<text text-anchor="middle" x="97" y="-72.3" font-family="Helvetica,sans-Serif" font-size="14.00">layer 0</text>
<text text-anchor="middle" x="97" y="-57.3" font-family="Helvetica,sans-Serif" font-size="14.00">cost 8</text>
<text text-anchor="middle" x="97" y="-42.3" font-family="Helvetica,sans-Serif" font-size="14.00">out ciph_result@1</text>
<text text-anchor="middle" x="97" y="-27.3" font-family="Helvetica,sans-Serif" font-size="14.00">in ciph_result@0</text>
</g>
<!-- op1 -->
<g id="node2" class="node">
<title>op1</title>
<path fill="#e377c2" stroke="black" d="M440,-134.5C440,-134.5 302,-134.5 302,-134.5 296,-134.5 290,-128.5 290,-122.5 290,-122.5 290,-33.5 290,-33.5 290,-27.5 296,-21.5 302,-21.5 302,-21.5 440,-21.5 440,-21.5 446,-21.5 452,-27.5 452,-33.5 452,-33.5 452,-122.5 452,-122.5 452,-128.5 446,-134.5 440,-134.5"/>
<text text-anchor="middle" x="371" y="-119.3" font-family="Helvetica,sans-Serif" font-size="14.00">op1</text>
<text text-anchor="middle" x="371" y="-104.3" font-family="Helvetica,sans-Serif" font-size="14.00">evaluate_poly_vector</text>
<text text-anchor="middle" x="371" y="-89.3" font-family="Helvetica,sans-Serif" font-size="14.00">line 110</text>
<text text-anchor="middle" x="371" y="-74.3" font-family="Helvetica,sans-Serif" font-size="14.00">layer 1</text>
<text text-anchor="middle" x="371" y="-59.3" font-family="Helvetica,sans-Serif" font-size="14.00">cost 8</text>
<text text-anchor="middle" x="371" y="-44.3" font-family="Helvetica,sans-Serif" font-size="14.00">out ciph_result@2</text>
<text text-anchor="middle" x="371" y="-29.3" font-family="Helvetica,sans-Serif" font-size="14.00">in ciph_result@1</text>
</g>
<!-- op0&#45;&gt;op1 -->
<g id="edge1" class="edge">
<title>op0&#45;&gt;op1</title>
<path fill="none" stroke="#1f2937" d="M178.06,-91.93C184.11,-92.76 190.14,-93.47 196,-94 229.64,-97.06 238.33,-96.73 272,-94 274.56,-93.79 277.15,-93.56 279.76,-93.29"/>
<polygon fill="#1f2937" stroke="#1f2937" points="280.36,-96.75 289.91,-92.16 279.58,-89.79 280.36,-96.75"/>
<text text-anchor="middle" x="234" y="-99.8" font-family="Helvetica,sans-Serif" font-size="14.00">ciph_result</text>
</g>
<!-- op0&#45;&gt;op1 -->
<g id="edge2" class="edge">
<title>op0&#45;&gt;op1</title>
<path fill="none" stroke="#2563eb" d="M178.13,-74.83C207.64,-74.59 241.34,-74.53 272,-75 274.53,-75.04 277.1,-75.08 279.69,-75.13"/>
<polygon fill="#2563eb" stroke="#2563eb" points="279.71,-78.63 289.78,-75.34 279.86,-71.63 279.71,-78.63"/>
<text text-anchor="middle" x="234" y="-78.8" font-family="Helvetica,sans-Serif" font-size="14.00">ciph_result</text>
</g>
<!-- op0&#45;&gt;op1 -->
<g id="edge3" class="edge">
<title>op0&#45;&gt;op1</title>
<path fill="none" stroke="#f97316" d="M178,-57.42C184.07,-56.45 190.12,-55.62 196,-55 229.59,-51.44 238.45,-51.12 272,-55 274.54,-55.29 277.12,-55.63 279.71,-56"/>
<polygon fill="#f97316" stroke="#f97316" points="279.35,-59.49 289.77,-57.6 280.45,-52.58 279.35,-59.49"/>
<text text-anchor="middle" x="234" y="-58.8" font-family="Helvetica,sans-Serif" font-size="14.00">ciph_result</text>
</g>
<!-- op0&#45;&gt;op1 -->
<g id="edge4" class="edge">
<title>op0&#45;&gt;op1</title>
<path fill="none" stroke="#dc2626" d="M178.15,-37.74C184.1,-35.86 190.09,-34.24 196,-33 229.06,-26.07 239,-25.79 272,-33 274.69,-33.59 277.4,-34.26 280.11,-35"/>
<polygon fill="#dc2626" stroke="#dc2626" points="279.34,-38.42 289.93,-37.96 281.37,-31.72 279.34,-38.42"/>
<text text-anchor="middle" x="234" y="-36.8" font-family="Helvetica,sans-Serif" font-size="14.00">ciph_result</text>
</g>
<!-- op2 -->
<g id="node3" class="node">
<title>op2</title>
<path fill="#e377c2" stroke="black" d="M714,-139.5C714,-139.5 576,-139.5 576,-139.5 570,-139.5 564,-133.5 564,-127.5 564,-127.5 564,-38.5 564,-38.5 564,-32.5 570,-26.5 576,-26.5 576,-26.5 714,-26.5 714,-26.5 720,-26.5 726,-32.5 726,-38.5 726,-38.5 726,-127.5 726,-127.5 726,-133.5 720,-139.5 714,-139.5"/>
<text text-anchor="middle" x="645" y="-124.3" font-family="Helvetica,sans-Serif" font-size="14.00">op2</text>
<text text-anchor="middle" x="645" y="-109.3" font-family="Helvetica,sans-Serif" font-size="14.00">evaluate_poly_vector</text>
<text text-anchor="middle" x="645" y="-94.3" font-family="Helvetica,sans-Serif" font-size="14.00">line 111</text>
<text text-anchor="middle" x="645" y="-79.3" font-family="Helvetica,sans-Serif" font-size="14.00">layer 2</text>
<text text-anchor="middle" x="645" y="-64.3" font-family="Helvetica,sans-Serif" font-size="14.00">cost 8</text>
<text text-anchor="middle" x="645" y="-49.3" font-family="Helvetica,sans-Serif" font-size="14.00">out ciph_result@3</text>
<text text-anchor="middle" x="645" y="-34.3" font-family="Helvetica,sans-Serif" font-size="14.00">in ciph_result@2</text>
</g>
<!-- op1&#45;&gt;op2 -->
<g id="edge5" class="edge">
<title>op1&#45;&gt;op2</title>
<path fill="none" stroke="#1f2937" d="M452,-96.58C458.07,-97.55 464.12,-98.38 470,-99 503.59,-102.56 512.33,-101.73 546,-99 548.56,-98.79 551.15,-98.56 553.76,-98.29"/>
<polygon fill="#1f2937" stroke="#1f2937" points="554.36,-101.75 563.91,-97.16 553.58,-94.79 554.36,-101.75"/>
<text text-anchor="middle" x="508" y="-104.8" font-family="Helvetica,sans-Serif" font-size="14.00">ciph_result</text>
</g>
<!-- op1&#45;&gt;op2 -->
<g id="edge6" class="edge">
<title>op1&#45;&gt;op2</title>
<path fill="none" stroke="#2563eb" d="M452.13,-78.6C481.64,-78.91 515.34,-79.35 546,-80 548.53,-80.05 551.1,-80.11 553.69,-80.17"/>
<polygon fill="#2563eb" stroke="#2563eb" points="553.7,-83.67 563.78,-80.42 553.87,-76.67 553.7,-83.67"/>
<text text-anchor="middle" x="508" y="-83.8" font-family="Helvetica,sans-Serif" font-size="14.00">ciph_result</text>
</g>
<!-- op1&#45;&gt;op2 -->
<g id="edge7" class="edge">
<title>op1&#45;&gt;op2</title>
<path fill="none" stroke="#f97316" d="M452.04,-61.19C458.1,-60.31 464.13,-59.56 470,-59 503.62,-55.77 512.47,-54.95 546,-59 548.55,-59.31 551.13,-59.66 553.72,-60.05"/>
<polygon fill="#f97316" stroke="#f97316" points="553.36,-63.53 563.8,-61.72 554.51,-56.63 553.36,-63.53"/>
<text text-anchor="middle" x="508" y="-62.8" font-family="Helvetica,sans-Serif" font-size="14.00">ciph_result</text>
</g>
<!-- op1&#45;&gt;op2 -->
<g id="edge8" class="edge">
<title>op1&#45;&gt;op2</title>
<path fill="none" stroke="#dc2626" d="M452.22,-41.51C458.16,-39.72 464.12,-38.18 470,-37 503.12,-30.35 513.03,-29.65 546,-37 548.79,-37.62 551.6,-38.34 554.42,-39.12"/>
<polygon fill="#dc2626" stroke="#dc2626" points="553.38,-42.47 563.97,-42.08 555.45,-35.78 553.38,-42.47"/>
<text text-anchor="middle" x="508" y="-40.8" font-family="Helvetica,sans-Serif" font-size="14.00">ciph_result</text>
</g>
<!-- op3 -->
<g id="node4" class="node">
<title>op3</title>
<path fill="#e5e7eb" stroke="black" d="M968,-148.5C968,-148.5 850,-148.5 850,-148.5 844,-148.5 838,-142.5 838,-136.5 838,-136.5 838,-47.5 838,-47.5 838,-41.5 844,-35.5 850,-35.5 850,-35.5 968,-35.5 968,-35.5 974,-35.5 980,-41.5 980,-47.5 980,-47.5 980,-136.5 980,-136.5 980,-142.5 974,-148.5 968,-148.5"/>
<text text-anchor="middle" x="909" y="-133.3" font-family="Helvetica,sans-Serif" font-size="14.00">op3</text>
<text text-anchor="middle" x="909" y="-118.3" font-family="Helvetica,sans-Serif" font-size="14.00">add_const</text>
<text text-anchor="middle" x="909" y="-103.3" font-family="Helvetica,sans-Serif" font-size="14.00">line 114</text>
<text text-anchor="middle" x="909" y="-88.3" font-family="Helvetica,sans-Serif" font-size="14.00">layer 3</text>
<text text-anchor="middle" x="909" y="-73.3" font-family="Helvetica,sans-Serif" font-size="14.00">cost 1</text>
<text text-anchor="middle" x="909" y="-58.3" font-family="Helvetica,sans-Serif" font-size="14.00">out ciph_result@4</text>
<text text-anchor="middle" x="909" y="-43.3" font-family="Helvetica,sans-Serif" font-size="14.00">in ciph_result@3</text>
</g>
<!-- op2&#45;&gt;op3 -->
<g id="edge9" class="edge">
<title>op2&#45;&gt;op3</title>
<path fill="none" stroke="#1f2937" d="M726.18,-105.17C732.18,-106.3 738.16,-107.27 744,-108 777.51,-112.21 786.36,-111.03 820,-108 822.5,-107.77 825.04,-107.51 827.6,-107.22"/>
<polygon fill="#1f2937" stroke="#1f2937" points="828.07,-110.69 837.55,-105.96 827.19,-103.75 828.07,-110.69"/>
<text text-anchor="middle" x="782" y="-113.8" font-family="Helvetica,sans-Serif" font-size="14.00">ciph_result</text>
</g>
<!-- op2&#45;&gt;op3 -->
<g id="edge10" class="edge">
<title>op2&#45;&gt;op3</title>
<path fill="none" stroke="#2563eb" d="M726.03,-85.75C758.21,-86.85 795.26,-88.13 827.49,-89.23"/>
<polygon fill="#2563eb" stroke="#2563eb" points="827.66,-92.74 837.77,-89.59 827.9,-85.75 827.66,-92.74"/>
<text text-anchor="middle" x="782" y="-91.8" font-family="Helvetica,sans-Serif" font-size="14.00">ciph_result</text>
</g>
<!-- op2&#45;&gt;op3 -->
<g id="edge11" class="edge">
<title>op2&#45;&gt;op3</title>
<path fill="none" stroke="#f97316" d="M726.31,-67.91C755.84,-64.39 789.5,-62.75 820,-67 822.55,-67.35 825.12,-67.76 827.71,-68.22"/>
<polygon fill="#f97316" stroke="#f97316" points="827.27,-71.7 837.76,-70.2 828.62,-64.83 827.27,-71.7"/>
<text text-anchor="middle" x="782" y="-70.8" font-family="Helvetica,sans-Serif" font-size="14.00">ciph_result</text>
</g>
<!-- op2&#45;&gt;op3 -->
<g id="edge12" class="edge">
<title>op2&#45;&gt;op3</title>
<path fill="none" stroke="#dc2626" d="M726.06,-49.25C732.06,-47.56 738.08,-46.11 744,-45 777.2,-38.79 787.23,-36.8 820,-45 822.8,-45.7 825.6,-46.51 828.4,-47.41"/>
<polygon fill="#dc2626" stroke="#dc2626" points="827.29,-50.72 837.88,-50.78 829.64,-44.13 827.29,-50.72"/>
<text text-anchor="middle" x="782" y="-48.8" font-family="Helvetica,sans-Serif" font-size="14.00">ciph_result</text>
</g>
<!-- op4 -->
<g id="node5" class="node">
<title>op4</title>
<path fill="#64748b" stroke="black" d="M1216,-129.5C1216,-129.5 1104,-129.5 1104,-129.5 1098,-129.5 1092,-123.5 1092,-117.5 1092,-117.5 1092,-28.5 1092,-28.5 1092,-22.5 1098,-16.5 1104,-16.5 1104,-16.5 1216,-16.5 1216,-16.5 1222,-16.5 1228,-22.5 1228,-28.5 1228,-28.5 1228,-117.5 1228,-117.5 1228,-123.5 1222,-129.5 1216,-129.5"/>
<text text-anchor="middle" x="1160" y="-114.3" font-family="Helvetica,sans-Serif" font-size="14.00">op4</text>
<text text-anchor="middle" x="1160" y="-99.3" font-family="Helvetica,sans-Serif" font-size="14.00">return</text>
<text text-anchor="middle" x="1160" y="-84.3" font-family="Helvetica,sans-Serif" font-size="14.00">line 115</text>
<text text-anchor="middle" x="1160" y="-69.3" font-family="Helvetica,sans-Serif" font-size="14.00">layer 4</text>
<text text-anchor="middle" x="1160" y="-54.3" font-family="Helvetica,sans-Serif" font-size="14.00">cost 1</text>
<text text-anchor="middle" x="1160" y="-39.3" font-family="Helvetica,sans-Serif" font-size="14.00">out __return__@1</text>
<text text-anchor="middle" x="1160" y="-24.3" font-family="Helvetica,sans-Serif" font-size="14.00">in ciph_result@4</text>
</g>
<!-- op3&#45;&gt;op4 -->
<g id="edge13" class="edge">
<title>op3&#45;&gt;op4</title>
<path fill="none" stroke="#1f2937" d="M980.02,-86.66C1011.56,-84.25 1048.91,-81.4 1081.31,-78.93"/>
<polygon fill="#1f2937" stroke="#1f2937" points="1081.94,-82.39 1091.65,-78.14 1081.41,-75.41 1081.94,-82.39"/>
<text text-anchor="middle" x="1036" y="-87.8" font-family="Helvetica,sans-Serif" font-size="14.00">ciph_result</text>
</g>
<!-- op3&#45;&gt;op4 -->
<g id="edge14" class="edge">
<title>op3&#45;&gt;op4</title>
<path fill="none" stroke="#2563eb" d="M980.01,-64.1C986.03,-62.45 992.08,-61.04 998,-60 1025.06,-55.23 1054.99,-56.02 1081.63,-58.81"/>
<polygon fill="#2563eb" stroke="#2563eb" points="1081.33,-62.29 1091.67,-59.97 1082.14,-55.34 1081.33,-62.29"/>
<text text-anchor="middle" x="1036" y="-63.8" font-family="Helvetica,sans-Serif" font-size="14.00">ciph_result</text>
</g>
</g>
</svg>
