<?xml version="1.0" encoding="UTF-8" standalone="no"?>
<!DOCTYPE svg PUBLIC "-//W3C//DTD SVG 1.1//EN"
 "http://www.w3.org/Graphics/SVG/1.1/DTD/svg11.dtd">
<!-- Generated by graphviz version 2.43.0 (0)
 -->
<!-- Title: hedag_v2 Pages: 1 -->
<svg width="185pt" height="525pt"
 viewBox="0.00 0.00 185.00 525.00" xmlns="http://www.w3.org/2000/svg" xmlns:xlink="http://www.w3.org/1999/xlink">
<g id="graph0" class="graph" transform="scale(1 1) rotate(0) translate(4 521)">
<title>hedag_v2</title>
<polygon fill="white" stroke="transparent" points="-4,4 -4,-521 181,-521 181,4 -4,4"/>
<g id="clust1" class="cluster">
<title>cluster_layer_0</title>
<polygon fill="none" stroke="#d1d5db" points="8,-8 8,-509 169,-509 169,-8 8,-8"/>
<text text-anchor="middle" x="88.5" y="-493.8" font-family="Times,serif" font-size="14.00">layer 0</text>
</g>
<!-- op0 -->
<g id="node1" class="node">
<title>op0</title>
<path fill="#e5e7eb" stroke="black" d="M146.5,-478C146.5,-478 30.5,-478 30.5,-478 24.5,-478 18.5,-472 18.5,-466 18.5,-466 18.5,-392 18.5,-392 18.5,-386 24.5,-380 30.5,-380 30.5,-380 146.5,-380 146.5,-380 152.5,-380 158.5,-386 158.5,-392 158.5,-392 158.5,-466 158.5,-466 158.5,-472 152.5,-478 146.5,-478"/>
<text text-anchor="middle" x="88.5" y="-462.8" font-family="Helvetica,sans-Serif" font-size="14.00">op0</text>
<text text-anchor="middle" x="88.5" y="-447.8" font-family="Helvetica,sans-Serif" font-size="14.00">create_public_key</text>
<text text-anchor="middle" x="88.5" y="-432.8" font-family="Helvetica,sans-Serif" font-size="14.00">line 244</text>
<text text-anchor="middle" x="88.5" y="-417.8" font-family="Helvetica,sans-Serif" font-size="14.00">layer 0</text>
<text text-anchor="middle" x="88.5" y="-402.8" font-family="Helvetica,sans-Serif" font-size="14.00">cost 2</text>
<text text-anchor="middle" x="88.5" y="-387.8" font-family="Helvetica,sans-Serif" font-size="14.00">out public_key@1</text>
</g>
<!-- op1 -->
<g id="node2" class="node">
<title>op1</title>
<path fill="#e5e7eb" stroke="black" d="M144,-362C144,-362 33,-362 33,-362 27,-362 21,-356 21,-350 21,-350 21,-276 21,-276 21,-270 27,-264 33,-264 33,-264 144,-264 144,-264 150,-264 156,-270 156,-276 156,-276 156,-350 156,-350 156,-356 150,-362 144,-362"/>
<text text-anchor="middle" x="88.5" y="-346.8" font-family="Helvetica,sans-Serif" font-size="14.00">op1</text>
<text text-anchor="middle" x="88.5" y="-331.8" font-family="Helvetica,sans-Serif" font-size="14.00">create_relin_keys</text>
<text text-anchor="middle" x="88.5" y="-316.8" font-family="Helvetica,sans-Serif" font-size="14.00">line 245</text>
<text text-anchor="middle" x="88.5" y="-301.8" font-family="Helvetica,sans-Serif" font-size="14.00">layer 0</text>
<text text-anchor="middle" x="88.5" y="-286.8" font-family="Helvetica,sans-Serif" font-size="14.00">cost 2</text>
<text text-anchor="middle" x="88.5" y="-271.8" font-family="Helvetica,sans-Serif" font-size="14.00">out relin_keys@1</text>
</g>
<!-- op2 -->
<g id="node3" class="node">
<title>op2</title>
<path fill="#e5e7eb" stroke="black" d="M149,-246C149,-246 28,-246 28,-246 22,-246 16,-240 16,-234 16,-234 16,-160 16,-160 16,-154 22,-148 28,-148 28,-148 149,-148 149,-148 155,-148 161,-154 161,-160 161,-160 161,-234 161,-234 161,-240 155,-246 149,-246"/>
<text text-anchor="middle" x="88.5" y="-230.8" font-family="Helvetica,sans-Serif" font-size="14.00">op2</text>
<text text-anchor="middle" x="88.5" y="-215.8" font-family="Helvetica,sans-Serif" font-size="14.00">create_galois_keys</text>
<text text-anchor="middle" x="88.5" y="-200.8" font-family="Helvetica,sans-Serif" font-size="14.00">line 246</text>
<text text-anchor="middle" x="88.5" y="-185.8" font-family="Helvetica,sans-Serif" font-size="14.00">layer 0</text>
<text text-anchor="middle" x="88.5" y="-170.8" font-family="Helvetica,sans-Serif" font-size="14.00">cost 2</text>
<text text-anchor="middle" x="88.5" y="-155.8" font-family="Helvetica,sans-Serif" font-size="14.00">out rot_keys@1</text>
</g>
<!-- op3 -->
<g id="node4" class="node">
<title>op3</title>
<path fill="#64748b" stroke="black" d="M144.5,-129.5C144.5,-129.5 32.5,-129.5 32.5,-129.5 26.5,-129.5 20.5,-123.5 20.5,-117.5 20.5,-117.5 20.5,-28.5 20.5,-28.5 20.5,-22.5 26.5,-16.5 32.5,-16.5 32.5,-16.5 144.5,-16.5 144.5,-16.5 150.5,-16.5 156.5,-22.5 156.5,-28.5 156.5,-28.5 156.5,-117.5 156.5,-117.5 156.5,-123.5 150.5,-129.5 144.5,-129.5"/>
<text text-anchor="middle" x="88.5" y="-114.3" font-family="Helvetica,sans-Serif" font-size="14.00">op3</text>
<text text-anchor="middle" x="88.5" y="-99.3" font-family="Helvetica,sans-Serif" font-size="14.00">return</text>
<text text-anchor="middle" x="88.5" y="-84.3" font-family="Helvetica,sans-Serif" font-size="14.00">line 546</text>
<text text-anchor="middle" x="88.5" y="-69.3" font-family="Helvetica,sans-Serif" font-size="14.00">layer 0</text>
<text text-anchor="middle" x="88.5" y="-54.3" font-family="Helvetica,sans-Serif" font-size="14.00">cost 1</text>
<text text-anchor="middle" x="88.5" y="-39.3" font-family="Helvetica,sans-Serif" font-size="14.00">out __return__@1</text>
<text text-anchor="middle" x="88.5" y="-24.3" font-family="Helvetica,sans-Serif" font-size="14.00">in 0@0</text>
</g>
</g>
</svg>
