<?xml version="1.0" encoding="UTF-8" standalone="no"?>
<!DOCTYPE svg PUBLIC "-//W3C//DTD SVG 1.1//EN"
 "http://www.w3.org/Graphics/SVG/1.1/DTD/svg11.dtd">
<!-- Generated by graphviz version 2.43.0 (0)
 -->
<!-- Title: hedag_v2 Pages: 1 -->
<svg width="4085pt" height="177pt"
 viewBox="0.00 0.00 4085.00 177.00" xmlns="http://www.w3.org/2000/svg" xmlns:xlink="http://www.w3.org/1999/xlink">
<g id="graph0" class="graph" transform="scale(1 1) rotate(0) translate(4 173)">
<title>hedag_v2</title>
<polygon fill="white" stroke="transparent" points="-4,4 -4,-173 4081,-173 4081,4 -4,4"/>
<g id="clust1" class="cluster">
<title>cluster_layer_0</title>
<polygon fill="none" stroke="#d1d5db" points="8,-8 8,-161 403,-161 403,-8 8,-8"/>
<text text-anchor="middle" x="205.5" y="-145.8" font-family="Times,serif" font-size="14.00">layer 0</text>
</g>
<g id="clust2" class="cluster">
<title>cluster_layer_1</title>
<polygon fill="none" stroke="#d1d5db" points="736,-8 736,-161 1159,-161 1159,-8 736,-8"/>
<text text-anchor="middle" x="947.5" y="-145.8" font-family="Times,serif" font-size="14.00">layer 1</text>
</g>
<g id="clust3" class="cluster">
<title>cluster_layer_2</title>
<polygon fill="none" stroke="#d1d5db" points="1520,-8 1520,-161 1934,-161 1934,-8 1520,-8"/>
<text text-anchor="middle" x="1727" y="-145.8" font-family="Times,serif" font-size="14.00">layer 2</text>
</g>
<g id="clust4" class="cluster">
<title>cluster_layer_3</title>
<polygon fill="none" stroke="#d1d5db" points="1994,-8 1994,-161 2389,-161 2389,-8 1994,-8"/>
<text text-anchor="middle" x="2191.5" y="-145.8" font-family="Times,serif" font-size="14.00">layer 3</text>
</g>
<g id="clust5" class="cluster">
<title>cluster_layer_4</title>
<polygon fill="none" stroke="#d1d5db" points="2722,-8 2722,-161 3112,-161 3112,-8 2722,-8"/>
<text text-anchor="middle" x="2917" y="-145.8" font-family="Times,serif" font-size="14.00">layer 4</text>
</g>
<g id="clust6" class="cluster">
<title>cluster_layer_5</title>
<polygon fill="none" stroke="#d1d5db" points="3440,-8 3440,-161 3821,-161 3821,-8 3440,-8"/>
<text text-anchor="middle" x="3630.5" y="-145.8" font-family="Times,serif" font-size="14.00">layer 5</text>
</g>
<g id="clust7" class="cluster">
<title>cluster_layer_6</title>
<polygon fill="none" stroke="#d1d5db" points="3917,-8 3917,-161 4069,-161 4069,-8 3917,-8"/>
<text text-anchor="middle" x="3993" y="-145.8" font-family="Times,serif" font-size="14.00">layer 6</text>
</g>
<!-- op0 -->
<g id="node1" class="node">
<title>op0</title>
<path fill="#e5e7eb" stroke="black" d="M383,-129.5C383,-129.5 28,-129.5 28,-129.5 22,-129.5 16,-123.5 16,-117.5 16,-117.5 16,-28.5 16,-28.5 16,-22.5 22,-16.5 28,-16.5 28,-16.5 383,-16.5 383,-16.5 389,-16.5 395,-22.5 395,-28.5 395,-28.5 395,-117.5 395,-117.5 395,-123.5 389,-129.5 383,-129.5"/>
<text text-anchor="middle" x="205.5" y="-114.3" font-family="Helvetica,sans-Serif" font-size="14.00">op0</text>
<text text-anchor="middle" x="205.5" y="-99.3" font-family="Helvetica,sans-Serif" font-size="14.00">decrypt</text>
<text text-anchor="middle" x="205.5" y="-84.3" font-family="Helvetica,sans-Serif" font-size="14.00">line 518</text>
<text text-anchor="middle" x="205.5" y="-69.3" font-family="Helvetica,sans-Serif" font-size="14.00">layer 0</text>
<text text-anchor="middle" x="205.5" y="-54.3" font-family="Helvetica,sans-Serif" font-size="14.00">cost 4</text>
<text text-anchor="middle" x="205.5" y="-39.3" font-family="Helvetica,sans-Serif" font-size="14.00">out decrypt_and_decode__sign_fake_4150__plain@1</text>
<text text-anchor="middle" x="205.5" y="-24.3" font-family="Helvetica,sans-Serif" font-size="14.00">in ciph@0</text>
</g>
<!-- op1 -->
<g id="node2" class="node">
<title>op1</title>
<path fill="#e5e7eb" stroke="black" d="M1139,-129.5C1139,-129.5 756,-129.5 756,-129.5 750,-129.5 744,-123.5 744,-117.5 744,-117.5 744,-28.5 744,-28.5 744,-22.5 750,-16.5 756,-16.5 756,-16.5 1139,-16.5 1139,-16.5 1145,-16.5 1151,-22.5 1151,-28.5 1151,-28.5 1151,-117.5 1151,-117.5 1151,-123.5 1145,-129.5 1139,-129.5"/>
<text text-anchor="middle" x="947.5" y="-114.3" font-family="Helvetica,sans-Serif" font-size="14.00">op1</text>
<text text-anchor="middle" x="947.5" y="-99.3" font-family="Helvetica,sans-Serif" font-size="14.00">decode</text>
<text text-anchor="middle" x="947.5" y="-84.3" font-family="Helvetica,sans-Serif" font-size="14.00">line 520</text>
<text text-anchor="middle" x="947.5" y="-69.3" font-family="Helvetica,sans-Serif" font-size="14.00">layer 1</text>
<text text-anchor="middle" x="947.5" y="-54.3" font-family="Helvetica,sans-Serif" font-size="14.00">cost 1</text>
<text text-anchor="middle" x="947.5" y="-39.3" font-family="Helvetica,sans-Serif" font-size="14.00">out decrypt_and_decode__sign_fake_4150__message@1</text>
<text text-anchor="middle" x="947.5" y="-24.3" font-family="Helvetica,sans-Serif" font-size="14.00">in decrypt_and_decode__sign_fake_4150__plain@1</text>
</g>
<!-- op0&#45;&gt;op1 -->
<g id="edge1" class="edge">
<title>op0&#45;&gt;op1</title>
<path fill="none" stroke="#1f2937" d="M395.25,-88.22C401.23,-88.51 407.16,-88.77 413,-89 552.01,-94.38 586.98,-94.04 726,-89 728.56,-88.91 731.13,-88.81 733.72,-88.7"/>
<polygon fill="#1f2937" stroke="#1f2937" points="733.93,-92.2 743.77,-88.27 733.63,-85.2 733.93,-92.2"/>
<text text-anchor="middle" x="569.5" y="-95.8" font-family="Helvetica,sans-Serif" font-size="14.00">decrypt_and_decode__sign_fake_4150__plain</text>
</g>
<!-- op0&#45;&gt;op1 -->
<g id="edge2" class="edge">
<title>op0&#45;&gt;op1</title>
<path fill="none" stroke="#2563eb" d="M395,-70.15C401.07,-70.09 407.08,-70.04 413,-70 552.11,-68.99 586.89,-69.05 726,-70 728.55,-70.02 731.13,-70.04 733.71,-70.06"/>
<polygon fill="#2563eb" stroke="#2563eb" points="733.72,-73.56 743.74,-70.14 733.77,-66.56 733.72,-73.56"/>
<text text-anchor="middle" x="569.5" y="-73.8" font-family="Helvetica,sans-Serif" font-size="14.00">decrypt_and_decode__sign_fake_4150__plain</text>
</g>
<!-- op0&#45;&gt;op1 -->
<g id="edge3" class="edge">
<title>op0&#45;&gt;op1</title>
<path fill="none" stroke="#0f766e" d="M395.22,-52.07C401.21,-51.67 407.15,-51.31 413,-51 551.92,-43.62 587.06,-44.09 726,-51 728.56,-51.13 731.14,-51.26 733.74,-51.41"/>
<polygon fill="#0f766e" stroke="#0f766e" points="733.61,-54.91 743.8,-52 734.02,-47.92 733.61,-54.91"/>
<text text-anchor="middle" x="569.5" y="-54.8" font-family="Helvetica,sans-Serif" font-size="14.00">sign_fake@4150</text>
</g>
<!-- op2 -->
<g id="node3" class="node">
<title>op2</title>
<path fill="#17becf" stroke="black" d="M1914,-129.5C1914,-129.5 1540,-129.5 1540,-129.5 1534,-129.5 1528,-123.5 1528,-117.5 1528,-117.5 1528,-28.5 1528,-28.5 1528,-22.5 1534,-16.5 1540,-16.5 1540,-16.5 1914,-16.5 1914,-16.5 1920,-16.5 1926,-22.5 1926,-28.5 1926,-28.5 1926,-117.5 1926,-117.5 1926,-123.5 1920,-129.5 1914,-129.5"/>
<text text-anchor="middle" x="1727" y="-114.3" font-family="Helvetica,sans-Serif" font-size="14.00">op2</text>
<text text-anchor="middle" x="1727" y="-99.3" font-family="Helvetica,sans-Serif" font-size="14.00">assign</text>
<text text-anchor="middle" x="1727" y="-84.3" font-family="Helvetica,sans-Serif" font-size="14.00">line 130</text>
<text text-anchor="middle" x="1727" y="-69.3" font-family="Helvetica,sans-Serif" font-size="14.00">layer 2</text>
<text text-anchor="middle" x="1727" y="-54.3" font-family="Helvetica,sans-Serif" font-size="14.00">cost 1</text>
<text text-anchor="middle" x="1727" y="-39.3" font-family="Helvetica,sans-Serif" font-size="14.00">out result@1</text>
<text text-anchor="middle" x="1727" y="-24.3" font-family="Helvetica,sans-Serif" font-size="14.00">in decrypt_and_decode__sign_fake_4150__message@1</text>
</g>
<!-- op1&#45;&gt;op2 -->
<g id="edge4" class="edge">
<title>op1&#45;&gt;op2</title>
<path fill="none" stroke="#1f2937" d="M1151.23,-88.27C1157.22,-88.54 1163.15,-88.79 1169,-89 1320.46,-94.49 1358.55,-94.6 1510,-89 1512.59,-88.9 1515.2,-88.8 1517.82,-88.69"/>
<polygon fill="#1f2937" stroke="#1f2937" points="1518.15,-92.18 1527.99,-88.25 1517.85,-85.19 1518.15,-92.18"/>
<text text-anchor="middle" x="1339.5" y="-96.8" font-family="Helvetica,sans-Serif" font-size="14.00">decrypt_and_decode__sign_fake_4150__message</text>
</g>
<!-- op1&#45;&gt;op2 -->
<g id="edge5" class="edge">
<title>op1&#45;&gt;op2</title>
<path fill="none" stroke="#2563eb" d="M1151.26,-70.14C1157.24,-70.09 1163.16,-70.04 1169,-70 1320.55,-68.97 1358.45,-68.95 1510,-70 1512.58,-70.02 1515.19,-70.04 1517.8,-70.06"/>
<polygon fill="#2563eb" stroke="#2563eb" points="1517.93,-73.56 1527.96,-70.14 1517.99,-66.56 1517.93,-73.56"/>
<text text-anchor="middle" x="1339.5" y="-73.8" font-family="Helvetica,sans-Serif" font-size="14.00">decrypt_and_decode__sign_fake_4150__message</text>
</g>
<!-- op1&#45;&gt;op2 -->
<g id="edge6" class="edge">
<title>op1&#45;&gt;op2</title>
<path fill="none" stroke="#0f766e" d="M1151.2,-52C1157.2,-51.63 1163.14,-51.29 1169,-51 1320.37,-43.47 1358.64,-43.31 1510,-51 1512.55,-51.13 1515.12,-51.27 1517.7,-51.41"/>
<polygon fill="#0f766e" stroke="#0f766e" points="1517.54,-54.91 1527.73,-52.02 1517.96,-47.92 1517.54,-54.91"/>
<text text-anchor="middle" x="1339.5" y="-54.8" font-family="Helvetica,sans-Serif" font-size="14.00">sign_fake@4150</text>
</g>
<!-- op3 -->
<g id="node4" class="node">
<title>op3</title>
<path fill="#e5e7eb" stroke="black" d="M2369,-129.5C2369,-129.5 2014,-129.5 2014,-129.5 2008,-129.5 2002,-123.5 2002,-117.5 2002,-117.5 2002,-28.5 2002,-28.5 2002,-22.5 2008,-16.5 2014,-16.5 2014,-16.5 2369,-16.5 2369,-16.5 2375,-16.5 2381,-22.5 2381,-28.5 2381,-28.5 2381,-117.5 2381,-117.5 2381,-123.5 2375,-129.5 2369,-129.5"/>
<text text-anchor="middle" x="2191.5" y="-114.3" font-family="Helvetica,sans-Serif" font-size="14.00">op3</text>
<text text-anchor="middle" x="2191.5" y="-99.3" font-family="Helvetica,sans-Serif" font-size="14.00">encode</text>
<text text-anchor="middle" x="2191.5" y="-84.3" font-family="Helvetica,sans-Serif" font-size="14.00">line 509</text>
<text text-anchor="middle" x="2191.5" y="-69.3" font-family="Helvetica,sans-Serif" font-size="14.00">layer 3</text>
<text text-anchor="middle" x="2191.5" y="-54.3" font-family="Helvetica,sans-Serif" font-size="14.00">cost 1</text>
<text text-anchor="middle" x="2191.5" y="-39.3" font-family="Helvetica,sans-Serif" font-size="14.00">out encode_and_encrypt__sign_fake_4320__plain@1</text>
<text text-anchor="middle" x="2191.5" y="-24.3" font-family="Helvetica,sans-Serif" font-size="14.00">in result@1</text>
</g>
<!-- op2&#45;&gt;op3 -->
<g id="edge7" class="edge">
<title>op2&#45;&gt;op3</title>
<path fill="none" stroke="#1f2937" d="M1926.15,-73C1947.85,-73 1969.94,-73 1991.64,-73"/>
<polygon fill="#1f2937" stroke="#1f2937" points="1991.92,-76.5 2001.92,-73 1991.92,-69.5 1991.92,-76.5"/>
<text text-anchor="middle" x="1964" y="-76.8" font-family="Helvetica,sans-Serif" font-size="14.00">result</text>
</g>
<!-- op2&#45;&gt;op3 -->
<g id="edge8" class="edge">
<title>op2&#45;&gt;op3</title>
<path fill="none" stroke="#2563eb" d="M1926.04,-53.58C1945.62,-53.08 1965.19,-53.14 1984,-54 1986.56,-54.12 1989.13,-54.24 1991.72,-54.38"/>
<polygon fill="#2563eb" stroke="#2563eb" points="1991.59,-57.87 2001.77,-54.93 1991.97,-50.88 1991.59,-57.87"/>
<text text-anchor="middle" x="1964" y="-57.8" font-family="Helvetica,sans-Serif" font-size="14.00">result</text>
</g>
<!-- op4 -->
<g id="node5" class="node">
<title>op4</title>
<path fill="#e5e7eb" stroke="black" d="M3092,-129.5C3092,-129.5 2742,-129.5 2742,-129.5 2736,-129.5 2730,-123.5 2730,-117.5 2730,-117.5 2730,-28.5 2730,-28.5 2730,-22.5 2736,-16.5 2742,-16.5 2742,-16.5 3092,-16.5 3092,-16.5 3098,-16.5 3104,-22.5 3104,-28.5 3104,-28.5 3104,-117.5 3104,-117.5 3104,-123.5 3098,-129.5 3092,-129.5"/>
<text text-anchor="middle" x="2917" y="-114.3" font-family="Helvetica,sans-Serif" font-size="14.00">op4</text>
<text text-anchor="middle" x="2917" y="-99.3" font-family="Helvetica,sans-Serif" font-size="14.00">encrypt</text>
<text text-anchor="middle" x="2917" y="-84.3" font-family="Helvetica,sans-Serif" font-size="14.00">line 510</text>
<text text-anchor="middle" x="2917" y="-69.3" font-family="Helvetica,sans-Serif" font-size="14.00">layer 4</text>
<text text-anchor="middle" x="2917" y="-54.3" font-family="Helvetica,sans-Serif" font-size="14.00">cost 4</text>
<text text-anchor="middle" x="2917" y="-39.3" font-family="Helvetica,sans-Serif" font-size="14.00">out encode_and_encrypt__sign_fake_4320__ciph@1</text>
<text text-anchor="middle" x="2917" y="-24.3" font-family="Helvetica,sans-Serif" font-size="14.00">in encode_and_encrypt__sign_fake_4320__plain@1</text>
</g>
<!-- op3&#45;&gt;op4 -->
<g id="edge9" class="edge">
<title>op3&#45;&gt;op4</title>
<path fill="none" stroke="#1f2937" d="M2381.25,-88.22C2387.23,-88.51 2393.16,-88.77 2399,-89 2538.01,-94.38 2573,-94.44 2712,-89 2714.56,-88.9 2717.14,-88.79 2719.74,-88.68"/>
<polygon fill="#1f2937" stroke="#1f2937" points="2719.99,-92.17 2729.81,-88.21 2719.66,-85.18 2719.99,-92.17"/>
<text text-anchor="middle" x="2555.5" y="-96.8" font-family="Helvetica,sans-Serif" font-size="14.00">encode_and_encrypt__sign_fake_4320__plain</text>
</g>
<!-- op3&#45;&gt;op4 -->
<g id="edge10" class="edge">
<title>op3&#45;&gt;op4</title>
<path fill="none" stroke="#2563eb" d="M2381,-70.15C2387.07,-70.09 2393.08,-70.04 2399,-70 2538.11,-68.99 2572.89,-68.98 2712,-70 2714.56,-70.02 2717.13,-70.04 2719.72,-70.06"/>
<polygon fill="#2563eb" stroke="#2563eb" points="2719.75,-73.56 2729.78,-70.15 2719.81,-66.56 2719.75,-73.56"/>
<text text-anchor="middle" x="2555.5" y="-73.8" font-family="Helvetica,sans-Serif" font-size="14.00">encode_and_encrypt__sign_fake_4320__plain</text>
</g>
<!-- op3&#45;&gt;op4 -->
<g id="edge11" class="edge">
<title>op3&#45;&gt;op4</title>
<path fill="none" stroke="#0f766e" d="M2381.22,-52.07C2387.21,-51.67 2393.15,-51.31 2399,-51 2537.92,-43.62 2573.09,-43.53 2712,-51 2714.57,-51.14 2717.15,-51.29 2719.75,-51.44"/>
<polygon fill="#0f766e" stroke="#0f766e" points="2719.64,-54.94 2729.84,-52.09 2720.09,-47.96 2719.64,-54.94"/>
<text text-anchor="middle" x="2555.5" y="-54.8" font-family="Helvetica,sans-Serif" font-size="14.00">sign_fake@4320</text>
</g>
<!-- op5 -->
<g id="node6" class="node">
<title>op5</title>
<path fill="#17becf" stroke="black" d="M3801,-129.5C3801,-129.5 3460,-129.5 3460,-129.5 3454,-129.5 3448,-123.5 3448,-117.5 3448,-117.5 3448,-28.5 3448,-28.5 3448,-22.5 3454,-16.5 3460,-16.5 3460,-16.5 3801,-16.5 3801,-16.5 3807,-16.5 3813,-22.5 3813,-28.5 3813,-28.5 3813,-117.5 3813,-117.5 3813,-123.5 3807,-129.5 3801,-129.5"/>
<text text-anchor="middle" x="3630.5" y="-114.3" font-family="Helvetica,sans-Serif" font-size="14.00">op5</text>
<text text-anchor="middle" x="3630.5" y="-99.3" font-family="Helvetica,sans-Serif" font-size="14.00">assign</text>
<text text-anchor="middle" x="3630.5" y="-84.3" font-family="Helvetica,sans-Serif" font-size="14.00">line 136</text>
<text text-anchor="middle" x="3630.5" y="-69.3" font-family="Helvetica,sans-Serif" font-size="14.00">layer 5</text>
<text text-anchor="middle" x="3630.5" y="-54.3" font-family="Helvetica,sans-Serif" font-size="14.00">cost 1</text>
<text text-anchor="middle" x="3630.5" y="-39.3" font-family="Helvetica,sans-Serif" font-size="14.00">out ciph_result@1</text>
<text text-anchor="middle" x="3630.5" y="-24.3" font-family="Helvetica,sans-Serif" font-size="14.00">in encode_and_encrypt__sign_fake_4320__ciph@1</text>
</g>
<!-- op4&#45;&gt;op5 -->
<g id="edge12" class="edge">
<title>op4&#45;&gt;op5</title>
<path fill="none" stroke="#1f2937" d="M3104.19,-88.21C3110.19,-88.5 3116.14,-88.77 3122,-89 3258.78,-94.36 3293.22,-94.48 3430,-89 3432.58,-88.9 3435.18,-88.79 3437.8,-88.67"/>
<polygon fill="#1f2937" stroke="#1f2937" points="3438.13,-92.16 3447.96,-88.18 3437.8,-85.16 3438.13,-92.16"/>
<text text-anchor="middle" x="3276" y="-96.8" font-family="Helvetica,sans-Serif" font-size="14.00">encode_and_encrypt__sign_fake_4320__ciph</text>
</g>
<!-- op4&#45;&gt;op5 -->
<g id="edge13" class="edge">
<title>op4&#45;&gt;op5</title>
<path fill="none" stroke="#2563eb" d="M3104.22,-70.15C3110.22,-70.09 3116.16,-70.04 3122,-70 3258.89,-68.99 3293.11,-68.97 3430,-70 3432.58,-70.02 3435.17,-70.04 3437.78,-70.06"/>
<polygon fill="#2563eb" stroke="#2563eb" points="3437.89,-73.56 3447.92,-70.15 3437.95,-66.56 3437.89,-73.56"/>
<text text-anchor="middle" x="3276" y="-73.8" font-family="Helvetica,sans-Serif" font-size="14.00">encode_and_encrypt__sign_fake_4320__ciph</text>
</g>
<!-- op4&#45;&gt;op5 -->
<g id="edge14" class="edge">
<title>op4&#45;&gt;op5</title>
<path fill="none" stroke="#0f766e" d="M3104.16,-52.09C3110.17,-51.68 3116.13,-51.32 3122,-51 3258.69,-43.65 3293.32,-43.49 3430,-51 3432.59,-51.14 3435.19,-51.29 3437.81,-51.46"/>
<polygon fill="#0f766e" stroke="#0f766e" points="3437.78,-54.96 3447.99,-52.13 3438.24,-47.98 3437.78,-54.96"/>
<text text-anchor="middle" x="3276" y="-54.8" font-family="Helvetica,sans-Serif" font-size="14.00">sign_fake@4320</text>
</g>
<!-- op6 -->
<g id="node7" class="node">
<title>op6</title>
<path fill="#64748b" stroke="black" d="M4049,-129.5C4049,-129.5 3937,-129.5 3937,-129.5 3931,-129.5 3925,-123.5 3925,-117.5 3925,-117.5 3925,-28.5 3925,-28.5 3925,-22.5 3931,-16.5 3937,-16.5 3937,-16.5 4049,-16.5 4049,-16.5 4055,-16.5 4061,-22.5 4061,-28.5 4061,-28.5 4061,-117.5 4061,-117.5 4061,-123.5 4055,-129.5 4049,-129.5"/>
<text text-anchor="middle" x="3993" y="-114.3" font-family="Helvetica,sans-Serif" font-size="14.00">op6</text>
<text text-anchor="middle" x="3993" y="-99.3" font-family="Helvetica,sans-Serif" font-size="14.00">return</text>
<text text-anchor="middle" x="3993" y="-84.3" font-family="Helvetica,sans-Serif" font-size="14.00">line 138</text>
<text text-anchor="middle" x="3993" y="-69.3" font-family="Helvetica,sans-Serif" font-size="14.00">layer 6</text>
<text text-anchor="middle" x="3993" y="-54.3" font-family="Helvetica,sans-Serif" font-size="14.00">cost 1</text>
<text text-anchor="middle" x="3993" y="-39.3" font-family="Helvetica,sans-Serif" font-size="14.00">out __return__@1</text>
<text text-anchor="middle" x="3993" y="-24.3" font-family="Helvetica,sans-Serif" font-size="14.00">in ciph_result@1</text>
</g>
<!-- op5&#45;&gt;op6 -->
<g id="edge15" class="edge">
<title>op5&#45;&gt;op6</title>
<path fill="none" stroke="#1f2937" d="M3813.07,-73C3848.79,-73 3884.45,-73 3914.42,-73"/>
<polygon fill="#1f2937" stroke="#1f2937" points="3914.78,-76.5 3924.78,-73 3914.78,-69.5 3914.78,-76.5"/>
<text text-anchor="middle" x="3869" y="-76.8" font-family="Helvetica,sans-Serif" font-size="14.00">ciph_result</text>
</g>
<!-- op5&#45;&gt;op6 -->
<g id="edge16" class="edge">
<title>op5&#45;&gt;op6</title>
<path fill="none" stroke="#2563eb" d="M3813.23,-51.26C3844.54,-50.14 3876.74,-50.66 3907,-54 3909.66,-54.29 3912.35,-54.64 3915.07,-55.02"/>
<polygon fill="#2563eb" stroke="#2563eb" points="3914.53,-58.48 3924.95,-56.58 3915.62,-51.57 3914.53,-58.48"/>
<text text-anchor="middle" x="3869" y="-57.8" font-family="Helvetica,sans-Serif" font-size="14.00">ciph_result</text>
</g>
</g>
</svg>
